<svg xmlns="http://www.w3.org/2000/svg" xmlns:xlink="http://www.w3.org/1999/xlink" viewBox="0 0 1713.1985 860.91873"><defs><style>.cls-1,.cls-17,.cls-36{fill:none;}.cls-2,.cls-34{fill:#69b42d;}.cls-10,.cls-11,.cls-12,.cls-13,.cls-17,.cls-18,.cls-19,.cls-2,.cls-20,.cls-21,.cls-23,.cls-24,.cls-25,.cls-26,.cls-27,.cls-28,.cls-29,.cls-30,.cls-31,.cls-32,.cls-33,.cls-34,.cls-36,.cls-4,.cls-5,.cls-6,.cls-7,.cls-8,.cls-9{stroke:#000;stroke-miterlimit:10;}.cls-22,.cls-3{fill:#ccc;}.cls-3,.cls-34{opacity:0.3;}.cls-10,.cls-11,.cls-12,.cls-13,.cls-17,.cls-18,.cls-19,.cls-20,.cls-21,.cls-23,.cls-24,.cls-25,.cls-26,.cls-27,.cls-28,.cls-29,.cls-30,.cls-31,.cls-32,.cls-33,.cls-4,.cls-5,.cls-6,.cls-7,.cls-8,.cls-9{stroke-width:0.85039px;}.cls-4{fill:url(#Sfumatura_senza_nome_34);}.cls-5{fill:url(#Sfumatura_senza_nome_34-2);}.cls-6{fill:url(#Sfumatura_senza_nome_34-3);}.cls-7{fill:url(#Sfumatura_senza_nome_34-4);}.cls-8{fill:url(#Sfumatura_senza_nome_34-5);}.cls-9{fill:url(#Sfumatura_senza_nome_34-6);}.cls-10{fill:url(#Sfumatura_senza_nome_34-7);}.cls-11{fill:url(#Sfumatura_senza_nome_34-8);}.cls-12{fill:url(#Sfumatura_senza_nome_34-9);}.cls-13{fill:url(#Sfumatura_senza_nome_34-10);}.cls-14{clip-path:url(#clip-path);}.cls-15{fill:url(#Sfumatura_senza_nome_29);}.cls-16{fill:url(#Sfumatura_senza_nome_22);}.cls-18{fill:url(#Sfumatura_senza_nome_34-11);}.cls-19{fill:url(#Sfumatura_senza_nome_34-12);}.cls-20{fill:url(#Sfumatura_senza_nome_34-13);}.cls-21{fill:url(#Sfumatura_senza_nome_34-14);}.cls-23{fill:url(#Sfumatura_senza_nome_34-15);}.cls-24{fill:url(#Sfumatura_senza_nome_34-16);}.cls-25{fill:url(#Sfumatura_senza_nome_34-17);}.cls-26{fill:url(#Sfumatura_senza_nome_34-18);}.cls-27{fill:url(#Sfumatura_senza_nome_34-19);}.cls-28{fill:url(#Sfumatura_senza_nome_34-20);}.cls-29{fill:url(#Sfumatura_senza_nome_34-21);}.cls-30{fill:url(#Sfumatura_senza_nome_34-22);}.cls-31{fill:url(#Sfumatura_senza_nome_34-23);}.cls-32{fill:url(#Sfumatura_senza_nome_34-24);}.cls-33{fill:url(#Sfumatura_senza_nome_34-25);}.cls-35{clip-path:url(#clip-path-2);}.cls-36{stroke-width:2.83465px;}</style><radialGradient id="Sfumatura_senza_nome_34" cx="1160.12927" cy="155.63883" r="32.20682" gradientUnits="userSpaceOnUse"><stop offset="0" stop-color="#f2e6b1"/><stop offset="1" stop-color="#e1eee1"/><stop offset="1" stop-color="#f2e6b1" stop-opacity="0.3"/></radialGradient><radialGradient id="Sfumatura_senza_nome_34-2" cx="1230.48389" cy="152.92804" r="32.20682" xlink:href="#Sfumatura_senza_nome_34"/><radialGradient id="Sfumatura_senza_nome_34-3" cx="1299.24333" cy="225.77976" r="32.20682" xlink:href="#Sfumatura_senza_nome_34"/><radialGradient id="Sfumatura_senza_nome_34-4" cx="1258.58557" cy="284.03802" r="32.20682" xlink:href="#Sfumatura_senza_nome_34"/><radialGradient id="Sfumatura_senza_nome_34-5" cx="1088.19594" cy="152.92804" r="32.20682" xlink:href="#Sfumatura_senza_nome_34"/><radialGradient id="Sfumatura_senza_nome_34-6" cx="1299.24333" cy="155.63883" r="32.20682" xlink:href="#Sfumatura_senza_nome_34"/><radialGradient id="Sfumatura_senza_nome_34-7" cx="1155.9695" cy="225.77976" r="32.20682" xlink:href="#Sfumatura_senza_nome_34"/><radialGradient id="Sfumatura_senza_nome_34-8" cx="1088.19594" cy="222.25984" r="32.20682" xlink:href="#Sfumatura_senza_nome_34"/><radialGradient id="Sfumatura_senza_nome_34-9" cx="1184.63584" cy="288.94435" r="32.20682" xlink:href="#Sfumatura_senza_nome_34"/><radialGradient id="Sfumatura_senza_nome_34-10" cx="1115.59383" cy="286.94435" r="32.20682" xlink:href="#Sfumatura_senza_nome_34"/><clipPath id="clip-path" transform="translate(10.35963 -2.625)"><path class="cls-1" d="M461.21411,230.69584a8.42119,8.42119,0,0,0-.01638-16.07322L355.08525,183.17351h0l-2.49477-2.80372H331.71735a44.92139,44.92139,0,0,1-44.89785-43.64064c0-69.35981-56.23942-125.61869-125.7364-125.94221V10.7794H15.35584a15,15,0,0,0-15,15.00535L.37438,77.74717a15,15,0,0,0,15,14.99465H160.48207a44.07371,44.07371,0,0,1,42.88722,43.98733h-.2088a128.01146,128.01146,0,0,0,28.5808,80.81841,8.39114,8.39114,0,0,1,0,10.56076,128.01146,128.01146,0,0,0-28.5808,80.81841v.00016a44.41464,44.41464,0,0,1-43.14834,44.39139H8.4212a8.42119,8.42119,0,0,0-8.42106,8.469l.37424,65.87293a8.42119,8.42119,0,0,0,8.42106,8.37335H160.48207v-.006a127.10337,127.10337,0,0,0,126.63671-127.1007v-.00016h-.29928a44.92139,44.92139,0,0,1,44.89785-43.64064v.00754l23.3679-2.835h0Z"/></clipPath><linearGradient id="Sfumatura_senza_nome_29" x1="13.80471" y1="456.50764" x2="465.91601" y2="195.48107" gradientUnits="userSpaceOnUse"><stop offset="0" stop-color="#f2e6b1"/><stop offset="1" stop-color="#f2e6b1" stop-opacity="0.3"/></linearGradient><linearGradient id="Sfumatura_senza_nome_22" x1="16.56402" y1="-15.65186" x2="466.31019" y2="244.00921" gradientUnits="userSpaceOnUse"><stop offset="0" stop-color="#b4d3b2"/><stop offset="1" stop-color="#b4d3b2" stop-opacity="0.3"/></linearGradient><radialGradient id="Sfumatura_senza_nome_34-11" cx="538.12863" cy="219.62438" r="32.20682" xlink:href="#Sfumatura_senza_nome_34"/><radialGradient id="Sfumatura_senza_nome_34-12" cx="643.19855" cy="219.62438" r="32.20682" xlink:href="#Sfumatura_senza_nome_34"/><radialGradient id="Sfumatura_senza_nome_34-13" cx="748.26845" cy="219.62438" r="32.20682" xlink:href="#Sfumatura_senza_nome_34"/><radialGradient id="Sfumatura_senza_nome_34-14" cx="853.33836" cy="219.62438" r="32.20682" xlink:href="#Sfumatura_senza_nome_34"/><radialGradient id="Sfumatura_senza_nome_34-15" cx="1519.23243" cy="219.32022" r="32.20682" xlink:href="#Sfumatura_senza_nome_34"/><radialGradient id="Sfumatura_senza_nome_34-16" cx="1613.74764" cy="222.25984" r="32.20682" xlink:href="#Sfumatura_senza_nome_34"/><radialGradient id="Sfumatura_senza_nome_34-17" cx="1667.82467" cy="363.89552" r="32.20682" xlink:href="#Sfumatura_senza_nome_34"/><radialGradient id="Sfumatura_senza_nome_34-18" cx="1667.82467" cy="595.88425" r="32.20682" xlink:href="#Sfumatura_senza_nome_34"/><radialGradient id="Sfumatura_senza_nome_34-19" cx="1624.17524" cy="664.24301" r="32.20682" xlink:href="#Sfumatura_senza_nome_34"/><radialGradient id="Sfumatura_senza_nome_34-20" cx="1667.82467" cy="519.81863" r="32.20682" xlink:href="#Sfumatura_senza_nome_34"/><radialGradient id="Sfumatura_senza_nome_34-21" cx="1543.66709" cy="667.60782" r="32.20682" xlink:href="#Sfumatura_senza_nome_34"/><radialGradient id="Sfumatura_senza_nome_34-22" cx="1378.36757" cy="667.60782" r="32.20682" xlink:href="#Sfumatura_senza_nome_34"/><radialGradient id="Sfumatura_senza_nome_34-23" cx="1290.13668" cy="696.44983" r="32.20682" xlink:href="#Sfumatura_senza_nome_34"/><radialGradient id="Sfumatura_senza_nome_34-24" cx="1220.38305" cy="752.70142" r="32.20682" xlink:href="#Sfumatura_senza_nome_34"/><radialGradient id="Sfumatura_senza_nome_34-25" cx="1155.9695" cy="801.6369" r="32.20682" xlink:href="#Sfumatura_senza_nome_34"/><clipPath id="clip-path-2" transform="translate(10.35963 -2.625)"><path class="cls-1" d="M745.30528,557.60364l-1.0591,146.12044a58.03084,58.03084,0,0,0,10.25373,33.873l0,0c11.938,17.35088,37.98894,17.27456,49.82125-.146l.5607-.8255a58.04941,58.04941,0,0,0,10.05451-31.66018L816.016,557.60364Z"/></clipPath></defs><g id="Livello_2" data-name="Livello 2"><g id="Livello_1-2" data-name="Livello 1"><circle class="cls-2" cx="1203.92793" cy="572.02342" r="32.20682"/><rect class="cls-3" x="1049.04673" y="113.68083" width="286.57872" height="209.87353" rx="15"/><circle class="cls-2" cx="1226.37875" cy="220.78142" r="32.20682"/><circle class="cls-4" cx="1160.12927" cy="155.63883" r="32.20682"/><circle class="cls-5" cx="1230.48389" cy="152.92804" r="32.20682"/><circle class="cls-6" cx="1299.24333" cy="225.77976" r="32.20682"/><circle class="cls-7" cx="1258.58557" cy="284.03802" r="32.20682"/><circle class="cls-8" cx="1088.19594" cy="152.92804" r="32.20682"/><circle class="cls-9" cx="1299.24333" cy="155.63883" r="32.20682"/><rect x="1068.65227" y="108.01091" width="247.36523" height="5.66992"/><rect x="1068.65343" y="323.55436" width="247.36523" height="5.66992"/><circle class="cls-10" cx="1155.9695" cy="225.77976" r="32.20682"/><circle class="cls-11" cx="1088.19594" cy="222.25984" r="32.20682"/><circle class="cls-12" cx="1184.63584" cy="288.94435" r="32.20682"/><circle class="cls-13" cx="1115.59383" cy="286.94435" r="32.20682"/><polyline points="916.811 259.412 916.811 265.082 485.528 265.082 485.528 247.789 450.362 247.789 450.362 388.697 444.692 388.697 444.692 242.119 491.198 242.119 491.198 259.412 911.141 259.412"/><polyline points="911.141 180.166 491.198 180.166 491.198 196.173 444.692 196.173 444.692 52.866 450.362 52.866 450.362 190.503 485.528 190.503 485.528 174.496 916.811 174.496 916.811 180.166"/><g class="cls-14"><rect class="cls-15" y="219.39153" width="479.72072" height="213.20565"/><rect class="cls-16" x="3.1535" y="7.57585" width="476.56722" height="213.20565"/></g><path d="M355.08525,265.87175v-3.41309l-21.708-.00781a47.37212,47.37212,0,0,0-47.43359,46.47559c0,68.27344-55.542,124.01953-123.8125,124.2666l-141.77637.00586v5.66992H162.14189l2.835-.00586v-.041c70.084-1.76465,126.63672-59.45215,126.63574-129.81543A41.71271,41.71271,0,0,1,332.554,268.12859h16.86133V391.322h5.66992V265.87175Z" transform="translate(10.35963 -2.625)"/><path d="M19.98076,356.153v-5.66992h141.6914a41.34526,41.34526,0,0,0,40.31348-41.55664,131.68534,131.68534,0,0,1,29.21289-82.60156,5.58729,5.58729,0,0,0,0-6.99415,131.68534,131.68534,0,0,1-29.21289-82.60156,40.91845,40.91845,0,0,0-39.92383-41.15332l-138.19726.001a2.835,2.835,0,0,1-2.835-2.83495h0a2.835,2.835,0,0,1,2.83494-2.83494H162.14189a46.577,46.577,0,0,1,45.51367,46.82226,126.00159,126.00159,0,0,0,27.94922,79.03516,11.28088,11.28088,0,0,1,0,14.12695,126.00159,126.00159,0,0,0-27.94922,79.03516A47.00306,47.00306,0,0,1,161.75224,356.152Z" transform="translate(10.35963 -2.625)"/><path d="M355.08525,55.49089h-5.66992v122.02l-16.03809.02393a41.84841,41.84841,0,0,1-42.0625-40.80567A128.9672,128.9672,0,0,0,165.57841,7.9948V7.944H23.84111a2.835,2.835,0,0,0-2.835,2.83495h0a2.835,2.835,0,0,0,2.835,2.835H161.05693l1.67285.00781a123.30424,123.30424,0,0,1,122.916,123.1875,47.509,47.509,0,0,0,47.73535,46.39551l21.7041-.03125v-2.22559h0Z" transform="translate(10.35963 -2.625)"/><path class="cls-3" d="M480.83818,182.7907v16.00683H434.33232V41.78239a15.50781,15.50781,0,0,0-15.50781-15.50781H370.08525a15,15,0,0,0-15,15V183.17351l79.24707,23.48681,26.86548,7.96228a8.42123,8.42123,0,0,1,.01636,16.07325l-26.88184,8.04529-79.24707,23.71752V395.92833a15,15,0,0,0,15,15h52.44116a11.80592,11.80592,0,0,0,11.80591-11.80591V244.74382h46.50586v17.293H911.05741a15,15,0,0,0,15-15V197.7907a15,15,0,0,0-15-15Z" transform="translate(10.35963 -2.625)"/><path class="cls-17" d="M355.08525,262.45866l106.12867-32.345a8.421,8.421,0,0,0-.01611-16.073L355.08525,183.17351" transform="translate(10.35963 -2.625)"/><circle class="cls-18" cx="538.12863" cy="219.62438" r="32.20682"/><circle class="cls-19" cx="643.19855" cy="219.62438" r="32.20682"/><circle class="cls-20" cx="748.26845" cy="219.62438" r="32.20682"/><circle class="cls-21" cx="853.33836" cy="219.62438" r="32.20682"/><path class="cls-3" d="M1581.18359,181.62882l-128.28979.3313a15.00069,15.00069,0,0,0-15.00049,15l-.00073,49.07629a15,15,0,0,0,15,15.00037h128.291c18.63428,0,36.57764,18.79467,36.57764,37.42871v295.6748c0,18.63428-17.79492,36.57568-36.42871,36.57568l-256.06421.38428L1132.937,479.07205a13.69823,13.69823,0,0,0-19.20825,2.21106l-28.38867,35.63514a15,15,0,0,0,2.38574,21.07861L1254.689,671.00846,1089.2373,802.81558a15,15,0,0,0-2.38549,21.07862l27.08227,33.99536a15,15,0,0,0,21.03467,2.42065L1324.46387,710.506l256.86865-.3789c65.48828-.15723,115.83643-50.46143,115.83643-115.98682l.00341-26.10791V298.46549C1697.01514,232.97684,1646.709,181.62882,1581.18359,181.62882Z" transform="translate(10.35963 -2.625)"/><polygon class="cls-22" points="1475.947 566.725 1483.755 566.725 1483.755 504.058 1443.414 504.058 1443.414 566.725 1451.222 566.725 1451.222 580.575 1475.947 580.575 1475.947 566.725"/><path d="M1468.42188,586.03482h-30.39454V572.18521h-7.80859V503.8483h46.01074v68.33691h-7.80761Zm-24.72461-5.66992H1462.752V566.51529h7.80762V509.51822h-34.6709v56.99707h7.8086Z" transform="translate(10.35963 -2.625)"/><circle class="cls-23" cx="1519.23243" cy="219.32022" r="32.20682"/><circle class="cls-24" cx="1613.74764" cy="222.25984" r="32.20682"/><circle class="cls-2" cx="1667.4647" cy="284.03802" r="32.20682"/><circle class="cls-25" cx="1667.82467" cy="363.89552" r="32.20682"/><circle class="cls-2" cx="1667.82467" cy="443.75301" r="32.20682"/><circle class="cls-26" cx="1667.82467" cy="595.88425" r="32.20682"/><circle class="cls-27" cx="1624.17524" cy="664.24301" r="32.20682"/><circle class="cls-2" cx="1463.58413" cy="667.60782" r="32.20682"/><circle class="cls-28" cx="1667.82467" cy="519.81863" r="32.20682"/><path d="M1581.17969,630.716a36.62015,36.62015,0,0,0,36.57812-36.57763V421.29666h.00342V297.6149a36.61975,36.61975,0,0,0-36.57764-36.57812H1457.50073v5.66992h123.68286a30.94286,30.94286,0,0,1,30.90772,30.9082V421.29666h-.00342V594.13834a30.94325,30.94325,0,0,1-30.9082,30.90771l-253.96143.39136L1140.97388,478.55033l-3.533,4.43444,187.67187,148.12256Z" transform="translate(10.35963 -2.625)"/><polygon points="1101.849 538.038 1098.317 542.473 1256.119 668.185 1099.635 792.846 1103.219 797.242 1265.217 668.185 1101.849 538.038"/><path d="M1702.83838,297.611h.00049a121.793,121.793,0,0,0-121.65528-121.65527H1457.50171v5.66992h123.68188A116.11582,116.11582,0,0,1,1697.169,297.61075h-.00049V421.29337h.00049v172.845a116.116,116.116,0,0,1-115.98536,115.98535v-.00049l-256.06787.39136L1138.80908,857.54532l3.48169,4.47266,184.92359-145.8335,253.96923-.39136v.00049a121.79323,121.79323,0,0,0,121.65528-121.65527v-172.845h-.00049Z" transform="translate(10.35963 -2.625)"/><circle class="cls-29" cx="1543.66709" cy="667.60782" r="32.20682"/><circle class="cls-30" cx="1378.36757" cy="667.60782" r="32.20682"/><circle class="cls-31" cx="1290.13668" cy="696.44983" r="32.20682"/><circle class="cls-32" cx="1220.38305" cy="752.70142" r="32.20682"/><circle class="cls-33" cx="1155.9695" cy="801.6369" r="32.20682"/><rect class="cls-34" x="1454.0569" y="583.40982" width="18.66031" height="38.93204"/><g class="cls-35"><rect class="cls-3" x="742.21891" y="631.26865" width="96.53559" height="120.00531"/></g><path d="M780.02051,751.3981a32.77935,32.77935,0,0,1-27.208-14.45605,62.44225,62.44225,0,0,1-10.73926-36.13965l1.0791-151.64062H819.5332l-1.10058,152.97168a62.62757,62.62757,0,0,1-10.53125,33.80371l-.56055.84082a32.7818,32.7818,0,0,1-27.2207,14.62011ZM748.78125,554.8317l-1.03906,146.03711a56.81968,56.81968,0,0,0,9.76758,32.89941,26.77126,26.77126,0,0,0,22.50683,11.96094c.0293,0,.05762,0,.08692-.001a26.76846,26.76846,0,0,0,22.5205-12.09472l.56055-.84083a56.95459,56.95459,0,0,0,9.5791-30.72558l1.0586-147.23535Z" transform="translate(10.35963 -2.625)"/><circle class="cls-2" cx="1093.97501" cy="485.36453" r="22.49294"/><circle class="cls-2" cx="1036.00852" cy="448.66269" r="20.51398"/><circle class="cls-2" cx="966.01177" cy="435.92676" r="18.53503"/><circle class="cls-2" cx="906.53443" cy="443.44705" r="16.55608"/><circle class="cls-2" cx="867.46663" cy="462.08122" r="14.88456"/><circle class="cls-2" cx="834.85033" cy="492.39693" r="13.21304"/><circle class="cls-2" cx="809.96673" cy="530.97797" r="11.54152"/><circle class="cls-2" cx="794.09703" cy="574.40816" r="9.87"/><circle class="cls-2" cx="788.52242" cy="619.27131" r="8.19848"/><circle class="cls-2" cx="792.16168" cy="670.02009" r="8.19848"/><circle class="cls-2" cx="812.94626" cy="662.58085" r="8.19848"/><circle class="cls-2" cx="811.04862" cy="683.54674" r="8.19848"/><circle class="cls-2" cx="791.14824" cy="690.22675" r="8.19848"/><circle class="cls-2" cx="771.48962" cy="687.17628" r="8.19848"/><circle class="cls-2" cx="771.48962" cy="707.39098" r="8.19848"/><circle class="cls-2" cx="790.48671" cy="709.67417" r="8.19848"/><circle class="cls-2" cx="811.04862" cy="707.20277" r="8.19848"/><circle class="cls-2" cx="779.6881" cy="727.60568" r="8.19848"/><circle class="cls-2" cx="800.36016" cy="727.60568" r="8.19848"/><circle class="cls-2" cx="771.48962" cy="666.21039" r="8.19848"/><circle class="cls-2" cx="792.16168" cy="649.81343" r="8.19848"/><circle class="cls-2" cx="811.04862" cy="641.61496" r="8.19848"/><circle class="cls-2" cx="771.48962" cy="645.24449" r="8.19848"/><rect x="740.77662" y="546.53678" width="100.76367" height="5.66992"/><path d="M1337.43408,453.36621l.874-1.26465a7.971,7.971,0,0,0,4.85156,1.51758c1.88574,0,2.80566-.78223,2.80566-1.72461,0-.85058-.4375-1.44824-3.47265-2.06933-2.91993-.59766-4.36914-1.58692-4.36914-3.26563,0-1.79395,1.58691-3.17285,4.6455-3.17285a8.388,8.388,0,0,1,4.50684,1.42578l-.91992,1.21875a6.59422,6.59422,0,0,0-3.74805-1.17285c-1.88574,0-2.5752.75879-2.5752,1.60937,0,.96582.96583,1.37989,3.26465,1.86231,3.70215.80469,4.59961,1.72461,4.59961,3.44922,0,1.8164-1.77051,3.335-4.96679,3.335A9.82526,9.82526,0,0,1,1337.43408,453.36621Z" transform="translate(10.35963 -2.625)"/><path d="M1356.84424,445.20312h-5.17383v-1.541h7.083v11.17578h-1.90918Zm-.75879-5.35839a1.5183,1.5183,0,1,1,1.51758,1.47168A1.43807,1.43807,0,0,1,1356.08545,439.84473Z" transform="translate(10.35963 -2.625)"/><path d="M1365.05615,456.88477a3.09539,3.09539,0,0,1,1.83985-2.4834v-.09278a2.02343,2.02343,0,0,1-1.14942-1.83886,2.71705,2.71705,0,0,1,1.333-2.09278v-.09179a3.56237,3.56237,0,0,1-1.37891-2.89746,4.1,4.1,0,0,1,4.39161-4.001,4.55567,4.55567,0,0,1,1.65625.27539h4.62109v1.541h-2.89649a3.37377,3.37377,0,0,1,.94239,2.25293c0,2.39161-1.90821,3.84083-4.32324,3.84083a4.83569,4.83569,0,0,1-1.88575-.41407,1.53852,1.53852,0,0,0-.873,1.28809c0,.873.85058,1.28711,2.32226,1.28711h2.50586c2.875,0,4.25488.73633,4.25488,2.62207,0,2.0918-2.415,3.9082-6.209,3.9082C1366.94189,459.98828,1365.05615,458.8623,1365.05615,456.88477Zm9.49707-.50586c0-1.0586-.85058-1.35743-2.55176-1.35743h-2.18457a6.33989,6.33989,0,0,1-1.70214-.18359c-1.05762.5752-1.42579,1.21875-1.42579,1.86231,0,1.17285,1.26465,1.90918,3.65625,1.90918C1372.94385,458.60938,1374.55322,457.52832,1374.55322,456.37891Zm-1.88574-8.99121a2.5761,2.5761,0,1,0-2.57519,2.64453A2.52632,2.52632,0,0,0,1372.66748,447.3877Z" transform="translate(10.35963 -2.625)"/><path d="M1379.33936,443.66211h1.56347l.16113,1.88574h.0918a5.79209,5.79209,0,0,1,4.208-2.16113c2.64453,0,3.86328,1.56348,3.86328,4.50683v6.94434h-1.9082v-6.69141c0-2.11523-.73633-3.10449-2.55274-3.10449-1.334,0-2.23047.667-3.51855,2.001v7.79492h-1.9082Z" transform="translate(10.35963 -2.625)"/><path d="M1392.84033,451.94043c0-2.50684,2.34571-3.72559,8.11719-4.18457a2.65278,2.65278,0,0,0-2.9668-2.80566,7.78134,7.78134,0,0,0-3.90918,1.334l-.75879-1.28809a9.79139,9.79139,0,0,1,4.99024-1.60937c3.05859,0,4.55273,1.8164,4.55273,4.59863v6.85254h-1.58691l-.16016-1.51758h-.06933a7.5141,7.5141,0,0,1-4.39161,1.79395C1394.56494,455.11426,1392.84033,453.94141,1392.84033,451.94043Zm8.11719-.02246v-2.89746c-4.7832.36719-6.23145,1.31054-6.23145,2.78222,0,1.26465,1.14942,1.77051,2.4375,1.77051A6.093,6.093,0,0,0,1400.95752,451.918Z" transform="translate(10.35963 -2.625)"/><path d="M1410.45752,451.08984v-11.084h-3.95606v-1.54h5.86426v12.76172a2.01739,2.01739,0,0,0,2.207,2.2998,5.04892,5.04892,0,0,0,2.09278-.50586l.4834,1.42579a6.79424,6.79424,0,0,1-2.98926.667C1411.76807,455.11426,1410.45752,453.73438,1410.45752,451.08984Z" transform="translate(10.35963 -2.625)"/><path d="M1448.36279,449.27344c0-3.63379,2.41407-5.88672,5.0586-5.88672a4.79592,4.79592,0,0,1,3.35742,1.42578h.0459l-.0918-2.04688v-4.2998h1.9082v16.37207h-1.56347l-.16114-1.47168h-.06836a5.37134,5.37134,0,0,1-3.65625,1.748C1450.29443,455.11426,1448.36279,452.99805,1448.36279,449.27344Zm8.37012,2.57519v-5.56445a4.14354,4.14354,0,0,0-2.9209-1.28809c-1.93164,0-3.49512,1.70118-3.49512,4.25391,0,2.668,1.24219,4.25391,3.28809,4.25391A4.22052,4.22052,0,0,0,1456.73291,451.84863Z" transform="translate(10.35963 -2.625)"/><path d="M1462.34619,449.22754a5.61891,5.61891,0,0,1,5.70313-5.84082c3.21875,0,5.10449,2.0918,5.10449,5.24219a7.76891,7.76891,0,0,1-.0918,1.15039h-9.45117v-1.47168h8.32422l-.48242.52832c0-2.64453-1.31055-3.95508-3.35743-3.95508-2.06933,0-3.86328,1.56348-3.86328,4.34668a4.05515,4.05515,0,0,0,4.36914,4.36816,6.08337,6.08337,0,0,0,3.40332-1.05761l.68946,1.24218a7.66049,7.66049,0,0,1-4.32324,1.334A5.65891,5.65891,0,0,1,1462.34619,449.22754Z" transform="translate(10.35963 -2.625)"/><path d="M1479.31982,450.49219v-5.28907H1476.146v-1.42578l3.24218-.11523.25293-3.58691h1.58692v3.58691h5.47265v1.541H1481.228v5.31153c0,2.001.667,3.03515,2.82812,3.03515a7.35121,7.35121,0,0,0,2.668-.50585l.41406,1.40332a9.76692,9.76692,0,0,1-3.49609.667C1480.37744,455.11426,1479.31982,453.251,1479.31982,450.49219Z" transform="translate(10.35963 -2.625)"/><path d="M1489.9458,449.22754a5.61891,5.61891,0,0,1,5.70313-5.84082c3.21875,0,5.10449,2.0918,5.10449,5.24219a7.76891,7.76891,0,0,1-.0918,1.15039h-9.45117v-1.47168h8.32422l-.48242.52832c0-2.64453-1.31055-3.95508-3.35743-3.95508-2.06933,0-3.86328,1.56348-3.86328,4.34668a4.05515,4.05515,0,0,0,4.36914,4.36816,6.08337,6.08337,0,0,0,3.40332-1.05761l.68946,1.24218a7.6605,7.6605,0,0,1-4.32325,1.334A5.65891,5.65891,0,0,1,1489.9458,449.22754Z" transform="translate(10.35963 -2.625)"/><path d="M1504.022,449.27344c0-3.748,2.85157-5.88672,6.23145-5.88672a5.68061,5.68061,0,0,1,4.07031,1.63183l-.94336,1.21875a4.61264,4.61264,0,0,0-3.05762-1.26464,4.1041,4.1041,0,0,0-4.34668,4.30078,4.05614,4.05614,0,0,0,4.30079,4.2539,5.3148,5.3148,0,0,0,3.44921-1.40332l.85059,1.24219a6.65734,6.65734,0,0,1-4.43848,1.748C1506.64307,455.11426,1504.022,452.97559,1504.022,449.27344Z" transform="translate(10.35963 -2.625)"/><path d="M1520.71924,450.49219v-5.28907h-3.17383v-1.42578l3.24219-.11523.25293-3.58691h1.58691v3.58691h5.47266v1.541h-5.47266v5.31153c0,2.001.667,3.03515,2.82813,3.03515a7.35125,7.35125,0,0,0,2.668-.50585l.41406,1.40332a9.767,9.767,0,0,1-3.4961.667C1521.77686,455.11426,1520.71924,453.251,1520.71924,450.49219Z" transform="translate(10.35963 -2.625)"/><path d="M1537.0249,445.20312h-5.17383v-1.541h7.083v11.17578h-1.90918Zm-.75879-5.35839a1.5183,1.5183,0,1,1,1.51758,1.47168A1.43807,1.43807,0,0,1,1536.26611,439.84473Z" transform="translate(10.35963 -2.625)"/><path d="M1544.96143,449.27344c0-3.748,2.57519-5.88672,5.51855-5.88672s5.51856,2.13867,5.51856,5.88672a5.52745,5.52745,0,1,1-11.03711,0Zm9.083,0c0-2.57617-1.42578-4.30078-3.56445-4.30078s-3.56445,1.72461-3.56445,4.30078c0,2.55176,1.42578,4.2539,3.56445,4.2539S1554.04443,451.8252,1554.04443,449.27344Z" transform="translate(10.35963 -2.625)"/><path d="M1559.52,443.66211h1.56348l.16113,1.88574h.0918a5.79207,5.79207,0,0,1,4.208-2.16113c2.64453,0,3.86328,1.56348,3.86328,4.50683v6.94434h-1.9082v-6.69141c0-2.11523-.73633-3.10449-2.55273-3.10449-1.334,0-2.23047.667-3.51856,2.001v7.79492H1559.52Z" transform="translate(10.35963 -2.625)"/><path d="M1336.76709,478.52832c0-4.3457,6.50781-5.19727,6.50781-8.43945,0-.873-.36816-1.65528-1.37988-1.65528-1.05762,0-1.67871.94239-1.67871,2.18457,0,2.82813,3.01269,6.57618,5.81738,8.71485a9.56231,9.56231,0,0,0,3.03613,1.79394l-.52929,1.58692a11.23969,11.23969,0,0,1-3.65625-2.09278c-3.21973-2.57519-6.32324-6.876-6.32324-9.957a3.33956,3.33956,0,0,1,3.31054-3.58691,2.75326,2.75326,0,0,1,2.94336,2.98926c0,3.748-6.208,4.96679-6.208,8.34668a2.74836,2.74836,0,0,0,2.89746,2.78222,4.42031,4.42031,0,0,0,3.17286-1.77051,12.13109,12.13109,0,0,0,2.46093-5.12792h1.77051a16.60135,16.60135,0,0,1-2.89746,6.04785,6.09227,6.09227,0,0,1-4.7373,2.36914A4.174,4.174,0,0,1,1336.76709,478.52832Z" transform="translate(10.35963 -2.625)"/><path d="M1364.78076,476.87305c0-3.63379,2.41406-5.88672,5.0586-5.88672a4.79592,4.79592,0,0,1,3.35742,1.42578h.0459l-.0918-2.04688v-4.2998h1.9082V482.4375h-1.56347l-.16114-1.47168h-.06836a5.37134,5.37134,0,0,1-3.65625,1.748C1366.7124,482.71387,1364.78076,480.59766,1364.78076,476.87305Zm8.37012,2.57519v-5.56445a4.14354,4.14354,0,0,0-2.9209-1.28809c-1.93164,0-3.49512,1.70118-3.49512,4.25391,0,2.668,1.24219,4.25391,3.28809,4.25391A4.22052,4.22052,0,0,0,1373.15088,479.44824Z" transform="translate(10.35963 -2.625)"/><path d="M1380.53467,471.26172h1.58691l.1836,2.64453h.04589a5.89206,5.89206,0,0,1,4.99024-2.91992,4.693,4.693,0,0,1,2.208.46l-.4375,1.63183a5.59917,5.59917,0,0,0-2.06934-.36718c-1.67871,0-3.26562.85058-4.59863,3.19629v6.53027h-1.90918Z" transform="translate(10.35963 -2.625)"/><path d="M1392.38037,476.87305c0-3.748,2.5752-5.88672,5.51856-5.88672s5.51855,2.13867,5.51855,5.88672a5.52745,5.52745,0,1,1-11.03711,0Zm9.083,0c0-2.57617-1.42578-4.30078-3.56445-4.30078s-3.56446,1.72461-3.56446,4.30078c0,2.55175,1.42578,4.2539,3.56446,4.2539S1401.46338,479.4248,1401.46338,476.87305Z" transform="translate(10.35963 -2.625)"/><path d="M1406.939,471.26172h1.56348l.16113,1.42578h.06934a5.93216,5.93216,0,0,1,3.8623-1.70117c3.0127,0,4.62208,2.23047,4.62208,5.70215,0,3.79492-2.39161,6.02539-5.082,6.02539a5.30182,5.30182,0,0,1-3.334-1.44922h-.0459l.0918,2.11523v3.77149H1406.939Zm8.32422,5.42676c0-2.46-.91992-4.09278-3.15039-4.09278a4.74615,4.74615,0,0,0-3.26562,1.65528v5.56543a4.66954,4.66954,0,0,0,2.96679,1.28711C1413.7915,481.10352,1415.26318,479.44824,1415.26318,476.68848Z" transform="translate(10.35963 -2.625)"/><path d="M1424.25732,478.68945v-11.084h-3.95605v-1.54h5.86426v12.76172a2.01739,2.01739,0,0,0,2.207,2.2998,5.04892,5.04892,0,0,0,2.09277-.50586l.4834,1.42579a6.79424,6.79424,0,0,1-2.98926.667C1425.56787,482.71387,1424.25732,481.334,1424.25732,478.68945Z" transform="translate(10.35963 -2.625)"/><path d="M1433.96338,476.82715a5.61891,5.61891,0,0,1,5.70312-5.84082c3.21875,0,5.1045,2.09179,5.1045,5.24219a7.76891,7.76891,0,0,1-.0918,1.15039H1435.228v-1.47168h8.32422l-.48243.52832c0-2.64453-1.31054-3.95508-3.35742-3.95508-2.06933,0-3.86328,1.56348-3.86328,4.34668a4.05515,4.05515,0,0,0,4.36914,4.36816,6.08339,6.08339,0,0,0,3.40332-1.05761l.68946,1.24218a7.6605,7.6605,0,0,1-4.32325,1.334A5.65891,5.65891,0,0,1,1433.96338,476.82715Z" transform="translate(10.35963 -2.625)"/><path d="M1450.937,478.0918v-5.28907h-3.17383V471.377l3.24219-.11523.25293-3.58692h1.58691v3.58692h5.47266v1.541h-5.47266v5.31153c0,2.001.667,3.03515,2.82813,3.03515a7.351,7.351,0,0,0,2.668-.50586l.41406,1.40333a9.76692,9.76692,0,0,1-3.49609.667C1451.99463,482.71387,1450.937,480.85059,1450.937,478.0918Z" transform="translate(10.35963 -2.625)"/><path d="M1475.43213,480.96582l.874-1.26465a7.97108,7.97108,0,0,0,4.85156,1.51758c1.88575,0,2.80567-.78223,2.80567-1.72461,0-.85059-.4375-1.44824-3.47266-2.06934-2.91992-.59765-4.36914-1.58691-4.36914-3.26562,0-1.79395,1.58692-3.17285,4.64551-3.17285a8.388,8.388,0,0,1,4.50684,1.42578l-.91993,1.21875a6.59417,6.59417,0,0,0-3.748-1.17285c-1.88575,0-2.5752.75879-2.5752,1.60937,0,.96582.96582,1.37989,3.26465,1.86231,3.70215.80469,4.59961,1.72461,4.59961,3.44922,0,1.8164-1.77051,3.335-4.9668,3.335A9.8252,9.8252,0,0,1,1475.43213,480.96582Z" transform="translate(10.35963 -2.625)"/><path d="M1488.979,476.87305c0-3.748,2.5752-5.88672,5.51856-5.88672s5.51855,2.13867,5.51855,5.88672a5.52745,5.52745,0,1,1-11.03711,0Zm9.083,0c0-2.57617-1.42578-4.30078-3.56445-4.30078s-3.56445,1.72461-3.56445,4.30078c0,2.55175,1.42578,4.2539,3.56445,4.2539S1498.062,479.4248,1498.062,476.87305Z" transform="translate(10.35963 -2.625)"/><path d="M1504.73291,471.26172h1.58691l.1836,2.64453h.04687a5.88924,5.88924,0,0,1,4.98926-2.91992,4.693,4.693,0,0,1,2.208.46l-.4375,1.63183a5.59913,5.59913,0,0,0-2.06934-.36718c-1.67871,0-3.26562.85058-4.59863,3.19629v6.53027h-1.90918Z" transform="translate(10.35963 -2.625)"/><path d="M1519.936,478.0918v-5.28907h-3.17383V471.377l3.24218-.11523.25293-3.58692h1.58692v3.58692h5.47265v1.541h-5.47265v5.31153c0,2.001.667,3.03515,2.82812,3.03515a7.351,7.351,0,0,0,2.668-.50586l.41406,1.40333a9.76687,9.76687,0,0,1-3.49609.667C1520.99365,482.71387,1519.936,480.85059,1519.936,478.0918Z" transform="translate(10.35963 -2.625)"/><path d="M1536.2417,472.80273h-5.17383v-1.541h7.083V482.4375h-1.90918Zm-.75879-5.35839a1.5183,1.5183,0,1,1,1.51758,1.47168A1.43807,1.43807,0,0,1,1535.48291,467.44434Z" transform="translate(10.35963 -2.625)"/><path d="M1544.937,471.26172h1.56348l.16113,1.88574h.0918a5.79209,5.79209,0,0,1,4.208-2.16113c2.64453,0,3.86328,1.56347,3.86328,4.50683v6.94434h-1.90821v-6.69141c0-2.11523-.73632-3.10449-2.55273-3.10449-1.334,0-2.23047.667-3.51856,2.001v7.79492h-1.9082Z" transform="translate(10.35963 -2.625)"/><path d="M1558.25342,484.48438a3.09539,3.09539,0,0,1,1.83984-2.4834v-.09278a2.02343,2.02343,0,0,1-1.14941-1.83886,2.71705,2.71705,0,0,1,1.333-2.09278v-.09179a3.56238,3.56238,0,0,1-1.37891-2.89747,4.1,4.1,0,0,1,4.3916-4.001,4.55542,4.55542,0,0,1,1.65625.27539h4.62109v1.541h-2.89648a3.37374,3.37374,0,0,1,.94238,2.25293c0,2.39161-1.9082,3.84082-4.32324,3.84082a4.83562,4.83562,0,0,1-1.88574-.41406,1.53851,1.53851,0,0,0-.873,1.28809c0,.873.85059,1.28711,2.32227,1.28711h2.50586c2.875,0,4.25488.73633,4.25488,2.62207,0,2.09179-2.415,3.9082-6.209,3.9082C1560.13916,487.58789,1558.25342,486.46191,1558.25342,484.48438Zm9.49707-.50586c0-1.0586-.85059-1.35743-2.55176-1.35743h-2.18457a6.34,6.34,0,0,1-1.70215-.18359c-1.05762.5752-1.42578,1.21875-1.42578,1.8623,0,1.17286,1.26465,1.90918,3.65625,1.90918C1566.14111,486.209,1567.75049,485.12793,1567.75049,483.97852Zm-1.88574-8.99122a2.5761,2.5761,0,1,0-2.5752,2.64454A2.52633,2.52633,0,0,0,1565.86475,474.9873Z" transform="translate(10.35963 -2.625)"/><path d="M1043.60889,13.52539c0-3.63379,2.41406-5.88672,5.05859-5.88672a4.79592,4.79592,0,0,1,3.35742,1.42578h.0459l-.0918-2.04687V2.71777h1.90821V19.08984h-1.56348l-.16113-1.47168h-.06836a5.37132,5.37132,0,0,1-3.65625,1.748C1045.54053,19.36621,1043.60889,17.25,1043.60889,13.52539Zm8.37011,2.5752V10.53613a4.14348,4.14348,0,0,0-2.92089-1.28808c-1.93165,0-3.49512,1.70117-3.49512,4.2539,0,2.668,1.24219,4.25391,3.28808,4.25391A4.22051,4.22051,0,0,0,1051.979,16.10059Z" transform="translate(10.35963 -2.625)"/><path d="M1057.40869,13.52539c0-3.748,2.5752-5.88672,5.51856-5.88672s5.51855,2.13867,5.51855,5.88672a5.52745,5.52745,0,1,1-11.03711,0Zm9.083,0c0-2.57617-1.42578-4.30078-3.56445-4.30078s-3.56446,1.72461-3.56446,4.30078c0,2.55176,1.42578,4.25391,3.56446,4.25391S1066.4917,16.07715,1066.4917,13.52539Z" transform="translate(10.35963 -2.625)"/><path d="M1071.96729,7.91406h1.56347l.16113,1.42578h.06934a5.93216,5.93216,0,0,1,3.86231-1.70117c3.01269,0,4.62207,2.23047,4.62207,5.70215,0,3.79492-2.39161,6.02539-5.082,6.02539a5.30182,5.30182,0,0,1-3.334-1.44922h-.0459l.0918,2.11524v3.77148h-1.9082Zm8.32421,5.42676c0-2.46-.91992-4.09277-3.15039-4.09277a4.74617,4.74617,0,0,0-3.26562,1.65527v5.56543a4.66954,4.66954,0,0,0,2.9668,1.28711C1078.81982,17.75586,1080.2915,16.10059,1080.2915,13.34082Z" transform="translate(10.35963 -2.625)"/><path d="M1089.28564,15.3418V4.25781h-3.95605v-1.54h5.86426V15.47949a2.01739,2.01739,0,0,0,2.207,2.29981,5.04907,5.04907,0,0,0,2.09277-.50586l.4834,1.42578a6.79424,6.79424,0,0,1-2.98926.667C1090.59619,19.36621,1089.28564,17.98633,1089.28564,15.3418Z" transform="translate(10.35963 -2.625)"/><path d="M1098.9917,13.47949a5.61891,5.61891,0,0,1,5.70312-5.84082c3.21875,0,5.1045,2.0918,5.1045,5.24219a7.76891,7.76891,0,0,1-.0918,1.15039h-9.45117V12.55957h8.32422l-.48243.52832c0-2.64453-1.31054-3.95508-3.35742-3.95508-2.06933,0-3.86328,1.56348-3.86328,4.34668a4.05515,4.05515,0,0,0,4.36914,4.36817A6.0834,6.0834,0,0,0,1108.6499,16.79l.68946,1.24219a7.6605,7.6605,0,0,1-4.32325,1.334A5.65891,5.65891,0,0,1,1098.9917,13.47949Z" transform="translate(10.35963 -2.625)"/><path d="M1115.96533,14.74414V9.45508h-3.17383V8.0293l3.24219-.11524.25293-3.58691h1.58692V7.91406h5.47265v1.541h-5.47265V14.7666c0,2.001.667,3.03516,2.82812,3.03516a7.351,7.351,0,0,0,2.668-.50586l.41406,1.40332a9.7667,9.7667,0,0,1-3.49609.667C1117.023,19.36621,1115.96533,17.50293,1115.96533,14.74414Z" transform="translate(10.35963 -2.625)"/><path d="M1154.71924,9.45508h-5.17383v-1.541h7.083V19.08984h-1.90918Zm-.75879-5.3584a1.5183,1.5183,0,0,1,3.03516,0,1.5183,1.5183,0,0,1-3.03516,0Z" transform="translate(10.35963 -2.625)"/><path d="M1163.41455,7.91406h1.56348l.16113,1.88574h.0918a5.79207,5.79207,0,0,1,4.208-2.16113c2.64454,0,3.86329,1.56348,3.86329,4.50684v6.94433H1171.394v-6.6914c0-2.11524-.73633-3.10449-2.55273-3.10449-1.334,0-2.23047.667-3.51856,2.001v7.79492h-1.9082Z" transform="translate(10.35963 -2.625)"/><path d="M1176.91553,13.52539c0-3.748,2.85156-5.88672,6.23144-5.88672a5.6806,5.6806,0,0,1,4.07032,1.63184l-.94336,1.21875a4.61269,4.61269,0,0,0-3.05762-1.26465,4.1041,4.1041,0,0,0-4.34668,4.30078,4.05588,4.05588,0,0,0,4.2998,4.25391,5.31534,5.31534,0,0,0,3.4502-1.40332l.85058,1.24218a6.6573,6.6573,0,0,1-4.43847,1.748C1179.53662,19.36621,1176.91553,17.22754,1176.91553,13.52539Z" transform="translate(10.35963 -2.625)"/><path d="M1190.646,14.8584V7.91406h1.9082v6.69141c0,2.09277.73633,3.10449,2.57617,3.10449,1.28711,0,2.23047-.59766,3.47168-2.0459v-7.75h1.90918V19.08984h-1.58691l-.16114-1.9541h-.09179a5.43934,5.43934,0,0,1-4.16211,2.23047C1191.86475,19.36621,1190.646,17.80176,1190.646,14.8584Z" transform="translate(10.35963 -2.625)"/><path d="M1206.58447,17.84766h-.06933l-.1836,1.24218H1204.814V2.71777h1.90821V7.17871l-.0918,2.16113h.06934a5.49728,5.49728,0,0,1,3.748-1.70117c3.01172,0,4.64454,2.23047,4.64454,5.67969,0,3.81738-2.39161,6.04785-5.03516,6.04785A5.5153,5.5153,0,0,1,1206.58447,17.84766Zm6.55371-4.50684c0-2.46-.91992-4.09277-3.15039-4.09277a4.74617,4.74617,0,0,0-3.26562,1.65527v5.56543a4.67875,4.67875,0,0,0,3.01269,1.28711C1211.6665,17.75586,1213.13818,16.10059,1213.13818,13.34082Z" transform="translate(10.35963 -2.625)"/><path d="M1218.31494,16.19238c0-2.50683,2.3457-3.72558,8.11719-4.18457a2.65278,2.65278,0,0,0-2.9668-2.80566,7.78134,7.78134,0,0,0-3.90918,1.334l-.75879-1.28808a9.7913,9.7913,0,0,1,4.99024-1.60938c3.05859,0,4.55273,1.81641,4.55273,4.59863v6.85254h-1.58691l-.16016-1.51757h-.06933a7.51409,7.51409,0,0,1-4.39161,1.79394C1220.03955,19.36621,1218.31494,18.19336,1218.31494,16.19238Zm8.11719-.02246V13.27246c-4.7832.36719-6.23145,1.31055-6.23145,2.78223,0,1.26465,1.14942,1.77051,2.4375,1.77051A6.093,6.093,0,0,0,1226.43213,16.16992Z" transform="translate(10.35963 -2.625)"/><path d="M1235.01221,14.74414V9.45508h-3.17383V8.0293l3.24219-.11524.25293-3.58691h1.58691V7.91406h5.47266v1.541h-5.47266V14.7666c0,2.001.667,3.03516,2.82813,3.03516a7.35094,7.35094,0,0,0,2.668-.50586l.41407,1.40332a9.76676,9.76676,0,0,1-3.4961.667C1236.06982,19.36621,1235.01221,17.50293,1235.01221,14.74414Z" transform="translate(10.35963 -2.625)"/><path d="M1251.31787,9.45508H1246.144v-1.541h7.083V19.08984h-1.90918Zm-.75879-5.3584a1.5183,1.5183,0,0,1,3.03516,0,1.5183,1.5183,0,0,1-3.03516,0Z" transform="translate(10.35963 -2.625)"/><path d="M1259.25439,13.52539c0-3.748,2.5752-5.88672,5.51856-5.88672s5.51855,2.13867,5.51855,5.88672a5.52745,5.52745,0,1,1-11.03711,0Zm9.083,0c0-2.57617-1.42578-4.30078-3.56445-4.30078s-3.56445,1.72461-3.56445,4.30078c0,2.55176,1.42578,4.25391,3.56445,4.25391S1268.3374,16.07715,1268.3374,13.52539Z" transform="translate(10.35963 -2.625)"/><path d="M1273.813,7.91406h1.56347l.16114,1.88574h.09179a5.79211,5.79211,0,0,1,4.208-2.16113c2.64453,0,3.86328,1.56348,3.86328,4.50684v6.94433h-1.9082v-6.6914c0-2.11524-.73633-3.10449-2.55273-3.10449-1.334,0-2.23047.667-3.51856,2.001v7.79492h-1.9082Z" transform="translate(10.35963 -2.625)"/><path d="M1308.88721,15.18066c0-4.3457,6.50781-5.19726,6.50781-8.43945,0-.87305-.36816-1.65527-1.37988-1.65527-1.05762,0-1.67871.94238-1.67871,2.18457,0,2.82812,3.01269,6.57617,5.81738,8.71484a9.56225,9.56225,0,0,0,3.03613,1.79395l-.5293,1.58691a11.23984,11.23984,0,0,1-3.65625-2.09277c-3.21972-2.5752-6.32324-6.876-6.32324-9.957a3.33958,3.33958,0,0,1,3.31055-3.58692,2.75326,2.75326,0,0,1,2.94336,2.98926c0,3.748-6.208,4.9668-6.208,8.34668a2.74837,2.74837,0,0,0,2.89746,2.78223,4.42032,4.42032,0,0,0,3.17285-1.77051,12.13109,12.13109,0,0,0,2.46094-5.12793h1.77051a16.586,16.586,0,0,1-2.89746,6.04785,6.09227,6.09227,0,0,1-4.73731,2.36914A4.174,4.174,0,0,1,1308.88721,15.18066Z" transform="translate(10.35963 -2.625)"/><path d="M1059.40967,45.21777l.874-1.26465a7.971,7.971,0,0,0,4.85156,1.51758c1.88575,0,2.80567-.78222,2.80567-1.72461,0-.85058-.4375-1.44824-3.47266-2.06933-2.91992-.59766-4.36914-1.58692-4.36914-3.26563,0-1.79394,1.58692-3.17285,4.64551-3.17285a8.38793,8.38793,0,0,1,4.50683,1.42578l-.91992,1.21875a6.59417,6.59417,0,0,0-3.748-1.17285c-1.88575,0-2.5752.75879-2.5752,1.60938,0,.96582.96582,1.37988,3.26465,1.8623,3.70215.80469,4.59961,1.72461,4.59961,3.44922,0,1.81641-1.77051,3.335-4.9668,3.335A9.82513,9.82513,0,0,1,1059.40967,45.21777Z" transform="translate(10.35963 -2.625)"/><path d="M1078.81982,37.05469H1073.646v-1.541h7.083V46.68945h-1.90918Zm-.75878-5.3584a1.51829,1.51829,0,1,1,1.51757,1.47168A1.43807,1.43807,0,0,1,1078.061,31.69629Z" transform="translate(10.35963 -2.625)"/><path d="M1087.03174,48.73633a3.09541,3.09541,0,0,1,1.83984-2.4834v-.09277a2.02345,2.02345,0,0,1-1.14941-1.83887,2.71585,2.71585,0,0,1,1.334-2.09277v-.0918a3.56028,3.56028,0,0,1-1.37988-2.89746,4.1,4.1,0,0,1,4.3916-4.001,4.55564,4.55564,0,0,1,1.65625.27539h4.62109v1.541h-2.89648a3.37372,3.37372,0,0,1,.94238,2.25293c0,2.3916-1.9082,3.84082-4.32324,3.84082a4.83562,4.83562,0,0,1-1.88574-.41406,1.53849,1.53849,0,0,0-.873,1.28808c0,.873.85059,1.28711,2.32227,1.28711h2.50586c2.875,0,4.25488.73633,4.25488,2.62207,0,2.0918-2.415,3.9082-6.209,3.9082C1088.91748,51.83984,1087.03174,50.71387,1087.03174,48.73633Zm9.49707-.50586c0-1.05859-.85059-1.35742-2.55176-1.35742h-2.18457a6.34,6.34,0,0,1-1.70215-.1836c-1.05762.5752-1.42578,1.21875-1.42578,1.86231,0,1.17285,1.26465,1.90918,3.65625,1.90918C1094.91943,50.46094,1096.52881,49.37988,1096.52881,48.23047Zm-1.88574-8.99121a2.5761,2.5761,0,1,0-2.5752,2.64453A2.52632,2.52632,0,0,0,1094.64307,39.23926Z" transform="translate(10.35963 -2.625)"/><path d="M1101.31494,35.51367h1.56348l.16113,1.88574h.0918a5.79209,5.79209,0,0,1,4.208-2.16113c2.64453,0,3.86328,1.56348,3.86328,4.50684v6.94433h-1.90821v-6.6914c0-2.11524-.73632-3.1045-2.55273-3.1045-1.334,0-2.23047.667-3.51856,2.001v7.79492h-1.9082Z" transform="translate(10.35963 -2.625)"/><path d="M1114.81592,43.792c0-2.50683,2.3457-3.72558,8.11719-4.18457a2.65278,2.65278,0,0,0-2.9668-2.80566,7.78134,7.78134,0,0,0-3.90918,1.334l-.75879-1.28808a9.79129,9.79129,0,0,1,4.99023-1.60938c3.0586,0,4.55274,1.81641,4.55274,4.59863v6.85254h-1.58692l-.16015-1.51757h-.06934a7.51406,7.51406,0,0,1-4.3916,1.79394C1116.54053,46.96582,1114.81592,45.793,1114.81592,43.792Zm8.11719-.02246V40.87207c-4.78321.36719-6.23145,1.31055-6.23145,2.78223,0,1.26465,1.14941,1.7705,2.4375,1.7705A6.093,6.093,0,0,0,1122.93311,43.76953Z" transform="translate(10.35963 -2.625)"/><path d="M1132.43311,42.94141v-11.084h-3.95606v-1.54h5.86426V43.0791a2.01739,2.01739,0,0,0,2.207,2.29981,5.04907,5.04907,0,0,0,2.09277-.50586l.4834,1.42578a6.7942,6.7942,0,0,1-2.98926.667C1133.74365,46.96582,1132.43311,45.58594,1132.43311,42.94141Z" transform="translate(10.35963 -2.625)"/><path d="M1155.75537,41.125c0-3.63379,2.41406-5.88672,5.05859-5.88672a4.79592,4.79592,0,0,1,3.35743,1.42578h.0459l-.0918-2.04687V30.31738h1.9082V46.68945h-1.56348l-.16113-1.47168h-.06836a5.3713,5.3713,0,0,1-3.65625,1.748C1157.687,46.96582,1155.75537,44.84961,1155.75537,41.125Zm8.37012,2.5752V38.13574a4.14352,4.14352,0,0,0-2.9209-1.28808c-1.93164,0-3.49512,1.70117-3.49512,4.2539,0,2.668,1.24219,4.25391,3.28809,4.25391A4.22054,4.22054,0,0,0,1164.12549,43.7002Z" transform="translate(10.35963 -2.625)"/><path d="M1169.73877,41.0791a5.61891,5.61891,0,0,1,5.70312-5.84082c3.21875,0,5.1045,2.0918,5.1045,5.24219a7.76891,7.76891,0,0,1-.0918,1.15039h-9.45117V40.15918h8.32422l-.48243.52832c0-2.64453-1.31054-3.95508-3.35742-3.95508-2.06933,0-3.86328,1.56348-3.86328,4.34668a4.05515,4.05515,0,0,0,4.36914,4.36817,6.0834,6.0834,0,0,0,3.40332-1.05762l.68946,1.24219a7.6605,7.6605,0,0,1-4.32325,1.334A5.65891,5.65891,0,0,1,1169.73877,41.0791Z" transform="translate(10.35963 -2.625)"/><path d="M1183.12451,35.51367h1.95508l2.5752,6.32422q.65478,1.689,1.24218,3.31055h.0918c.39062-1.08008.75879-2.18457,1.21875-3.31055l2.57519-6.32422h1.83985l-4.64551,11.17578h-2.13867Z" transform="translate(10.35963 -2.625)"/><path d="M1197.33838,41.0791a5.61891,5.61891,0,0,1,5.70312-5.84082c3.21875,0,5.1045,2.0918,5.1045,5.24219a7.76891,7.76891,0,0,1-.0918,1.15039H1198.603V40.15918h8.32422l-.48243.52832c0-2.64453-1.31054-3.95508-3.35742-3.95508-2.06933,0-3.86328,1.56348-3.86328,4.34668a4.05515,4.05515,0,0,0,4.36914,4.36817,6.0834,6.0834,0,0,0,3.40332-1.05762l.68946,1.24219a7.6605,7.6605,0,0,1-4.32325,1.334A5.65891,5.65891,0,0,1,1197.33838,41.0791Z" transform="translate(10.35963 -2.625)"/><path d="M1215.23193,42.94141v-11.084h-3.95605v-1.54h5.86426V43.0791a2.01739,2.01739,0,0,0,2.207,2.29981,5.04907,5.04907,0,0,0,2.09277-.50586l.4834,1.42578a6.79424,6.79424,0,0,1-2.98926.667C1216.54248,46.96582,1215.23193,45.58594,1215.23193,42.94141Z" transform="translate(10.35963 -2.625)"/><path d="M1224.75439,41.125c0-3.748,2.5752-5.88672,5.51856-5.88672s5.51855,2.13867,5.51855,5.88672a5.52745,5.52745,0,1,1-11.03711,0Zm9.083,0c0-2.57617-1.42578-4.30078-3.56445-4.30078s-3.56445,1.72461-3.56445,4.30078c0,2.55176,1.42578,4.25391,3.56445,4.25391S1233.8374,43.67676,1233.8374,41.125Z" transform="translate(10.35963 -2.625)"/><path d="M1239.313,35.51367h1.56347l.16114,1.42578h.06933a5.93216,5.93216,0,0,1,3.86231-1.70117c3.01269,0,4.62207,2.23047,4.62207,5.70215,0,3.79492-2.3916,6.02539-5.082,6.02539a5.30184,5.30184,0,0,1-3.334-1.44922h-.0459l.0918,2.11524v3.77148h-1.9082Zm8.32422,5.42676c0-2.46-.91992-4.09277-3.15039-4.09277a4.74617,4.74617,0,0,0-3.26563,1.65527v5.56543a4.66956,4.66956,0,0,0,2.9668,1.28711C1246.16553,45.35547,1247.63721,43.7002,1247.63721,40.94043Z" transform="translate(10.35963 -2.625)"/><path d="M1252.30811,35.51367h1.51757l.16114,1.47168h.04589a2.77351,2.77351,0,0,1,2.55176-1.74707c1.10449,0,1.79395.64356,2.11621,1.93164.64356-1.19629,1.333-1.93164,2.6211-1.93164,1.56347,0,2.4834,1.21875,2.4834,3.44922v8.002h-1.88575V38.8252c0-1.28809-.36718-1.95508-1.19531-1.95508-.78223,0-1.19629.57519-1.79394,1.72558v8.09375h-1.74707V38.8252c0-1.28809-.32227-1.95508-1.1504-1.95508-.78125,0-1.2871.57519-1.83886,1.72558v8.09375h-1.88574Z" transform="translate(10.35963 -2.625)"/><path d="M1266.3374,41.0791a5.61891,5.61891,0,0,1,5.70313-5.84082c3.21875,0,5.10449,2.0918,5.10449,5.24219a7.76891,7.76891,0,0,1-.0918,1.15039h-9.45117V40.15918h8.32422l-.48242.52832c0-2.64453-1.31055-3.95508-3.35742-3.95508-2.06934,0-3.86329,1.56348-3.86329,4.34668a4.05516,4.05516,0,0,0,4.36915,4.36817,6.08343,6.08343,0,0,0,3.40332-1.05762l.68945,1.24219a7.66049,7.66049,0,0,1-4.32324,1.334A5.65891,5.65891,0,0,1,1266.3374,41.0791Z" transform="translate(10.35963 -2.625)"/><path d="M1280.7124,35.51367h1.56348l.16113,1.88574h.0918a5.79209,5.79209,0,0,1,4.208-2.16113c2.64453,0,3.86328,1.56348,3.86328,4.50684v6.94433h-1.90821v-6.6914c0-2.11524-.73632-3.1045-2.55273-3.1045-1.334,0-2.23047.667-3.51855,2.001v7.79492h-1.90821Z" transform="translate(10.35963 -2.625)"/><path d="M1297.11084,42.34375V37.05469H1293.937V35.62891l3.24219-.11524.25293-3.58691h1.58691v3.58691h5.47266v1.541H1299.019v5.31152c0,2.001.667,3.03516,2.82813,3.03516a7.351,7.351,0,0,0,2.668-.50586l.41406,1.40332a9.7667,9.7667,0,0,1-3.49609.667C1298.16846,46.96582,1297.11084,45.10254,1297.11084,42.34375Z" transform="translate(10.35963 -2.625)"/><path d="M569.064,13.52539c0-3.63379,2.41407-5.88672,5.0586-5.88672A4.79592,4.79592,0,0,1,577.48,9.06445h.0459l-.0918-2.04687V2.71777h1.90821V19.08984h-1.56348l-.16113-1.47168h-.06836a5.37134,5.37134,0,0,1-3.65625,1.748C570.99561,19.36621,569.064,17.25,569.064,13.52539Zm8.37012,2.5752V10.53613a4.14352,4.14352,0,0,0-2.9209-1.28808c-1.93164,0-3.49511,1.70117-3.49511,4.2539,0,2.668,1.24218,4.25391,3.28808,4.25391A4.22054,4.22054,0,0,0,577.43408,16.10059Z" transform="translate(10.35963 -2.625)"/><path d="M584.81787,7.91406h1.58692l.18359,2.64453h.0459a5.89207,5.89207,0,0,1,4.99023-2.91992,4.693,4.693,0,0,1,2.208.46l-.4375,1.63184a5.59893,5.59893,0,0,0-2.06934-.36719c-1.67871,0-3.26562.85059-4.59863,3.19629v6.53027h-1.90918Z" transform="translate(10.35963 -2.625)"/><path d="M596.66357,13.52539c0-3.748,2.5752-5.88672,5.51856-5.88672s5.51855,2.13867,5.51855,5.88672a5.52745,5.52745,0,1,1-11.03711,0Zm9.083,0c0-2.57617-1.42578-4.30078-3.56445-4.30078s-3.56445,1.72461-3.56445,4.30078c0,2.55176,1.42578,4.25391,3.56445,4.25391S605.74658,16.07715,605.74658,13.52539Z" transform="translate(10.35963 -2.625)"/><path d="M611.22217,7.91406h1.56347l.16114,1.42578h.06933a5.93216,5.93216,0,0,1,3.86231-1.70117c3.01269,0,4.62207,2.23047,4.62207,5.70215,0,3.79492-2.3916,6.02539-5.082,6.02539a5.30184,5.30184,0,0,1-3.334-1.44922h-.0459l.0918,2.11524v3.77148h-1.9082Zm8.32422,5.42676c0-2.46-.91993-4.09277-3.15039-4.09277a4.74617,4.74617,0,0,0-3.26563,1.65527v5.56543a4.66956,4.66956,0,0,0,2.9668,1.28711C618.07471,17.75586,619.54639,16.10059,619.54639,13.34082Z" transform="translate(10.35963 -2.625)"/><path d="M628.54053,15.3418V4.25781h-3.95606v-1.54h5.86426V15.47949a2.01739,2.01739,0,0,0,2.207,2.29981,5.04911,5.04911,0,0,0,2.09278-.50586l.48339,1.42578a6.79416,6.79416,0,0,1-2.98925.667C629.85107,19.36621,628.54053,17.98633,628.54053,15.3418Z" transform="translate(10.35963 -2.625)"/><path d="M638.24658,13.47949a5.61891,5.61891,0,0,1,5.70313-5.84082c3.21875,0,5.10449,2.0918,5.10449,5.24219a7.76891,7.76891,0,0,1-.0918,1.15039h-9.45117V12.55957h8.32422l-.48242.52832c0-2.64453-1.31055-3.95508-3.35742-3.95508-2.06934,0-3.86329,1.56348-3.86329,4.34668a4.05516,4.05516,0,0,0,4.36914,4.36817A6.08343,6.08343,0,0,0,647.90479,16.79l.68945,1.24219a7.66049,7.66049,0,0,1-4.32324,1.334A5.65891,5.65891,0,0,1,638.24658,13.47949Z" transform="translate(10.35963 -2.625)"/><path d="M655.22021,14.74414V9.45508h-3.17382V8.0293l3.24218-.11524.25293-3.58691h1.58692V7.91406h5.47265v1.541h-5.47265V14.7666c0,2.001.667,3.03516,2.82812,3.03516a7.351,7.351,0,0,0,2.668-.50586l.41406,1.40332a9.76665,9.76665,0,0,1-3.49609.667C656.27783,19.36621,655.22021,17.50293,655.22021,14.74414Z" transform="translate(10.35963 -2.625)"/><path d="M679.73779,21.13672a3.0954,3.0954,0,0,1,1.83985-2.4834v-.09277a2.02344,2.02344,0,0,1-1.14942-1.83887,2.717,2.717,0,0,1,1.333-2.09277v-.0918a3.56237,3.56237,0,0,1-1.37891-2.89746,4.1,4.1,0,0,1,4.39161-4.001,4.55567,4.55567,0,0,1,1.65625.27539h4.62109v1.541h-2.89648a3.37377,3.37377,0,0,1,.94238,2.25293c0,2.3916-1.90821,3.84082-4.32324,3.84082a4.83567,4.83567,0,0,1-1.88575-.41406,1.5385,1.5385,0,0,0-.873,1.28808c0,.873.85058,1.28711,2.32226,1.28711h2.50586c2.875,0,4.25488.73633,4.25488,2.62207,0,2.0918-2.415,3.9082-6.209,3.9082C681.62354,24.24023,679.73779,23.11426,679.73779,21.13672Zm9.49707-.50586c0-1.05859-.85058-1.35742-2.55175-1.35742h-2.18457a6.33994,6.33994,0,0,1-1.70215-.1836c-1.05762.5752-1.42578,1.21875-1.42578,1.86231,0,1.17285,1.26464,1.90918,3.65625,1.90918C687.62549,22.86133,689.23486,21.78027,689.23486,20.63086Zm-1.88574-8.99121a2.57561,2.57561,0,1,0-5.15039,0,2.5761,2.5761,0,1,0,5.15039,0Z" transform="translate(10.35963 -2.625)"/><path d="M693.4458,13.47949a5.61891,5.61891,0,0,1,5.70313-5.84082c3.21875,0,5.10449,2.0918,5.10449,5.24219a7.76891,7.76891,0,0,1-.0918,1.15039h-9.45117V12.55957h8.32422l-.48242.52832c0-2.64453-1.31055-3.95508-3.35743-3.95508-2.06933,0-3.86328,1.56348-3.86328,4.34668a4.05516,4.05516,0,0,0,4.36914,4.36817A6.08338,6.08338,0,0,0,703.104,16.79l.68946,1.24219a7.6605,7.6605,0,0,1-4.32325,1.334A5.65891,5.65891,0,0,1,693.4458,13.47949Z" transform="translate(10.35963 -2.625)"/><path d="M707.8208,7.91406h1.56348l.16113,1.88574h.0918a5.79207,5.79207,0,0,1,4.208-2.16113c2.64454,0,3.86329,1.56348,3.86329,4.50684v6.94433h-1.90821v-6.6914c0-2.11524-.73633-3.10449-2.55273-3.10449-1.334,0-2.23047.667-3.51856,2.001v7.79492h-1.9082Z" transform="translate(10.35963 -2.625)"/><path d="M721.04541,13.47949a5.61891,5.61891,0,0,1,5.70313-5.84082c3.21875,0,5.10449,2.0918,5.10449,5.24219a7.76891,7.76891,0,0,1-.0918,1.15039h-9.45117V12.55957h8.32422l-.48242.52832c0-2.64453-1.31055-3.95508-3.35743-3.95508-2.06933,0-3.86328,1.56348-3.86328,4.34668a4.05515,4.05515,0,0,0,4.36914,4.36817A6.0834,6.0834,0,0,0,730.70361,16.79l.68946,1.24219a7.6605,7.6605,0,0,1-4.32325,1.334A5.65891,5.65891,0,0,1,721.04541,13.47949Z" transform="translate(10.35963 -2.625)"/><path d="M736.61572,7.91406h1.58692l.18359,2.64453h.04688a5.88924,5.88924,0,0,1,4.98925-2.91992,4.693,4.693,0,0,1,2.208.46l-.4375,1.63184a5.59891,5.59891,0,0,0-2.06933-.36719c-1.67872,0-3.26563.85059-4.59864,3.19629v6.53027h-1.90918Z" transform="translate(10.35963 -2.625)"/><path d="M748.92139,16.19238c0-2.50683,2.3457-3.72558,8.11718-4.18457a2.65277,2.65277,0,0,0-2.96679-2.80566,7.78131,7.78131,0,0,0-3.90918,1.334L749.40381,9.248A9.79126,9.79126,0,0,1,754.394,7.63867c3.0586,0,4.55274,1.81641,4.55274,4.59863v6.85254h-1.58692l-.16015-1.51757h-.06934a7.51406,7.51406,0,0,1-4.3916,1.79394C750.646,19.36621,748.92139,18.19336,748.92139,16.19238Zm8.11718-.02246V13.27246c-4.7832.36719-6.23144,1.31055-6.23144,2.78223,0,1.26465,1.14941,1.77051,2.4375,1.77051A6.093,6.093,0,0,0,757.03857,16.16992Z" transform="translate(10.35963 -2.625)"/><path d="M765.61865,14.74414V9.45508h-3.17383V8.0293l3.24219-.11524.25293-3.58691h1.58692V7.91406h5.47265v1.541h-5.47265V14.7666c0,2.001.667,3.03516,2.82812,3.03516a7.351,7.351,0,0,0,2.668-.50586l.41406,1.40332a9.7667,9.7667,0,0,1-3.49609.667C766.67627,19.36621,765.61865,17.50293,765.61865,14.74414Z" transform="translate(10.35963 -2.625)"/><path d="M781.92432,9.45508h-5.17383v-1.541h7.083V19.08984h-1.90918Zm-.75879-5.3584a1.51829,1.51829,0,0,1,3.03515,0,1.51829,1.51829,0,0,1-3.03515,0Z" transform="translate(10.35963 -2.625)"/><path d="M789.86084,13.52539c0-3.748,2.5752-5.88672,5.51855-5.88672s5.51856,2.13867,5.51856,5.88672a5.52745,5.52745,0,1,1-11.03711,0Zm9.083,0c0-2.57617-1.42578-4.30078-3.56446-4.30078s-3.56445,1.72461-3.56445,4.30078c0,2.55176,1.42578,4.25391,3.56445,4.25391S798.94385,16.07715,798.94385,13.52539Z" transform="translate(10.35963 -2.625)"/><path d="M804.41943,7.91406h1.56348L806.144,9.7998h.0918a5.79209,5.79209,0,0,1,4.208-2.16113c2.64453,0,3.86328,1.56348,3.86328,4.50684v6.94433h-1.9082v-6.6914c0-2.11524-.73633-3.10449-2.55274-3.10449-1.334,0-2.23047.667-3.51855,2.001v7.79492h-1.90821Z" transform="translate(10.35963 -2.625)"/><path d="M260.48486,620.39746h1.56348l.16113,1.42578h.06934a5.93216,5.93216,0,0,1,3.8623-1.70117c3.0127,0,4.62207,2.23047,4.62207,5.70215,0,3.79492-2.3916,6.02539-5.082,6.02539a5.30182,5.30182,0,0,1-3.334-1.44922h-.0459l.0918,2.11523v3.77149h-1.90821Zm8.32422,5.42676c0-2.46-.91992-4.09277-3.15039-4.09277a4.74611,4.74611,0,0,0-3.26562,1.65527v5.56543a4.66952,4.66952,0,0,0,2.96679,1.28711C267.3374,630.23926,268.80908,628.584,268.80908,625.82422Z" transform="translate(10.35963 -2.625)"/><path d="M273.52588,626.00879c0-3.748,2.57519-5.88672,5.51855-5.88672s5.51856,2.13867,5.51856,5.88672a5.52745,5.52745,0,1,1-11.03711,0Zm9.083,0c0-2.57617-1.42578-4.30078-3.56446-4.30078s-3.56445,1.72461-3.56445,4.30078c0,2.55176,1.42578,4.25391,3.56445,4.25391S282.60889,628.56055,282.60889,626.00879Z" transform="translate(10.35963 -2.625)"/><path d="M287.57861,630.10156l.874-1.26465a7.971,7.971,0,0,0,4.85156,1.51758c1.88574,0,2.80566-.78222,2.80566-1.72461,0-.85058-.4375-1.44824-3.47265-2.06933-2.91992-.59766-4.36914-1.58692-4.36914-3.26563,0-1.79394,1.58691-3.17285,4.6455-3.17285a8.388,8.388,0,0,1,4.50684,1.42578l-.91992,1.21875a6.59422,6.59422,0,0,0-3.74805-1.17285c-1.88574,0-2.57519.75879-2.57519,1.60937,0,.96583.96582,1.37989,3.26464,1.86231,3.70215.80469,4.59961,1.72461,4.59961,3.44922,0,1.8164-1.7705,3.335-4.96679,3.335A9.82519,9.82519,0,0,1,287.57861,630.10156Z" transform="translate(10.35963 -2.625)"/><path d="M306.98877,621.93848h-5.17383v-1.541h7.083v11.17578h-1.90918Zm-.75879-5.3584a1.5183,1.5183,0,1,1,1.51758,1.47168A1.43807,1.43807,0,0,1,306.23,616.58008Z" transform="translate(10.35963 -2.625)"/><path d="M318.28271,627.22754v-5.28906h-3.17382V620.5127l3.24218-.11524.25293-3.58691h1.58692v3.58691h5.47265v1.541h-5.47265V627.25c0,2.001.667,3.03516,2.82812,3.03516a7.3512,7.3512,0,0,0,2.668-.50586l.41406,1.40332a9.76687,9.76687,0,0,1-3.49609.667C319.34033,631.84961,318.28271,629.98633,318.28271,627.22754Z" transform="translate(10.35963 -2.625)"/><path d="M334.58838,621.93848h-5.17383v-1.541h7.083v11.17578h-1.90918Zm-.75879-5.3584a1.5183,1.5183,0,1,1,1.51758,1.47168A1.43807,1.43807,0,0,1,333.82959,616.58008Z" transform="translate(10.35963 -2.625)"/><path d="M342.29443,620.39746h1.95508l2.5752,6.32422q.65478,1.689,1.24218,3.31055h.0918c.39063-1.08008.75879-2.18457,1.21875-3.31055l2.5752-6.32422h1.83984L349.147,631.57324H347.0083Z" transform="translate(10.35963 -2.625)"/><path d="M356.5083,625.96289a5.61891,5.61891,0,0,1,5.70313-5.84082c3.21875,0,5.10449,2.0918,5.10449,5.24219a7.76891,7.76891,0,0,1-.0918,1.15039H357.773V625.043h8.32422l-.48242.52832c0-2.64453-1.31055-3.95508-3.35743-3.95508-2.06933,0-3.86328,1.56348-3.86328,4.34668a4.05515,4.05515,0,0,0,4.36914,4.36816,6.08337,6.08337,0,0,0,3.40332-1.05761l.68946,1.24218a7.66042,7.66042,0,0,1-4.32325,1.334A5.65891,5.65891,0,0,1,356.5083,625.96289Z" transform="translate(10.35963 -2.625)"/><path d="M394.019,626.00879c0-3.63379,2.41407-5.88672,5.0586-5.88672a4.79592,4.79592,0,0,1,3.35742,1.42578h.0459l-.0918-2.04687v-4.29981h1.9082v16.37207h-1.56347l-.16114-1.47168h-.06836a5.3713,5.3713,0,0,1-3.65625,1.74805C395.95068,631.84961,394.019,629.7334,394.019,626.00879Zm8.37012,2.57519v-5.56445a4.14352,4.14352,0,0,0-2.9209-1.28808c-1.93164,0-3.49512,1.70117-3.49512,4.2539,0,2.668,1.24219,4.25391,3.28809,4.25391A4.22052,4.22052,0,0,0,402.38916,628.584Z" transform="translate(10.35963 -2.625)"/><path d="M409.773,620.39746h1.58691l.1836,2.64453h.0459a5.89206,5.89206,0,0,1,4.99023-2.91992,4.693,4.693,0,0,1,2.208.46l-.4375,1.63184a5.59893,5.59893,0,0,0-2.06934-.36719c-1.67871,0-3.26562.85059-4.59863,3.19629v6.53027H409.773Z" transform="translate(10.35963 -2.625)"/><path d="M421.61865,626.00879c0-3.748,2.5752-5.88672,5.51856-5.88672s5.51855,2.13867,5.51855,5.88672a5.52745,5.52745,0,1,1-11.03711,0Zm9.083,0c0-2.57617-1.42578-4.30078-3.56445-4.30078s-3.56446,1.72461-3.56446,4.30078c0,2.55176,1.42579,4.25391,3.56446,4.25391S430.70166,628.56055,430.70166,626.00879Z" transform="translate(10.35963 -2.625)"/><path d="M436.17725,620.39746h1.56347l.16114,1.42578h.06933a5.93216,5.93216,0,0,1,3.86231-1.70117c3.01269,0,4.62207,2.23047,4.62207,5.70215,0,3.79492-2.39161,6.02539-5.082,6.02539a5.30184,5.30184,0,0,1-3.334-1.44922h-.0459l.0918,2.11523v3.77149h-1.9082Zm8.32421,5.42676c0-2.46-.91992-4.09277-3.15039-4.09277a4.74613,4.74613,0,0,0-3.26562,1.65527v5.56543a4.66956,4.66956,0,0,0,2.9668,1.28711C443.02979,630.23926,444.50146,628.584,444.50146,625.82422Z" transform="translate(10.35963 -2.625)"/><path d="M453.49561,627.8252v-11.084h-3.95606v-1.54h5.86426v12.76172a2.01739,2.01739,0,0,0,2.207,2.29981,5.04907,5.04907,0,0,0,2.09277-.50586l.4834,1.42578a6.7942,6.7942,0,0,1-2.98926.667C454.80615,631.84961,453.49561,630.46973,453.49561,627.8252Z" transform="translate(10.35963 -2.625)"/><path d="M463.20166,625.96289a5.61891,5.61891,0,0,1,5.70313-5.84082c3.21875,0,5.10449,2.0918,5.10449,5.24219a7.76891,7.76891,0,0,1-.0918,1.15039h-9.45117V625.043h8.32422l-.48242.52832c0-2.64453-1.31055-3.95508-3.35743-3.95508-2.06933,0-3.86328,1.56348-3.86328,4.34668a4.05514,4.05514,0,0,0,4.36914,4.36816,6.08339,6.08339,0,0,0,3.40332-1.05761l.68946,1.24218a7.66042,7.66042,0,0,1-4.32325,1.334A5.65891,5.65891,0,0,1,463.20166,625.96289Z" transform="translate(10.35963 -2.625)"/><path d="M480.17529,627.22754v-5.28906h-3.17383V620.5127l3.24219-.11524.25293-3.58691h1.58692v3.58691h5.47265v1.541H482.0835V627.25c0,2.001.667,3.03516,2.82812,3.03516a7.3512,7.3512,0,0,0,2.668-.50586l.41406,1.40332a9.76692,9.76692,0,0,1-3.49609.667C481.23291,631.84961,480.17529,629.98633,480.17529,627.22754Z" transform="translate(10.35963 -2.625)"/><path d="M490.87061,630.10156l.874-1.26465a7.971,7.971,0,0,0,4.85156,1.51758c1.88574,0,2.80567-.78222,2.80567-1.72461,0-.85058-.4375-1.44824-3.47266-2.06933-2.91992-.59766-4.36914-1.58692-4.36914-3.26563,0-1.79394,1.58691-3.17285,4.64551-3.17285a8.38793,8.38793,0,0,1,4.50683,1.42578l-.91992,1.21875a6.59422,6.59422,0,0,0-3.74805-1.17285c-1.88574,0-2.57519.75879-2.57519,1.60937,0,.96583.96582,1.37989,3.26465,1.86231,3.70215.80469,4.59961,1.72461,4.59961,3.44922,0,1.8164-1.77051,3.335-4.9668,3.335A9.82513,9.82513,0,0,1,490.87061,630.10156Z" transform="translate(10.35963 -2.625)"/><path d="M528.771,626.00879c0-3.748,2.85156-5.88672,6.23144-5.88672a5.68056,5.68056,0,0,1,4.07031,1.63184l-.94336,1.21875a4.61264,4.61264,0,0,0-3.05761-1.26465,4.1041,4.1041,0,0,0-4.34668,4.30078,4.05588,4.05588,0,0,0,4.2998,4.25391,5.31534,5.31534,0,0,0,3.4502-1.40332l.85058,1.24218a6.6573,6.6573,0,0,1-4.43847,1.74805C531.39209,631.84961,528.771,629.71094,528.771,626.00879Z" transform="translate(10.35963 -2.625)"/><path d="M542.11084,626.00879c0-3.748,2.5752-5.88672,5.51855-5.88672s5.51856,2.13867,5.51856,5.88672a5.52745,5.52745,0,1,1-11.03711,0Zm9.083,0c0-2.57617-1.42578-4.30078-3.56446-4.30078s-3.56445,1.72461-3.56445,4.30078c0,2.55176,1.42578,4.25391,3.56445,4.25391S551.19385,628.56055,551.19385,626.00879Z" transform="translate(10.35963 -2.625)"/><path d="M560.188,627.8252v-11.084h-3.95606v-1.54h5.86426v12.76172a2.01739,2.01739,0,0,0,2.207,2.29981,5.04911,5.04911,0,0,0,2.09278-.50586l.48339,1.42578a6.79416,6.79416,0,0,1-2.98925.667C561.49854,631.84961,560.188,630.46973,560.188,627.8252Z" transform="translate(10.35963 -2.625)"/><path d="M573.98779,627.8252v-11.084h-3.95605v-1.54H575.896v12.76172a2.01739,2.01739,0,0,0,2.207,2.29981,5.04907,5.04907,0,0,0,2.09277-.50586l.4834,1.42578a6.79424,6.79424,0,0,1-2.98926.667C575.29834,631.84961,573.98779,630.46973,573.98779,627.8252Z" transform="translate(10.35963 -2.625)"/><path d="M583.69385,625.96289a5.6189,5.6189,0,0,1,5.70312-5.84082c3.21875,0,5.10449,2.0918,5.10449,5.24219a7.76906,7.76906,0,0,1-.09179,1.15039H584.9585V625.043h8.32421l-.48242.52832c0-2.64453-1.31054-3.95508-3.35742-3.95508-2.06933,0-3.86328,1.56348-3.86328,4.34668a4.05514,4.05514,0,0,0,4.36914,4.36816,6.08342,6.08342,0,0,0,3.40332-1.05761l.68945,1.24218a7.66036,7.66036,0,0,1-4.32324,1.334A5.65891,5.65891,0,0,1,583.69385,625.96289Z" transform="translate(10.35963 -2.625)"/><path d="M597.77,626.00879c0-3.748,2.85156-5.88672,6.23144-5.88672a5.68059,5.68059,0,0,1,4.07032,1.63184l-.94336,1.21875a4.61265,4.61265,0,0,0-3.05762-1.26465,4.1041,4.1041,0,0,0-4.34668,4.30078,4.05614,4.05614,0,0,0,4.30078,4.25391,5.31486,5.31486,0,0,0,3.44922-1.40332l.85059,1.24218a6.65734,6.65734,0,0,1-4.43848,1.74805C600.39111,631.84961,597.77,629.71094,597.77,626.00879Z" transform="translate(10.35963 -2.625)"/><path d="M614.46729,627.22754v-5.28906h-3.17383V620.5127l3.24218-.11524.25293-3.58691h1.58692v3.58691h5.47265v1.541h-5.47265V627.25c0,2.001.667,3.03516,2.82812,3.03516a7.3512,7.3512,0,0,0,2.668-.50586l.41406,1.40332a9.76687,9.76687,0,0,1-3.49609.667C615.5249,631.84961,614.46729,629.98633,614.46729,627.22754Z" transform="translate(10.35963 -2.625)"/><path d="M630.773,621.93848h-5.17383v-1.541h7.083v11.17578H630.773Zm-.75879-5.3584a1.5183,1.5183,0,1,1,1.51758,1.47168A1.43807,1.43807,0,0,1,630.01416,616.58008Z" transform="translate(10.35963 -2.625)"/><path d="M638.70947,626.00879c0-3.748,2.5752-5.88672,5.51856-5.88672s5.51855,2.13867,5.51855,5.88672a5.52745,5.52745,0,1,1-11.03711,0Zm9.083,0c0-2.57617-1.42578-4.30078-3.56445-4.30078s-3.56446,1.72461-3.56446,4.30078c0,2.55176,1.42579,4.25391,3.56446,4.25391S647.79248,628.56055,647.79248,626.00879Z" transform="translate(10.35963 -2.625)"/><path d="M653.26807,620.39746h1.56347l.16114,1.88574h.09179a5.79209,5.79209,0,0,1,4.208-2.16113c2.64453,0,3.86328,1.56348,3.86328,4.50684v6.94433h-1.9082v-6.6914c0-2.11524-.73633-3.1045-2.55274-3.1045-1.334,0-2.23046.667-3.51855,2.001v7.79492h-1.9082Z" transform="translate(10.35963 -2.625)"/><path d="M260.186,656.27539c0-2.50684,2.3457-3.72559,8.11718-4.18457a2.65277,2.65277,0,0,0-2.96679-2.80566,7.78128,7.78128,0,0,0-3.90918,1.334l-.75879-1.28809a9.79135,9.79135,0,0,1,4.99023-1.60937c3.0586,0,4.55274,1.81641,4.55274,4.59863v6.85254h-1.58692l-.16015-1.51758H268.395a7.5141,7.5141,0,0,1-4.3916,1.79395C261.91064,659.44922,260.186,658.27637,260.186,656.27539Zm8.11718-.02246v-2.89746c-4.7832.36719-6.23144,1.31055-6.23144,2.78223,0,1.26464,1.14941,1.7705,2.4375,1.7705A6.09294,6.09294,0,0,0,268.30322,656.25293Z" transform="translate(10.35963 -2.625)"/><path d="M274.28467,647.99707h1.56347l.16114,1.88574h.09179a5.79211,5.79211,0,0,1,4.208-2.16113c2.64453,0,3.86328,1.56348,3.86328,4.50684v6.94433h-1.9082v-6.6914c0-2.11524-.73633-3.1045-2.55273-3.1045-1.334,0-2.23047.667-3.51856,2.001v7.79492h-1.9082Z" transform="translate(10.35963 -2.625)"/><path d="M287.32568,653.6084c0-3.63379,2.41407-5.88672,5.0586-5.88672a4.79592,4.79592,0,0,1,3.35742,1.42578h.0459l-.0918-2.04687v-4.29981h1.9082v16.37207h-1.56347l-.16114-1.47168H295.811a5.37138,5.37138,0,0,1-3.65625,1.748C289.25732,659.44922,287.32568,657.333,287.32568,653.6084Zm8.37012,2.57519v-5.56445a4.14354,4.14354,0,0,0-2.9209-1.28809c-1.93164,0-3.49511,1.70118-3.49511,4.25391,0,2.668,1.24218,4.25391,3.28808,4.25391A4.22052,4.22052,0,0,0,295.6958,656.18359Z" transform="translate(10.35963 -2.625)"/><path d="M314.92529,653.6084c0-3.63379,2.41407-5.88672,5.0586-5.88672a4.79592,4.79592,0,0,1,3.35742,1.42578h.0459l-.0918-2.04687v-4.29981h1.9082v16.37207h-1.56347l-.16114-1.47168h-.06836a5.37134,5.37134,0,0,1-3.65625,1.748C316.85693,659.44922,314.92529,657.333,314.92529,653.6084Zm8.37012,2.57519v-5.56445a4.14354,4.14354,0,0,0-2.9209-1.28809c-1.93164,0-3.49512,1.70118-3.49512,4.25391,0,2.668,1.24219,4.25391,3.28809,4.25391A4.22052,4.22052,0,0,0,323.29541,656.18359Z" transform="translate(10.35963 -2.625)"/><path d="M328.7251,653.6084c0-3.748,2.57519-5.88672,5.51855-5.88672s5.51856,2.13867,5.51856,5.88672a5.52745,5.52745,0,1,1-11.03711,0Zm9.083,0c0-2.57617-1.42579-4.30078-3.56446-4.30078s-3.56445,1.72461-3.56445,4.30078c0,2.55176,1.42578,4.2539,3.56445,4.2539S337.80811,656.16016,337.80811,653.6084Z" transform="translate(10.35963 -2.625)"/><path d="M341.32861,647.99707h1.88575l1.334,6.48438c.207,1.05859.36816,2.02441.50586,3.082h.0918a28.16817,28.16817,0,0,1,.64355-3.082l1.37988-5.79395h1.88575l1.334,5.79395a29.6394,29.6394,0,0,1,.68945,3.082h.0918c.18457-1.05762.2998-2.02344.50586-3.082l1.334-6.48438h1.74805l-2.3916,11.17578h-2.4375l-1.28809-5.335q-.27539-1.17187-.55175-3.31152h-.0918q-.2754,2.13867-.55176,3.31152l-1.24219,5.335h-2.4375Z" transform="translate(10.35963 -2.625)"/><path d="M357.0835,647.99707H358.647l.16114,1.88574h.09179a5.79209,5.79209,0,0,1,4.208-2.16113c2.64453,0,3.86328,1.56348,3.86328,4.50684v6.94433H365.063v-6.6914c0-2.11524-.73633-3.1045-2.55274-3.1045-1.334,0-2.23046.667-3.51855,2.001v7.79492h-1.9082Z" transform="translate(10.35963 -2.625)"/><path d="M370.37744,657.70117l.874-1.26465a7.971,7.971,0,0,0,4.85157,1.51758c1.88574,0,2.80566-.78222,2.80566-1.72461,0-.85058-.4375-1.44824-3.47265-2.06933-2.91993-.59766-4.36915-1.58692-4.36915-3.26563,0-1.79394,1.58692-3.17285,4.64551-3.17285a8.388,8.388,0,0,1,4.50684,1.42578l-.91992,1.21875a6.59422,6.59422,0,0,0-3.74805-1.17285c-1.88574,0-2.5752.75879-2.5752,1.60937,0,.96582.96582,1.37989,3.26465,1.86231,3.70215.80469,4.59961,1.72461,4.59961,3.44922,0,1.8164-1.77051,3.335-4.96679,3.335A9.82524,9.82524,0,0,1,370.37744,657.70117Z" transform="translate(10.35963 -2.625)"/><path d="M387.28174,654.82715v-5.28906h-3.17383V648.1123l3.24219-.11523.25293-3.58691h1.58691v3.58691h5.47266v1.541h-5.47266v5.31152c0,2.001.667,3.03516,2.82813,3.03516a7.35124,7.35124,0,0,0,2.668-.50586l.41406,1.40332a9.767,9.767,0,0,1-3.4961.667C388.33936,659.44922,387.28174,657.58594,387.28174,654.82715Z" transform="translate(10.35963 -2.625)"/><path d="M399.67822,647.99707h1.58692l.18359,2.64453h.04688a5.88924,5.88924,0,0,1,4.98925-2.91992,4.693,4.693,0,0,1,2.208.46l-.4375,1.63184a5.59891,5.59891,0,0,0-2.06933-.36719c-1.67872,0-3.26563.85059-4.59864,3.19629v6.53027h-1.90918Z" transform="translate(10.35963 -2.625)"/><path d="M411.70752,653.5625a5.61891,5.61891,0,0,1,5.70312-5.84082c3.21875,0,5.1045,2.0918,5.1045,5.24219a7.76891,7.76891,0,0,1-.0918,1.15039h-9.45117v-1.47168h8.32422l-.48243.52832c0-2.64453-1.31054-3.95508-3.35742-3.95508-2.06933,0-3.86328,1.56348-3.86328,4.34668a4.05515,4.05515,0,0,0,4.36914,4.36816,6.08339,6.08339,0,0,0,3.40332-1.05761l.68946,1.24218a7.66042,7.66042,0,0,1-4.32325,1.334A5.65891,5.65891,0,0,1,411.70752,653.5625Z" transform="translate(10.35963 -2.625)"/><path d="M425.78369,656.27539c0-2.50684,2.3457-3.72559,8.11719-4.18457a2.65278,2.65278,0,0,0-2.9668-2.80566,7.78134,7.78134,0,0,0-3.90918,1.334l-.75879-1.28809a9.79139,9.79139,0,0,1,4.99024-1.60937c3.05859,0,4.55273,1.81641,4.55273,4.59863v6.85254h-1.58691l-.16016-1.51758h-.06933a7.5141,7.5141,0,0,1-4.39161,1.79395C427.5083,659.44922,425.78369,658.27637,425.78369,656.27539Zm8.11719-.02246v-2.89746c-4.7832.36719-6.23145,1.31055-6.23145,2.78223,0,1.26464,1.14942,1.7705,2.4375,1.7705A6.093,6.093,0,0,0,433.90088,656.25293Z" transform="translate(10.35963 -2.625)"/><path d="M439.07764,647.99707h1.51757l.16114,1.47168h.0459a2.77348,2.77348,0,0,1,2.55175-1.74707c1.1045,0,1.79395.64355,2.11621,1.93164.64356-1.19629,1.333-1.93164,2.6211-1.93164,1.56348,0,2.4834,1.21875,2.4834,3.44922v8.002H448.689v-7.86426c0-1.28808-.36718-1.95507-1.19531-1.95507-.78222,0-1.19629.57519-1.79394,1.72558v8.09375h-1.74707v-7.86426c0-1.28808-.32227-1.95507-1.15039-1.95507-.78125,0-1.28711.57519-1.83887,1.72558v8.09375h-1.88574Z" transform="translate(10.35963 -2.625)"/><path d="M467.18311,656.27539c0-2.50684,2.3457-3.72559,8.11718-4.18457a2.65277,2.65277,0,0,0-2.96679-2.80566,7.78128,7.78128,0,0,0-3.90918,1.334l-.75879-1.28809a9.79135,9.79135,0,0,1,4.99023-1.60937c3.0586,0,4.55274,1.81641,4.55274,4.59863v6.85254h-1.58692l-.16015-1.51758h-.06934a7.5141,7.5141,0,0,1-4.3916,1.79395C468.90771,659.44922,467.18311,658.27637,467.18311,656.27539Zm8.11718-.02246v-2.89746c-4.7832.36719-6.23144,1.31055-6.23144,2.78223,0,1.26464,1.14941,1.7705,2.4375,1.7705A6.09294,6.09294,0,0,0,475.30029,656.25293Z" transform="translate(10.35963 -2.625)"/><path d="M481.28174,647.99707h1.56347l.16114,1.42578h.06933a5.93216,5.93216,0,0,1,3.86231-1.70117c3.01269,0,4.62207,2.23047,4.62207,5.70215,0,3.79492-2.3916,6.02539-5.082,6.02539A5.30184,5.30184,0,0,1,483.144,658h-.0459l.0918,2.11523v3.77149h-1.9082Zm8.32422,5.42676c0-2.46-.91992-4.09278-3.15039-4.09278a4.74615,4.74615,0,0,0-3.26563,1.65528v5.56543a4.66956,4.66956,0,0,0,2.9668,1.28711C488.13428,657.83887,489.606,656.18359,489.606,653.42383Z" transform="translate(10.35963 -2.625)"/><path d="M495.08154,647.99707H496.645l.16113,1.42578h.06934a5.93216,5.93216,0,0,1,3.8623-1.70117c3.0127,0,4.62207,2.23047,4.62207,5.70215,0,3.79492-2.3916,6.02539-5.082,6.02539A5.30182,5.30182,0,0,1,496.94385,658h-.0459l.0918,2.11523v3.77149h-1.90821Zm8.32422,5.42676c0-2.46-.91992-4.09278-3.15039-4.09278a4.74613,4.74613,0,0,0-3.26562,1.65528v5.56543a4.66952,4.66952,0,0,0,2.96679,1.28711C501.93408,657.83887,503.40576,656.18359,503.40576,653.42383Z" transform="translate(10.35963 -2.625)"/><path d="M512.3999,655.4248v-11.084h-3.95605v-1.54h5.86426V655.5625a2.01738,2.01738,0,0,0,2.207,2.2998,5.049,5.049,0,0,0,2.09277-.50585l.4834,1.42578a6.79424,6.79424,0,0,1-2.98926.667C513.71045,659.44922,512.3999,658.06934,512.3999,655.4248Z" transform="translate(10.35963 -2.625)"/><path d="M527.78564,649.53809h-5.17382v-1.541h7.083v11.17578h-1.90918Zm-.75878-5.3584a1.51829,1.51829,0,1,1,1.51757,1.47168A1.43807,1.43807,0,0,1,527.02686,644.17969Z" transform="translate(10.35963 -2.625)"/><path d="M536.18213,653.6084c0-3.748,2.85156-5.88672,6.23144-5.88672a5.6806,5.6806,0,0,1,4.07032,1.63184l-.94336,1.21875a4.61265,4.61265,0,0,0-3.05762-1.26465,4.1041,4.1041,0,0,0-4.34668,4.30078,4.05614,4.05614,0,0,0,4.30078,4.2539,5.3148,5.3148,0,0,0,3.44922-1.40332l.85059,1.24219a6.65734,6.65734,0,0,1-4.43848,1.748C538.80322,659.44922,536.18213,657.31055,536.18213,653.6084Z" transform="translate(10.35963 -2.625)"/><path d="M549.98193,656.27539c0-2.50684,2.34571-3.72559,8.11719-4.18457a2.65278,2.65278,0,0,0-2.9668-2.80566,7.78134,7.78134,0,0,0-3.90918,1.334l-.75878-1.28809a9.79135,9.79135,0,0,1,4.99023-1.60937c3.05859,0,4.55273,1.81641,4.55273,4.59863v6.85254h-1.58691l-.16016-1.51758h-.06933a7.5141,7.5141,0,0,1-4.3916,1.79395C551.70654,659.44922,549.98193,658.27637,549.98193,656.27539Zm8.11719-.02246v-2.89746c-4.7832.36719-6.23144,1.31055-6.23144,2.78223,0,1.26464,1.14941,1.7705,2.4375,1.7705A6.093,6.093,0,0,0,558.09912,656.25293Z" transform="translate(10.35963 -2.625)"/><path d="M569.18506,649.53809h-5.17383v-1.541h7.083v11.17578h-1.90918Zm-.75879-5.3584a1.5183,1.5183,0,1,1,1.51758,1.47168A1.43807,1.43807,0,0,1,568.42627,644.17969Z" transform="translate(10.35963 -2.625)"/><path d="M580.479,654.82715v-5.28906h-3.17382V648.1123l3.24218-.11523.25293-3.58691h1.58692v3.58691h5.47265v1.541h-5.47265v5.31152c0,2.001.667,3.03516,2.82812,3.03516a7.3512,7.3512,0,0,0,2.668-.50586l.41406,1.40332a9.76692,9.76692,0,0,1-3.49609.667C581.53662,659.44922,580.479,657.58594,580.479,654.82715Z" transform="translate(10.35963 -2.625)"/><path d="M594.27881,654.82715v-5.28906H591.105V648.1123l3.24219-.11523.25293-3.58691H596.187v3.58691h5.47266v1.541H596.187v5.31152c0,2.001.667,3.03516,2.82813,3.03516a7.35124,7.35124,0,0,0,2.668-.50586l.41406,1.40332a9.767,9.767,0,0,1-3.4961.667C595.33643,659.44922,594.27881,657.58594,594.27881,654.82715Z" transform="translate(10.35963 -2.625)"/><path d="M610.58447,649.53809h-5.17383v-1.541h7.083v11.17578h-1.90918Zm-.75879-5.3584a1.5183,1.5183,0,1,1,1.51758,1.47168A1.43807,1.43807,0,0,1,609.82568,644.17969Z" transform="translate(10.35963 -2.625)"/><path d="M618.521,653.6084c0-3.748,2.57519-5.88672,5.51855-5.88672s5.51856,2.13867,5.51856,5.88672a5.52745,5.52745,0,1,1-11.03711,0Zm9.083,0c0-2.57617-1.42578-4.30078-3.56445-4.30078s-3.56445,1.72461-3.56445,4.30078c0,2.55176,1.42578,4.2539,3.56445,4.2539S627.604,656.16016,627.604,653.6084Z" transform="translate(10.35963 -2.625)"/><path d="M633.07959,647.99707h1.56348l.16113,1.88574h.0918a5.79207,5.79207,0,0,1,4.208-2.16113c2.64454,0,3.86329,1.56348,3.86329,4.50684v6.94433h-1.90821v-6.6914c0-2.11524-.73633-3.1045-2.55273-3.1045-1.334,0-2.23047.667-3.51856,2.001v7.79492h-1.9082Z" transform="translate(10.35963 -2.625)"/><path d="M646.37354,657.70117l.874-1.26465a7.971,7.971,0,0,0,4.85156,1.51758c1.88574,0,2.80567-.78222,2.80567-1.72461,0-.85058-.4375-1.44824-3.47266-2.06933-2.91992-.59766-4.36914-1.58692-4.36914-3.26563,0-1.79394,1.58691-3.17285,4.64551-3.17285a8.38793,8.38793,0,0,1,4.50683,1.42578l-.91992,1.21875a6.59422,6.59422,0,0,0-3.748-1.17285c-1.88574,0-2.57519.75879-2.57519,1.60937,0,.96582.96582,1.37989,3.26465,1.86231,3.70214.80469,4.59961,1.72461,4.59961,3.44922,0,1.8164-1.77051,3.335-4.9668,3.335A9.8252,9.8252,0,0,1,646.37354,657.70117Z" transform="translate(10.35963 -2.625)"/><line class="cls-36" x1="958.89943" y1="219.62439" x2="995.48048" y2="219.62439"/><polygon points="1015.495 219.624 987.292 231.148 993.984 219.624 987.292 208.103 1015.495 219.624"/><line class="cls-36" x1="1363.6941" y1="219.62439" x2="1400.27516" y2="219.62439"/><polygon points="1420.289 219.624 1392.087 231.148 1398.779 219.624 1392.087 208.103 1420.289 219.624"/></g></g></svg>