<svg xmlns="http://www.w3.org/2000/svg" viewBox="0 0 648.05908 393.83691"><defs><style>.cls-1{stroke:#69b42d;}.cls-1,.cls-3,.cls-4{stroke-miterlimit:10;}.cls-2{fill:#eaa54b;}.cls-3{stroke:#000;}.cls-4{fill:#99c5c4;stroke:#99c5c4;}</style></defs><g id="Livello_2" data-name="Livello 2"><g id="Livello_1-2" data-name="Livello 1"><path class="cls-1" d="M562.854,162.64209a3.42434,3.42434,0,0,0-1.78711-.47363,3.25326,3.25326,0,0,0-2.4707,1.0083,3.89188,3.89188,0,0,0-.957,2.79053,4.03871,4.03871,0,0,0,.41016,1.7871,3.146,3.146,0,0,0,1.20605,1.333,3.38241,3.38241,0,0,0,1.80664.48828,3.55833,3.55833,0,0,0,1.73828-.44189,3.00024,3.00024,0,0,0,1.24512-1.30127,4.2169,4.2169,0,0,0,.43945-1.94824,4.30278,4.30278,0,0,0-.417-1.92139A3.1023,3.1023,0,0,0,562.854,162.64209Zm-.03613,5.37109a2.42733,2.42733,0,0,1-3.50586.00733,2.86357,2.86357,0,0,1-.69629-2.03858,3.08138,3.08138,0,0,1,.72559-2.30713,2.41947,2.41947,0,0,1,1.73047-.69091,2.34715,2.34715,0,0,1,1.27734.35888,2.26576,2.26576,0,0,1,.86328,1.01075,3.66224,3.66224,0,0,1,.2959,1.52587A3.04329,3.04329,0,0,1,562.81787,168.01318Z"/><path class="cls-1" d="M570.83447,213.15918a3.42827,3.42827,0,0,0-1.78711-.47266,3.25464,3.25464,0,0,0-2.4707,1.00782,3.89147,3.89147,0,0,0-.957,2.791,4.04182,4.04182,0,0,0,.41016,1.78711,3.14355,3.14355,0,0,0,1.20605,1.332,3.37814,3.37814,0,0,0,1.80664.48828,3.55256,3.55256,0,0,0,1.73828-.4414,3.00433,3.00433,0,0,0,1.24512-1.30078,4.221,4.221,0,0,0,.43945-1.94922,4.30362,4.30362,0,0,0-.417-1.9209A3.10354,3.10354,0,0,0,570.83447,213.15918Zm-.03613,5.37109a2.42789,2.42789,0,0,1-3.50586.00782,2.86324,2.86324,0,0,1-.69629-2.03907,3.08162,3.08162,0,0,1,.72559-2.30664,2.41788,2.41788,0,0,1,1.73047-.6914,2.34745,2.34745,0,0,1,1.27734.35937,2.26573,2.26573,0,0,1,.86328,1.01074,3.663,3.663,0,0,1,.2959,1.52637A3.04068,3.04068,0,0,1,570.79834,218.53027Z"/><polygon class="cls-1" points="433.711 80.826 433.711 73.668 432.764 73.668 432.764 76.607 429.043 76.607 429.043 73.668 428.096 73.668 428.096 80.826 429.043 80.826 429.043 77.452 432.764 77.452 432.764 80.826 433.711 80.826"/><path class="cls-1" d="M436.6167,80.46a3.3825,3.3825,0,0,0,1.80664.48828,3.55833,3.55833,0,0,0,1.73828-.44189,3.0003,3.0003,0,0,0,1.24512-1.30127,4.21693,4.21693,0,0,0,.43945-1.94824,4.30278,4.30278,0,0,0-.417-1.92139,3.1023,3.1023,0,0,0-1.21387-1.3208,3.42434,3.42434,0,0,0-1.78711-.47363,3.25323,3.25323,0,0,0-2.4707,1.0083,3.89183,3.89183,0,0,0-.957,2.79052,4.03888,4.03888,0,0,0,.41015,1.78711A3.14614,3.14614,0,0,0,436.6167,80.46Zm.08594-5.4126a2.41943,2.41943,0,0,1,1.73047-.69091,2.34707,2.34707,0,0,1,1.27734.35888,2.26573,2.26573,0,0,1,.86328,1.01074,3.66225,3.66225,0,0,1,.2959,1.52588,3.04329,3.04329,0,0,1-.69043,2.13379,2.42733,2.42733,0,0,1-3.50586.00733,2.86358,2.86358,0,0,1-.69629-2.03858A3.08138,3.08138,0,0,1,436.70264,75.04736Z"/><path class="cls-1" d="M536.03564,80.46a3.38256,3.38256,0,0,0,1.80665.48828,3.55833,3.55833,0,0,0,1.73828-.44189,3.00027,3.00027,0,0,0,1.24511-1.30127,4.21694,4.21694,0,0,0,.43946-1.94824,4.30265,4.30265,0,0,0-.417-1.92139,3.10228,3.10228,0,0,0-1.21386-1.3208,3.42439,3.42439,0,0,0-1.78711-.47363,3.25327,3.25327,0,0,0-2.47071,1.0083,3.89187,3.89187,0,0,0-.957,2.79052,4.03875,4.03875,0,0,0,.41016,1.78711A3.14611,3.14611,0,0,0,536.03564,80.46Zm.08594-5.4126a2.41943,2.41943,0,0,1,1.73047-.69091,2.34707,2.34707,0,0,1,1.27734.35888,2.26575,2.26575,0,0,1,.86329,1.01074,3.66241,3.66241,0,0,1,.29589,1.52588,3.04325,3.04325,0,0,1-.69043,2.13379,2.42732,2.42732,0,0,1-3.50585.00733,2.86354,2.86354,0,0,1-.69629-2.03858A3.08142,3.08142,0,0,1,536.12158,75.04736Z"/><path class="cls-1" d="M639.063,74.01465a3.42439,3.42439,0,0,0-1.78711-.47363,3.25323,3.25323,0,0,0-2.4707,1.0083,3.89183,3.89183,0,0,0-.957,2.79052,4.03875,4.03875,0,0,0,.41016,1.78711,3.14607,3.14607,0,0,0,1.20606,1.333,3.3825,3.3825,0,0,0,1.80664.48828,3.55833,3.55833,0,0,0,1.73828-.44189,3.00022,3.00022,0,0,0,1.24511-1.30127,4.21694,4.21694,0,0,0,.43946-1.94824,4.30278,4.30278,0,0,0-.417-1.92139A3.10236,3.10236,0,0,0,639.063,74.01465Zm-.03613,5.37109a2.42733,2.42733,0,0,1-3.50586.00733,2.86354,2.86354,0,0,1-.69629-2.03858,3.08142,3.08142,0,0,1,.72558-2.30713,2.41943,2.41943,0,0,1,1.73047-.69091,2.34712,2.34712,0,0,1,1.27735.35888,2.26579,2.26579,0,0,1,.86328,1.01074,3.66241,3.66241,0,0,1,.2959,1.52588A3.04329,3.04329,0,0,1,639.02686,79.38574Z"/><polygon class="cls-1" points="646.612 73.668 646.612 76.607 642.891 76.607 642.891 73.668 641.944 73.668 641.944 80.826 642.891 80.826 642.891 77.452 646.612 77.452 646.612 80.826 647.559 80.826 647.559 73.668 646.612 73.668"/><path class="cls-1" d="M430.7124,220.61816a3.42054,3.42054,0,0,0-1.78711-.47461,3.25191,3.25191,0,0,0-2.4707,1.00879,3.89221,3.89221,0,0,0-.957,2.79,4.03581,4.03581,0,0,0,.41015,1.78711,3.1487,3.1487,0,0,0,1.20606,1.334,3.38686,3.38686,0,0,0,1.80664.48828,3.56412,3.56412,0,0,0,1.73828-.44238,2.99622,2.99622,0,0,0,1.24512-1.30176,4.21285,4.21285,0,0,0,.43945-1.94727,4.30189,4.30189,0,0,0-.417-1.92187A3.101,3.101,0,0,0,430.7124,220.61816Zm-.03613,5.3711a2.42679,2.42679,0,0,1-3.50586.00683,2.86392,2.86392,0,0,1-.69629-2.03808,3.08113,3.08113,0,0,1,.72559-2.30762,2.421,2.421,0,0,1,1.73047-.69043,2.34669,2.34669,0,0,1,1.27734.3584,2.26573,2.26573,0,0,1,.86328,1.01074,3.66149,3.66149,0,0,1,.2959,1.52539A3.04593,3.04593,0,0,1,430.67627,225.98926Z"/><path class="cls-1" d="M467.64111,253.89355a3.42826,3.42826,0,0,0-1.78711-.47265,3.25467,3.25467,0,0,0-2.4707,1.00781,3.89154,3.89154,0,0,0-.957,2.791,4.04182,4.04182,0,0,0,.41016,1.78711,3.14361,3.14361,0,0,0,1.20605,1.332,3.37814,3.37814,0,0,0,1.80664.48828,3.55257,3.55257,0,0,0,1.73828-.44141,3.00428,3.00428,0,0,0,1.24512-1.30078,4.221,4.221,0,0,0,.43945-1.94922,4.30362,4.30362,0,0,0-.417-1.9209A3.10354,3.10354,0,0,0,467.64111,253.89355Zm-.03613,5.3711a2.4279,2.4279,0,0,1-3.50586.00781,2.8632,2.8632,0,0,1-.69629-2.03906,3.0816,3.0816,0,0,1,.72559-2.30664,2.41785,2.41785,0,0,1,1.73047-.69141,2.34746,2.34746,0,0,1,1.27734.35938,2.26568,2.26568,0,0,1,.86328,1.01074,3.663,3.663,0,0,1,.2959,1.52637A3.04071,3.04071,0,0,1,467.605,259.26465Z"/><rect class="cls-1" x="490.99566" y="195.0443" width="0.60017" height="22.73352" transform="translate(187.09186 643.94624) rotate(-77.97941)"/><rect class="cls-1" x="469.40291" y="173.67189" width="22.73065" height="0.59933" transform="translate(29.78208 414.83601) rotate(-47.9992)"/><rect class="cls-1" x="513.82364" y="169.70776" width="0.60168" height="22.73511" transform="translate(-30.78586 167.47499) rotate(-17.97259)"/><rect class="cls-1" x="477.9707" y="111.59897" width="0.60011" height="22.73593" transform="translate(132.6427 475.67791) rotate(-59.99997)"/><rect class="cls-1" x="466.90285" y="88.56387" width="22.7358" height="0.59989" transform="translate(19.66097 251.08823) rotate(-30.00592)"/><rect class="cls-1" x="507.50574" y="94.54779" width="0.59998" height="22.73553"/><rect class="cls-1" x="597.08827" y="77.49807" width="0.59991" height="22.7315" transform="translate(221.68696 561.7465) rotate(-59.99408)"/><path class="cls-1" d="M612.40076,91.21881l-24.855-14.35052-24.855,14.35052-20.22-11.669-.3.52,20.22,11.66852v28.39051l-24.57,21.26544-24.55005-21.26544V91.73834l20.21-11.668-.3-.51947-20.21,11.668-24.855-14.35052-24.855,14.35052-20.21-11.668-.3.51947,20.21,11.668v28.7005l25.155,14.5235,24.82-14.33,24.45,21.178-22.875,23.693-28.085-5.98047-19.435,21.581,8.855,27.299-16.98217,18.84839-24.39777-5.19641-.125.587,24.059,5.12414-1.764,1.95783.81366,2.50763-24.05865-5.12366-.125.58655,24.39758,5.19635,6.23743,19.22314.56994-.18549-7.16-22.06054,18.98-21.06348,28.07007,5.977,19.24-21.351,25.21973.00525,14.75024,20.31927.485-.35248-14.49421-19.96667,2.81922.00061.8742-2.68536,14.49579,19.96838.48505-.35248-14.75147-20.32049,6.19642-19.03449-.575-.18555-7.16,22.01-28.26-.006-8.735-26.92053,22.87-23.68695,19.335,20.022.43-.417-19.325-20.017,24.465-21.17847,24.81995,14.33,25.155-14.5235V91.73834l20.21-11.668-.3-.51947Zm-99.73,28.874-24.555,14.177-24.555-14.177V91.73834l24.555-14.177,24.555,14.177Zm10.46,72.965-18.98,21.065-27.735-5.905-8.75-26.96954,18.97-21.06647,27.74,5.907Zm88.97-72.965-24.55505,14.177-24.555-14.177V91.73834l24.555-14.177,24.55505,14.177Z"/><rect class="cls-1" x="586.02242" y="122.66687" width="22.73162" height="0.60012" transform="translate(18.50022 315.01443) rotate(-29.98474)"/><rect class="cls-1" x="567.55573" y="94.54779" width="0.59998" height="22.73553"/><rect class="cls-2" x="353.47079" y="300.1163" width="18.19536" height="0.60052" transform="translate(-100.62314 385.03062) rotate(-49.99685)"/><rect class="cls-2" x="292.09992" y="316.57931" width="0.5996" height="18.92347" transform="translate(-79.46251 557.38244) rotate(-80.00005)"/><polygon class="cls-2" points="304.542 326.511 308.301 332.136 309.273 332.136 309.273 324.978 308.365 324.978 308.365 330.597 304.605 324.978 303.633 324.978 303.633 332.136 304.542 332.136 304.542 326.511"/><polygon class="cls-2" points="308.34 336.749 304.62 336.749 304.62 333.81 303.672 333.81 303.672 340.968 304.62 340.968 304.62 337.595 308.34 337.595 308.34 340.968 309.288 340.968 309.288 333.81 308.34 333.81 308.34 336.749"/><path class="cls-2" d="M326.48389,308.96387a2.03514,2.03514,0,0,1-1.34766.459,2.31946,2.31946,0,0,1-1.21582-.33691,1.98357,1.98357,0,0,1-.82812-1.01856,4.37313,4.37313,0,0,1-.26563-1.59375,4.28909,4.28909,0,0,1,.22461-1.375,2.08674,2.08674,0,0,1,.7793-1.06152,2.31272,2.31272,0,0,1,1.3789-.39551,1.92708,1.92708,0,0,1,1.19141.35645,2.21017,2.21017,0,0,1,.72266,1.13769l.93261-.21972a2.84282,2.84282,0,0,0-1.02051-1.53809,2.931,2.931,0,0,0-1.80664-.54688,3.56551,3.56551,0,0,0-1.73632.43165,2.92746,2.92746,0,0,0-1.21485,1.26562,4.21206,4.21206,0,0,0-.42773,1.9502,4.85822,4.85822,0,0,0,.3789,1.91894,2.93733,2.93733,0,0,0,1.10352,1.36524,3.40164,3.40164,0,0,0,1.88184.4707,2.94836,2.94836,0,0,0,1.8916-.61328,3.1837,3.1837,0,0,0,1.07226-1.7793l-.94726-.23926A2.34649,2.34649,0,0,1,326.48389,308.96387Z"/><polygon class="cls-2" points="334.042 305.893 330.322 305.893 330.322 302.953 329.375 302.953 329.375 310.111 330.322 310.111 330.322 306.737 334.042 306.737 334.042 310.111 334.99 310.111 334.99 302.953 334.042 302.953 334.042 305.893"/><polygon class="cls-2" points="309.273 322.865 311.571 324.793 321.855 310.671 321.395 310.285 309.273 322.865"/><path class="cls-2" d="M313.49951,282.74609a3.40154,3.40154,0,0,0,1.88184.47168,2.95391,2.95391,0,0,0,1.8916-.61328,3.18363,3.18363,0,0,0,1.07226-1.77929l-.94726-.24024a2.3492,2.3492,0,0,1-.74707,1.36328,2.04024,2.04024,0,0,1-1.34766.459,2.32043,2.32043,0,0,1-1.21582-.33789,1.98513,1.98513,0,0,1-.82812-1.01758,4.38051,4.38051,0,0,1-.26563-1.59375,4.28459,4.28459,0,0,1,.22461-1.375,2.08523,2.08523,0,0,1,.7793-1.0625,2.31233,2.31233,0,0,1,1.3789-.39453,1.92665,1.92665,0,0,1,1.19141.35547,2.2174,2.2174,0,0,1,.72266,1.13867l.93261-.22071a2.84033,2.84033,0,0,0-1.0205-1.53711,2.931,2.931,0,0,0-1.80664-.54687,3.55479,3.55479,0,0,0-1.73633.43164,2.91982,2.91982,0,0,0-1.21485,1.26465,4.21485,4.21485,0,0,0-.42773,1.95019,4.86307,4.86307,0,0,0,.37891,1.91993A2.92967,2.92967,0,0,0,313.49951,282.74609Z"/><rect class="cls-2" x="319.77092" y="284.00301" width="0.60012" height="18.11712" transform="translate(-80.93073 127.14549) rotate(-20.00014)"/><path class="cls-2" d="M354.79639,313.957a2.04026,2.04026,0,0,1-1.34766.459,2.31947,2.31947,0,0,1-1.21582-.33692,1.989,1.989,0,0,1-.82812-1.01758,4.38959,4.38959,0,0,1-.26563-1.59472,4.27878,4.27878,0,0,1,.22461-1.374,2.08122,2.08122,0,0,1,.7793-1.0625,2.31272,2.31272,0,0,1,1.3789-.3955,1.92094,1.92094,0,0,1,1.19141.35644,2.21847,2.21847,0,0,1,.72266,1.1377l.93261-.21973a2.84286,2.84286,0,0,0-1.02051-1.53809,2.93729,2.93729,0,0,0-1.80664-.54687,3.5448,3.5448,0,0,0-1.73632.43262,2.91745,2.91745,0,0,0-1.21485,1.26367,4.21617,4.21617,0,0,0-.42773,1.95117,4.85822,4.85822,0,0,0,.3789,1.91894,2.92967,2.92967,0,0,0,1.10352,1.36426,3.39333,3.39333,0,0,0,1.88184.47168,2.95335,2.95335,0,0,0,1.8916-.6123,3.1864,3.1864,0,0,0,1.07226-1.78028l-.94726-.23925A2.34646,2.34646,0,0,1,354.79639,313.957Z"/><polygon class="cls-2" points="355.133 319.519 351.413 319.519 351.413 316.579 350.465 316.579 350.465 323.737 351.413 323.737 351.413 320.363 355.133 320.363 355.133 323.737 356.081 323.737 356.081 316.579 355.133 316.579 355.133 319.519"/><path class="cls-2" d="M358.30713,324.69043q.16845-.17724.76172-.67578a10.57028,10.57028,0,0,0,1.0166-.94531,2.46387,2.46387,0,0,0,.4375-.6543,1.61482,1.61482,0,0,0,.13184-.63477,1.405,1.405,0,0,0-.4502-1.06054A1.69877,1.69877,0,0,0,358.981,320.29a1.783,1.783,0,0,0-1.21973.39844,1.66129,1.66129,0,0,0-.52344,1.15429l.67774.07032a1.07556,1.07556,0,0,1,.28906-.791,1.02533,1.02533,0,0,1,.76172-.28516,1.00764,1.00764,0,0,1,.73047.26856.8803.8803,0,0,1,.28027.66113,1.36363,1.36363,0,0,1-.30762.793,7.34015,7.34015,0,0,1-1.18261,1.13672,6.74746,6.74746,0,0,0-.86231.8125,2.42626,2.42626,0,0,0-.43457.71484,1.1732,1.1732,0,0,0-.07715.457h3.54883v-.63281h-2.63281A2.2213,2.2213,0,0,1,358.30713,324.69043Z"/><rect class="cls-2" x="342.38996" y="303.68379" width="0.60008" height="11.88505" transform="translate(-21.74344 593.33947) rotate(-79.99928)"/><path class="cls-2" d="M336.63232,255.58105a3.09792,3.09792,0,0,0-1.21386-1.32128,3.429,3.429,0,0,0-1.78711-.47364,3.25466,3.25466,0,0,0-2.47071,1.00782,3.8947,3.8947,0,0,0-.957,2.791,4.03568,4.03568,0,0,0,.41016,1.78711,3.14617,3.14617,0,0,0,1.20605,1.333,3.38691,3.38691,0,0,0,1.80664.48828,3.55345,3.55345,0,0,0,1.73829-.44238,2.99908,2.99908,0,0,0,1.24511-1.30078,4.217,4.217,0,0,0,.43946-1.94825A4.30054,4.30054,0,0,0,336.63232,255.58105Zm-1.25,4.04981a2.4268,2.4268,0,0,1-3.50586.00684,2.86234,2.86234,0,0,1-.69628-2.03809,3.08419,3.08419,0,0,1,.72558-2.30762,2.421,2.421,0,0,1,1.73047-.69043,2.355,2.355,0,0,1,1.27734.3584,2.26835,2.26835,0,0,1,.86329,1.01172,3.65847,3.65847,0,0,1,.29589,1.52539A3.04161,3.04161,0,0,1,335.38232,259.63086Z"/><polygon class="cls-2" points="339.247 257.697 342.967 257.697 342.967 261.071 343.915 261.071 343.915 253.913 342.967 253.913 342.967 256.853 339.247 256.853 339.247 253.913 338.299 253.913 338.299 261.071 339.247 261.071 339.247 257.697"/><rect class="cls-2" x="315.34314" y="268.14691" width="18.09494" height="0.60031" transform="translate(-89.77517 344.34041) rotate(-49.99311)"/><path class="cls-2" d="M285.02637,277.7373a3.37926,3.37926,0,0,0,1.80664.48829,3.56461,3.56461,0,0,0,1.73828-.44141,3.00144,3.00144,0,0,0,1.24512-1.30176,4.2169,4.2169,0,0,0,.43945-1.94824,4.29189,4.29189,0,0,0-.41748-1.92188A3.09653,3.09653,0,0,0,288.625,271.292a3.42232,3.42232,0,0,0-1.78711-.47363,3.25189,3.25189,0,0,0-2.4707,1.00879,3.88684,3.88684,0,0,0-.957,2.79,4.042,4.042,0,0,0,.41015,1.78711A3.143,3.143,0,0,0,285.02637,277.7373Zm.08545-5.4121a2.4214,2.4214,0,0,1,1.73095-.69141,2.33531,2.33531,0,0,1,1.27686.35937,2.26527,2.26527,0,0,1,.86426,1.00977,3.67421,3.67421,0,0,1,.29541,1.52637,3.04281,3.04281,0,0,1-.69092,2.13379,2.4279,2.4279,0,0,1-3.50586.00781,2.86893,2.86893,0,0,1-.6958-2.03906A3.08259,3.08259,0,0,1,285.11182,272.3252Z"/><rect class="cls-2" x="300.34942" y="270.11763" width="0.59986" height="18.88158" transform="translate(-26.8673 527.0979) rotate(-80.00043)"/><rect class="cls-2" x="301.24793" y="265.02142" width="0.60008" height="18.8813" transform="translate(-21.10419 523.7735) rotate(-80.0008)"/><polygon class="cls-2" points="369.893 279.022 373.614 279.022 373.614 282.396 374.561 282.396 374.561 275.238 373.614 275.238 373.614 278.178 369.893 278.178 369.893 275.238 368.946 275.238 368.946 282.396 369.893 282.396 369.893 279.022"/><path class="cls-2" d="M379.14209,283.708h-2.63281a2.2213,2.2213,0,0,1,.27832-.35742q.16845-.17726.76172-.67579a10.569,10.569,0,0,0,1.0166-.94531,2.46367,2.46367,0,0,0,.4375-.65429,1.61481,1.61481,0,0,0,.13183-.63477,1.40506,1.40506,0,0,0-.45019-1.06055,1.69878,1.69878,0,0,0-1.22363-.42968,1.783,1.783,0,0,0-1.21973.39843,1.66128,1.66128,0,0,0-.52344,1.1543l.67774.07031a1.07553,1.07553,0,0,1,.28906-.791,1.02532,1.02532,0,0,1,.76172-.28516,1.00768,1.00768,0,0,1,.73047.26855.88034.88034,0,0,1,.28027.66114,1.36365,1.36365,0,0,1-.30762.793,7.341,7.341,0,0,1-1.18261,1.13672,6.74675,6.74675,0,0,0-.86231.8125,2.42613,2.42613,0,0,0-.43457.71484,1.17317,1.17317,0,0,0-.07715.457h3.54883Z"/><path class="cls-2" d="M373.27686,291.93262a2.03514,2.03514,0,0,1-1.34766.459,2.31853,2.31853,0,0,1-1.21582-.33594,1.98756,1.98756,0,0,1-.82813-1.01855,4.38251,4.38251,0,0,1-.26562-1.59473,4.28284,4.28284,0,0,1,.22461-1.374,2.08269,2.08269,0,0,1,.7793-1.06152,2.31305,2.31305,0,0,1,1.3789-.39649,1.92137,1.92137,0,0,1,1.19141.35742,2.21116,2.21116,0,0,1,.72265,1.13672l.93262-.21875a2.84549,2.84549,0,0,0-1.02051-1.53906,2.93723,2.93723,0,0,0-1.80664-.54688,3.55566,3.55566,0,0,0-1.73633.43262,2.92509,2.92509,0,0,0-1.21484,1.26465,4.21325,4.21325,0,0,0-.42773,1.95117,4.85344,4.85344,0,0,0,.3789,1.918,2.93733,2.93733,0,0,0,1.10352,1.36524,3.39342,3.39342,0,0,0,1.88183.4707,2.94775,2.94775,0,0,0,1.89161-.61231,3.18637,3.18637,0,0,0,1.07226-1.78027l-.94726-.23828A2.34373,2.34373,0,0,1,373.27686,291.93262Z"/><path class="cls-2" d="M401.58936,296.9248a2.0351,2.0351,0,0,1-1.34766.459,2.31955,2.31955,0,0,1-1.21582-.33691,1.98364,1.98364,0,0,1-.82813-1.01856,4.37335,4.37335,0,0,1-.26562-1.59375,4.28872,4.28872,0,0,1,.22461-1.375,2.08674,2.08674,0,0,1,.7793-1.06152,2.31272,2.31272,0,0,1,1.3789-.39551,1.92713,1.92713,0,0,1,1.19141.35644,2.21017,2.21017,0,0,1,.72265,1.1377l.93262-.21973a2.84289,2.84289,0,0,0-1.02051-1.53808,2.931,2.931,0,0,0-1.80664-.54688,3.56557,3.56557,0,0,0-1.73633.43164,2.92747,2.92747,0,0,0-1.21484,1.26563,4.21192,4.21192,0,0,0-.42773,1.95019,4.85823,4.85823,0,0,0,.3789,1.91895,2.93725,2.93725,0,0,0,1.10352,1.36523,3.40154,3.40154,0,0,0,1.88183.47071,2.94837,2.94837,0,0,0,1.89161-.61329,3.18363,3.18363,0,0,0,1.07226-1.77929l-.94726-.23926A2.34646,2.34646,0,0,1,401.58936,296.9248Z"/><polygon class="cls-2" points="401.926 302.487 398.206 302.487 398.206 299.548 397.258 299.548 397.258 306.706 398.206 306.706 398.206 303.333 401.926 303.333 401.926 306.706 402.874 306.706 402.874 299.548 401.926 299.548 401.926 302.487"/><path class="cls-2" d="M405.1001,307.65918q.16845-.17579.76172-.6748a10.6984,10.6984,0,0,0,1.0166-.94532,2.48275,2.48275,0,0,0,.4375-.65527,1.60659,1.60659,0,0,0,.13183-.63379,1.40714,1.40714,0,0,0-.45019-1.06152,1.70247,1.70247,0,0,0-1.22363-.42871,1.78254,1.78254,0,0,0-1.21973.39746,1.66564,1.66564,0,0,0-.52344,1.15527l.67774.06934a1.07867,1.07867,0,0,1,.28906-.791,1.02917,1.02917,0,0,1,.76172-.28516,1.00827,1.00827,0,0,1,.73047.26954.87969.87969,0,0,1,.28027.66015,1.36127,1.36127,0,0,1-.30762.793,7.34059,7.34059,0,0,1-1.18261,1.13672,6.81373,6.81373,0,0,0-.86231.81348,2.43453,2.43453,0,0,0-.43457.71386,1.175,1.175,0,0,0-.07715.458h3.54883v-.63379h-2.63281A2.2213,2.2213,0,0,1,405.1001,307.65918Z"/><polygon class="cls-2" points="376.611 290.63 395.286 293.922 395.386 293.331 376.716 290.039 376.611 290.63"/><polygon class="cls-2" points="416.686 261.991 420.407 261.991 420.407 265.365 421.354 265.365 421.354 258.207 420.407 258.207 420.407 261.146 416.686 261.146 416.686 258.207 415.739 258.207 415.739 265.365 416.686 265.365 416.686 261.991"/><path class="cls-2" d="M425.93506,266.67676h-2.63281a2.2213,2.2213,0,0,1,.27832-.35742q.16845-.17579.76172-.67481a10.69727,10.69727,0,0,0,1.0166-.94531,2.48275,2.48275,0,0,0,.4375-.65527,1.60663,1.60663,0,0,0,.13183-.63379,1.40717,1.40717,0,0,0-.45019-1.06153,1.70252,1.70252,0,0,0-1.22364-.42871,1.78258,1.78258,0,0,0-1.21972.39746,1.66564,1.66564,0,0,0-.52344,1.15528l.67773.06933a1.07871,1.07871,0,0,1,.28907-.791,1.02917,1.02917,0,0,1,.76172-.28516,1.00822,1.00822,0,0,1,.73046.26953.87969.87969,0,0,1,.28028.66016,1.36129,1.36129,0,0,1-.30762.793,7.34076,7.34076,0,0,1-1.18262,1.13672,6.815,6.815,0,0,0-.8623.81347,2.4347,2.4347,0,0,0-.43457.71387,1.17479,1.17479,0,0,0-.07715.458h3.54883Z"/><path class="cls-2" d="M420.06982,274.90137a2.04026,2.04026,0,0,1-1.34765.459,2.32038,2.32038,0,0,1-1.21582-.33789,1.98514,1.98514,0,0,1-.82813-1.01758,4.38051,4.38051,0,0,1-.26562-1.59375,4.2844,4.2844,0,0,1,.22461-1.375,2.08525,2.08525,0,0,1,.77929-1.0625,2.31236,2.31236,0,0,1,1.37891-.39453,1.92671,1.92671,0,0,1,1.19141.35547,2.21737,2.21737,0,0,1,.72265,1.13867l.93262-.2207a2.84031,2.84031,0,0,0-1.02051-1.53711,2.931,2.931,0,0,0-1.80664-.54688,3.55482,3.55482,0,0,0-1.73633.43165,2.91978,2.91978,0,0,0-1.21484,1.26464,4.21476,4.21476,0,0,0-.42773,1.9502,4.863,4.863,0,0,0,.3789,1.91992,2.92971,2.92971,0,0,0,1.10352,1.36426,3.40153,3.40153,0,0,0,1.88183.47168,2.95393,2.95393,0,0,0,1.8916-.61328,3.18365,3.18365,0,0,0,1.07227-1.7793l-.94727-.24023A2.34918,2.34918,0,0,1,420.06982,274.90137Z"/><rect class="cls-2" x="400.26531" y="283.08501" width="18.19586" height="0.60036" transform="translate(-70.78988 415.06059) rotate(-50.02881)"/><polygon class="cls-2" points="444.678 276.401 448.438 282.026 449.41 282.026 449.41 274.868 448.501 274.868 448.501 280.488 444.742 274.868 443.77 274.868 443.77 282.026 444.678 282.026 444.678 276.401"/><polygon class="cls-2" points="448.477 286.642 444.756 286.642 444.756 283.702 443.809 283.702 443.809 290.86 444.756 290.86 444.756 287.486 448.477 287.486 448.477 290.86 449.424 290.86 449.424 283.702 448.477 283.702 448.477 286.642"/><rect class="cls-2" x="432.32589" y="266.05226" width="0.59969" height="18.76661" transform="translate(73.1165 641.19899) rotate(-77.97735)"/><rect class="cls-2" x="447.85916" y="267.14343" width="17.29812" height="0.59952" transform="translate(-47.77219 427.52717) rotate(-47.97576)"/><path class="cls-3" d="M177.22314,50.20215a3.42682,3.42682,0,0,0-1.7871-.47363,3.25327,3.25327,0,0,0-2.47071,1.0083,3.88972,3.88972,0,0,0-.957,2.79052,4.03875,4.03875,0,0,0,.41016,1.78711,3.14292,3.14292,0,0,0,1.206,1.333,3.3837,3.3837,0,0,0,1.80664.48828,3.55969,3.55969,0,0,0,1.73828-.44189,3.0003,3.0003,0,0,0,1.24512-1.30127,4.21693,4.21693,0,0,0,.43945-1.94824,4.28977,4.28977,0,0,0-.41748-1.92139A3.09214,3.09214,0,0,0,177.22314,50.20215Zm-.03662,5.37109a2.42733,2.42733,0,0,1-3.50586.00733,2.86774,2.86774,0,0,1-.6958-2.03858,3.08539,3.08539,0,0,1,.7251-2.30713,2.423,2.423,0,0,1,1.731-.69091,2.343,2.343,0,0,1,1.27685.35888,2.26773,2.26773,0,0,1,.86426,1.01074,3.6701,3.6701,0,0,1,.29541,1.52588A3.04114,3.04114,0,0,1,177.18652,55.57324Z"/><path class="cls-3" d="M180.52441,7.419a3.38375,3.38375,0,0,0,1.80664.48828,3.5596,3.5596,0,0,0,1.73829-.4419,3.00017,3.00017,0,0,0,1.24511-1.30127,4.21691,4.21691,0,0,0,.43946-1.94824,4.2898,4.2898,0,0,0-.41748-1.92139,3.09221,3.09221,0,0,0-1.21338-1.3208A3.42686,3.42686,0,0,0,182.33594.5a3.25331,3.25331,0,0,0-2.47071,1.0083,3.88973,3.88973,0,0,0-.957,2.79053,4.03875,4.03875,0,0,0,.41016,1.78711A3.143,3.143,0,0,0,180.52441,7.419Zm.08545-5.4126a2.423,2.423,0,0,1,1.731-.69092,2.34311,2.34311,0,0,1,1.27686.35889,2.26765,2.26765,0,0,1,.86425,1.01074,3.6701,3.6701,0,0,1,.29541,1.52588,3.04117,3.04117,0,0,1-.69091,2.13379,2.42735,2.42735,0,0,1-3.50586.00732,2.86767,2.86767,0,0,1-.6958-2.03857A3.08537,3.08537,0,0,1,180.60986,2.00635Z"/><polygon class="cls-3" points="308.647 48.785 304.887 43.165 303.916 43.165 303.916 50.323 304.824 50.323 304.824 44.698 308.583 50.323 309.555 50.323 309.555 43.165 308.647 43.165 308.647 48.785"/><polygon class="cls-3" points="326.307 26.163 322.547 20.542 321.576 20.542 321.576 27.701 322.484 27.701 322.484 22.076 326.244 27.701 327.215 27.701 327.215 20.542 326.307 20.542 326.307 26.163"/><polygon class="cls-3" points="440.904 36.477 439.996 36.477 439.996 42.097 436.236 36.477 435.264 36.477 435.264 43.635 436.172 43.635 436.172 38.01 439.932 43.635 440.904 43.635 440.904 36.477"/><rect class="cls-3" x="252.35269" y="7.87994" width="0.5998" height="22.73476" transform="translate(198.52987 266.78422) rotate(-82.02308)"/><path class="cls-3" d="M267.7937,15.84979l-28.765-4.031-17.6615,22.62353-25.12537-3.52148-9.2586-22.891-.55646.225,9.12915,22.56989-2.61072-.36591L191.323,32.53687,182.19421,9.9668l-.55651.225,9.25909,22.89093-12.46057,15.962.47247.369,14.29651-18.3125,28.079,3.935,10.761,26.606,28.7655,4.031,17.661-22.62354,23.86047,3.344.0835-.594-23.86047-3.344Zm-7.24249,49.18152-28.07947-3.935-10.63153-26.285,17.448-22.35,28.07953,3.93451,10.631,26.285Z"/><rect class="cls-3" x="254.07159" y="50.56166" width="22.73527" height="0.60006" transform="translate(62.00953 228.79779) rotate(-52.02273)"/><rect class="cls-3" x="231.36708" y="34.76198" width="0.59979" height="22.73465" transform="translate(-0.39456 90.2308) rotate(-22.02169)"/><rect class="cls-3" x="307.38609" y="35.11988" width="16.38724" height="0.60009" transform="translate(93.39568 262.3106) rotate(-52.00442)"/><rect class="cls-3" x="303.314" y="31.9411" width="16.38748" height="0.59994" transform="matrix(0.61503, -0.7885, 0.7885, 0.61503, 94.49841, 258.03636)"/><polygon class="cls-3" points="367.236 50.275 389.751 53.43 389.836 52.836 367.321 49.68 367.236 50.275"/><path class="cls-3" d="M399.14075,9.16083l-28.765-4.03192L352.71722,27.75183l-23.93048-3.354-.08349.594,23.931,3.354,10.76147,26.607,28.76508,4.032,17.66-22.623,23.86,3.344.085-.594-23.86-3.34449Zm-7.24,49.18146-28.08-3.936L353.19025,28.12079,370.63574,5.77118l28.08,3.93561,10.635,26.28552Z"/><rect class="cls-3" x="399.22129" y="13.30642" width="0.59889" height="22.7358" transform="translate(19.89678 151.6046) rotate(-22.02185)"/><rect class="cls-3" x="354.38201" y="19.64001" width="22.73394" height="0.60083" transform="translate(124.99159 295.99444) rotate(-52.0277)"/><rect class="cls-3" x="444.31138" y="44.72153" width="0.60118" height="22.73808" transform="translate(11.4037 170.79257) rotate(-22.02033)"/><polygon class="cls-3" points="456.011 17.586 455.536 17.217 441.651 35.006 442.126 35.375 456.011 17.586"/><polygon class="cls-4" points="126.837 98.885 130.558 98.885 130.558 102.259 131.505 102.259 131.505 95.101 130.558 95.101 130.558 98.041 126.837 98.041 126.837 95.101 125.89 95.101 125.89 102.259 126.837 102.259 126.837 98.885"/><path class="cls-4" d="M134.33643,103.75342a.954.954,0,0,1-.665-.24756,1.45339,1.45339,0,0,1-.38623-.80713l-.65918.08789a1.62823,1.62823,0,0,0,.53271,1.09082,1.68516,1.68516,0,0,0,1.17383.42139,1.80417,1.80417,0,0,0,1.29639-.48877,1.58581,1.58581,0,0,0,.51269-1.19238,1.3871,1.3871,0,0,0-.26367-.86573,1.24491,1.24491,0,0,0-.73975-.456,1.27182,1.27182,0,0,0,.55274-.4541,1.12882,1.12882,0,0,0,.187-.6333,1.32474,1.32474,0,0,0-.1958-.69239,1.36794,1.36794,0,0,0-.56592-.51465,1.75764,1.75764,0,0,0-.80908-.18847,1.58972,1.58972,0,0,0-1.06592.36426,1.6953,1.6953,0,0,0-.54932,1.02734l.65918.11719a1.21347,1.21347,0,0,1,.32959-.7251.89756.89756,0,0,1,.64112-.2417.87218.87218,0,0,1,.6333.23828.801.801,0,0,1,.2456.60059.75269.75269,0,0,1-.33691.67724,1.35929,1.35929,0,0,1-.7583.21973,1.00427,1.00427,0,0,1-.106-.00732l-.07324.57861a1.88736,1.88736,0,0,1,.46484-.07324,1.0245,1.0245,0,0,1,.7544.29492,1.01067,1.01067,0,0,1,.29638.74853,1.08667,1.08667,0,0,1-.32031.79883A1.06457,1.06457,0,0,1,134.33643,103.75342Z"/><path class="cls-4" d="M138.46191,101.91016a3.40152,3.40152,0,0,0,1.88233.47119,2.95218,2.95218,0,0,0,1.89209-.6128,3.18985,3.18985,0,0,0,1.07178-1.77978l-.94727-.23926a2.35177,2.35177,0,0,1-.74707,1.36231,2.03589,2.03589,0,0,1-1.34766.459,2.322,2.322,0,0,1-1.21582-.33691,1.98076,1.98076,0,0,1-.82763-1.01807,4.37068,4.37068,0,0,1-.26612-1.59424,4.27047,4.27047,0,0,1,.22461-1.37451,2.08856,2.08856,0,0,1,.77881-1.062,2.31429,2.31429,0,0,1,1.3794-.39551,1.925,1.925,0,0,1,1.1914.35645,2.21124,2.21124,0,0,1,.72266,1.13769l.93262-.21973a2.84029,2.84029,0,0,0-1.02051-1.53808,2.93311,2.93311,0,0,0-1.80664-.54688,3.55338,3.55338,0,0,0-1.73584.43213,2.92458,2.92458,0,0,0-1.21582,1.26465,4.22007,4.22007,0,0,0-.42725,1.95068,4.86657,4.86657,0,0,0,.37842,1.919A2.94243,2.94243,0,0,0,138.46191,101.91016Z"/><path class="cls-4" d="M166.88379,105.89307a3.40151,3.40151,0,0,0,1.88232.47119,2.95214,2.95214,0,0,0,1.89209-.6128,3.1898,3.1898,0,0,0,1.07178-1.77978l-.94727-.23926a2.35177,2.35177,0,0,1-.74707,1.36231,2.03586,2.03586,0,0,1-1.34765.459,2.32194,2.32194,0,0,1-1.21582-.33691,1.98083,1.98083,0,0,1-.82764-1.01807,4.3709,4.3709,0,0,1-.26611-1.59424A4.27019,4.27019,0,0,1,166.603,101.23a2.08856,2.08856,0,0,1,.77881-1.062,2.31425,2.31425,0,0,1,1.37939-.39551,1.925,1.925,0,0,1,1.19141.35645,2.21123,2.21123,0,0,1,.72265,1.13769l.93262-.21972a2.84026,2.84026,0,0,0-1.02051-1.53809,2.93311,2.93311,0,0,0-1.80664-.54688,3.55338,3.55338,0,0,0-1.73584.43213,2.92463,2.92463,0,0,0-1.21582,1.26465,4.22008,4.22008,0,0,0-.42724,1.95069,4.86655,4.86655,0,0,0,.37841,1.91894A2.94239,2.94239,0,0,0,166.88379,105.89307Z"/><polygon class="cls-4" points="173.874 102.868 177.594 102.868 177.594 106.242 178.542 106.242 178.542 99.084 177.594 99.084 177.594 102.023 173.874 102.023 173.874 99.084 172.926 99.084 172.926 106.242 173.874 106.242 173.874 102.868"/><rect class="cls-4" x="154.02116" y="91.04001" width="0.60008" height="19.20434" transform="translate(33.23414 239.50112) rotate(-82.02189)"/><path class="cls-4" d="M177.646,132.49951a3.4014,3.4014,0,0,0,1.88232.47119,2.95219,2.95219,0,0,0,1.89209-.61279,3.18985,3.18985,0,0,0,1.07178-1.77979l-.94727-.23925a2.35171,2.35171,0,0,1-.74707,1.3623,2.03587,2.03587,0,0,1-1.34765.459,2.322,2.322,0,0,1-1.21582-.33692,1.9807,1.9807,0,0,1-.82764-1.01806,4.37075,4.37075,0,0,1-.26612-1.59424,4.27042,4.27042,0,0,1,.22461-1.37451,2.08868,2.08868,0,0,1,.77881-1.062,2.31428,2.31428,0,0,1,1.3794-.3955,1.925,1.925,0,0,1,1.1914.35644,2.21123,2.21123,0,0,1,.72266,1.1377l.93262-.21973a2.84035,2.84035,0,0,0-1.02051-1.53809,2.93317,2.93317,0,0,0-1.80664-.54687,3.55327,3.55327,0,0,0-1.73584.43213,2.92452,2.92452,0,0,0-1.21582,1.26465,4.22,4.22,0,0,0-.42725,1.95068,4.86664,4.86664,0,0,0,.37842,1.91895A2.94231,2.94231,0,0,0,177.646,132.49951Z"/><rect class="cls-4" x="173.62509" y="106.97101" width="0.60028" height="18.0721" transform="matrix(0.92704, -0.37497, 0.37497, 0.92704, -30.80906, 73.68102)"/><polygon class="cls-4" points="183.327 83.62 184.235 83.62 184.235 77.995 187.995 83.62 188.966 83.62 188.966 76.462 188.058 76.462 188.058 82.082 184.298 76.462 183.327 76.462 183.327 83.62"/><polygon class="cls-4" points="191.535 80.246 195.255 80.246 195.255 83.62 196.203 83.62 196.203 76.462 195.255 76.462 195.255 79.401 191.535 79.401 191.535 76.462 190.587 76.462 190.587 83.62 191.535 83.62 191.535 80.246"/><rect class="cls-4" x="170.32956" y="90.45726" width="14.91056" height="0.59985" transform="translate(-3.22904 174.88978) rotate(-51.97212)"/><rect class="cls-4" x="162.03998" y="139.8907" width="17.37096" height="0.60019" transform="translate(-44.85478 188.41737) rotate(-52.00084)"/><path class="cls-4" d="M205.90967,136.46631a3.3837,3.3837,0,0,0,1.80664.48828,3.55969,3.55969,0,0,0,1.73828-.44189,3.0003,3.0003,0,0,0,1.24512-1.30127,4.217,4.217,0,0,0,.43945-1.94825,4.28975,4.28975,0,0,0-.41748-1.92138,3.09215,3.09215,0,0,0-1.21338-1.3208,3.42684,3.42684,0,0,0-1.78711-.47364,3.25327,3.25327,0,0,0-2.4707,1.0083,3.88971,3.88971,0,0,0-.957,2.79053,4.03888,4.03888,0,0,0,.41015,1.78711A3.14307,3.14307,0,0,0,205.90967,136.46631Zm.08545-5.4126a2.423,2.423,0,0,1,1.731-.69092,2.34309,2.34309,0,0,1,1.27686.35889,2.26779,2.26779,0,0,1,.86426,1.01074,3.67026,3.67026,0,0,1,.29541,1.52588,3.04116,3.04116,0,0,1-.69092,2.13379,2.42735,2.42735,0,0,1-3.50586.00732,2.86767,2.86767,0,0,1-.6958-2.03857A3.08537,3.08537,0,0,1,205.99512,131.05371Z"/><rect class="cls-4" x="193.42346" y="119.18605" width="0.60004" height="18.93579" transform="translate(39.42429 302.64356) rotate(-82.02101)"/><rect class="cls-4" x="192.70647" y="124.30207" width="0.60001" height="18.93572" transform="translate(33.74468 306.34332) rotate(-82.02245)"/><polygon class="cls-4" points="151.583 148.313 151.583 155.471 152.531 155.471 152.531 152.097 156.251 152.097 156.251 155.471 157.199 155.471 157.199 148.313 156.251 148.313 156.251 151.252 152.531 151.252 152.531 148.313 151.583 148.313"/><polygon class="cls-4" points="163.498 153.933 159.738 148.313 158.766 148.313 158.766 155.471 159.674 155.471 159.674 149.846 163.434 155.471 164.406 155.471 164.406 148.313 163.498 148.313 163.498 153.933"/><path class="cls-4" d="M171.24512,176.00342a2.31428,2.31428,0,0,1,1.37939-.39551,1.925,1.925,0,0,1,1.19141.35645,2.21112,2.21112,0,0,1,.72265,1.13769l.93262-.21973a2.84023,2.84023,0,0,0-1.02051-1.53808,2.93311,2.93311,0,0,0-1.80664-.54688,3.55341,3.55341,0,0,0-1.73584.43213,2.92458,2.92458,0,0,0-1.21582,1.26465,4.22007,4.22007,0,0,0-.42724,1.95068,4.86657,4.86657,0,0,0,.37841,1.91895,2.94245,2.94245,0,0,0,1.10352,1.36475,3.40151,3.40151,0,0,0,1.88232.47119,2.95214,2.95214,0,0,0,1.89209-.6128,3.1898,3.1898,0,0,0,1.07178-1.77978l-.94726-.23926a2.35188,2.35188,0,0,1-.74707,1.36231,2.03591,2.03591,0,0,1-1.34766.459,2.32194,2.32194,0,0,1-1.21582-.33691,1.98083,1.98083,0,0,1-.82764-1.01807,4.3709,4.3709,0,0,1-.26611-1.59424,4.27047,4.27047,0,0,1,.22461-1.37451A2.08856,2.08856,0,0,1,171.24512,176.00342Z"/><polygon class="cls-4" points="182.405 182.078 182.405 174.919 181.458 174.919 181.458 177.859 177.737 177.859 177.737 174.919 176.79 174.919 176.79 182.078 177.737 182.078 177.737 178.704 181.458 178.704 181.458 182.078 182.405 182.078"/><rect class="cls-4" x="166.83107" y="156.74151" width="0.60003" height="17.5101" transform="translate(-49.86078 74.7417) rotate(-22.02178)"/><path class="cls-4" d="M199.169,185.71143a3.40149,3.40149,0,0,0,1.88232.47119,2.95214,2.95214,0,0,0,1.89209-.6128,3.18985,3.18985,0,0,0,1.07178-1.77978l-.94727-.23926a2.35177,2.35177,0,0,1-.74707,1.36231,2.03589,2.03589,0,0,1-1.34766.459,2.322,2.322,0,0,1-1.21582-.33691,1.98076,1.98076,0,0,1-.82763-1.01807,4.37068,4.37068,0,0,1-.26612-1.59424,4.27047,4.27047,0,0,1,.22461-1.37451,2.08861,2.08861,0,0,1,.77881-1.062,2.31429,2.31429,0,0,1,1.3794-.39551,1.92493,1.92493,0,0,1,1.1914.35645,2.2112,2.2112,0,0,1,.72266,1.13769l.93262-.21973a2.84029,2.84029,0,0,0-1.02051-1.53808,2.93311,2.93311,0,0,0-1.80664-.54688,3.55338,3.55338,0,0,0-1.73584.43213,2.92463,2.92463,0,0,0-1.21582,1.26465,4.22007,4.22007,0,0,0-.42725,1.95068,4.86657,4.86657,0,0,0,.37842,1.91895A2.94239,2.94239,0,0,0,199.169,185.71143Z"/><rect class="cls-4" x="189.63668" y="174.68856" width="0.60011" height="12.47727" transform="matrix(0.13881, -0.99032, 0.99032, 0.13881, -15.6043, 343.91032)"/><polygon class="cls-4" points="140.642 196.943 139.695 196.943 139.695 204.102 140.642 204.102 140.642 200.728 144.363 200.728 144.363 204.102 145.31 204.102 145.31 196.943 144.363 196.943 144.363 199.883 140.642 199.883 140.642 196.943"/><path class="cls-4" d="M147.71533,204.06055a6.78771,6.78771,0,0,0-.86279.81347,2.44109,2.44109,0,0,0-.43408.71289,1.17018,1.17018,0,0,0-.07666.459h3.54834v-.63477h-2.63282a2.175,2.175,0,0,1,.27832-.35644q.16847-.17726.76172-.67481a10.617,10.617,0,0,0,1.01612-.94531,2.44981,2.44981,0,0,0,.438-.65625,1.60531,1.60531,0,0,0,.13184-.63281,1.40793,1.40793,0,0,0-.45068-1.0625,1.70342,1.70342,0,0,0-1.22315-.42774,1.78785,1.78785,0,0,0-1.21972.39649,1.67008,1.67008,0,0,0-.52344,1.15625l.67773.06836a1.08187,1.08187,0,0,1,.28907-.791,1.033,1.033,0,0,1,.76171-.28515,1.009,1.009,0,0,1,.73047.26953.88093.88093,0,0,1,.28028.66015,1.35894,1.35894,0,0,1-.30762.793A7.29388,7.29388,0,0,1,147.71533,204.06055Z"/><path class="cls-4" d="M150.78418,200.46875a4.86664,4.86664,0,0,0,.37842,1.91895,2.94609,2.94609,0,0,0,1.10351,1.36523,3.40556,3.40556,0,0,0,1.88233.4707,2.94974,2.94974,0,0,0,1.89209-.61328,3.18846,3.18846,0,0,0,1.07177-1.7793l-.94726-.23925a2.35177,2.35177,0,0,1-.74707,1.3623,2.03334,2.03334,0,0,1-1.34766.459,2.322,2.322,0,0,1-1.21582-.33692,1.978,1.978,0,0,1-.82763-1.01855,4.36251,4.36251,0,0,1-.26612-1.59375,4.27556,4.27556,0,0,1,.22461-1.375,2.09145,2.09145,0,0,1,.77881-1.06153,2.31427,2.31427,0,0,1,1.37939-.3955,1.92812,1.92812,0,0,1,1.19141.35644,2.20714,2.20714,0,0,1,.72266,1.1377l.93261-.21973a2.84028,2.84028,0,0,0-1.0205-1.53809,2.93319,2.93319,0,0,0-1.80664-.54687,3.55325,3.55325,0,0,0-1.73584.43213,2.92569,2.92569,0,0,0-1.21582,1.26513A4.218,4.218,0,0,0,150.78418,200.46875Z"/><rect class="cls-4" x="154.09131" y="189.11397" width="18.19878" height="0.60019" transform="translate(-86.80586 192.67158) rotate(-49.99982)"/><polygon class="cls-4" points="216.52 157.813 220.28 163.438 221.251 163.438 221.251 156.28 220.343 156.28 220.343 161.9 216.583 156.28 215.612 156.28 215.612 163.438 216.52 163.438 216.52 157.813"/><polygon class="cls-4" points="227.541 159.22 223.82 159.22 223.82 156.28 222.873 156.28 222.873 163.438 223.82 163.438 223.82 160.064 227.541 160.064 227.541 163.438 228.488 163.438 228.488 156.28 227.541 156.28 227.541 159.22"/><path class="cls-4" d="M233.06836,164.74854h-2.63281a2.197,2.197,0,0,1,.27832-.35694q.16845-.17724.76172-.67529a10.55307,10.55307,0,0,0,1.01611-.94531,2.44661,2.44661,0,0,0,.438-.65528,1.6101,1.6101,0,0,0,.13183-.63379,1.40585,1.40585,0,0,0-.45068-1.06152,1.69969,1.69969,0,0,0-1.22314-.42871,1.78582,1.78582,0,0,0-1.21973.39746,1.66669,1.66669,0,0,0-.52344,1.15527l.67774.06934a1.07869,1.07869,0,0,1,.28906-.791,1.02916,1.02916,0,0,1,.76172-.28515,1.00874,1.00874,0,0,1,.73047.269.87974.87974,0,0,1,.28027.66065,1.36124,1.36124,0,0,1-.30762.793,7.31636,7.31636,0,0,1-1.18262,1.13721,6.78911,6.78911,0,0,0-.86279.813,2.43247,2.43247,0,0,0-.43408.71387,1.16713,1.16713,0,0,0-.07666.458h3.54834Z"/><rect class="cls-4" x="200.80479" y="171.15816" width="17.15034" height="0.60006" transform="translate(-54.59907 231.06484) rotate(-52.03759)"/><path class="cls-4" d="M211.59717,212.835a3.55382,3.55382,0,0,0,1.73828-.44141,3.00428,3.00428,0,0,0,1.24512-1.30078,4.221,4.221,0,0,0,.43945-1.94922,4.29056,4.29056,0,0,0-.41748-1.92089,3.09339,3.09339,0,0,0-1.21338-1.32129,3.43076,3.43076,0,0,0-1.78711-.47266,3.25465,3.25465,0,0,0-2.4707,1.00781,3.88935,3.88935,0,0,0-.957,2.791,4.042,4.042,0,0,0,.41015,1.78711,3.14057,3.14057,0,0,0,1.20606,1.332A3.37934,3.37934,0,0,0,211.59717,212.835Zm-1.72119-5.90039a2.42141,2.42141,0,0,1,1.731-.69141,2.3435,2.3435,0,0,1,1.27686.35938,2.26779,2.26779,0,0,1,.86426,1.01074,3.671,3.671,0,0,1,.29541,1.52637,3.03854,3.03854,0,0,1-.69092,2.13281,2.4279,2.4279,0,0,1-3.50586.00781,2.8673,2.8673,0,0,1-.6958-2.03906A3.08561,3.08561,0,0,1,209.876,206.93457Z"/><rect class="cls-4" x="208.2979" y="185.82104" width="0.60015" height="18.01783" transform="translate(-57.83394 92.42947) rotate(-22.02162)"/><rect class="cls-4" x="203.5006" y="187.76148" width="0.60002" height="18.01769" transform="translate(-58.91258 90.7749) rotate(-22.0222)"/><path class="cls-4" d="M166.94531,228.84668l-.94726-.23926a2.3518,2.3518,0,0,1-.74707,1.36231,2.03333,2.03333,0,0,1-1.34766.459,2.322,2.322,0,0,1-1.21582-.33691,1.9781,1.9781,0,0,1-.82764-1.01856,4.36266,4.36266,0,0,1-.26611-1.59375,4.27561,4.27561,0,0,1,.22461-1.375,2.09138,2.09138,0,0,1,.77881-1.06152,2.31428,2.31428,0,0,1,1.37939-.39551,1.92806,1.92806,0,0,1,1.19141.35645,2.207,2.207,0,0,1,.72265,1.13769l.93262-.21972a2.84017,2.84017,0,0,0-1.02051-1.53809,2.93,2.93,0,0,0-1.80664-.54688,3.56379,3.56379,0,0,0-1.73584.43164,2.92972,2.92972,0,0,0-1.21582,1.26563,4.21812,4.21812,0,0,0-.42724,1.9502,4.86638,4.86638,0,0,0,.37842,1.91894,2.94609,2.94609,0,0,0,1.10351,1.36523,3.40556,3.40556,0,0,0,1.88233.47071,2.94974,2.94974,0,0,0,1.89209-.61328A3.18853,3.18853,0,0,0,166.94531,228.84668Z"/><polygon class="cls-4" points="169.089 227.743 172.81 227.743 172.81 231.117 173.757 231.117 173.757 223.959 172.81 223.959 172.81 226.898 169.089 226.898 169.089 223.959 168.142 223.959 168.142 231.117 169.089 231.117 169.089 227.743"/><path class="cls-4" d="M174.91455,229.22363l.67774.06934a1.07867,1.07867,0,0,1,.28906-.791,1.02916,1.02916,0,0,1,.76172-.28515,1.00843,1.00843,0,0,1,.73047.26855.88155.88155,0,0,1,.28027.66113,1.36124,1.36124,0,0,1-.30762.793,7.29345,7.29345,0,0,1-1.18262,1.1377,6.72116,6.72116,0,0,0-.86279.8125,2.43234,2.43234,0,0,0-.43408.71387,1.16862,1.16862,0,0,0-.07666.458h3.54834v-.63379h-2.63281a2.17388,2.17388,0,0,1,.27832-.35644q.16845-.17871.76172-.67578a10.49153,10.49153,0,0,0,1.01611-.94531,2.43147,2.43147,0,0,0,.438-.65528,1.61366,1.61366,0,0,0,.13183-.63379,1.40585,1.40585,0,0,0-.45068-1.06152,1.6997,1.6997,0,0,0-1.22315-.42871,1.78825,1.78825,0,0,0-1.21972.39746A1.6657,1.6657,0,0,0,174.91455,229.22363Z"/><rect class="cls-4" x="158.53912" y="205.01106" width="0.59995" height="18.11476" transform="translate(-63.63878 67.23945) rotate(-20.00087)"/><path class="cls-4" d="M143.77979,246.294a2.91953,2.91953,0,0,0-1.21583,1.26367,4.22224,4.22224,0,0,0-.42724,1.95117,4.86656,4.86656,0,0,0,.37842,1.91894,2.93847,2.93847,0,0,0,1.10351,1.36426,3.39733,3.39733,0,0,0,1.88233.47168,2.95473,2.95473,0,0,0,1.89209-.6123,3.19124,3.19124,0,0,0,1.07177-1.78028l-.94726-.23925a2.35177,2.35177,0,0,1-.74707,1.3623,2.03848,2.03848,0,0,1-1.34766.459,2.322,2.322,0,0,1-1.21582-.33691,1.98353,1.98353,0,0,1-.82764-1.01758,4.37914,4.37914,0,0,1-.26611-1.59472,4.26539,4.26539,0,0,1,.22461-1.374,2.08579,2.08579,0,0,1,.77881-1.0625,2.31427,2.31427,0,0,1,1.37939-.3955,1.92192,1.92192,0,0,1,1.19141.35644,2.21538,2.21538,0,0,1,.72266,1.1377l.93261-.21973a2.84024,2.84024,0,0,0-1.0205-1.53809,2.93635,2.93635,0,0,0-1.80665-.54687A3.54293,3.54293,0,0,0,143.77979,246.294Z"/><rect class="cls-4" x="145.44529" y="238.15369" width="18.19734" height="0.59979" transform="translate(-127.46107 203.56647) rotate(-50.00007)"/><rect class="cls-4" x="149.77337" y="254.06966" width="0.59972" height="17.42456" transform="translate(-80.82425 67.17346) rotate(-19.99943)"/><path class="cls-4" d="M115.14746,247.78223a3.37934,3.37934,0,0,0,1.80664.48828,3.5645,3.5645,0,0,0,1.73828-.44141,3.00139,3.00139,0,0,0,1.24512-1.30176,4.2169,4.2169,0,0,0,.43945-1.94824,4.29185,4.29185,0,0,0-.41748-1.92187,3.09643,3.09643,0,0,0-1.21338-1.32032,3.42232,3.42232,0,0,0-1.78711-.47363,3.25191,3.25191,0,0,0-2.4707,1.00879,3.8869,3.8869,0,0,0-.957,2.79,4.04182,4.04182,0,0,0,.41016,1.78711A3.143,3.143,0,0,0,115.14746,247.78223Zm.08545-5.41211a2.42144,2.42144,0,0,1,1.731-.69141,2.33518,2.33518,0,0,1,1.27685.35938,2.26513,2.26513,0,0,1,.86426,1.00976,3.67406,3.67406,0,0,1,.29541,1.52637,3.04281,3.04281,0,0,1-.69092,2.13379,2.4279,2.4279,0,0,1-3.50586.00781,2.869,2.869,0,0,1-.6958-2.03906A3.08259,3.08259,0,0,1,115.23291,242.37012Z"/><rect class="cls-4" x="130.47005" y="240.1635" width="0.59984" height="18.88137" transform="translate(-137.75139 335.0402) rotate(-79.99916)"/><rect class="cls-4" x="131.36852" y="235.067" width="0.60013" height="18.88162" transform="translate(-131.98951 331.71501) rotate(-79.99941)"/><polygon class="cls-4" points="153.142 274.532 156.901 280.157 157.873 280.157 157.873 272.999 156.965 272.999 156.965 278.619 153.205 272.999 152.233 272.999 152.233 280.157 153.142 280.157 153.142 274.532"/><polygon class="cls-4" points="165.109 280.157 165.109 272.999 164.162 272.999 164.162 275.938 160.441 275.938 160.441 272.999 159.494 272.999 159.494 280.157 160.441 280.157 160.441 276.783 164.162 276.783 164.162 280.157 165.109 280.157"/><path class="cls-4" d="M135.46973,296.10645a2.31382,2.31382,0,0,1,1.37939-.39454,1.9277,1.9277,0,0,1,1.19141.35547,2.21428,2.21428,0,0,1,.72265,1.13867l.93262-.2207a2.8377,2.8377,0,0,0-1.02051-1.53711,2.93,2.93,0,0,0-1.80664-.54687,3.55291,3.55291,0,0,0-1.73584.43164,2.92188,2.92188,0,0,0-1.21582,1.26465,4.22076,4.22076,0,0,0-.42724,1.95019,4.87132,4.87132,0,0,0,.37841,1.91992,2.9386,2.9386,0,0,0,1.10352,1.36426,3.40554,3.40554,0,0,0,1.88232.47168,2.95532,2.95532,0,0,0,1.89209-.61328,3.18842,3.18842,0,0,0,1.07178-1.7793l-.94726-.24023a2.35463,2.35463,0,0,1-.74707,1.36328,2.03848,2.03848,0,0,1-1.34766.459,2.3229,2.3229,0,0,1-1.21582-.33789,1.97961,1.97961,0,0,1-.82764-1.01757,4.37008,4.37008,0,0,1-.26611-1.59375,4.27118,4.27118,0,0,1,.22461-1.375A2.0898,2.0898,0,0,1,135.46973,296.10645Z"/><polygon class="cls-4" points="146.629 302.181 146.629 295.022 145.682 295.022 145.682 297.962 141.961 297.962 141.961 295.022 141.014 295.022 141.014 302.181 141.961 302.181 141.961 298.808 145.682 298.808 145.682 302.181 146.629 302.181"/><polygon class="cls-4" points="141.366 292.426 141.826 292.812 142.249 292.383 141.715 291.935 141.366 292.426"/><polygon class="cls-4" points="143.016 290.102 143.828 290.784 144.251 290.355 143.364 289.611 143.016 290.102"/><polygon class="cls-4" points="144.665 287.778 145.83 288.756 146.253 288.328 145.014 287.287 144.665 287.778"/><polygon class="cls-4" points="148.256 286.3 146.663 284.963 146.315 285.454 147.833 286.728 148.256 286.3"/><polygon class="cls-4" points="147.964 283.13 149.835 284.7 150.258 284.272 148.312 282.64 147.964 283.13"/><polygon class="cls-4" points="152.26 282.244 149.962 280.316 149.613 280.807 151.837 282.672 152.26 282.244"/><path class="cls-4" d="M147.95654,328.0498a2.03324,2.03324,0,0,1-1.34765.459,2.322,2.322,0,0,1-1.21582-.33691,1.978,1.978,0,0,1-.82764-1.01856,4.36244,4.36244,0,0,1-.26611-1.59375,4.27529,4.27529,0,0,1,.22461-1.375,2.09142,2.09142,0,0,1,.7788-1.06152,2.31431,2.31431,0,0,1,1.3794-.39551,1.92814,1.92814,0,0,1,1.19141.35644,2.20717,2.20717,0,0,1,.72265,1.1377l.93262-.21973a2.84029,2.84029,0,0,0-1.02051-1.53808,2.93,2.93,0,0,0-1.80664-.54688,3.56365,3.56365,0,0,0-1.73584.43164,2.92961,2.92961,0,0,0-1.21582,1.26563,4.218,4.218,0,0,0-.42725,1.95019,4.86657,4.86657,0,0,0,.37842,1.91895,2.94611,2.94611,0,0,0,1.10352,1.36523,3.40555,3.40555,0,0,0,1.88232.47071,2.94971,2.94971,0,0,0,1.89209-.61329,3.18848,3.18848,0,0,0,1.07178-1.77929l-.94727-.23926A2.35171,2.35171,0,0,1,147.95654,328.0498Z"/><rect class="cls-4" x="141.24439" y="303.08852" width="0.60018" height="18.11736" transform="translate(-98.22612 67.23747) rotate(-20.00039)"/><polygon class="cls-4" points="106.427 283.132 110.147 283.132 110.147 286.505 111.095 286.505 111.095 279.347 110.147 279.347 110.147 282.286 106.427 282.286 106.427 279.347 105.479 279.347 105.479 286.505 106.427 286.505 106.427 283.132"/><path class="cls-4" d="M115.67627,287.81543h-2.63281a2.2213,2.2213,0,0,1,.27832-.35742q.16845-.17578.76172-.67481a10.61665,10.61665,0,0,0,1.01611-.94531,2.46175,2.46175,0,0,0,.438-.65527,1.60659,1.60659,0,0,0,.13183-.63379,1.40585,1.40585,0,0,0-.45068-1.06153,1.69969,1.69969,0,0,0-1.22314-.42871,1.78344,1.78344,0,0,0-1.21973.39746,1.66771,1.66771,0,0,0-.52344,1.15528l.67774.06933a1.07867,1.07867,0,0,1,.28906-.791,1.02917,1.02917,0,0,1,.76172-.28516,1.0091,1.0091,0,0,1,.73047.26953.87794.87794,0,0,1,.28027.66016,1.36129,1.36129,0,0,1-.30762.793,7.34032,7.34032,0,0,1-1.18262,1.13672,6.85838,6.85838,0,0,0-.86279.81347,2.4326,2.4326,0,0,0-.43408.71387,1.16572,1.16572,0,0,0-.07666.458h3.54834Z"/><path class="cls-4" d="M109.81055,296.041a2.03848,2.03848,0,0,1-1.34766.459,2.322,2.322,0,0,1-1.21582-.33691,1.98357,1.98357,0,0,1-.82764-1.01758,4.37915,4.37915,0,0,1-.26611-1.59473,4.26533,4.26533,0,0,1,.22461-1.374,2.08579,2.08579,0,0,1,.77881-1.0625,2.31428,2.31428,0,0,1,1.37939-.39551,1.92186,1.92186,0,0,1,1.19141.35645,2.21535,2.21535,0,0,1,.72266,1.13769l.93261-.21973a2.84021,2.84021,0,0,0-1.02051-1.53808,2.93624,2.93624,0,0,0-1.80664-.54688,3.5431,3.5431,0,0,0-1.73584.43262,2.91962,2.91962,0,0,0-1.21582,1.26367,4.22227,4.22227,0,0,0-.42724,1.95117,4.8664,4.8664,0,0,0,.37842,1.91895,2.93857,2.93857,0,0,0,1.10351,1.36426,3.39741,3.39741,0,0,0,1.88233.47168,2.95468,2.95468,0,0,0,1.89209-.61231,3.19121,3.19121,0,0,0,1.07177-1.78027l-.94726-.23926A2.35183,2.35183,0,0,1,109.81055,296.041Z"/><rect class="cls-4" x="122.23305" y="286.60866" width="0.6001" height="18.96082" transform="translate(-190.33507 365.34657) rotate(-80.00024)"/><rect class="cls-4" x="160.36671" y="318.63357" width="0.60008" height="18.92347" transform="translate(-190.34345 429.34831) rotate(-80.00005)"/><path class="cls-4" d="M129.76514,344.40918a3.43078,3.43078,0,0,0-1.78711-.47266,3.25466,3.25466,0,0,0-2.47071,1.00782,3.88937,3.88937,0,0,0-.957,2.791,4.04182,4.04182,0,0,0,.41016,1.78711,3.14049,3.14049,0,0,0,1.20605,1.332,3.37939,3.37939,0,0,0,1.80664.48828,3.55393,3.55393,0,0,0,1.73829-.4414,3.00431,3.00431,0,0,0,1.24511-1.30078,4.221,4.221,0,0,0,.43946-1.94922,4.2906,4.2906,0,0,0-.41748-1.9209A3.09344,3.09344,0,0,0,129.76514,344.40918Zm-.03662,5.37109a2.42789,2.42789,0,0,1-3.50586.00782,2.86735,2.86735,0,0,1-.6958-2.03907,3.08562,3.08562,0,0,1,.72509-2.30664,2.42147,2.42147,0,0,1,1.731-.6914,2.34349,2.34349,0,0,1,1.27686.35937,2.26771,2.26771,0,0,1,.86425,1.01074,3.67086,3.67086,0,0,1,.29541,1.52637A3.03857,3.03857,0,0,1,129.72852,349.78027Z"/><rect class="cls-4" x="130.07696" y="337.92296" width="18.26603" height="0.59995" transform="translate(-209.30357 227.26135) rotate(-49.9676)"/><rect class="cls-4" x="126.11254" y="334.59648" width="18.26634" height="0.59995" transform="translate(-208.23436 223.23411) rotate(-50.00012)"/><path class="cls-4" d="M91.33057,318.06543a2.03848,2.03848,0,0,1-1.34766.459,2.32292,2.32292,0,0,1-1.21582-.33789,1.97961,1.97961,0,0,1-.82764-1.01757,4.37008,4.37008,0,0,1-.26611-1.59375,4.27118,4.27118,0,0,1,.22461-1.375,2.0898,2.0898,0,0,1,.77881-1.0625,2.31382,2.31382,0,0,1,1.37939-.39454,1.9277,1.9277,0,0,1,1.19141.35547,2.21428,2.21428,0,0,1,.72265,1.13867l.93262-.2207a2.83764,2.83764,0,0,0-1.02051-1.53711,2.93,2.93,0,0,0-1.80664-.54687,3.55293,3.55293,0,0,0-1.73584.43164,2.92188,2.92188,0,0,0-1.21582,1.26465,4.22089,4.22089,0,0,0-.42724,1.95019,4.87115,4.87115,0,0,0,.37842,1.91992,2.93852,2.93852,0,0,0,1.10351,1.36426,3.40555,3.40555,0,0,0,1.88233.47168,2.95531,2.95531,0,0,0,1.89208-.61328,3.18842,3.18842,0,0,0,1.07178-1.7793l-.94726-.24023A2.35457,2.35457,0,0,1,91.33057,318.06543Z"/><polygon class="cls-4" points="91.667 323.626 87.947 323.626 87.947 320.687 87 320.687 87 327.845 87.947 327.845 87.947 324.472 91.667 324.472 91.667 327.845 92.615 327.845 92.615 320.687 91.667 320.687 91.667 323.626"/><path class="cls-4" d="M94.84131,328.7998q.16845-.17724.76172-.67578a10.49025,10.49025,0,0,0,1.01611-.94531,2.44285,2.44285,0,0,0,.438-.6543,1.61473,1.61473,0,0,0,.13183-.63476,1.40374,1.40374,0,0,0-.45068-1.06055,1.696,1.696,0,0,0-1.22314-.42969,1.78386,1.78386,0,0,0-1.21973.39844,1.66335,1.66335,0,0,0-.52344,1.1543l.67774.07031a1.07553,1.07553,0,0,1,.28906-.791,1.02533,1.02533,0,0,1,.76172-.28516,1.00847,1.00847,0,0,1,.73047.26855.87855.87855,0,0,1,.28027.66114,1.36365,1.36365,0,0,1-.30762.793,7.3402,7.3402,0,0,1-1.18261,1.13671,6.79076,6.79076,0,0,0-.8628.8125,2.42423,2.42423,0,0,0-.43408.71485,1.16385,1.16385,0,0,0-.07666.457H97.1958v-.63281H94.563A2.22179,2.22179,0,0,1,94.84131,328.7998Z"/><rect class="cls-4" x="90.00519" y="304.22491" width="18.19681" height="0.60029" transform="translate(-197.88144 184.70468) rotate(-50.00131)"/><polygon class="cls-4" points="59.634 300.163 63.354 300.163 63.354 303.536 64.302 303.536 64.302 296.378 63.354 296.378 63.354 299.317 59.634 299.317 59.634 296.378 58.687 296.378 58.687 303.536 59.634 303.536 59.634 300.163"/><path class="cls-4" d="M68.88281,304.84766H66.25a2.1749,2.1749,0,0,1,.27832-.35645q.16845-.17871.76172-.67578a10.49025,10.49025,0,0,0,1.01611-.94531,2.43147,2.43147,0,0,0,.438-.65528,1.61364,1.61364,0,0,0,.13184-.63379,1.40582,1.40582,0,0,0-.45069-1.06152,1.69967,1.69967,0,0,0-1.22314-.42871,1.78828,1.78828,0,0,0-1.21973.39746,1.66576,1.66576,0,0,0-.52344,1.15527l.67774.06934a1.07865,1.07865,0,0,1,.28906-.791,1.02918,1.02918,0,0,1,.76172-.28516,1.00845,1.00845,0,0,1,.73047.26855.88155.88155,0,0,1,.28027.66114,1.36129,1.36129,0,0,1-.30762.793,7.29332,7.29332,0,0,1-1.18261,1.13769,6.72137,6.72137,0,0,0-.8628.8125,2.4326,2.4326,0,0,0-.43408.71387,1.16864,1.16864,0,0,0-.07666.458h3.54834Z"/><path class="cls-4" d="M63.01758,313.07324a2.03844,2.03844,0,0,1-1.34766.459,2.32292,2.32292,0,0,1-1.21582-.33789,1.97963,1.97963,0,0,1-.82764-1.01758,4.37,4.37,0,0,1-.26611-1.59375,4.27118,4.27118,0,0,1,.22461-1.375,2.0898,2.0898,0,0,1,.77881-1.0625,2.31388,2.31388,0,0,1,1.37939-.39453,1.92763,1.92763,0,0,1,1.19141.35547,2.21431,2.21431,0,0,1,.72266,1.13867l.93261-.22071a2.83768,2.83768,0,0,0-1.0205-1.53711,2.93009,2.93009,0,0,0-1.80664-.54687,3.55288,3.55288,0,0,0-1.73584.43164,2.92188,2.92188,0,0,0-1.21582,1.26465,4.22079,4.22079,0,0,0-.42725,1.95019,4.87141,4.87141,0,0,0,.37842,1.91993,2.93849,2.93849,0,0,0,1.10351,1.36425,3.40555,3.40555,0,0,0,1.88233.47168,2.9553,2.9553,0,0,0,1.89209-.61328,3.18847,3.18847,0,0,0,1.07177-1.77929l-.94726-.24024A2.35457,2.35457,0,0,1,63.01758,313.07324Z"/><rect class="cls-4" x="75.43979" y="303.64017" width="0.60013" height="18.96081" transform="translate(-245.77572 333.33828) rotate(-80.00024)"/><path class="cls-4" d="M44.53711,335.0957a2.03844,2.03844,0,0,1-1.34766.459,2.322,2.322,0,0,1-1.21582-.33692,1.98348,1.98348,0,0,1-.82763-1.01757,4.37893,4.37893,0,0,1-.26612-1.59473,4.26528,4.26528,0,0,1,.22461-1.374,2.08575,2.08575,0,0,1,.77881-1.0625,2.31422,2.31422,0,0,1,1.3794-.39551,1.92191,1.92191,0,0,1,1.1914.35644,2.21538,2.21538,0,0,1,.72266,1.1377l.93262-.21973a2.84029,2.84029,0,0,0-1.02051-1.53808,2.93624,2.93624,0,0,0-1.80664-.54688,3.54307,3.54307,0,0,0-1.73584.43262,2.9195,2.9195,0,0,0-1.21582,1.26367,4.22212,4.22212,0,0,0-.42725,1.95117,4.86661,4.86661,0,0,0,.37842,1.91895,2.93855,2.93855,0,0,0,1.10351,1.36425,3.39733,3.39733,0,0,0,1.88233.47168,2.95473,2.95473,0,0,0,1.89209-.6123,3.19128,3.19128,0,0,0,1.07178-1.78027l-.94727-.23926A2.35171,2.35171,0,0,1,44.53711,335.0957Z"/><polygon class="cls-4" points="44.874 340.659 41.153 340.659 41.153 337.72 40.206 337.72 40.206 344.878 41.153 344.878 41.153 341.503 44.874 341.503 44.874 344.878 45.821 344.878 45.821 337.72 44.874 337.72 44.874 340.659"/><path class="cls-4" d="M48.04785,345.83105q.16846-.17871.76172-.67578a10.49025,10.49025,0,0,0,1.01611-.94531,2.431,2.431,0,0,0,.438-.65527,1.61371,1.61371,0,0,0,.13184-.63379,1.40579,1.40579,0,0,0-.45069-1.06152,1.69964,1.69964,0,0,0-1.22314-.42872,1.78835,1.78835,0,0,0-1.21973.39746,1.66572,1.66572,0,0,0-.52343,1.15528l.67773.06933a1.07867,1.07867,0,0,1,.28906-.791,1.02918,1.02918,0,0,1,.76172-.28516,1.00842,1.00842,0,0,1,.73047.26856.88153.88153,0,0,1,.28027.66113,1.36134,1.36134,0,0,1-.30761.793,7.2935,7.2935,0,0,1-1.18262,1.13769,6.72052,6.72052,0,0,0-.86279.8125,2.43285,2.43285,0,0,0-.43409.71387,1.1687,1.1687,0,0,0-.07666.458h3.54834v-.63379H47.76953A2.1749,2.1749,0,0,1,48.04785,345.83105Z"/><rect class="cls-4" x="43.2119" y="321.25641" width="18.19665" height="0.59979" transform="translate(-227.6502 154.95205) rotate(-50.00331)"/><polygon class="cls-4" points="5.168 327.032 1.447 327.032 1.447 324.093 0.5 324.093 0.5 331.251 1.447 331.251 1.447 327.878 5.168 327.878 5.168 331.251 6.115 331.251 6.115 324.093 5.168 324.093 5.168 327.032"/><path class="cls-4" d="M8.3418,332.20605q.16845-.17871.76172-.67578a10.49025,10.49025,0,0,0,1.01611-.94531,2.43128,2.43128,0,0,0,.438-.65527,1.61369,1.61369,0,0,0,.13183-.63379,1.40582,1.40582,0,0,0-.45068-1.06152,1.69966,1.69966,0,0,0-1.22315-.42872,1.7883,1.7883,0,0,0-1.21972.39746,1.66573,1.66573,0,0,0-.52344,1.15528l.67774.06933a1.07867,1.07867,0,0,1,.28906-.791,1.02917,1.02917,0,0,1,.76172-.28516,1.00843,1.00843,0,0,1,.73047.26856.88153.88153,0,0,1,.28027.66113,1.36129,1.36129,0,0,1-.30762.793,7.2935,7.2935,0,0,1-1.18262,1.13769,6.72186,6.72186,0,0,0-.86279.8125,2.4326,2.4326,0,0,0-.43408.71387,1.1687,1.1687,0,0,0-.07666.458h3.54834v-.63379H8.06348A2.17436,2.17436,0,0,1,8.3418,332.20605Z"/><polygon class="cls-4" points="16.585 329.714 12.826 324.093 11.854 324.093 11.854 331.251 12.762 331.251 12.762 325.626 16.522 331.251 17.494 331.251 17.494 324.093 16.585 324.093 16.585 329.714"/><rect class="cls-4" x="28.5158" y="320.51564" width="0.59984" height="19.22611" transform="translate(-301.30147 301.18152) rotate(-80.0002)"/><polygon class="cls-4" points="172.809 328.564 176.568 334.189 177.54 334.189 177.54 327.031 176.632 327.031 176.632 332.651 172.872 327.031 171.9 327.031 171.9 334.189 172.809 334.189 172.809 328.564"/><polygon class="cls-4" points="184.776 334.189 184.776 327.031 183.829 327.031 183.829 329.971 180.108 329.971 180.108 327.031 179.161 327.031 179.161 334.189 180.108 334.189 180.108 330.815 183.829 330.815 183.829 334.189 184.776 334.189"/><path class="cls-4" d="M186.10352,360.05762a2.03333,2.03333,0,0,1-1.34766.459,2.321,2.321,0,0,1-1.21582-.33594,1.982,1.982,0,0,1-.82764-1.01855,4.37179,4.37179,0,0,1-.26611-1.59473,4.2697,4.2697,0,0,1,.22461-1.374,2.08731,2.08731,0,0,1,.77881-1.06152,2.3146,2.3146,0,0,1,1.37939-.39649,1.92236,1.92236,0,0,1,1.19141.35742,2.20809,2.20809,0,0,1,.72265,1.13672l.93262-.21875a2.84283,2.84283,0,0,0-1.02051-1.53906,2.93624,2.93624,0,0,0-1.80664-.54688,3.55378,3.55378,0,0,0-1.73584.43262,2.92723,2.92723,0,0,0-1.21582,1.26465,4.21931,4.21931,0,0,0-.42724,1.95117,4.86177,4.86177,0,0,0,.37841,1.918,2.94625,2.94625,0,0,0,1.10352,1.36524,3.39741,3.39741,0,0,0,1.88232.4707,2.94908,2.94908,0,0,0,1.89209-.61231,3.19117,3.19117,0,0,0,1.07178-1.78027l-.94726-.23828A2.34908,2.34908,0,0,1,186.10352,360.05762Z"/><polygon class="cls-4" points="193.662 356.987 189.941 356.987 189.941 354.048 188.994 354.048 188.994 361.206 189.941 361.206 189.941 357.831 193.662 357.831 193.662 361.206 194.609 361.206 194.609 354.048 193.662 354.048 193.662 356.987"/><rect class="cls-4" x="179.48082" y="335.60707" width="0.60004" height="17.59146" transform="translate(-106.95636 82.26502) rotate(-20.00126)"/><path class="cls-4" d="M215.03955,365.708a3.19125,3.19125,0,0,0,1.07178-1.78028l-.94727-.23925a2.35171,2.35171,0,0,1-.74707,1.3623,2.03839,2.03839,0,0,1-1.34765.459,2.322,2.322,0,0,1-1.21582-.33692,1.98343,1.98343,0,0,1-.82764-1.01758,4.37885,4.37885,0,0,1-.26611-1.59472,4.26512,4.26512,0,0,1,.22461-1.374,2.08581,2.08581,0,0,1,.7788-1.0625,2.3143,2.3143,0,0,1,1.3794-.3955,1.92189,1.92189,0,0,1,1.1914.35644,2.21538,2.21538,0,0,1,.72266,1.1377l.93262-.21973a2.84031,2.84031,0,0,0-1.02051-1.53809,2.9363,2.9363,0,0,0-1.80664-.54687,3.543,3.543,0,0,0-1.73584.43262,2.91956,2.91956,0,0,0-1.21582,1.26367,4.22212,4.22212,0,0,0-.42725,1.95117,4.86664,4.86664,0,0,0,.37842,1.91895,2.93851,2.93851,0,0,0,1.10352,1.36425,3.39731,3.39731,0,0,0,1.88232.47168A2.95469,2.95469,0,0,0,215.03955,365.708Z"/><rect class="cls-4" x="202.01003" y="354.77791" width="0.59987" height="11.88508" transform="translate(-188.06336 497.3119) rotate(-79.99904)"/><polygon class="cls-4" points="156.568 379.011 152.847 379.011 152.847 376.071 151.9 376.071 151.9 383.229 152.847 383.229 152.847 379.855 156.568 379.855 156.568 383.229 157.515 383.229 157.515 376.071 156.568 376.071 156.568 379.011"/><path class="cls-4" d="M161.147,382.2666a1.27175,1.27175,0,0,0,.55274-.4541,1.12926,1.12926,0,0,0,.187-.63379,1.3201,1.3201,0,0,0-.1958-.69141,1.37324,1.37324,0,0,0-.56592-.51562,1.763,1.763,0,0,0-.80908-.1875,1.59156,1.59156,0,0,0-1.06592.36328,1.69945,1.69945,0,0,0-.54932,1.02734l.65918.11719a1.212,1.212,0,0,1,.32959-.72461.89792.89792,0,0,1,.64112-.24218.87416.87416,0,0,1,.6333.23828.80388.80388,0,0,1,.2456.60156.75241.75241,0,0,1-.33691.67676,1.35936,1.35936,0,0,1-.7583.21972.80857.80857,0,0,1-.106-.00781l-.07324.5791a1.88736,1.88736,0,0,1,.46484-.07324,1.02262,1.02262,0,0,1,.7544.29492,1.01033,1.01033,0,0,1,.29638.748,1.08593,1.08593,0,0,1-.32031.79883,1.06461,1.06461,0,0,1-.78516.32226.95358.95358,0,0,1-.665-.24707,1.45675,1.45675,0,0,1-.38623-.80761l-.65918.08789a1.63056,1.63056,0,0,0,.53271,1.09179,1.68482,1.68482,0,0,0,1.17383.4209,1.80243,1.80243,0,0,0,1.29639-.48926,1.58371,1.58371,0,0,0,.51269-1.1914,1.38755,1.38755,0,0,0-.26367-.86621A1.24257,1.24257,0,0,0,161.147,382.2666Z"/><path class="cls-4" d="M167.62354,382.082a2.03844,2.03844,0,0,1-1.34766.459,2.322,2.322,0,0,1-1.21582-.33692,1.98353,1.98353,0,0,1-.82764-1.01758,4.37906,4.37906,0,0,1-.26611-1.59472,4.26539,4.26539,0,0,1,.22461-1.374,2.08583,2.08583,0,0,1,.77881-1.0625,2.31427,2.31427,0,0,1,1.37939-.3955,1.92192,1.92192,0,0,1,1.19141.35644,2.21531,2.21531,0,0,1,.72265,1.1377l.93262-.21973a2.84026,2.84026,0,0,0-1.02051-1.53809,2.9363,2.9363,0,0,0-1.80664-.54687,3.543,3.543,0,0,0-1.73584.43262,2.91956,2.91956,0,0,0-1.21582,1.26367,4.22212,4.22212,0,0,0-.42724,1.95117,4.86655,4.86655,0,0,0,.37841,1.91894,2.93855,2.93855,0,0,0,1.10352,1.36426,3.39731,3.39731,0,0,0,1.88232.47168,2.95469,2.95469,0,0,0,1.89209-.6123,3.1912,3.1912,0,0,0,1.07178-1.78028l-.94726-.23925A2.35182,2.35182,0,0,1,167.62354,382.082Z"/><polygon class="cls-4" points="168.398 374.549 170.696 376.477 171.051 375.992 168.814 374.115 168.398 374.549"/><polygon class="cls-4" points="170.141 372.729 172.185 374.445 172.54 373.96 170.557 372.295 170.141 372.729"/><polygon class="cls-4" points="171.884 370.91 173.674 372.412 174.029 371.927 172.3 370.476 171.884 370.91"/><polygon class="cls-4" points="173.627 369.091 175.163 370.38 175.518 369.895 174.043 368.657 173.627 369.091"/><polygon class="cls-4" points="175.37 367.271 176.652 368.347 177.007 367.862 175.786 366.837 175.37 367.271"/><polygon class="cls-4" points="177.113 365.452 178.141 366.315 178.497 365.83 177.529 365.018 177.113 365.452"/><polygon class="cls-4" points="178.856 363.633 179.63 364.282 179.986 363.797 179.272 363.198 178.856 363.633"/><polygon class="cls-4" points="180.599 361.813 181.119 362.25 181.475 361.765 181.015 361.379 180.599 361.813"/><rect class="cls-4" x="213.26969" y="351.59353" width="17.19708" height="0.60035" transform="translate(-190.34839 295.92804) rotate(-50.03702)"/><path class="cls-4" d="M224.53809,386.40332a3.423,3.423,0,0,0-1.78711-.47461,3.25193,3.25193,0,0,0-2.47071,1.00879,3.89009,3.89009,0,0,0-.957,2.79,4.03568,4.03568,0,0,0,.41016,1.78711,3.14552,3.14552,0,0,0,1.20605,1.334,3.388,3.388,0,0,0,1.80664.48828,3.56539,3.56539,0,0,0,1.73829-.44238,2.99615,2.99615,0,0,0,1.24511-1.30176,4.21281,4.21281,0,0,0,.43946-1.94726,4.28884,4.28884,0,0,0-.41749-1.92188A3.091,3.091,0,0,0,224.53809,386.40332Zm-.03663,5.37109a2.42677,2.42677,0,0,1-3.50585.00684,2.868,2.868,0,0,1-.69581-2.03809,3.08513,3.08513,0,0,1,.7251-2.30761,2.42463,2.42463,0,0,1,1.731-.69043,2.34267,2.34267,0,0,1,1.27685.3584,2.26761,2.26761,0,0,1,.86426,1.01074,3.66934,3.66934,0,0,1,.29541,1.52539A3.04375,3.04375,0,0,1,224.50146,391.77441Z"/><rect class="cls-4" x="219.95234" y="366.22365" width="0.60001" height="18.02182" transform="translate(-115.05734 97.96306) rotate(-20.0005)"/><rect class="cls-4" x="215.08958" y="367.99363" width="0.59981" height="18.02189" transform="translate(-115.95513 96.40552) rotate(-20.00031)"/><polygon class="cls-4" points="233.234 331.122 229.513 331.122 229.513 328.183 228.566 328.183 228.566 335.341 229.513 335.341 229.513 331.968 233.234 331.968 233.234 335.341 234.181 335.341 234.181 328.183 233.234 328.183 233.234 331.122"/><polygon class="cls-4" points="233.258 342.636 229.499 337.017 228.527 337.017 228.527 344.175 229.435 344.175 229.435 338.55 233.195 344.175 234.167 344.175 234.167 337.017 233.258 337.017 233.258 342.636"/><path class="cls-4" d="M262.9043,346.89551l-.94727-.23828a2.34891,2.34891,0,0,1-.74707,1.36132,2.03325,2.03325,0,0,1-1.34766.459,2.32106,2.32106,0,0,1-1.21582-.33594,1.98193,1.98193,0,0,1-.82763-1.01855,4.37157,4.37157,0,0,1-.26612-1.59473,4.26966,4.26966,0,0,1,.22461-1.374,2.08744,2.08744,0,0,1,.77881-1.06153,2.31468,2.31468,0,0,1,1.3794-.39648,1.92233,1.92233,0,0,1,1.1914.35742,2.20816,2.20816,0,0,1,.72266,1.13672l.93262-.21875a2.84288,2.84288,0,0,0-1.02051-1.53906,2.93624,2.93624,0,0,0-1.80664-.54688,3.55364,3.55364,0,0,0-1.73584.43262,2.92723,2.92723,0,0,0-1.21582,1.26465,4.21932,4.21932,0,0,0-.42725,1.95117,4.86181,4.86181,0,0,0,.37842,1.918,2.94611,2.94611,0,0,0,1.10352,1.36523,3.3973,3.3973,0,0,0,1.88232.47071,2.94908,2.94908,0,0,0,1.89209-.61231A3.19122,3.19122,0,0,0,262.9043,346.89551Z"/><polygon class="cls-4" points="265.048 345.792 268.769 345.792 268.769 349.167 269.716 349.167 269.716 342.009 268.769 342.009 268.769 344.948 265.048 344.948 265.048 342.009 264.101 342.009 264.101 349.167 265.048 349.167 265.048 345.792"/><rect class="cls-4" x="245.21054" y="333.46503" width="0.6001" height="19.18106" transform="translate(-134.96362 525.26956) rotate(-80.00064)"/><path class="cls-4" d="M280.437,324.63379a2.35171,2.35171,0,0,1-.74707,1.3623,2.03839,2.03839,0,0,1-1.34765.459,2.322,2.322,0,0,1-1.21583-.33692,1.98348,1.98348,0,0,1-.82763-1.01757,4.37893,4.37893,0,0,1-.26612-1.59473,4.26533,4.26533,0,0,1,.22461-1.374,2.0858,2.0858,0,0,1,.77881-1.0625,2.31422,2.31422,0,0,1,1.3794-.39551,1.92189,1.92189,0,0,1,1.1914.35644,2.21538,2.21538,0,0,1,.72266,1.1377l.93262-.21973a2.84029,2.84029,0,0,0-1.02051-1.53808,2.93624,2.93624,0,0,0-1.80664-.54688,3.54307,3.54307,0,0,0-1.73584.43262,2.91956,2.91956,0,0,0-1.21582,1.26367,4.22212,4.22212,0,0,0-.42725,1.95117,4.86661,4.86661,0,0,0,.37842,1.91895,2.93859,2.93859,0,0,0,1.10352,1.36426,3.39738,3.39738,0,0,0,1.88232.47167,2.95469,2.95469,0,0,0,1.89209-.6123,3.19122,3.19122,0,0,0,1.07178-1.78027Z"/><rect class="cls-4" x="261.86209" y="333.2568" width="15.78953" height="0.59998" transform="translate(-159.15929 325.82117) rotate(-50.00331)"/><path class="cls-4" d="M271.043,375.03613a2.03334,2.03334,0,0,1-1.34766.459,2.322,2.322,0,0,1-1.21582-.33692,1.978,1.978,0,0,1-.82763-1.01855,4.36251,4.36251,0,0,1-.26612-1.59375,4.27556,4.27556,0,0,1,.22461-1.375,2.09138,2.09138,0,0,1,.77881-1.06152,2.31421,2.31421,0,0,1,1.37939-.39551,1.92812,1.92812,0,0,1,1.19141.35644,2.20714,2.20714,0,0,1,.72266,1.1377l.93261-.21973a2.84022,2.84022,0,0,0-1.0205-1.53808,2.93,2.93,0,0,0-1.80664-.54688,3.56362,3.56362,0,0,0-1.73584.43164,2.92949,2.92949,0,0,0-1.21582,1.26563,4.21793,4.21793,0,0,0-.42725,1.95019,4.86661,4.86661,0,0,0,.37842,1.919,2.94609,2.94609,0,0,0,1.10351,1.36523,3.40556,3.40556,0,0,0,1.88233.4707,2.94974,2.94974,0,0,0,1.89209-.61328,3.18847,3.18847,0,0,0,1.07177-1.77929l-.94726-.23926A2.35177,2.35177,0,0,1,271.043,375.03613Z"/><polygon class="cls-4" points="278.602 371.965 274.881 371.965 274.881 369.025 273.934 369.025 273.934 376.184 274.881 376.184 274.881 372.81 278.602 372.81 278.602 376.184 279.549 376.184 279.549 369.025 278.602 369.025 278.602 371.965"/><path class="cls-4" d="M283.92188,375.67578a1.24266,1.24266,0,0,0-.73975-.456,1.27175,1.27175,0,0,0,.55273-.45411,1.12921,1.12921,0,0,0,.187-.63378,1.32,1.32,0,0,0-.19581-.69141,1.3733,1.3733,0,0,0-.56591-.51563,1.76307,1.76307,0,0,0-.80909-.1875,1.59156,1.59156,0,0,0-1.06591.36329,1.69938,1.69938,0,0,0-.54932,1.02734l.65918.11719a1.21193,1.21193,0,0,1,.32959-.72461.89792.89792,0,0,1,.64111-.24219.87418.87418,0,0,1,.6333.23828.80387.80387,0,0,1,.24561.60156.75239.75239,0,0,1-.33692.67676,1.35924,1.35924,0,0,1-.7583.21973.80844.80844,0,0,1-.106-.00781l-.07325.5791a1.88743,1.88743,0,0,1,.46485-.07324,1.02256,1.02256,0,0,1,.75439.29492,1.01029,1.01029,0,0,1,.29639.748,1.086,1.086,0,0,1-.32031.79883,1.0646,1.0646,0,0,1-.78516.32227.95361.95361,0,0,1-.665-.24707,1.45681,1.45681,0,0,1-.38623-.80762l-.65918.08789a1.63057,1.63057,0,0,0,.53272,1.0918,1.68479,1.68479,0,0,0,1.17382.4209,1.80245,1.80245,0,0,0,1.29639-.48926,1.58371,1.58371,0,0,0,.5127-1.19141A1.38757,1.38757,0,0,0,283.92188,375.67578Z"/><polygon class="cls-4" points="268.896 366.582 266.151 367.581 266.319 368.158 269.138 367.132 268.896 366.582"/><polygon class="cls-4" points="267.884 364.287 265.451 365.173 265.619 365.75 268.127 364.837 267.884 364.287"/><polygon class="cls-4" points="266.872 361.992 264.751 362.764 264.919 363.342 267.115 362.542 266.872 361.992"/><polygon class="cls-4" points="265.861 359.697 264.051 360.356 264.219 360.933 266.103 360.248 265.861 359.697"/><polygon class="cls-4" points="264.849 357.403 263.351 357.948 263.519 358.525 265.092 357.953 264.849 357.403"/><polygon class="cls-4" points="263.838 355.108 262.651 355.54 262.819 356.117 264.08 355.658 263.838 355.108"/><polygon class="cls-4" points="262.826 352.813 261.951 353.131 262.118 353.709 263.068 353.363 262.826 352.813"/><polygon class="cls-4" points="261.814 350.518 261.25 350.723 261.418 351.301 262.057 351.068 261.814 350.518"/><path class="cls-4" d="M266.54639,299.76074a3.388,3.388,0,0,0,1.80664.48828,3.56538,3.56538,0,0,0,1.73828-.44238,2.99617,2.99617,0,0,0,1.24512-1.30176,4.21293,4.21293,0,0,0,.43945-1.94726,4.289,4.289,0,0,0-.41748-1.92188,3.091,3.091,0,0,0-1.21338-1.32031,3.423,3.423,0,0,0-1.78711-.47461,3.25189,3.25189,0,0,0-2.4707,1.00879,3.89,3.89,0,0,0-.957,2.79,4.03571,4.03571,0,0,0,.41015,1.78711A3.14548,3.14548,0,0,0,266.54639,299.76074Zm.08545-5.41308a2.42459,2.42459,0,0,1,1.731-.69043,2.3428,2.3428,0,0,1,1.27686.35839,2.26781,2.26781,0,0,1,.86426,1.01075,3.6695,3.6695,0,0,1,.29541,1.52539,3.04375,3.04375,0,0,1-.69092,2.13476,2.42678,2.42678,0,0,1-3.50586.00684,2.868,2.868,0,0,1-.6958-2.03809A3.08513,3.08513,0,0,1,266.63184,294.34766Z"/><rect class="cls-4" x="270.53566" y="301.8602" width="0.60013" height="18.17821" transform="translate(-90.01434 111.37803) rotate(-19.99908)"/><rect class="cls-4" x="275.39869" y="300.09021" width="0.59987" height="18.17823" transform="translate(-89.12031 112.94291) rotate(-20.00041)"/><rect class="cls-4" x="180.37162" y="57.7054" width="0.59994" height="17.39007" transform="translate(-11.71578 72.5925) rotate(-22.02285)"/></g></g></svg>