<?xml version="1.0" encoding="UTF-8" standalone="no"?>
<svg
   xmlns:dc="http://purl.org/dc/elements/1.1/"
   xmlns:cc="http://creativecommons.org/ns#"
   xmlns:rdf="http://www.w3.org/1999/02/22-rdf-syntax-ns#"
   xmlns:svg="http://www.w3.org/2000/svg"
   xmlns="http://www.w3.org/2000/svg"
   xmlns:sodipodi="http://sodipodi.sourceforge.net/DTD/sodipodi-0.dtd"
   xmlns:inkscape="http://www.inkscape.org/namespaces/inkscape"
   viewBox="0 0 448.35134 394.38856"
   version="1.1"
   id="svg380"
   sodipodi:docname="fluorogenic peptide.svg"
   inkscape:version="0.92.4 (5da689c313, 2019-01-14)"
   inkscape:export-filename="C:\Users\Jonas_Juozapaitis.ERELIS\Documents\Vilnius_GMC\docs\project\img\fluorogenic peptide.png"
   inkscape:export-xdpi="306.33099"
   inkscape:export-ydpi="306.33099">
  <metadata
     id="metadata384">
    <rdf:RDF>
      <cc:Work
         rdf:about="">
        <dc:format>image/svg+xml</dc:format>
        <dc:type
           rdf:resource="http://purl.org/dc/dcmitype/StillImage" />
      </cc:Work>
    </rdf:RDF>
  </metadata>
  <sodipodi:namedview
     pagecolor="#ffffff"
     bordercolor="#666666"
     borderopacity="1"
     objecttolerance="10"
     gridtolerance="10"
     guidetolerance="10"
     inkscape:pageopacity="0"
     inkscape:pageshadow="2"
     inkscape:window-width="1920"
     inkscape:window-height="1017"
     id="namedview382"
     showgrid="false"
     inkscape:zoom="1.6925157"
     inkscape:cx="193.68678"
     inkscape:cy="152.19614"
     inkscape:window-x="-8"
     inkscape:window-y="-8"
     inkscape:window-maximized="1"
     inkscape:current-layer="svg380" />
  <defs
     id="defs4">
    <style
       id="style2">.cls-1{fill:#69b42d;stroke:#69b42d;}.cls-1,.cls-2,.cls-3,.cls-4{stroke-miterlimit:10;}.cls-2{fill:#eaa54b;stroke:#eaa54b;stroke-width:0.56693px;}.cls-3{stroke:#000;}.cls-4{fill:#99c5c4;stroke:#99c5c4;stroke-width:0.56693px;}</style>
  </defs>
  <g
     id="Livello_2"
     data-name="Livello 2">
    <g
       id="Livello_1-2"
       data-name="Livello 1">
      <path
         class="cls-1"
         d="M408.79762,210.43323a3.42826,3.42826,0,0,0-1.7871-.47266,3.25466,3.25466,0,0,0-2.47071,1.00782,3.89151,3.89151,0,0,0-.957,2.791,4.04179,4.04179,0,0,0,.41016,1.78711,3.14355,3.14355,0,0,0,1.20605,1.332,3.37807,3.37807,0,0,0,1.80664.48828,3.55256,3.55256,0,0,0,1.73828-.4414,3.00433,3.00433,0,0,0,1.24512-1.30078,4.221,4.221,0,0,0,.43945-1.94922,4.30348,4.30348,0,0,0-.417-1.9209A3.10348,3.10348,0,0,0,408.79762,210.43323Zm-.03613,5.37109a2.42789,2.42789,0,0,1-3.50586.00782,2.86322,2.86322,0,0,1-.69629-2.03907,3.08162,3.08162,0,0,1,.72559-2.30664,2.41788,2.41788,0,0,1,1.73047-.6914,2.34745,2.34745,0,0,1,1.27734.35937,2.26573,2.26573,0,0,1,.86328,1.01074,3.663,3.663,0,0,1,.2959,1.52637A3.04068,3.04068,0,0,1,408.76149,215.80432Z"
         id="path6" />
      <path
         class="cls-1"
         d="M447.43434,232.49866a3.10352,3.10352,0,0,0-1.21386-1.32129,3.42831,3.42831,0,0,0-1.78711-.47265,3.25465,3.25465,0,0,0-2.47071,1.00781,3.89151,3.89151,0,0,0-.957,2.791,4.04179,4.04179,0,0,0,.41016,1.78711,3.14361,3.14361,0,0,0,1.20605,1.332,3.37811,3.37811,0,0,0,1.80664.48829,3.5526,3.5526,0,0,0,1.73829-.44141,3.00437,3.00437,0,0,0,1.24511-1.30078,4.221,4.221,0,0,0,.43946-1.94922A4.30349,4.30349,0,0,0,447.43434,232.49866Zm-1.25,4.04981a2.4279,2.4279,0,0,1-3.50586.00781,2.86321,2.86321,0,0,1-.69628-2.03906,3.08167,3.08167,0,0,1,.72558-2.30665,2.41788,2.41788,0,0,1,1.73047-.6914,2.34754,2.34754,0,0,1,1.27734.35937,2.2657,2.2657,0,0,1,.86328,1.01075,3.663,3.663,0,0,1,.2959,1.52636A3.04072,3.04072,0,0,1,446.18434,236.54847Z"
         id="path8" />
      <polygon
         class="cls-1"
         points="284.331 239.654 280.61 239.654 280.61 236.714 279.663 236.714 279.663 243.873 280.61 243.873 280.61 240.5 284.331 240.5 284.331 243.873 285.278 243.873 285.278 236.714 284.331 236.714 284.331 239.654"
         id="polygon10" />
      <path
         class="cls-1"
         d="M291.782,237.06214a3.42542,3.42542,0,0,0-1.78711-.47461,3.25189,3.25189,0,0,0-2.4707,1.00879,3.888,3.888,0,0,0-.957,2.79,4.03571,4.03571,0,0,0,.41015,1.78711,3.14861,3.14861,0,0,0,1.20606,1.334,3.38686,3.38686,0,0,0,1.80664.48828,3.56412,3.56412,0,0,0,1.73828-.44238,2.99622,2.99622,0,0,0,1.24512-1.30176,4.213,4.213,0,0,0,.43945-1.94727,4.276,4.276,0,0,0-.418-1.92187A3.08088,3.08088,0,0,0,291.782,237.06214Zm-.03711,5.37109a2.42681,2.42681,0,0,1-3.50586.00684,2.87221,2.87221,0,0,1-.69531-2.03809,3.08917,3.08917,0,0,1,.72461-2.30762,2.42655,2.42655,0,0,1,1.73144-.69043,2.34107,2.34107,0,0,1,1.27637.3584,2.2697,2.2697,0,0,1,.86523,1.01074,3.67725,3.67725,0,0,1,.29493,1.5254A3.0416,3.0416,0,0,1,291.74489,242.43323Z"
         id="path12" />
      <path
         class="cls-1"
         d="M349.97048,187.8302a3.38241,3.38241,0,0,0,1.80664.48828,3.55833,3.55833,0,0,0,1.73828-.44189,3.00024,3.00024,0,0,0,1.24512-1.30127,4.217,4.217,0,0,0,.43945-1.94824,4.30278,4.30278,0,0,0-.417-1.92139,3.10236,3.10236,0,0,0-1.21387-1.3208,3.42437,3.42437,0,0,0-1.78711-.47363,3.25327,3.25327,0,0,0-2.4707,1.0083,3.89183,3.89183,0,0,0-.957,2.79053,4.03877,4.03877,0,0,0,.41015,1.78711A3.1461,3.1461,0,0,0,349.97048,187.8302Zm.08593-5.41259a2.41946,2.41946,0,0,1,1.73047-.69092,2.34721,2.34721,0,0,1,1.27735.35888,2.26582,2.26582,0,0,1,.86328,1.01075,3.66241,3.66241,0,0,1,.2959,1.52588,3.04328,3.04328,0,0,1-.69043,2.13378,2.42733,2.42733,0,0,1-3.50586.00733,2.86352,2.86352,0,0,1-.69629-2.03858A3.08138,3.08138,0,0,1,350.05641,182.41761Z"
         id="path14" />
      <path
         class="cls-1"
         d="M411.76442,132.14807a3.38244,3.38244,0,0,0,1.80664.48829,3.55834,3.55834,0,0,0,1.73828-.4419,3.00019,3.00019,0,0,0,1.24512-1.30127,4.2169,4.2169,0,0,0,.43945-1.94824,4.30264,4.30264,0,0,0-.417-1.92139,3.1023,3.1023,0,0,0-1.21387-1.3208,3.42433,3.42433,0,0,0-1.7871-.47363,3.25331,3.25331,0,0,0-2.47071,1.0083,3.89188,3.89188,0,0,0-.957,2.79053,4.03875,4.03875,0,0,0,.41016,1.78711A3.14608,3.14608,0,0,0,411.76442,132.14807Zm.08594-5.41259a2.41944,2.41944,0,0,1,1.73047-.69092,2.34707,2.34707,0,0,1,1.27734.35889,2.26568,2.26568,0,0,1,.86328,1.01074,3.66225,3.66225,0,0,1,.2959,1.52588,3.04333,3.04333,0,0,1-.69043,2.13379,2.42734,2.42734,0,0,1-3.50586.00732,2.86356,2.86356,0,0,1-.69629-2.03857A3.08137,3.08137,0,0,1,411.85036,126.73548Z"
         id="path16" />
      <polygon
         class="cls-1"
         points="419.191 129.14 422.912 129.14 422.912 132.514 423.859 132.514 423.859 125.356 422.912 125.356 422.912 128.296 419.191 128.296 419.191 125.356 418.244 125.356 418.244 132.514 419.191 132.514 419.191 129.14"
         id="polygon18" />
      <path
         class="cls-1"
         d="M419.9568,320.19788a3.42894,3.42894,0,0,0-1.7871-.47363,3.25465,3.25465,0,0,0-2.47071,1.00781,3.8947,3.8947,0,0,0-.957,2.791,4.03568,4.03568,0,0,0,.41016,1.78711,3.146,3.146,0,0,0,1.206,1.333,3.3868,3.3868,0,0,0,1.80664.48828,3.55344,3.55344,0,0,0,1.73828-.44238,2.9991,2.9991,0,0,0,1.24512-1.30078,4.21693,4.21693,0,0,0,.43945-1.94824,4.30051,4.30051,0,0,0-.417-1.9209A3.098,3.098,0,0,0,419.9568,320.19788Zm-.03613,5.37109a2.42678,2.42678,0,0,1-3.50586.00684,2.86231,2.86231,0,0,1-.69629-2.03809,3.08411,3.08411,0,0,1,.72559-2.30761,2.421,2.421,0,0,1,1.73047-.69043,2.355,2.355,0,0,1,1.27734.35839,2.26838,2.26838,0,0,1,.86328,1.01172,3.65835,3.65835,0,0,1,.2959,1.52539A3.04164,3.04164,0,0,1,419.92067,325.569Z"
         id="path20" />
      <path
         class="cls-1"
         d="M410.21187,217.87513l-.5.33551,10.335,15.31848-14.51,18.57647-22.155-8.063.815-23.555,17.965-5.156-.165-.57648-17.62994,5.06,7.18494-22.14154,23.485-5.001,7.52-23.167-16.07495-17.837,5.71-17.59454-.57-.185-5.71,17.594-23.485,5.001-7.41,22.83747-18.36,3.91351.125.587,18.36-3.91352,15.84,17.57947-7.31006,22.514-23.13995,4.92847-15.845-17.58,5.71-17.59448-.57-.185-5.71,17.59454-23.48254,5.00049-7.41053,22.83795-18.35644,3.909.125.587,18.35644-3.90949,16.073,17.83746,23.82007-5.073,7.415-22.838,22.935-4.88446-.81,23.47345-18.43006,15.46405,4.24006,23.981,22.55993,8.21246,4.11005,23.304.65.237-.37329-2.11688,18.41834,6.70385.20495-.56347-18.74359-6.82227-3.67633-20.84625,18.39-15.43347-4.175-23.68451,12.95751-16.58972,20.37751.7102.02-.59948-19.94111-.695,1.41608-1.813-1.28583-1.90649,19.94086.695.02-.6-20.37579-.71015Zm-34.625-38.368,7.305-22.50854,23.145-4.92847,15.84,17.58-7.305,22.50806-23.145,4.92846Zm-22.805,68.3335-23.146,4.92847-15.84149-17.58,7.30347-22.508,23.144-4.92846,15.84,17.57947Zm56.7,28.1485-18.125,15.21045-22.235-8.09351-4.115-23.29944,18.13-15.21551,22.235,8.094Z"
         id="path22" />
      <rect
         class="cls-1"
         x="388.32464"
         y="280.21391"
         width="19.01945"
         height="0.59964"
         transform="translate(-87.26292 321.02) rotate(-39.96093)"
         id="rect24" />
      <rect
         class="cls-1"
         x="370.72228"
         y="261.24921"
         width="0.59914"
         height="19.01703"
         transform="translate(-41.46378 68.71177) rotate(-10.02377)"
         id="rect26" />
      <rect
         class="cls-1"
         x="392.57945"
         y="242.90861"
         width="0.59983"
         height="19.01726"
         transform="translate(21.29358 535.24698) rotate(-69.99625)"
         id="rect28" />
      <rect
         class="cls-1"
         x="330.86054"
         y="246.07105"
         width="19.01742"
         height="0.59988"
         transform="translate(-43.7115 75.98358) rotate(-11.9751)"
         id="rect30" />
      <rect
         class="cls-1"
         x="311.76194"
         y="224.87628"
         width="19.01958"
         height="0.60017"
         transform="translate(7.76993 461.05036) rotate(-71.9835)"
         id="rect32" />
      <rect
         class="cls-1"
         x="348.87501"
         y="209.72464"
         width="0.60122"
         height="19.01997"
         transform="translate(-56.98772 290.07795) rotate(-42.01725)"
         id="rect34" />
      <rect
         class="cls-1"
         x="385.79083"
         y="158.16801"
         width="19.02207"
         height="0.59996"
         transform="translate(-24.34764 85.8735) rotate(-12.03041)"
         id="rect36" />
      <rect
         class="cls-1"
         x="404.89209"
         y="179.36296"
         width="19.0195"
         height="0.59928"
         transform="translate(115.58769 518.36253) rotate(-72.01901)"
         id="rect38" />
      <rect
         class="cls-1"
         x="386.19711"
         y="176.09357"
         width="0.59949"
         height="19.02185"
         transform="translate(-24.86173 306.48856) rotate(-42.02761)"
         id="rect40" />
      <rect
         class="cls-1"
         x="402.82677"
         y="310.17146"
         width="0.60012"
         height="20.11832"
         transform="translate(-35.67073 589.51783) rotate(-69.99964)"
         id="rect42" />
      <rect
         class="cls-2"
         x="242.64346"
         y="341.34434"
         width="0.59978"
         height="13.59007"
         transform="translate(-167.29161 457.36288) rotate(-70.0003)"
         id="rect44" />
      <polygon
         class="cls-2"
         points="252.389 350.27 256.149 355.895 257.12 355.895 257.12 348.737 256.212 348.737 256.212 354.357 252.452 348.737 251.481 348.737 251.481 355.895 252.389 355.895 252.389 350.27"
         id="polygon46" />
      <polygon
         class="cls-2"
         points="256.188 360.509 252.468 360.509 252.468 357.57 251.52 357.57 251.52 364.728 252.468 364.728 252.468 361.354 256.188 361.354 256.188 364.728 257.136 364.728 257.136 357.57 256.188 357.57 256.188 360.509"
         id="polygon48" />
      <path
         class="cls-2"
         d="M274.24391,339.31409a2.04026,2.04026,0,0,1-1.34765.459,2.3229,2.3229,0,0,1-1.21582-.33789,1.98043,1.98043,0,0,1-.82813-1.01757,4.38059,4.38059,0,0,1-.26562-1.59375,4.25787,4.25787,0,0,1,.22461-1.375,2.0907,2.0907,0,0,1,.77929-1.0625,2.31023,2.31023,0,0,1,1.37891-.39454,1.92868,1.92868,0,0,1,1.19141.35547,2.21126,2.21126,0,0,1,.72265,1.13868l.93262-.22071a2.84035,2.84035,0,0,0-1.02051-1.53711,2.92906,2.92906,0,0,0-1.80664-.54687,3.55749,3.55749,0,0,0-1.73633.43164,2.91975,2.91975,0,0,0-1.21484,1.26465,4.21469,4.21469,0,0,0-.42774,1.95019,4.863,4.863,0,0,0,.37891,1.91992,2.92961,2.92961,0,0,0,1.10352,1.36426,3.40153,3.40153,0,0,0,1.88183.47168,2.95393,2.95393,0,0,0,1.8916-.61328,3.189,3.189,0,0,0,1.07227-1.7793l-.94727-.24023A2.35452,2.35452,0,0,1,274.24391,339.31409Z"
         id="path50" />
      <polygon
         class="cls-2"
         points="281.803 336.242 278.082 336.242 278.082 333.302 277.135 333.302 277.135 340.461 278.082 340.461 278.082 337.088 281.803 337.088 281.803 340.461 282.75 340.461 282.75 333.302 281.803 333.302 281.803 336.242"
         id="polygon52" />
      <rect
         class="cls-2"
         x="257.44355"
         y="343.96444"
         width="12.88586"
         height="0.60016"
         transform="translate(-159.61171 250.438) rotate(-40.03686)"
         id="rect54" />
      <path
         class="cls-2"
         d="M266.92262,316.46643a3.39338,3.39338,0,0,0,1.88184.47168,2.95331,2.95331,0,0,0,1.8916-.6123,3.19179,3.19179,0,0,0,1.07227-1.78027l-.94727-.23926a2.35171,2.35171,0,0,1-.74707,1.3623,2.04021,2.04021,0,0,1-1.34765.459,2.322,2.322,0,0,1-1.21582-.33692,1.9843,1.9843,0,0,1-.82813-1.01758,4.38959,4.38959,0,0,1-.26562-1.59472,4.25208,4.25208,0,0,1,.2246-1.374,2.08675,2.08675,0,0,1,.7793-1.0625,2.31068,2.31068,0,0,1,1.37891-.3955,1.92288,1.92288,0,0,1,1.1914.35644,2.2123,2.2123,0,0,1,.72266,1.1377l.93262-.21973a2.843,2.843,0,0,0-1.02051-1.53809,2.9353,2.9353,0,0,0-1.80664-.54687,3.54753,3.54753,0,0,0-1.73633.43262,2.91743,2.91743,0,0,0-1.21484,1.26367,4.216,4.216,0,0,0-.42774,1.95117,4.85831,4.85831,0,0,0,.37891,1.91895A2.92967,2.92967,0,0,0,266.92262,316.46643Z"
         id="path56" />
      <rect
         class="cls-2"
         x="270.34255"
         y="318.36093"
         width="0.60008"
         height="13.39241"
         transform="translate(-52.33251 51.93328) rotate(-9.99971)"
         id="rect58" />
      <path
         class="cls-2"
         d="M296.80544,347.525a2.03873,2.03873,0,0,1-1.34766.459,2.32444,2.32444,0,0,1-1.2168-.33594,1.98107,1.98107,0,0,1-.82714-1.01855,4.38159,4.38159,0,0,1-.26661-1.59473,4.28312,4.28312,0,0,1,.22461-1.374,2.09369,2.09369,0,0,1,.7793-1.06152,2.31306,2.31306,0,0,1,1.37891-.39649,1.9194,1.9194,0,0,1,1.1914.35742,2.20509,2.20509,0,0,1,.72266,1.13672l.93359-.21875a2.8522,2.8522,0,0,0-1.02148-1.53906,2.93526,2.93526,0,0,0-1.80664-.54687,3.55454,3.55454,0,0,0-1.73535.43261,2.92717,2.92717,0,0,0-1.21582,1.26465,4.21325,4.21325,0,0,0-.42774,1.95117,4.87056,4.87056,0,0,0,.37891,1.918,2.94325,2.94325,0,0,0,1.10351,1.36524,3.39916,3.39916,0,0,0,1.88282.4707,2.94682,2.94682,0,0,0,1.89062-.61231,3.17568,3.17568,0,0,0,1.07227-1.78027l-.94727-.23828A2.34282,2.34282,0,0,1,296.80544,347.525Z"
         id="path60" />
      <polygon
         class="cls-2"
         points="297.141 353.089 293.421 353.089 293.421 350.149 292.473 350.149 292.473 357.307 293.421 357.307 293.421 353.933 297.141 353.933 297.141 357.307 298.089 357.307 298.089 350.149 297.141 350.149 297.141 353.089"
         id="polygon62" />
      <path
         class="cls-2"
         d="M300.31618,358.26038q.16845-.17724.76172-.67481a10.69727,10.69727,0,0,0,1.0166-.94531,2.47064,2.47064,0,0,0,.4375-.65625,1.60549,1.60549,0,0,0,.13184-.63281,1.40924,1.40924,0,0,0-.4502-1.0625A1.70621,1.70621,0,0,0,300.99,353.861a1.787,1.787,0,0,0-1.21973.39648,1.66808,1.66808,0,0,0-.52344,1.15625l.67774.06836a1.08182,1.08182,0,0,1,.28906-.791,1.03306,1.03306,0,0,1,.76172-.28515,1.00826,1.00826,0,0,1,.73047.26953.88273.88273,0,0,1,.28027.66015,1.35891,1.35891,0,0,1-.30762.793,7.29328,7.29328,0,0,1-1.18261,1.1377,6.74466,6.74466,0,0,0-.86231.81348,2.443,2.443,0,0,0-.43457.71289,1.17979,1.17979,0,0,0-.07715.459h3.54883v-.63477h-2.63281A2.17388,2.17388,0,0,1,300.31618,358.26038Z"
         id="path64" />
      <rect
         class="cls-2"
         x="287.14856"
         y="338.7494"
         width="0.60009"
         height="6.92196"
         transform="translate(-132.43978 495.27372) rotate(-69.99902)"
         id="rect66" />
      <path
         class="cls-2"
         d="M285.157,301.01722a3.37814,3.37814,0,0,0,1.80664.48828,3.56587,3.56587,0,0,0,1.73828-.44141,2.99933,2.99933,0,0,0,1.24414-1.30176,4.21691,4.21691,0,0,0,.43946-1.94824,4.29167,4.29167,0,0,0-.417-1.92187,3.09456,3.09456,0,0,0-1.21386-1.32032,3.41989,3.41989,0,0,0-1.78711-.47363,3.25341,3.25341,0,0,0-2.47071,1.00879,3.889,3.889,0,0,0-.957,2.79,4.04182,4.04182,0,0,0,.41016,1.78711A3.14222,3.14222,0,0,0,285.157,301.01722Zm.085-5.41211a2.42176,2.42176,0,0,1,1.73145-.69141,2.336,2.336,0,0,1,1.27636.35937,2.26515,2.26515,0,0,1,.86426,1.00977,3.66637,3.66637,0,0,1,.29492,1.52637,3.045,3.045,0,0,1-.69043,2.13379,2.4279,2.4279,0,0,1-3.50586.00781,2.86919,2.86919,0,0,1-.69629-2.03906A3.08261,3.08261,0,0,1,285.242,295.60511Z"
         id="path68" />
      <polygon
         class="cls-2"
         points="292.583 298.009 296.303 298.009 296.303 301.383 297.251 301.383 297.251 294.225 296.303 294.225 296.303 297.165 292.583 297.165 292.583 294.225 291.636 294.225 291.636 301.383 292.583 301.383 292.583 298.009"
         id="polygon70" />
      <rect
         class="cls-2"
         x="271.03426"
         y="305.17513"
         width="13.46243"
         height="0.59997"
         transform="translate(-131.36763 249.98814) rotate(-39.99669)"
         id="rect72" />
      <path
         class="cls-2"
         d="M244.20192,308.23792a3.37816,3.37816,0,0,0,1.80664.48828,3.56584,3.56584,0,0,0,1.73828-.44141A2.99925,2.99925,0,0,0,248.991,306.983a4.217,4.217,0,0,0,.43946-1.94825,4.29172,4.29172,0,0,0-.417-1.92187,3.09462,3.09462,0,0,0-1.21387-1.32031,3.41981,3.41981,0,0,0-1.78711-.47364,3.25337,3.25337,0,0,0-2.4707,1.00879,3.889,3.889,0,0,0-.957,2.79,4.04182,4.04182,0,0,0,.41016,1.78711A3.1421,3.1421,0,0,0,244.20192,308.23792Zm.085-5.41211a2.42176,2.42176,0,0,1,1.73145-.69141,2.33594,2.33594,0,0,1,1.27637.35938,2.26511,2.26511,0,0,1,.86425,1.00976,3.66637,3.66637,0,0,1,.29492,1.52637,3.04494,3.04494,0,0,1-.69042,2.13379,2.4279,2.4279,0,0,1-3.50586.00781,2.86915,2.86915,0,0,1-.69629-2.03906A3.08261,3.08261,0,0,1,244.28688,302.82581Z"
         id="path74" />
      <rect
         class="cls-2"
         x="256.34399"
         y="304.16115"
         width="0.60027"
         height="14.01843"
         transform="translate(-123.5375 445.91136) rotate(-70.00014)"
         id="rect76" />
      <rect
         class="cls-2"
         x="257.82258"
         y="300.09991"
         width="0.5996"
         height="14.01839"
         transform="translate(-118.74814 444.62921) rotate(-70.00029)"
         id="rect78" />
      <polygon
         class="cls-2"
         points="311.814 319.183 315.535 319.183 315.535 322.557 316.482 322.557 316.482 315.399 315.535 315.399 315.535 318.339 311.814 318.339 311.814 315.399 310.867 315.399 310.867 322.557 311.814 322.557 311.814 319.183"
         id="polygon80" />
      <path
         class="cls-2"
         d="M321.06325,323.86682h-2.63281a2.17388,2.17388,0,0,1,.27832-.35644q.16845-.17724.76172-.67481a10.69727,10.69727,0,0,0,1.0166-.94531,2.47064,2.47064,0,0,0,.4375-.65625,1.60547,1.60547,0,0,0,.13183-.63281,1.40927,1.40927,0,0,0-.45019-1.0625,1.70623,1.70623,0,0,0-1.22363-.42773,1.787,1.787,0,0,0-1.21973.39648,1.668,1.668,0,0,0-.52344,1.15625l.67774.06836a1.08182,1.08182,0,0,1,.28906-.791,1.033,1.033,0,0,1,.76172-.28515,1.00826,1.00826,0,0,1,.73047.26953.88273.88273,0,0,1,.28027.66015,1.35891,1.35891,0,0,1-.30762.793,7.29371,7.29371,0,0,1-1.18261,1.1377,6.74466,6.74466,0,0,0-.86231.81348,2.443,2.443,0,0,0-.43457.71289,1.17979,1.17979,0,0,0-.07715.459h3.54883Z"
         id="path82" />
      <path
         class="cls-2"
         d="M315.198,332.09339a2.0403,2.0403,0,0,1-1.34766.459,2.32041,2.32041,0,0,1-1.21582-.33789,1.98519,1.98519,0,0,1-.82813-1.01758,4.38073,4.38073,0,0,1-.26562-1.59375,4.2844,4.2844,0,0,1,.22461-1.375,2.08521,2.08521,0,0,1,.7793-1.0625,2.31233,2.31233,0,0,1,1.3789-.39453,1.92671,1.92671,0,0,1,1.19141.35547,2.21737,2.21737,0,0,1,.72265,1.13867l.93262-.2207a2.84031,2.84031,0,0,0-1.02051-1.53711,2.931,2.931,0,0,0-1.80664-.54688,3.55482,3.55482,0,0,0-1.73633.43165,2.91978,2.91978,0,0,0-1.21484,1.26464,4.21476,4.21476,0,0,0-.42773,1.9502,4.863,4.863,0,0,0,.3789,1.91992,2.92977,2.92977,0,0,0,1.10352,1.36426,3.40153,3.40153,0,0,0,1.88183.47168,2.954,2.954,0,0,0,1.89161-.61328,3.1837,3.1837,0,0,0,1.07226-1.7793l-.94726-.24023A2.34929,2.34929,0,0,1,315.198,332.09339Z"
         id="path84" />
      <rect
         class="cls-2"
         x="297.74723"
         y="336.98165"
         width="13.61902"
         height="0.60018"
         transform="translate(-145.58389 274.93439) rotate(-40.03311)"
         id="rect86" />
      <path
         class="cls-2"
         d="M337.75954,340.30432a2.03508,2.03508,0,0,1-1.34766.459,2.31856,2.31856,0,0,1-1.21582-.33594,1.98749,1.98749,0,0,1-.82812-1.01855,4.38229,4.38229,0,0,1-.26563-1.59473,4.28307,4.28307,0,0,1,.22461-1.374,2.08282,2.08282,0,0,1,.7793-1.06153,2.31312,2.31312,0,0,1,1.3789-.39648,1.92137,1.92137,0,0,1,1.19141.35742,2.21123,2.21123,0,0,1,.72266,1.13672l.93261-.21875a2.84547,2.84547,0,0,0-1.0205-1.53906,2.93723,2.93723,0,0,0-1.80664-.54688,3.55552,3.55552,0,0,0-1.73633.43262,2.92511,2.92511,0,0,0-1.21485,1.26465,4.21337,4.21337,0,0,0-.42773,1.95117,4.85349,4.85349,0,0,0,.37891,1.918,2.93723,2.93723,0,0,0,1.10351,1.36523,3.39334,3.39334,0,0,0,1.88184.47071,2.94774,2.94774,0,0,0,1.8916-.61231,3.18637,3.18637,0,0,0,1.07226-1.78027l-.94726-.23828A2.34361,2.34361,0,0,1,337.75954,340.30432Z"
         id="path88" />
      <polygon
         class="cls-2"
         points="338.096 345.867 334.376 345.867 334.376 342.927 333.428 342.927 333.428 350.086 334.376 350.086 334.376 346.711 338.096 346.711 338.096 350.086 339.044 350.086 339.044 342.927 338.096 342.927 338.096 345.867"
         id="polygon90" />
      <path
         class="cls-2"
         d="M341.27028,351.03968q.16846-.17725.76172-.67481a10.69727,10.69727,0,0,0,1.0166-.94531,2.4704,2.4704,0,0,0,.4375-.65625,1.60549,1.60549,0,0,0,.13184-.63281,1.40923,1.40923,0,0,0-.4502-1.0625,1.70622,1.70622,0,0,0-1.22363-.42774,1.787,1.787,0,0,0-1.21973.39649,1.668,1.668,0,0,0-.52343,1.15625l.67773.06836a1.08182,1.08182,0,0,1,.28906-.791,1.03307,1.03307,0,0,1,.76172-.28516,1.00825,1.00825,0,0,1,.73047.26954.88271.88271,0,0,1,.28027.66015,1.359,1.359,0,0,1-.30761.793,7.29388,7.29388,0,0,1-1.18262,1.1377,6.74537,6.74537,0,0,0-.86231.81347,2.44343,2.44343,0,0,0-.43457.71289,1.17968,1.17968,0,0,0-.07714.459h3.54882v-.63477H340.992A2.17442,2.17442,0,0,1,341.27028,351.03968Z"
         id="path92" />
      <rect
         class="cls-2"
         x="324.76216"
         y="326.75634"
         width="0.60016"
         height="14.03303"
         transform="translate(-99.75945 525.07448) rotate(-70.00001)"
         id="rect94" />
      <polygon
         class="cls-2"
         points="352.769 311.961 356.49 311.961 356.49 315.336 357.437 315.336 357.437 308.177 356.49 308.177 356.49 311.117 352.769 311.117 352.769 308.177 351.822 308.177 351.822 315.336 352.769 315.336 352.769 311.961"
         id="polygon96" />
      <path
         class="cls-2"
         d="M362.01833,316.64612h-2.63281a2.17388,2.17388,0,0,1,.27832-.35644q.16845-.17725.76171-.67481a10.69767,10.69767,0,0,0,1.01661-.94531,2.47064,2.47064,0,0,0,.4375-.65625,1.60547,1.60547,0,0,0,.13183-.63281,1.40925,1.40925,0,0,0-.45019-1.0625,1.70624,1.70624,0,0,0-1.22364-.42774,1.787,1.787,0,0,0-1.21972.39649,1.668,1.668,0,0,0-.52344,1.15625l.67773.06836a1.08187,1.08187,0,0,1,.28907-.791,1.033,1.033,0,0,1,.76172-.28516,1.00823,1.00823,0,0,1,.73046.26954.88268.88268,0,0,1,.28028.66015,1.35894,1.35894,0,0,1-.30762.793,7.29388,7.29388,0,0,1-1.18262,1.1377,6.74518,6.74518,0,0,0-.8623.81347,2.44322,2.44322,0,0,0-.43457.71289,1.17969,1.17969,0,0,0-.07715.459h3.54883Z"
         id="path98" />
      <path
         class="cls-2"
         d="M356.15309,324.87171a2.04026,2.04026,0,0,1-1.34765.459,2.31944,2.31944,0,0,1-1.21582-.33691,1.9891,1.9891,0,0,1-.82813-1.01758,4.38969,4.38969,0,0,1-.26562-1.59473,4.27844,4.27844,0,0,1,.22461-1.374,2.08122,2.08122,0,0,1,.77929-1.0625,2.31273,2.31273,0,0,1,1.37891-.39551,1.921,1.921,0,0,1,1.19141.35645,2.21837,2.21837,0,0,1,.72265,1.13769l.93262-.21972a2.84291,2.84291,0,0,0-1.02051-1.53809,2.93723,2.93723,0,0,0-1.80664-.54688,3.545,3.545,0,0,0-1.73633.43262,2.91748,2.91748,0,0,0-1.21484,1.26367,4.21609,4.21609,0,0,0-.42774,1.95118,4.85823,4.85823,0,0,0,.37891,1.91894,2.92971,2.92971,0,0,0,1.10352,1.36426,3.39341,3.39341,0,0,0,1.88183.47168,2.95326,2.95326,0,0,0,1.8916-.61231,3.18633,3.18633,0,0,0,1.07227-1.78027l-.94727-.23926A2.34638,2.34638,0,0,1,356.15309,324.87171Z"
         id="path100" />
      <rect
         class="cls-2"
         x="338.7022"
         y="329.76056"
         width="13.62005"
         height="0.59961"
         transform="translate(-131.32243 299.28285) rotate(-39.99669)"
         id="rect102" />
      <polygon
         class="cls-2"
         points="375.253 328.605 379.012 334.23 379.984 334.23 379.984 327.072 379.076 327.072 379.076 332.692 375.316 327.072 374.344 327.072 374.344 334.23 375.253 334.23 375.253 328.605"
         id="polygon104" />
      <polygon
         class="cls-2"
         points="379.052 338.845 375.331 338.845 375.331 335.906 374.384 335.906 374.384 343.064 375.331 343.064 375.331 339.69 379.052 339.69 379.052 343.064 379.999 343.064 379.999 335.906 379.052 335.906 379.052 338.845"
         id="polygon106" />
      <rect
         class="cls-2"
         x="365.5093"
         y="319.68065"
         width="0.60008"
         height="13.58943"
         transform="translate(-66.08513 558.57405) rotate(-70.00153)"
         id="rect108" />
      <polygon
         class="cls-2"
         points="395.262 315.068 381.622 326.512 382.007 326.972 395.912 315.305 395.262 315.068"
         id="polygon110" />
      <path
         class="cls-3"
         d="M222.77321,159.90882a3.42684,3.42684,0,0,0-1.78711-.47364,3.25327,3.25327,0,0,0-2.4707,1.0083,3.88971,3.88971,0,0,0-.957,2.79053,4.03888,4.03888,0,0,0,.41015,1.78711,3.143,3.143,0,0,0,1.20606,1.333,3.3837,3.3837,0,0,0,1.80664.48828,3.55969,3.55969,0,0,0,1.73828-.44189,3.0003,3.0003,0,0,0,1.24512-1.30127,4.217,4.217,0,0,0,.43945-1.94825,4.28975,4.28975,0,0,0-.41748-1.92138A3.09215,3.09215,0,0,0,222.77321,159.90882Zm-.03662,5.37109a2.42735,2.42735,0,0,1-3.50586.00732,2.86767,2.86767,0,0,1-.6958-2.03857,3.08537,3.08537,0,0,1,.7251-2.30713,2.423,2.423,0,0,1,1.731-.69092,2.34309,2.34309,0,0,1,1.27686.35889,2.26779,2.26779,0,0,1,.86426,1.01074,3.67026,3.67026,0,0,1,.29541,1.52588A3.04114,3.04114,0,0,1,222.73659,165.27991Z"
         id="path112" />
      <polygon
         class="cls-3"
         points="292.219 79.839 288.46 74.219 287.487 74.219 287.487 81.377 288.395 81.377 288.395 75.752 292.155 81.377 293.128 81.377 293.128 74.219 292.219 74.219 292.219 79.839"
         id="polygon114" />
      <polygon
         class="cls-3"
         points="314.772 88.047 311.012 82.427 310.041 82.427 310.041 89.586 310.949 89.586 310.949 83.961 314.709 89.586 315.68 89.586 315.68 82.427 314.772 82.427 314.772 88.047"
         id="polygon116" />
      <polygon
         class="cls-3"
         points="388.312 26.34 384.553 20.72 383.581 20.72 383.581 27.878 384.489 27.878 384.489 22.253 388.249 27.878 389.22 27.878 389.22 20.72 388.312 20.72 388.312 26.34"
         id="polygon118" />
      <rect
         class="cls-3"
         x="233.47765"
         y="95.70715"
         width="19.01166"
         height="0.59993"
         transform="translate(-4.86381 178.65128) rotate(-40.00072)"
         id="rect120" />
      <rect
         class="cls-3"
         x="269.48129"
         y="96.25495"
         width="0.59989"
         height="19.0116"
         transform="translate(-14.2658 48.4499) rotate(-9.99922)"
         id="rect122" />
      <rect
         class="cls-3"
         x="247.63549"
         y="114.58561"
         width="0.6"
         height="19.01176"
         transform="translate(46.52702 314.63108) rotate(-69.9995)"
         id="rect124" />
      <rect
         class="cls-3"
         x="215.88155"
         y="138.46936"
         width="0.60005"
         height="19.91101"
         transform="translate(-22.48947 39.79454) rotate(-10.00002)"
         id="rect126" />
      <rect
         class="cls-3"
         x="301.28243"
         y="75.1483"
         width="0.59984"
         height="13.42137"
         transform="translate(121.51064 337.25473) rotate(-69.99951)"
         id="rect128" />
      <rect
         class="cls-3"
         x="302.76013"
         y="71.08876"
         width="0.59974"
         height="13.4217"
         transform="translate(126.29894 335.97333) rotate(-69.99984)"
         id="rect130" />
      <rect
         class="cls-3"
         x="329.57074"
         y="42.20819"
         width="19.01245"
         height="0.59971"
         transform="translate(51.99768 227.88768) rotate(-39.99765)"
         id="rect132" />
      <rect
         class="cls-3"
         x="365.57229"
         y="42.75567"
         width="0.6016"
         height="19.01196"
         transform="translate(-3.51755 64.30126) rotate(-9.99598)"
         id="rect134" />
      <rect
         class="cls-3"
         x="343.72756"
         y="61.08726"
         width="0.60012"
         height="19.01018"
         transform="translate(160.01762 369.72209) rotate(-69.99799)"
         id="rect136" />
      <rect
         class="cls-3"
         x="383.56479"
         y="0.49116"
         width="0.59912"
         height="18.44639"
         transform="translate(4.15065 66.84326) rotate(-10.00578)"
         id="rect138" />
      <rect
         class="cls-3"
         x="399.87689"
         y="19.8974"
         width="0.59996"
         height="18.74525"
         transform="translate(235.92097 395.35507) rotate(-70.01839)"
         id="rect140" />
      <path
         class="cls-3"
         d="M381.57186,27.95246l-13.585,11.40014-22.555-8.20849L326.78139,46.7937l4.16748,23.63544-13.631,11.4375.386.46,13.63105-11.438,22.552,8.2085,18.65-15.64948-4.165-23.63543,13.585-11.40015Zm-9.685,35.25818-18.12,15.20446-22.227-8.09-4.10754-23.2945,18.11951-15.20422,22.225,8.09Z"
         id="path142" />
      <path
         class="cls-3"
         d="M285.47786,81.4516l-13.586,11.4-22.553-8.2085-18.65,15.64948,4.16748,23.63549-18.12,15.20453.12048.682,1.6452-1.38049,3.36731,19.097.591-.10449-3.42742-19.43793,16.20892-13.60107,22.55255,8.20849,18.65045-15.64953-4.16748-23.6355,13.586-11.4Zm-9.684,35.258-18.11957,15.20453-22.22747-8.09-4.107-23.29449,18.11951-15.204,22.227,8.09Z"
         id="path144" />
      <path
         class="cls-4"
         id="path146" />
      <path
         class="cls-4"
         d="M139.08669,142.09826v-7.1582h.94726v2.93945h3.72071v-2.93945h.94726v7.1582h-.94726v-3.374H140.034v3.374Z"
         id="path148" />
      <path
         class="cls-4"
         d="M145.822,142.62512l.65918-.08789a1.45342,1.45342,0,0,0,.38623.80713.954.954,0,0,0,.665.24756,1.0646,1.0646,0,0,0,.78515-.32227,1.0867,1.0867,0,0,0,.32032-.79883,1.01068,1.01068,0,0,0-.29639-.74853,1.02448,1.02448,0,0,0-.75439-.29493,1.88744,1.88744,0,0,0-.46485.07325l.07324-.57862a1.00218,1.00218,0,0,0,.106.00733,1.35929,1.35929,0,0,0,.7583-.21973.7527.7527,0,0,0,.33692-.67724.801.801,0,0,0-.24561-.60059.87216.87216,0,0,0-.6333-.23828.89748.89748,0,0,0-.64111.2417,1.21335,1.21335,0,0,0-.32959.72509l-.65918-.11718a1.69526,1.69526,0,0,1,.54931-1.02735,1.58978,1.58978,0,0,1,1.06592-.36425,1.75752,1.75752,0,0,1,.80908.18847,1.36788,1.36788,0,0,1,.56592.51465,1.32471,1.32471,0,0,1,.1958.69238,1.1288,1.1288,0,0,1-.187.6333,1.27175,1.27175,0,0,1-.55273.45411,1.24487,1.24487,0,0,1,.73974.45605,1.38709,1.38709,0,0,1,.26367.86572,1.58581,1.58581,0,0,1-.51269,1.19239,1.80417,1.80417,0,0,1-1.29639.48877,1.68517,1.68517,0,0,1-1.17383-.42139A1.62823,1.62823,0,0,1,145.822,142.62512Z"
         id="path150" />
      <path
         class="cls-4"
         d="M155.55788,139.5885l.94726.23926a3.18984,3.18984,0,0,1-1.07177,1.77978,2.95223,2.95223,0,0,1-1.89209.61279,3.40144,3.40144,0,0,1-1.88233-.47119,2.94229,2.94229,0,0,1-1.10351-1.36474,4.86664,4.86664,0,0,1-.37842-1.91895,4.22,4.22,0,0,1,.42725-1.95068,2.92447,2.92447,0,0,1,1.21582-1.26465,3.55325,3.55325,0,0,1,1.73584-.43213,2.93321,2.93321,0,0,1,1.80664.54687,2.84028,2.84028,0,0,1,1.0205,1.53809l-.93261.21973a2.21123,2.21123,0,0,0-.72266-1.1377,1.925,1.925,0,0,0-1.19141-.35644,2.31427,2.31427,0,0,0-1.37939.3955,2.08862,2.08862,0,0,0-.77881,1.062,4.27042,4.27042,0,0,0-.22461,1.37451,4.37075,4.37075,0,0,0,.26612,1.59424,1.98074,1.98074,0,0,0,.82763,1.01806,2.322,2.322,0,0,0,1.21582.33692,2.03591,2.03591,0,0,0,1.34766-.459A2.35177,2.35177,0,0,0,155.55788,139.5885Z"
         id="path152" />
      <path
         class="cls-4"
         d="M178.11989,147.79943l.94727.23926a3.18988,3.18988,0,0,1-1.07178,1.77979,2.95221,2.95221,0,0,1-1.89209.61279,3.40152,3.40152,0,0,1-1.88233-.47119,2.94238,2.94238,0,0,1-1.10351-1.36475,4.86656,4.86656,0,0,1-.37842-1.91894,4.22008,4.22008,0,0,1,.42725-1.95069,2.92455,2.92455,0,0,1,1.21582-1.26464,3.55327,3.55327,0,0,1,1.73584-.43213,2.93317,2.93317,0,0,1,1.80664.54687,2.84031,2.84031,0,0,1,1.02051,1.53809l-.93262.21972a2.21124,2.21124,0,0,0-.72266-1.13769,1.925,1.925,0,0,0-1.1914-.35645,2.31429,2.31429,0,0,0-1.3794.39551,2.08865,2.08865,0,0,0-.77881,1.062,4.27053,4.27053,0,0,0-.22461,1.37452,4.37066,4.37066,0,0,0,.26612,1.59423,1.98072,1.98072,0,0,0,.82763,1.01807,2.322,2.322,0,0,0,1.21582.33691,2.03589,2.03589,0,0,0,1.34766-.459A2.35171,2.35171,0,0,0,178.11989,147.79943Z"
         id="path154" />
      <path
         class="cls-4"
         d="M180.26345,150.3092V143.151h.94726v2.93945h3.7207V143.151h.94727v7.1582h-.94727v-3.374h-3.7207v3.374Z"
         id="path156" />
      <path
         class="cls-4"
         d="M171.37085,144.74811l-.2055.564-.581-.157.24-.66Z"
         id="path158" />
      <path
         class="cls-4"
         d="M168.92485,143.61361l-.3625.99551-.581-.157.39751-1.092Z"
         id="path160" />
      <path
         class="cls-4"
         d="M166.47886,142.47911l-.51951,1.427-.581-.157.55452-1.5235Z"
         id="path162" />
      <path
         class="cls-4"
         d="M164.03335,141.34411l-.677,1.8595-.581-.157.7115-1.956Z"
         id="path164" />
      <path
         class="cls-4"
         d="M161.58735,140.20962l-.834,2.291-.581-.157.869-2.3875Z"
         id="path166" />
      <path
         class="cls-4"
         d="M159.14136,139.07511l-.991,2.7225-.581-.157,1.026-2.819Z"
         id="path168" />
      <path
         class="cls-4"
         d="M182.28884,171.44543l.94726.23926a3.1898,3.1898,0,0,1-1.07178,1.77978,2.95214,2.95214,0,0,1-1.89209.6128,3.40151,3.40151,0,0,1-1.88232-.47119,2.94245,2.94245,0,0,1-1.10352-1.36475,4.86657,4.86657,0,0,1-.37841-1.91895,4.22007,4.22007,0,0,1,.42724-1.95068A2.92458,2.92458,0,0,1,178.551,167.107a3.55338,3.55338,0,0,1,1.73584-.43213,2.93311,2.93311,0,0,1,1.80664.54688,2.84023,2.84023,0,0,1,1.02051,1.53808l-.93262.21973a2.21112,2.21112,0,0,0-.72265-1.13769,1.925,1.925,0,0,0-1.19141-.35645,2.31428,2.31428,0,0,0-1.37939.39551,2.08856,2.08856,0,0,0-.77881,1.062,4.27047,4.27047,0,0,0-.22461,1.37451,4.3709,4.3709,0,0,0,.26611,1.59424,1.98083,1.98083,0,0,0,.82764,1.01807,2.32194,2.32194,0,0,0,1.21582.33691,2.03591,2.03591,0,0,0,1.34766-.459A2.35188,2.35188,0,0,0,182.28884,171.44543Z"
         id="path170" />
      <path
         class="cls-4"
         d="M179.39934,165.09261l-.591.104-2.32549-13.1885.591-.10451Z"
         id="path172" />
      <path
         class="cls-4"
         d="M191.43386,126.04309v-7.15821h.94726v2.93946h3.7207v-2.93946h.94727v7.15821h-.94727v-3.374h-3.7207v3.374Z"
         id="path174" />
      <path
         class="cls-4"
         d="M191.39479,134.8761v-7.15821h.97168l3.75977,5.62012v-5.62012h.9082v7.15821h-.97168l-3.75976-5.625v5.625Z"
         id="path176" />
      <path
         class="cls-4"
         d="M189.37685,134.95762l.3855.45949-7.60051,6.37751-.3855-.45951Z"
         id="path178" />
      <path
         class="cls-4"
         d="M166.42934,182.13961l-.38549-.4595,9.88349-8.2935.386.45951Z"
         id="path180" />
      <path
         class="cls-4"
         d="M199.17751,178.67981a3.88973,3.88973,0,0,1,.957-2.79053,3.25327,3.25327,0,0,1,2.4707-1.0083,3.42683,3.42683,0,0,1,1.78711.47363,3.09221,3.09221,0,0,1,1.21338,1.3208,4.28977,4.28977,0,0,1,.41748,1.92139,4.2169,4.2169,0,0,1-.43945,1.94824,3.00024,3.00024,0,0,1-1.24512,1.30127,3.55969,3.55969,0,0,1-1.73828.44189,3.38361,3.38361,0,0,1-1.80664-.48828,3.143,3.143,0,0,1-1.20606-1.333A4.03891,4.03891,0,0,1,199.17751,178.67981Zm.97656.01464a2.86768,2.86768,0,0,0,.6958,2.03858,2.42733,2.42733,0,0,0,3.50586-.00733,3.04113,3.04113,0,0,0,.69092-2.13378,3.6701,3.6701,0,0,0-.29541-1.52588,2.26781,2.26781,0,0,0-.86426-1.01075,2.34316,2.34316,0,0,0-1.27686-.35888,2.423,2.423,0,0,0-1.731.69092A3.08535,3.08535,0,0,0,200.15407,178.69445Z"
         id="path182" />
      <path
         class="cls-4"
         d="M198.59536,174.48561l-.20552.5635-12.942-4.7105.205-.564Z"
         id="path184" />
      <path
         class="cls-4"
         d="M197.11736,178.54662l-.20552.56349-12.94248-4.7105.20549-.5635Z"
         id="path186" />
      <path
         class="cls-4"
         d="M151.59694,189.3883v-7.1582h.94727v2.93945h3.7207V182.2301h.94727v7.1582h-.94727v-3.374h-3.7207v3.374Z"
         id="path188" />
      <path
         class="cls-4"
         d="M158.77956,189.3883v-7.1582h.97168l3.75976,5.62012V182.2301h.90821v7.1582h-.97168l-3.75977-5.625v5.625Z"
         id="path190" />
      <path
         class="cls-4"
         d="M168.06471,210.52307l.94727.24023a3.18842,3.18842,0,0,1-1.07178,1.7793,2.95532,2.95532,0,0,1-1.89209.61328,3.40554,3.40554,0,0,1-1.88232-.47168,2.93854,2.93854,0,0,1-1.10352-1.36426,4.87136,4.87136,0,0,1-.37841-1.91992,4.22076,4.22076,0,0,1,.42724-1.95019,2.92188,2.92188,0,0,1,1.21582-1.26465,3.55291,3.55291,0,0,1,1.73584-.43164,2.93,2.93,0,0,1,1.80664.54687,2.83766,2.83766,0,0,1,1.02051,1.53711l-.93262.2207a2.21435,2.21435,0,0,0-.72265-1.13867,1.9277,1.9277,0,0,0-1.19141-.35547,2.31386,2.31386,0,0,0-1.37939.39453,2.08988,2.08988,0,0,0-.77881,1.0625,4.271,4.271,0,0,0-.22461,1.375,4.3698,4.3698,0,0,0,.26611,1.59375,1.97959,1.97959,0,0,0,.82764,1.01758,2.3229,2.3229,0,0,0,1.21582.33789,2.03844,2.03844,0,0,0,1.34765-.459A2.35452,2.35452,0,0,0,168.06471,210.52307Z"
         id="path192" />
      <path
         class="cls-4"
         d="M170.20827,213.03283v-7.1582h.94726v2.93945h3.72071v-2.93945h.94726v7.1582h-.94726v-3.373h-3.72071v3.373Z"
         id="path194" />
      <path
         class="cls-4"
         d="M165.17585,204.17112l-.591.104-2.287-12.97.591-.104Z"
         id="path196" />
      <path
         class="cls-4"
         d="M190.62673,218.736l.94726.23828a3.19117,3.19117,0,0,1-1.07178,1.78027,2.94908,2.94908,0,0,1-1.89209.61231,3.39732,3.39732,0,0,1-1.88232-.47071,2.94617,2.94617,0,0,1-1.10352-1.36523,4.86177,4.86177,0,0,1-.37841-1.918,4.21944,4.21944,0,0,1,.42724-1.95117,2.92723,2.92723,0,0,1,1.21582-1.26465,3.55378,3.55378,0,0,1,1.73584-.43262,2.93624,2.93624,0,0,1,1.80664.54688,2.84278,2.84278,0,0,1,1.02051,1.53906l-.93262.21875a2.20809,2.20809,0,0,0-.72265-1.13672,1.92236,1.92236,0,0,0-1.19141-.35742,2.3146,2.3146,0,0,0-1.37939.39649,2.08731,2.08731,0,0,0-.77881,1.06152,4.26966,4.26966,0,0,0-.22461,1.374,4.37179,4.37179,0,0,0,.26611,1.59473,1.982,1.982,0,0,0,.82764,1.01855,2.321,2.321,0,0,0,1.21582.33594,2.03333,2.03333,0,0,0,1.34766-.459A2.349,2.349,0,0,0,190.62673,218.736Z"
         id="path198" />
      <path
         class="cls-4"
         d="M183.87834,215.68411l-.205.5635-6.50449-2.36751.205-.5635Z"
         id="path200" />
      <path
         class="cls-4"
         d="M133.20192,228.46643v-7.15821h.94727v2.93946h3.7207v-2.93946h.94727v7.15821h-.94727v-3.374h-3.7207v3.374Z"
         id="path202" />
      <path
         class="cls-4"
         d="M143.39821,229.777v.63477h-3.54834a1.17046,1.17046,0,0,1,.07666-.459,2.441,2.441,0,0,1,.43408-.7129,6.78793,6.78793,0,0,1,.8628-.81347,7.29328,7.29328,0,0,0,1.18261-1.1377,1.35891,1.35891,0,0,0,.30762-.793.88094.88094,0,0,0-.28027-.66015,1.00906,1.00906,0,0,0-.73047-.26953,1.03306,1.03306,0,0,0-.76172.28515,1.08182,1.08182,0,0,0-.28906.791l-.67774-.06836a1.67013,1.67013,0,0,1,.52344-1.15625,1.78786,1.78786,0,0,1,1.21973-.39649,1.7034,1.7034,0,0,1,1.22314.42774,1.40794,1.40794,0,0,1,.45068,1.0625,1.60547,1.60547,0,0,1-.13183.63281,2.44987,2.44987,0,0,1-.438.65625,10.61665,10.61665,0,0,1-1.01611.94531q-.59327.49806-.76172.67481a2.17388,2.17388,0,0,0-.27832.35644Z"
         id="path204" />
      <path
         class="cls-4"
         d="M149.67311,225.95666l.94727.23926a3.19122,3.19122,0,0,1-1.07178,1.78027,2.95464,2.95464,0,0,1-1.89209.61231,3.3974,3.3974,0,0,1-1.88232-.47168,2.93859,2.93859,0,0,1-1.10352-1.36426,4.86657,4.86657,0,0,1-.37842-1.91895,4.22215,4.22215,0,0,1,.42725-1.95117,2.91961,2.91961,0,0,1,1.21582-1.26367,3.54307,3.54307,0,0,1,1.73584-.43262,2.93624,2.93624,0,0,1,1.80664.54688,2.84032,2.84032,0,0,1,1.02051,1.53808l-.93262.21973a2.21528,2.21528,0,0,0-.72266-1.13769,1.92183,1.92183,0,0,0-1.1914-.35645,2.31431,2.31431,0,0,0-1.3794.39551,2.08583,2.08583,0,0,0-.7788,1.0625,4.26506,4.26506,0,0,0-.22461,1.374,4.37894,4.37894,0,0,0,.26611,1.59473,1.98352,1.98352,0,0,0,.82764,1.01758,2.32194,2.32194,0,0,0,1.21582.33691,2.03844,2.03844,0,0,0,1.34765-.459A2.35177,2.35177,0,0,0,149.67311,225.95666Z"
         id="path206" />
      <path
         class="cls-4"
         d="M152.42434,222.60161l-1.92849-2.29849,11.208-7.838.386.4595Z"
         id="path208" />
      <path
         class="cls-4"
         d="M203.90261,205.81213v-7.1582h.97167l3.75977,5.62011v-5.62011h.9082v7.1582h-.97168l-3.75976-5.625v5.625Z"
         id="path210" />
      <path
         class="cls-4"
         d="M211.16335,205.81213v-7.1582h.94726v2.93945h3.72071v-2.93945h.94726v7.1582h-.94726v-3.374h-3.72071v3.374Z"
         id="path212" />
      <path
         class="cls-4"
         d="M221.36061,207.12268v.63281h-3.54834a1.16385,1.16385,0,0,1,.07666-.457,2.42427,2.42427,0,0,1,.43409-.71485,6.78989,6.78989,0,0,1,.86279-.8125,7.34037,7.34037,0,0,0,1.18262-1.13671,1.3637,1.3637,0,0,0,.30761-.793.87857.87857,0,0,0-.28027-.66114,1.00845,1.00845,0,0,0-.73047-.26855,1.02533,1.02533,0,0,0-.76172.28516,1.07553,1.07553,0,0,0-.28906.791l-.67774-.07031a1.66335,1.66335,0,0,1,.52344-1.1543,1.78389,1.78389,0,0,1,1.21973-.39844,1.696,1.696,0,0,1,1.22314.42969,1.40371,1.40371,0,0,1,.45069,1.06055,1.61474,1.61474,0,0,1-.13184.63476,2.44285,2.44285,0,0,1-.438.6543,10.49025,10.49025,0,0,1-1.01611.94531q-.59327.49806-.76172.67579a2.22186,2.22186,0,0,0-.27832.35742Z"
         id="path214" />
      <path
         class="cls-4"
         d="M201.89284,205.88611l.3855.46-9.67,8.114-.386-.4595Z"
         id="path216" />
      <path
         class="cls-4"
         d="M189.12233,241.40393a3.89258,3.89258,0,0,1,.957-2.791,3.25469,3.25469,0,0,1,2.47071-1.00781,3.4315,3.4315,0,0,1,1.78711.47363A3.08788,3.08788,0,0,1,195.55055,239.4a4.28764,4.28764,0,0,1,.41748,1.9209,4.21688,4.21688,0,0,1-.43945,1.94824,2.999,2.999,0,0,1-1.24512,1.30078,3.55476,3.55476,0,0,1-1.73828.44239,3.388,3.388,0,0,1-1.80664-.48829,3.143,3.143,0,0,1-1.20605-1.333A4.03572,4.03572,0,0,1,189.12233,241.40393Zm.97656.01465a2.86641,2.86641,0,0,0,.69581,2.03808,2.42678,2.42678,0,0,0,3.50585-.00683,3.03953,3.03953,0,0,0,.69092-2.13379,3.66616,3.66616,0,0,0-.29541-1.52539,2.27027,2.27027,0,0,0-.86426-1.01172,2.351,2.351,0,0,0-1.27685-.3584,2.42463,2.42463,0,0,0-1.731.69043A3.08816,3.08816,0,0,0,190.09889,241.41858Z"
         id="path218" />
      <path
         class="cls-4"
         d="M194.02534,235.59661l-.591.10451-2.3155-13.133.591-.104Z"
         id="path220" />
      <path
         class="cls-4"
         d="M189.76936,236.34712l-.591.10449-2.3155-13.133.5905-.104Z"
         id="path222" />
      <path
         class="cls-4"
         d="M153.84206,249.60315l.94726.23828a3.19121,3.19121,0,0,1-1.07177,1.78027,2.94912,2.94912,0,0,1-1.89209.61231,3.39733,3.39733,0,0,1-1.88233-.47071,2.94609,2.94609,0,0,1-1.10351-1.36523,4.86184,4.86184,0,0,1-.37842-1.918,4.21929,4.21929,0,0,1,.42725-1.95117,2.92712,2.92712,0,0,1,1.21582-1.26465,3.55361,3.55361,0,0,1,1.73584-.43262,2.93628,2.93628,0,0,1,1.80664.54688,2.84282,2.84282,0,0,1,1.0205,1.53906l-.93261.21875a2.20812,2.20812,0,0,0-.72266-1.13672,1.92236,1.92236,0,0,0-1.19141-.35742,2.31467,2.31467,0,0,0-1.37939.39648,2.08734,2.08734,0,0,0-.77881,1.06153,4.26966,4.26966,0,0,0-.22461,1.374,4.37186,4.37186,0,0,0,.26611,1.59473,1.982,1.982,0,0,0,.82764,1.01855,2.321,2.321,0,0,0,1.21582.33594,2.03334,2.03334,0,0,0,1.34766-.459A2.349,2.349,0,0,0,153.84206,249.60315Z"
         id="path224" />
      <path
         class="cls-4"
         d="M155.98561,252.11291v-7.1582h.94727v2.93945h3.7207v-2.93945h.94727v7.1582h-.94727v-3.375h-3.7207v3.375Z"
         id="path226" />
      <path
         class="cls-4"
         d="M166.18141,253.42248v.63379h-3.54834a1.1687,1.1687,0,0,1,.07666-.458,2.43269,2.43269,0,0,1,.43409-.71386,6.71982,6.71982,0,0,1,.86279-.8125,7.29388,7.29388,0,0,0,1.18262-1.1377,1.36132,1.36132,0,0,0,.30761-.793.88155.88155,0,0,0-.28027-.66113,1.00842,1.00842,0,0,0-.73047-.26856,1.02918,1.02918,0,0,0-.76172.28516,1.07867,1.07867,0,0,0-.28906.791l-.67773-.06934a1.6657,1.6657,0,0,1,.52343-1.15527,1.7883,1.7883,0,0,1,1.21973-.39746,1.69963,1.69963,0,0,1,1.22314.42871,1.4058,1.4058,0,0,1,.45069,1.06152,1.61371,1.61371,0,0,1-.13184.63379,2.431,2.431,0,0,1-.438.65527,10.49134,10.49134,0,0,1-1.01611.94532q-.59327.498-.76172.67578a2.17442,2.17442,0,0,0-.27832.35644Z"
         id="path228" />
      <path
         class="cls-4"
         d="M150.95234,243.24961l-.5905.104-2.32049-13.159.591-.104Z"
         id="path230" />
      <path
         class="cls-4"
         d="M135.449,265.03479l.94727.24023a3.18854,3.18854,0,0,1-1.07178,1.7793,2.95532,2.95532,0,0,1-1.89209.61328,3.40552,3.40552,0,0,1-1.88232-.47168,2.93859,2.93859,0,0,1-1.10352-1.36426,4.87136,4.87136,0,0,1-.37842-1.91992,4.22083,4.22083,0,0,1,.42725-1.9502,2.92191,2.92191,0,0,1,1.21582-1.26464,3.55291,3.55291,0,0,1,1.73584-.43164,2.93,2.93,0,0,1,1.80664.54687,2.83771,2.83771,0,0,1,1.02051,1.53711l-.93262.2207a2.21436,2.21436,0,0,0-.72266-1.13867,1.92767,1.92767,0,0,0-1.1914-.35547,2.31389,2.31389,0,0,0-1.3794.39453,2.08994,2.08994,0,0,0-.77881,1.0625,4.27126,4.27126,0,0,0-.2246,1.375,4.3698,4.3698,0,0,0,.26611,1.59375,1.97954,1.97954,0,0,0,.82764,1.01758,2.3229,2.3229,0,0,0,1.21582.33789,2.03844,2.03844,0,0,0,1.34765-.459A2.35452,2.35452,0,0,0,135.449,265.03479Z"
         id="path232" />
      <path
         class="cls-4"
         d="M137.42986,260.76011l-.3855-.4595,10.4365-8.757.38549.45953Z"
         id="path234" />
      <path
         class="cls-4"
         d="M136.68134,282.05762l-.591.104-2.27751-12.918.5905-.10449Z"
         id="path236" />
      <path
         class="cls-4"
         d="M107.21364,255.84729a3.8894,3.8894,0,0,1,.957-2.791,3.25468,3.25468,0,0,1,2.4707-1.00781,3.43075,3.43075,0,0,1,1.78711.47265,3.09338,3.09338,0,0,1,1.21338,1.32129,4.2906,4.2906,0,0,1,.41748,1.9209,4.221,4.221,0,0,1-.43945,1.94922,3.00428,3.00428,0,0,1-1.24512,1.30078,3.55392,3.55392,0,0,1-1.73828.44141,3.37934,3.37934,0,0,1-1.80664-.48828,3.14048,3.14048,0,0,1-1.206-1.332A4.04182,4.04182,0,0,1,107.21364,255.84729Zm.97656.01367A2.86735,2.86735,0,0,0,108.886,257.9a2.4279,2.4279,0,0,0,3.50586-.00781,3.03856,3.03856,0,0,0,.69092-2.13281,3.67086,3.67086,0,0,0-.29541-1.52637,2.26767,2.26767,0,0,0-.86426-1.01074,2.34344,2.34344,0,0,0-1.27685-.35938,2.42144,2.42144,0,0,0-1.731.69141A3.08561,3.08561,0,0,0,108.1902,255.861Z"
         id="path238" />
      <path
         class="cls-4"
         d="M114.58335,259.78362l.205-.564,13.173,4.795-.205.56351Z"
         id="path240" />
      <path
         class="cls-4"
         d="M116.06135,255.72261l.205-.564,13.173,4.79451-.205.564Z"
         id="path242" />
      <path
         class="cls-4"
         d="M134.50173,291.19006v-7.1582h.97168l3.75976,5.62011v-5.62011h.9082v7.1582h-.97167l-3.75977-5.625v5.625Z"
         id="path244" />
      <path
         class="cls-4"
         d="M141.76247,291.19006v-7.1582h.94726v2.93945h3.72071v-2.93945h.94726v7.1582h-.94726v-3.374h-3.72071v3.374Z"
         id="path246" />
      <path
         class="cls-4"
         d="M121.22585,304.11291l.94726.24024a3.18847,3.18847,0,0,1-1.07177,1.77929,2.9553,2.9553,0,0,1-1.89209.61328,3.40555,3.40555,0,0,1-1.88233-.47168,2.93849,2.93849,0,0,1-1.10351-1.36425,4.87123,4.87123,0,0,1-.37842-1.91993,4.22092,4.22092,0,0,1,.42724-1.95019,2.922,2.922,0,0,1,1.21582-1.26465,3.55293,3.55293,0,0,1,1.73584-.43164,2.93,2.93,0,0,1,1.80664.54688,2.83758,2.83758,0,0,1,1.02051,1.5371l-.93261.22071a2.21431,2.21431,0,0,0-.72266-1.13867,1.92763,1.92763,0,0,0-1.19141-.35547,2.31388,2.31388,0,0,0-1.37939.39453,2.0898,2.0898,0,0,0-.77881,1.0625,4.27118,4.27118,0,0,0-.22461,1.375,4.37,4.37,0,0,0,.26611,1.59375,1.97963,1.97963,0,0,0,.82764,1.01758,2.32292,2.32292,0,0,0,1.21582.33789,2.03844,2.03844,0,0,0,1.34766-.459A2.35457,2.35457,0,0,0,121.22585,304.11291Z"
         id="path248" />
      <path
         class="cls-4"
         d="M123.3694,306.62268v-7.15821h.94727v2.93946h3.7207v-2.93946h.94727v7.15821h-.94727v-3.373h-3.7207v3.373Z"
         id="path250" />
      <path
         class="cls-4"
         d="M125.26836,298.10862l-.3855-.4595,7.60849-6.3845.3855.4595Z"
         id="path252" />
      <path
         class="cls-4"
         d="M125.39479,327.7594l.94727.23925a3.19125,3.19125,0,0,1-1.07178,1.78028,2.95469,2.95469,0,0,1-1.89209.6123,3.39731,3.39731,0,0,1-1.88232-.47168,2.93849,2.93849,0,0,1-1.10352-1.36426,4.86656,4.86656,0,0,1-.37842-1.91894,4.22212,4.22212,0,0,1,.42725-1.95117,2.91951,2.91951,0,0,1,1.21582-1.26367,3.543,3.543,0,0,1,1.73584-.43262,2.9363,2.9363,0,0,1,1.80664.54687,2.84031,2.84031,0,0,1,1.02051,1.53809l-.93262.21973a2.21532,2.21532,0,0,0-.72266-1.1377,1.9219,1.9219,0,0,0-1.1914-.35645,2.31431,2.31431,0,0,0-1.3794.39551,2.08577,2.08577,0,0,0-.7788,1.0625,4.26512,4.26512,0,0,0-.22461,1.374,4.37892,4.37892,0,0,0,.26611,1.59472,1.98348,1.98348,0,0,0,.82764,1.01758,2.32194,2.32194,0,0,0,1.21582.33691,2.03844,2.03844,0,0,0,1.34765-.459A2.35171,2.35171,0,0,0,125.39479,327.7594Z"
         id="path254" />
      <path
         class="cls-4"
         d="M122.50586,321.40662l-.591.104-2.32549-13.1885.591-.10452Z"
         id="path256" />
      <path
         class="cls-4"
         d="M93.58571,287.72815v-7.15821H94.533v2.93946h3.7207v-2.93946H99.201v7.15821h-.94727v-3.374H94.533v3.374Z"
         id="path258" />
      <path
         class="cls-4"
         d="M103.78249,289.03869v.63477h-3.54834a1.17054,1.17054,0,0,1,.07666-.459,2.44109,2.44109,0,0,1,.43408-.71289,6.78771,6.78771,0,0,1,.86279-.81347,7.29388,7.29388,0,0,0,1.18262-1.1377,1.35894,1.35894,0,0,0,.30762-.793.8809.8809,0,0,0-.28028-.66015,1.009,1.009,0,0,0-.73046-.26953,1.033,1.033,0,0,0-.76172.28515,1.08187,1.08187,0,0,0-.28907.791l-.67773-.06836a1.67008,1.67008,0,0,1,.52344-1.15625,1.78785,1.78785,0,0,1,1.21972-.39649,1.70341,1.70341,0,0,1,1.22315.42774,1.40793,1.40793,0,0,1,.45068,1.0625,1.60547,1.60547,0,0,1-.13183.63281,2.44987,2.44987,0,0,1-.438.65625,10.617,10.617,0,0,1-1.01612.94531q-.59325.498-.76171.67481a2.17388,2.17388,0,0,0-.27832.35644Z"
         id="path260" />
      <path
         class="cls-4"
         d="M98.66384,295.902l.94726.23829a3.19117,3.19117,0,0,1-1.07178,1.78027,2.94908,2.94908,0,0,1-1.89209.6123,3.39741,3.39741,0,0,1-1.88232-.4707,2.94617,2.94617,0,0,1-1.10352-1.36523,4.86184,4.86184,0,0,1-.37841-1.918,4.21926,4.21926,0,0,1,.42724-1.95117,2.92717,2.92717,0,0,1,1.21582-1.26465,3.55364,3.55364,0,0,1,1.73584-.43262,2.9363,2.9363,0,0,1,1.80664.54687,2.84286,2.84286,0,0,1,1.02051,1.53907l-.93262.21875a2.208,2.208,0,0,0-.72265-1.13672,1.92236,1.92236,0,0,0-1.19141-.35742,2.31467,2.31467,0,0,0-1.37939.39648,2.08735,2.08735,0,0,0-.77881,1.06152,4.26976,4.26976,0,0,0-.22461,1.374,4.37177,4.37177,0,0,0,.26611,1.59472,1.982,1.982,0,0,0,.82764,1.01856,2.321,2.321,0,0,0,1.21582.33594,2.03334,2.03334,0,0,0,1.34766-.459A2.349,2.349,0,0,0,98.66384,295.902Z"
         id="path262" />
      <path
         class="cls-4"
         d="M100.67485,297.9541l1.026-2.819.546.25351-.991,2.72249Z"
         id="path264" />
      <path
         class="cls-4"
         d="M103.27785,298.65711l.869-2.3875.546.25351-.83349,2.291Z"
         id="path266" />
      <path
         class="cls-4"
         d="M105.88086,299.36011l.712-1.95549.546.25349-.67649,1.859Z"
         id="path268" />
      <path
         class="cls-4"
         d="M108.48435,300.06311l.55449-1.524.546.25349-.51949,1.42752Z"
         id="path270" />
      <path
         class="cls-4"
         d="M111.08735,300.76611l.39749-1.092.546.25349-.362.99551Z"
         id="path272" />
      <path
         class="cls-4"
         d="M113.69035,301.46912l.24051-.66.546.253-.205.564Z"
         id="path274" />
      <path
         class="cls-4"
         d="M140.79035,332.76712l-.205.564-12.77051-4.648.20552-.564Z"
         id="path276" />
      <path
         class="cls-4"
         d="M101.32839,342.21643a3.88935,3.88935,0,0,1,.957-2.791,3.25465,3.25465,0,0,1,2.4707-1.00781,3.43076,3.43076,0,0,1,1.78711.47266,3.09336,3.09336,0,0,1,1.21338,1.32128,4.2906,4.2906,0,0,1,.41748,1.9209,4.221,4.221,0,0,1-.43945,1.94922,3.00428,3.00428,0,0,1-1.24512,1.30078,3.55392,3.55392,0,0,1-1.73828.44141,3.37934,3.37934,0,0,1-1.80664-.48828,3.14057,3.14057,0,0,1-1.20606-1.332A4.042,4.042,0,0,1,101.32839,342.21643Zm.97656.01367a2.8673,2.8673,0,0,0,.6958,2.03906,2.4279,2.4279,0,0,0,3.50586-.00781,3.03856,3.03856,0,0,0,.69092-2.13281,3.671,3.671,0,0,0-.29541-1.52637,2.26773,2.26773,0,0,0-.86426-1.01074,2.3435,2.3435,0,0,0-1.27686-.35938,2.42141,2.42141,0,0,0-1.73095.69141A3.08561,3.08561,0,0,0,102.305,342.2301Z"
         id="path278" />
      <path
         class="cls-4"
         d="M110.33086,340.60711l-.3855-.4595,10.47749-8.792.3855.46Z"
         id="path280" />
      <path
         class="cls-4"
         d="M107.55285,337.29661l-.38549-.46,10.47749-8.7915.38549.4595Z"
         id="path282" />
      <path
         class="cls-4"
         d="M80.27126,311.33557l.94726.23926a3.19121,3.19121,0,0,1-1.07177,1.78027,2.95473,2.95473,0,0,1-1.89209.6123,3.39733,3.39733,0,0,1-1.88233-.47168,2.93849,2.93849,0,0,1-1.10351-1.36425,4.86647,4.86647,0,0,1-.37842-1.91895,4.22224,4.22224,0,0,1,.42724-1.95117,2.91962,2.91962,0,0,1,1.21582-1.26367,3.543,3.543,0,0,1,1.73584-.43262,2.93635,2.93635,0,0,1,1.80665.54687,2.84024,2.84024,0,0,1,1.0205,1.53809l-.93261.21973a2.21538,2.21538,0,0,0-.72266-1.1377,1.92192,1.92192,0,0,0-1.19141-.35644,2.31427,2.31427,0,0,0-1.37939.3955,2.08583,2.08583,0,0,0-.77881,1.0625,4.26539,4.26539,0,0,0-.22461,1.374,4.37906,4.37906,0,0,0,.26611,1.59472,1.98353,1.98353,0,0,0,.82764,1.01758,2.322,2.322,0,0,0,1.21582.33692,2.03844,2.03844,0,0,0,1.34766-.459A2.35177,2.35177,0,0,0,80.27126,311.33557Z"
         id="path284" />
      <path
         class="cls-4"
         d="M75.19313,322.47815v-7.15821h.94727v2.93946h3.7207v-2.93946h.94727v7.15821H79.8611v-3.374H76.1404v3.374Z"
         id="path286" />
      <path
         class="cls-4"
         d="M85.38942,323.78869v.63477H81.84108a1.17054,1.17054,0,0,1,.07666-.459,2.44109,2.44109,0,0,1,.43408-.71289,6.78721,6.78721,0,0,1,.8628-.81347,7.29371,7.29371,0,0,0,1.18261-1.1377,1.35894,1.35894,0,0,0,.30762-.793.88092.88092,0,0,0-.28027-.66015,1.00906,1.00906,0,0,0-.73047-.26953,1.03306,1.03306,0,0,0-.76172.28515,1.08182,1.08182,0,0,0-.28906.791l-.67774-.06836a1.67013,1.67013,0,0,1,.52344-1.15625,1.78788,1.78788,0,0,1,1.21973-.39649,1.7034,1.7034,0,0,1,1.22314.42774,1.4079,1.4079,0,0,1,.45069,1.0625,1.60549,1.60549,0,0,1-.13184.63281,2.44987,2.44987,0,0,1-.438.65625,10.61665,10.61665,0,0,1-1.01611.94531q-.59327.498-.76172.67481a2.17388,2.17388,0,0,0-.27832.35644Z"
         id="path288" />
      <path
         class="cls-4"
         d="M82.25185,307.06011l-.3855-.4595,10.433-8.75449.3855.46Z"
         id="path290" />
      <path
         class="cls-4"
         d="M52.63112,294.9508v-7.1582h.94727v2.93945h3.7207V287.7926h.94727v7.1582h-.94727v-3.375h-3.7207v3.375Z"
         id="path292" />
      <path
         class="cls-4"
         d="M62.82741,296.26037v.63379H59.27907a1.1687,1.1687,0,0,1,.07666-.458,2.43243,2.43243,0,0,1,.43408-.71386,6.72067,6.72067,0,0,1,.8628-.8125,7.29414,7.29414,0,0,0,1.18261-1.1377,1.36127,1.36127,0,0,0,.30762-.793.88155.88155,0,0,0-.28027-.66113,1.00843,1.00843,0,0,0-.73047-.26856,1.02917,1.02917,0,0,0-.76172.28516,1.07867,1.07867,0,0,0-.28906.791l-.67774-.06934A1.6657,1.6657,0,0,1,59.927,291.901a1.78826,1.78826,0,0,1,1.21973-.39746,1.69965,1.69965,0,0,1,1.22314.42871,1.40583,1.40583,0,0,1,.45068,1.06152,1.61369,1.61369,0,0,1-.13183.63379,2.43128,2.43128,0,0,1-.438.65527,10.49007,10.49007,0,0,1-1.01611.94532q-.59327.498-.76172.67578a2.17388,2.17388,0,0,0-.27832.35644Z"
         id="path294" />
      <path
         class="cls-4"
         d="M57.70925,303.12365l.94726.23926a3.18842,3.18842,0,0,1-1.07178,1.7793,2.9497,2.9497,0,0,1-1.89209.61328,3.40563,3.40563,0,0,1-1.88232-.4707,2.9462,2.9462,0,0,1-1.10352-1.36524,4.86655,4.86655,0,0,1-.37841-1.91894,4.218,4.218,0,0,1,.42724-1.9502,2.92958,2.92958,0,0,1,1.21582-1.26562,3.56368,3.56368,0,0,1,1.73584-.43164,2.93,2.93,0,0,1,1.80664.54687,2.84026,2.84026,0,0,1,1.02051,1.53809l-.93262.21972a2.207,2.207,0,0,0-.72265-1.13769,1.92806,1.92806,0,0,0-1.19141-.35645,2.31428,2.31428,0,0,0-1.37939.39551,2.09138,2.09138,0,0,0-.77881,1.06152,4.27565,4.27565,0,0,0-.22461,1.375,4.36266,4.36266,0,0,0,.26611,1.59375,1.9781,1.9781,0,0,0,.82764,1.01856,2.32194,2.32194,0,0,0,1.21582.33691,2.03333,2.03333,0,0,0,1.34766-.459A2.35185,2.35185,0,0,0,57.70925,303.12365Z"
         id="path296" />
      <path
         class="cls-4"
         d="M60.13034,304.04812l.2055-.564,13.1865,4.79951-.205.564Z"
         id="path298" />
      <path
         class="cls-4"
         d="M39.31667,318.55627l.94726.23926a3.19121,3.19121,0,0,1-1.07177,1.78027,2.95468,2.95468,0,0,1-1.89209.61231,3.39741,3.39741,0,0,1-1.88233-.47168,2.93857,2.93857,0,0,1-1.10351-1.36426,4.8664,4.8664,0,0,1-.37842-1.91895,4.22227,4.22227,0,0,1,.42724-1.95117,2.91962,2.91962,0,0,1,1.21582-1.26367,3.5431,3.5431,0,0,1,1.73584-.43262,2.93629,2.93629,0,0,1,1.80665.54688,2.84025,2.84025,0,0,1,1.0205,1.53808l-.93261.21973a2.21535,2.21535,0,0,0-.72266-1.13769,1.92186,1.92186,0,0,0-1.19141-.35645,2.31428,2.31428,0,0,0-1.37939.39551,2.08579,2.08579,0,0,0-.77881,1.0625,4.26533,4.26533,0,0,0-.22461,1.374,4.37915,4.37915,0,0,0,.26611,1.59473,1.98357,1.98357,0,0,0,.82764,1.01758,2.322,2.322,0,0,0,1.21582.33691,2.03848,2.03848,0,0,0,1.34766-.459A2.35183,2.35183,0,0,0,39.31667,318.55627Z"
         id="path300" />
      <path
         class="cls-4"
         d="M34.23854,329.69885v-7.1582h.94727v2.93945h3.7207v-2.93945h.94727v7.1582h-.94727v-3.373h-3.7207v3.373Z"
         id="path302" />
      <path
         class="cls-4"
         d="M44.43483,331.01037v.63379H40.88649a1.1687,1.1687,0,0,1,.07666-.458,2.43243,2.43243,0,0,1,.43408-.71386,6.72067,6.72067,0,0,1,.8628-.8125,7.29371,7.29371,0,0,0,1.18261-1.1377,1.36127,1.36127,0,0,0,.30762-.793A.88155.88155,0,0,0,43.47,327.068a1.00843,1.00843,0,0,0-.73047-.26856,1.02918,1.02918,0,0,0-.76172.28516,1.07867,1.07867,0,0,0-.28906.791l-.67774-.06934a1.66574,1.66574,0,0,1,.52344-1.15527,1.78828,1.78828,0,0,1,1.21973-.39746,1.69965,1.69965,0,0,1,1.22314.42871,1.4058,1.4058,0,0,1,.45069,1.06152,1.61371,1.61371,0,0,1-.13184.63379,2.43128,2.43128,0,0,1-.438.65527,10.49007,10.49007,0,0,1-1.01611.94532q-.59326.498-.76172.67578a2.17388,2.17388,0,0,0-.27832.35644Z"
         id="path304" />
      <path
         class="cls-4"
         d="M41.29735,314.28162l-.3855-.46,10.43251-8.754.386.45952Z"
         id="path306" />
      <path
         class="cls-4"
         d="M.28346,312.85412v-7.1582h.94727v2.93945h3.7207v-2.93945H5.8987v7.1582H4.95143v-3.374H1.23073v3.374Z"
         id="path308" />
      <path
         class="cls-4"
         d="M10.47975,314.16565v.63281H6.93141a1.16385,1.16385,0,0,1,.07666-.457,2.42448,2.42448,0,0,1,.43409-.71485,6.78989,6.78989,0,0,1,.86279-.8125,7.33989,7.33989,0,0,0,1.18262-1.13672,1.36365,1.36365,0,0,0,.30761-.793.87855.87855,0,0,0-.28027-.66114,1.00845,1.00845,0,0,0-.73047-.26855,1.02537,1.02537,0,0,0-.76172.28515,1.07557,1.07557,0,0,0-.28906.791l-.67773-.07031a1.66328,1.66328,0,0,1,.52343-1.1543,1.78389,1.78389,0,0,1,1.21973-.39844,1.696,1.696,0,0,1,1.22314.42969,1.40371,1.40371,0,0,1,.45069,1.06055,1.61474,1.61474,0,0,1-.13184.63476,2.44292,2.44292,0,0,1-.438.6543,10.49025,10.49025,0,0,1-1.01611.94531q-.59327.498-.76172.67578a2.22192,2.22192,0,0,0-.27832.35743Z"
         id="path310" />
      <path
         class="cls-4"
         d="M11.63747,312.85412v-7.1582h.97168l3.75976,5.62012v-5.62012h.90821v7.1582h-.97168l-3.75977-5.625v5.625Z"
         id="path312" />
      <path
         class="cls-4"
         d="M19.26934,311.30361l.20551-.564,13.093,4.76547-.20549.564Z"
         id="path314" />
      <path
         class="cls-4"
         d="M142.83962,338.4801v-7.1582h.97168l3.75976,5.62011V331.3219h.90821v7.1582h-.97168l-3.75977-5.625v5.625Z"
         id="path316" />
      <path
         class="cls-4"
         d="M150.10036,338.4801v-7.1582h.94726v2.93945h3.72071V331.3219h.94726v7.1582h-.94726v-3.374h-3.72071v3.374Z"
         id="path318" />
      <path
         class="cls-4"
         d="M152.12673,359.61682l.94726.23828a3.19117,3.19117,0,0,1-1.07178,1.78027,2.94908,2.94908,0,0,1-1.89209.61231,3.39732,3.39732,0,0,1-1.88232-.47071,2.94617,2.94617,0,0,1-1.10352-1.36523,4.8618,4.8618,0,0,1-.37841-1.918,4.21944,4.21944,0,0,1,.42724-1.95117,2.92723,2.92723,0,0,1,1.21582-1.26465,3.55367,3.55367,0,0,1,1.73584-.43262,2.93624,2.93624,0,0,1,1.80664.54688,2.84278,2.84278,0,0,1,1.02051,1.53906l-.93262.21875a2.20809,2.20809,0,0,0-.72265-1.13672,1.92236,1.92236,0,0,0-1.19141-.35742,2.31467,2.31467,0,0,0-1.37939.39648,2.08738,2.08738,0,0,0-.77881,1.06153,4.26966,4.26966,0,0,0-.22461,1.374,4.37179,4.37179,0,0,0,.26611,1.59473,1.982,1.982,0,0,0,.82764,1.01855,2.321,2.321,0,0,0,1.21582.33594,2.03333,2.03333,0,0,0,1.34766-.459A2.349,2.349,0,0,0,152.12673,359.61682Z"
         id="path320" />
      <path
         class="cls-4"
         d="M154.27028,362.12658v-7.1582h.94727v2.93945h3.7207v-2.93945h.94727v7.1582h-.94727v-3.375h-3.7207v3.375Z"
         id="path322" />
      <path
         class="cls-4"
         d="M149.23684,353.26362l-.591.104-2.286-12.96648.591-.104Z"
         id="path324" />
      <path
         class="cls-4"
         d="M174.68874,367.82776l.94726.23828a3.19121,3.19121,0,0,1-1.07177,1.78027,2.94911,2.94911,0,0,1-1.89209.6123,3.39742,3.39742,0,0,1-1.88233-.4707,2.94609,2.94609,0,0,1-1.10351-1.36523,4.86184,4.86184,0,0,1-.37842-1.918,4.21938,4.21938,0,0,1,.42724-1.95117,2.9272,2.9272,0,0,1,1.21583-1.26465,3.5536,3.5536,0,0,1,1.73583-.43262,2.93629,2.93629,0,0,1,1.80665.54688,2.84282,2.84282,0,0,1,1.0205,1.53906l-.93261.21875a2.20812,2.20812,0,0,0-.72266-1.13672,1.92236,1.92236,0,0,0-1.19141-.35742,2.31467,2.31467,0,0,0-1.37939.39648,2.08734,2.08734,0,0,0-.77881,1.06153,4.26966,4.26966,0,0,0-.22461,1.374,4.37186,4.37186,0,0,0,.26611,1.59473,1.982,1.982,0,0,0,.82764,1.01855,2.321,2.321,0,0,0,1.21582.33594,2.03334,2.03334,0,0,0,1.34766-.459A2.349,2.349,0,0,0,174.68874,367.82776Z"
         id="path326" />
      <path
         class="cls-4"
         d="M167.93984,364.77661l-.20549.5635-6.50449-2.3675.205-.5635Z"
         id="path328" />
      <path
         class="cls-4"
         d="M117.263,377.5592V370.401h.94726v2.93945h3.72071V370.401h.94726v7.1582h-.94726v-3.374h-3.72071v3.374Z"
         id="path330" />
      <path
         class="cls-4"
         d="M123.9988,378.08557l.65918-.08789a1.45671,1.45671,0,0,0,.38623.80761.95361.95361,0,0,0,.665.24707,1.0646,1.0646,0,0,0,.78515-.32226,1.08591,1.08591,0,0,0,.32031-.79883,1.01033,1.01033,0,0,0-.29638-.748,1.02262,1.02262,0,0,0-.7544-.29492,1.88784,1.88784,0,0,0-.46484.07324l.07324-.5791a.80887.80887,0,0,0,.106.00782,1.35937,1.35937,0,0,0,.7583-.21973.75241.75241,0,0,0,.33691-.67676.80388.80388,0,0,0-.2456-.60156.8742.8742,0,0,0-.6333-.23828.89792.89792,0,0,0-.64112.24218,1.212,1.212,0,0,0-.32959.72461l-.65918-.11718a1.69945,1.69945,0,0,1,.54932-1.02735,1.59163,1.59163,0,0,1,1.06592-.36328,1.763,1.763,0,0,1,.80908.1875,1.37319,1.37319,0,0,1,.56592.51563,1.32,1.32,0,0,1,.1958.6914,1.12926,1.12926,0,0,1-.187.63379,1.27175,1.27175,0,0,1-.55274.4541,1.24261,1.24261,0,0,1,.73975.45606,1.38757,1.38757,0,0,1,.26367.86621,1.58375,1.58375,0,0,1-.51269,1.19141,1.80246,1.80246,0,0,1-1.29639.48925,1.68482,1.68482,0,0,1-1.17383-.4209A1.63056,1.63056,0,0,1,123.9988,378.08557Z"
         id="path332" />
      <path
         class="cls-4"
         d="M133.73415,375.04943l.94726.23926a3.18846,3.18846,0,0,1-1.07177,1.7793,2.94974,2.94974,0,0,1-1.89209.61328,3.40565,3.40565,0,0,1-1.88233-.4707,2.94612,2.94612,0,0,1-1.10351-1.36524,4.86656,4.86656,0,0,1-.37842-1.91894,4.21812,4.21812,0,0,1,.42724-1.9502,2.9296,2.9296,0,0,1,1.21583-1.26562,3.56362,3.56362,0,0,1,1.73584-.43164,2.93009,2.93009,0,0,1,1.80664.54687,2.84028,2.84028,0,0,1,1.0205,1.53809l-.93261.21972a2.20711,2.20711,0,0,0-.72266-1.13769,1.92806,1.92806,0,0,0-1.19141-.35645,2.31428,2.31428,0,0,0-1.37939.39551,2.0914,2.0914,0,0,0-.77881,1.06153,4.27556,4.27556,0,0,0-.22461,1.375,4.36273,4.36273,0,0,0,.26611,1.59375,1.97811,1.97811,0,0,0,.82764,1.01855,2.322,2.322,0,0,0,1.21582.33691,2.03333,2.03333,0,0,0,1.34766-.459A2.3518,2.3518,0,0,0,133.73415,375.04943Z"
         id="path334" />
      <path
         class="cls-4"
         d="M136.48535,371.69412l-1.92849-2.29851,11.20849-7.838.3855.4595Z"
         id="path336" />
      <path
         class="cls-4"
         d="M185.94585,354.98562l.3855.4595-9.662,8.10749-.386-.45949Z"
         id="path338" />
      <path
         class="cls-4"
         d="M173.18337,390.4967a3.88686,3.88686,0,0,1,.957-2.79,3.25189,3.25189,0,0,1,2.4707-1.00879,3.42224,3.42224,0,0,1,1.78711.47364,3.09641,3.09641,0,0,1,1.21338,1.32031,4.29188,4.29188,0,0,1,.41748,1.92187,4.21688,4.21688,0,0,1-.43945,1.94824,3.00139,3.00139,0,0,1-1.24512,1.30176,3.5645,3.5645,0,0,1-1.73828.44141,3.37934,3.37934,0,0,1-1.80664-.48828,3.143,3.143,0,0,1-1.20606-1.333A4.042,4.042,0,0,1,173.18337,390.4967Zm.97656.01465a2.86893,2.86893,0,0,0,.6958,2.03906,2.4279,2.4279,0,0,0,3.50586-.00781,3.04279,3.04279,0,0,0,.69092-2.13379,3.67421,3.67421,0,0,0-.29541-1.52637,2.26519,2.26519,0,0,0-.86426-1.00976,2.33521,2.33521,0,0,0-1.27686-.35938,2.42141,2.42141,0,0,0-1.731.69141A3.08259,3.08259,0,0,0,174.15993,390.51135Z"
         id="path340" />
      <path
         class="cls-4"
         d="M178.08635,384.68911l-.591.1045-2.3155-13.133.591-.104Z"
         id="path342" />
      <path
         class="cls-4"
         d="M173.83034,385.43963l-.591.10449-2.3155-13.133.591-.104Z"
         id="path344" />
      <path
         class="cls-4"
         d="M188.0027,346.0719v-7.15821H188.95v2.93946h3.7207v-2.93946h.94727v7.15821h-.94727v-3.375H188.95v3.375Z"
         id="path346" />
      <path
         class="cls-4"
         d="M187.96364,354.90393v-7.15821h.97168l3.75977,5.6211v-5.6211h.9082v7.15821h-.97168l-3.75977-5.625v5.625Z"
         id="path348" />
      <path
         class="cls-4"
         d="M215.64284,360.60705l.94727.23828a3.19131,3.19131,0,0,1-1.07178,1.78028,2.94911,2.94911,0,0,1-1.89209.6123,3.39742,3.39742,0,0,1-1.88233-.4707,2.94613,2.94613,0,0,1-1.10351-1.36524,4.86176,4.86176,0,0,1-.37842-1.918,4.21933,4.21933,0,0,1,.42725-1.95118,2.92723,2.92723,0,0,1,1.21582-1.26465,3.55374,3.55374,0,0,1,1.73584-.43261,2.93623,2.93623,0,0,1,1.80664.54687,2.84284,2.84284,0,0,1,1.0205,1.53907l-.93261.21875a2.20812,2.20812,0,0,0-.72266-1.13672,1.92235,1.92235,0,0,0-1.1914-.35743,2.31468,2.31468,0,0,0-1.3794.39649,2.08735,2.08735,0,0,0-.77881,1.06152,4.26976,4.26976,0,0,0-.22461,1.374,4.37155,4.37155,0,0,0,.26612,1.59472,1.982,1.982,0,0,0,.82763,1.01856,2.321,2.321,0,0,0,1.21582.33593,2.03333,2.03333,0,0,0,1.34766-.459A2.34894,2.34894,0,0,0,215.64284,360.60705Z"
         id="path350" />
      <path
         class="cls-4"
         d="M217.78639,363.11682v-7.15821h.94727v2.93946h3.7207v-2.93946h.94727v7.15821h-.94727v-3.375h-3.7207v3.375Z"
         id="path352" />
      <path
         class="cls-4"
         d="M208.89436,357.5551l-.20552.56351-13.05-4.74949.20552-.564Z"
         id="path354" />
      <path
         class="cls-4"
         d="M234.03591,345.17346l.94726.23926a3.19178,3.19178,0,0,1-1.07226,1.78027,2.95336,2.95336,0,0,1-1.89161.6123,3.39332,3.39332,0,0,1-1.88183-.47168,2.92969,2.92969,0,0,1-1.10352-1.36425,4.85827,4.85827,0,0,1-.3789-1.91895,4.216,4.216,0,0,1,.42773-1.95117,2.91743,2.91743,0,0,1,1.21484-1.26367,3.54764,3.54764,0,0,1,1.73633-.43262,2.93524,2.93524,0,0,1,1.80664.54688,2.84289,2.84289,0,0,1,1.02051,1.53808l-.93262.21973a2.21229,2.21229,0,0,0-.72265-1.1377,1.92291,1.92291,0,0,0-1.19141-.35644,2.31059,2.31059,0,0,0-1.3789.39551,2.08661,2.08661,0,0,0-.7793,1.0625,4.252,4.252,0,0,0-.22461,1.374,4.3899,4.3899,0,0,0,.26562,1.59473,1.98436,1.98436,0,0,0,.82813,1.01757,2.322,2.322,0,0,0,1.21582.33692,2.04026,2.04026,0,0,0,1.34766-.459A2.35177,2.35177,0,0,0,234.03591,345.17346Z"
         id="path356" />
      <path
         class="cls-4"
         d="M227.67434,347.11463l.386.45949-8.375,7.02749-.3855-.46Z"
         id="path358" />
      <path
         class="cls-4"
         d="M219.81178,384.25158l.94727.23926a3.19117,3.19117,0,0,1-1.07178,1.78027,2.95464,2.95464,0,0,1-1.89209.61231,3.3974,3.3974,0,0,1-1.88232-.47168,2.93859,2.93859,0,0,1-1.10352-1.36426,4.86655,4.86655,0,0,1-.37841-1.91894,4.22216,4.22216,0,0,1,.42724-1.95118,2.91961,2.91961,0,0,1,1.21582-1.26367,3.54307,3.54307,0,0,1,1.73584-.43261,2.93623,2.93623,0,0,1,1.80664.54687A2.84026,2.84026,0,0,1,220.637,381.566l-.93262.21972a2.21538,2.21538,0,0,0-.72265-1.13769,1.92193,1.92193,0,0,0-1.19141-.35645,2.31425,2.31425,0,0,0-1.37939.39551,2.08579,2.08579,0,0,0-.77881,1.0625,4.26533,4.26533,0,0,0-.22461,1.374,4.37915,4.37915,0,0,0,.26611,1.59473,1.98353,1.98353,0,0,0,.82764,1.01758,2.32194,2.32194,0,0,0,1.21582.33691,2.03844,2.03844,0,0,0,1.34765-.459A2.35174,2.35174,0,0,0,219.81178,384.25158Z"
         id="path360" />
      <path
         class="cls-4"
         d="M221.95534,386.76135v-7.1582h.94727v2.93945h3.72119v-2.93945h.94726v7.1582h-.94726v-3.374h-3.72119v3.374Z"
         id="path362" />
      <path
         class="cls-4"
         d="M228.69216,387.28869l.65918-.08789a1.45332,1.45332,0,0,0,.38574.80762.95685.95685,0,0,0,.666.24707,1.06692,1.06692,0,0,0,.78516-.32227,1.08972,1.08972,0,0,0,.32031-.79882,1.01235,1.01235,0,0,0-1.05078-1.043,1.88065,1.88065,0,0,0-.46484.07324l.07226-.5791a.83225.83225,0,0,0,.10645.00781,1.3632,1.3632,0,0,0,.75879-.21973.75273.75273,0,0,0,.33593-.67675.80533.80533,0,0,0-.24511-.60157.87379.87379,0,0,0-.63379-.23828.89838.89838,0,0,0-.64063.24219,1.21221,1.21221,0,0,0-.33007.72461l-.65821-.11719a1.69891,1.69891,0,0,1,.54883-1.02734,1.59024,1.59024,0,0,1,1.06641-.36328,1.75952,1.75952,0,0,1,.80859.1875,1.37763,1.37763,0,0,1,.56641.51562,1.32409,1.32409,0,0,1,.19531.69141,1.12969,1.12969,0,0,1-.1875.63379,1.26614,1.26614,0,0,1-.55274.4541,1.24093,1.24093,0,0,1,.74024.45605,1.38757,1.38757,0,0,1,.26367.86621,1.58373,1.58373,0,0,1-.51269,1.19141,1.8029,1.8029,0,0,1-1.2959.48926,1.68232,1.68232,0,0,1-1.17383-.4209A1.62894,1.62894,0,0,1,228.69216,387.28869Z"
         id="path364" />
      <path
         class="cls-4"
         d="M218.10486,377.69112l-2.95452.5205-1.144-13.397.591-.104Z"
         id="path366" />
      <path
         class="cls-4"
         d="M224.19264,320.55236a3.89126,3.89126,0,0,1,.95655-2.791,3.25609,3.25609,0,0,1,2.4707-1.00781,3.42828,3.42828,0,0,1,1.78711.47265,3.09153,3.09153,0,0,1,1.21387,1.32129,4.29044,4.29044,0,0,1,.417,1.9209,4.22113,4.22113,0,0,1-.43945,1.94922,3.00227,3.00227,0,0,1-1.24414,1.30078,3.55529,3.55529,0,0,1-1.73829.44141,3.37819,3.37819,0,0,1-1.80664-.48828,3.13546,3.13546,0,0,1-1.20654-1.332A4.04179,4.04179,0,0,1,224.19264,320.55236Zm.97608.01368a2.86752,2.86752,0,0,0,.69629,2.03906,2.4279,2.4279,0,0,0,3.50586-.00781,3.04072,3.04072,0,0,0,.69043-2.13282,3.66318,3.66318,0,0,0-.29493-1.52636,2.26773,2.26773,0,0,0-.86425-1.01075,2.34429,2.34429,0,0,0-1.27637-.35937,2.42176,2.42176,0,0,0-1.73145.69141A3.08566,3.08566,0,0,0,225.16872,320.566Z"
         id="path368" />
      <path
         class="cls-4"
         d="M226.09636,326.0811l.591-.10449,2.331,13.21951-.591.104Z"
         id="path370" />
      <path
         class="cls-4"
         d="M230.35234,325.33062l.591-.1045,2.331,13.21949-.591.104Z"
         id="path372" />
      <path
         class="cls-4"
         d="M199.07036,133.34111l.205-.564,17.461,6.35551.12051.682Z"
         id="path374" />
      <path
         class="cls-4"
         id="path376" />
    </g>
  </g>
  <flowRoot
     xml:space="preserve"
     id="flowRoot826-9"
     style="font-style:normal;font-variant:normal;font-weight:normal;font-stretch:normal;font-size:5.16346693px;line-height:1.25;font-family:sans-serif;-inkscape-font-specification:'sans-serif, Normal';font-variant-ligatures:normal;font-variant-caps:normal;font-variant-numeric:normal;font-feature-settings:normal;text-align:start;letter-spacing:0px;word-spacing:0px;writing-mode:lr-tb;text-anchor:start;fill:#69b42d;fill-opacity:1;stroke:none;"
     transform="matrix(2.0885645,0,0,2.0885645,-188.749,78.643719)"
     inkscape:export-xdpi="306.33099"
     inkscape:export-ydpi="306.33099"><flowRegion
       id="flowRegion828-1"
       style="fill:#69b42d;fill-opacity:1;"><rect
         id="rect830-4"
         width="140.00002"
         height="29.285711"
         x="237.85715"
         y="48.233971"
         style="fill:#69b42d;fill-opacity:1;" /></flowRegion><flowPara
       id="flowPara832-6"
       style="font-style:normal;font-variant:normal;font-weight:bold;font-stretch:normal;line-height:2.25;font-family:'Source Code Pro';-inkscape-font-specification:'Source Code Pro';fill:#69b42d;fill-opacity:1;">FAM</flowPara></flowRoot>  <flowRoot
     xml:space="preserve"
     id="flowRoot826-9-1"
     style="font-style:normal;font-variant:normal;font-weight:normal;font-stretch:normal;font-size:5.16346693px;line-height:1.25;font-family:sans-serif;-inkscape-font-specification:'sans-serif, Normal';font-variant-ligatures:normal;font-variant-caps:normal;font-variant-numeric:normal;font-feature-settings:normal;text-align:start;letter-spacing:0px;word-spacing:0px;writing-mode:lr-tb;text-anchor:start;fill:#46ff46;fill-opacity:1;stroke:none"
     transform="matrix(2.0885645,0,0,2.0885645,-230.26489,-57.311077)"
     inkscape:export-xdpi="306.33099"
     inkscape:export-ydpi="306.33099"><flowRegion
       id="flowRegion828-1-6"
       style="fill:#46ff46;fill-opacity:1"><rect
         id="rect830-4-6"
         width="140.00002"
         height="29.285711"
         x="237.85715"
         y="48.233971"
         style="fill:#46ff46;fill-opacity:1" /></flowRegion><flowPara
       id="flowPara832-6-3"
       style="font-style:normal;font-variant:normal;font-weight:bold;font-stretch:normal;line-height:2.25;font-family:'Source Code Pro';-inkscape-font-specification:'Source Code Pro';fill:#000000;fill-opacity:1">Dabcyl</flowPara></flowRoot>  <g
     id="g1419"
     transform="translate(12.533534,-35.511681)">
    <flowRoot
       inkscape:export-ydpi="306.33099"
       inkscape:export-xdpi="306.33099"
       transform="matrix(2.0885645,0,0,2.0885645,-472.10927,112.83988)"
       style="font-style:normal;font-variant:normal;font-weight:normal;font-stretch:normal;font-size:5.16346693px;line-height:1.25;font-family:sans-serif;-inkscape-font-specification:'sans-serif, Normal';font-variant-ligatures:normal;font-variant-caps:normal;font-variant-numeric:normal;font-feature-settings:normal;text-align:start;letter-spacing:0px;word-spacing:0px;writing-mode:lr-tb;text-anchor:start;fill:#99c5c4;fill-opacity:1;stroke:none"
       id="flowRoot826"
       xml:space="preserve"><flowRegion
         style="fill:#99c5c4;fill-opacity:1"
         id="flowRegion828"><rect
           style="fill:#99c5c4;fill-opacity:1"
           y="48.233971"
           x="237.85715"
           height="15.629987"
           width="121.89294"
           id="rect830" /></flowRegion><flowPara
         style="font-style:normal;font-variant:normal;font-weight:bold;font-stretch:normal;line-height:3.25;font-family:'Source Code Pro';-inkscape-font-specification:'Source Code Pro';fill:#99c5c4;fill-opacity:1"
         id="flowPara832"><flowSpan
           id="flowSpan817"
           style="font-style:italic;font-weight:bold;line-height:2;letter-spacing:0px;fill:#99c5c4;fill-opacity:1">S. aureus</flowSpan><flowSpan
           id="flowSpan1243"
           style="line-height:2;letter-spacing:0px" /></flowPara></flowRoot>    <flowRoot
       inkscape:export-ydpi="306.33099"
       inkscape:export-xdpi="306.33099"
       transform="matrix(2.0885645,0,0,2.0885645,-472.65927,117.62553)"
       style="font-style:normal;font-variant:normal;font-weight:normal;font-stretch:normal;font-size:5.16346693px;line-height:1.25;font-family:sans-serif;-inkscape-font-specification:'sans-serif, Normal';font-variant-ligatures:normal;font-variant-caps:normal;font-variant-numeric:normal;font-feature-settings:normal;text-align:start;letter-spacing:0px;word-spacing:0px;writing-mode:lr-tb;text-anchor:start;fill:#99c5c4;fill-opacity:1;stroke:none"
       id="flowRoot826-5"
       xml:space="preserve"><flowRegion
         style="fill:#99c5c4;fill-opacity:1"
         id="flowRegion828-6"><rect
           style="fill:#99c5c4;fill-opacity:1"
           y="48.233971"
           x="237.85715"
           height="15.629987"
           width="121.89294"
           id="rect830-44" /></flowRegion><flowPara
         style="font-style:normal;font-variant:normal;font-weight:bold;font-stretch:normal;line-height:3.25;font-family:'Source Code Pro';-inkscape-font-specification:'Source Code Pro';fill:#99c5c4;fill-opacity:1"
         id="flowPara832-0"><flowSpan
   id="flowSpan1243-6"
   style="line-height:2;letter-spacing:0px">PG </flowSpan>interlinking</flowPara></flowRoot>    <flowRoot
       inkscape:export-ydpi="306.33099"
       inkscape:export-xdpi="306.33099"
       transform="matrix(2.0885645,0,0,2.0885645,-472.62691,129.87927)"
       style="font-style:normal;font-variant:normal;font-weight:normal;font-stretch:normal;font-size:5.16346693px;line-height:1.25;font-family:sans-serif;-inkscape-font-specification:'sans-serif, Normal';font-variant-ligatures:normal;font-variant-caps:normal;font-variant-numeric:normal;font-feature-settings:normal;text-align:start;letter-spacing:0px;word-spacing:0px;writing-mode:lr-tb;text-anchor:start;fill:#99c5c4;fill-opacity:1;stroke:none"
       id="flowRoot826-1"
       xml:space="preserve"><flowRegion
         style="fill:#99c5c4;fill-opacity:1"
         id="flowRegion828-03"><rect
           style="fill:#99c5c4;fill-opacity:1"
           y="48.233971"
           x="237.85715"
           height="15.629987"
           width="121.89294"
           id="rect830-0" /></flowRegion><flowPara
         style="font-style:normal;font-variant:normal;font-weight:bold;font-stretch:normal;line-height:3.25;font-family:'Source Code Pro';-inkscape-font-specification:'Source Code Pro';fill:#99c5c4;fill-opacity:1"
         id="flowPara832-4">peptide</flowPara></flowRoot>  </g>
  <g
     id="g1429"
     transform="translate(215.57679,13.369103)">
    <flowRoot
       inkscape:export-ydpi="306.33099"
       inkscape:export-xdpi="306.33099"
       transform="matrix(2.0885645,0,0,2.0885645,-472.93773,148.30698)"
       style="font-style:normal;font-variant:normal;font-weight:normal;font-stretch:normal;font-size:5.16346693px;line-height:1.25;font-family:sans-serif;-inkscape-font-specification:'sans-serif, Normal';font-variant-ligatures:normal;font-variant-caps:normal;font-variant-numeric:normal;font-feature-settings:normal;text-align:start;letter-spacing:0px;word-spacing:0px;writing-mode:lr-tb;text-anchor:start;fill:#eaa54b;fill-opacity:1;stroke:none"
       id="flowRoot826-4"
       xml:space="preserve"><flowRegion
         style="fill:#eaa54b;fill-opacity:1"
         id="flowRegion828-0"><rect
           style="fill:#eaa54b;fill-opacity:1"
           y="48.233971"
           x="237.85715"
           height="29.285711"
           width="140.00002"
           id="rect830-8" /></flowRegion><flowPara
         style="font-style:normal;font-variant:normal;font-weight:bold;font-stretch:normal;line-height:2.25;font-family:'Source Code Pro';-inkscape-font-specification:'Source Code Pro';fill:#eaa54b;fill-opacity:1"
         id="flowPara832-1">6th amino acid </flowPara></flowRoot>    <flowRoot
       inkscape:export-ydpi="306.33099"
       inkscape:export-xdpi="306.33099"
       transform="matrix(2.0885645,0,0,2.0885645,-472.69516,159.43376)"
       style="font-style:normal;font-variant:normal;font-weight:normal;font-stretch:normal;font-size:5.16346693px;line-height:1.25;font-family:sans-serif;-inkscape-font-specification:'sans-serif, Normal';font-variant-ligatures:normal;font-variant-caps:normal;font-variant-numeric:normal;font-feature-settings:normal;text-align:start;letter-spacing:0px;word-spacing:0px;writing-mode:lr-tb;text-anchor:start;fill:#eaa54b;fill-opacity:1;stroke:none"
       id="flowRoot826-4-9"
       xml:space="preserve"><flowRegion
         style="fill:#eaa54b;fill-opacity:1"
         id="flowRegion828-0-8"><rect
           style="fill:#eaa54b;fill-opacity:1"
           y="48.233971"
           x="237.85715"
           height="29.285711"
           width="140.00002"
           id="rect830-8-8" /></flowRegion><flowPara
         style="font-style:normal;font-variant:normal;font-weight:bold;font-stretch:normal;line-height:2.25;font-family:'Source Code Pro';-inkscape-font-specification:'Source Code Pro';fill:#eaa54b;fill-opacity:1"
         id="flowPara832-1-9">lysine</flowPara></flowRoot>  </g>
  <g
     transform="matrix(0.03165841,-0.03109994,0.03109994,0.03165841,117.30204,249.04912)"
     id="g1455">
    <path
       style="fill:#f2e6b1"
       inkscape:connector-curvature="0"
       id="path464"
       d="m -189.09801,769.55703 a 120.66529,120.66529 0 1 1 109.477052,-171.458 l -115.771482,50.794 115.771002,50.79394 a 120.7016,120.7016 0 0 1 -109.476572,69.87006 z"
       class="cls-6" />
    <path
       inkscape:connector-curvature="0"
       id="path466"
       d="m -189.09801,531.06128 a 117.8766,117.8766 0 0 1 105.654112,65.61969 l -107.171112,47.02057 -11.83285,5.19159 11.83285,5.19159 107.170202,47.02014 A 117.84167,117.84167 0 1 1 -189.09801,531.06128 m 0,-5.66925 a 123.5,123.5 0 1 0 113.236082,172.84882 l -112.475282,-49.34772 112.476112,-49.3481 a 123.52228,123.52228 0 0 0 -113.236912,-74.153 z" />
    <circle
       id="circle468"
       r="17.5"
       cy="589.89203"
       cx="-212.09801" />
  </g>
  <g
     id="g1491"
     transform="translate(-2.0889224,-6.6845517)">
    <flowRoot
       inkscape:export-ydpi="306.33099"
       inkscape:export-xdpi="306.33099"
       transform="matrix(2.0885645,0,0,2.0885645,-353.1273,159.3372)"
       style="font-style:normal;font-variant:normal;font-weight:normal;font-stretch:normal;font-size:5.16346693px;line-height:1.25;font-family:sans-serif;-inkscape-font-specification:'sans-serif, Normal';font-variant-ligatures:normal;font-variant-caps:normal;font-variant-numeric:normal;font-feature-settings:normal;text-align:start;letter-spacing:0px;word-spacing:0px;writing-mode:lr-tb;text-anchor:start;fill:#f2e6b1;fill-opacity:1;stroke:none"
       id="flowRoot826-6-3"
       xml:space="preserve"><flowRegion
         style="fill:#f2e6b1;fill-opacity:1"
         id="flowRegion828-14-7"><rect
           style="fill:#f2e6b1;fill-opacity:1"
           y="48.233971"
           x="237.85715"
           height="29.285711"
           width="140.00002"
           id="rect830-3-6" /></flowRegion><flowPara
         style="font-style:normal;font-variant:normal;font-weight:bold;font-stretch:normal;line-height:2.25;font-family:'Source Code Pro';-inkscape-font-specification:'Source Code Pro';fill:#f2e6b1;fill-opacity:1"
         id="flowPara832-9-8">NlpC/P60 cut</flowPara></flowRoot>    <flowRoot
       inkscape:export-ydpi="306.33099"
       inkscape:export-xdpi="306.33099"
       transform="matrix(2.0885645,0,0,2.0885645,-353.19201,170.23043)"
       style="font-style:normal;font-variant:normal;font-weight:normal;font-stretch:normal;font-size:5.16346693px;line-height:1.25;font-family:sans-serif;-inkscape-font-specification:'sans-serif, Normal';font-variant-ligatures:normal;font-variant-caps:normal;font-variant-numeric:normal;font-feature-settings:normal;text-align:start;letter-spacing:0px;word-spacing:0px;writing-mode:lr-tb;text-anchor:start;fill:#f2e6b1;fill-opacity:1;stroke:none"
       id="flowRoot826-6-3-9"
       xml:space="preserve"><flowRegion
         style="fill:#f2e6b1;fill-opacity:1"
         id="flowRegion828-14-7-3"><rect
           style="fill:#f2e6b1;fill-opacity:1"
           y="48.233971"
           x="237.85715"
           height="29.285711"
           width="140.00002"
           id="rect830-3-6-1" /></flowRegion><flowPara
         style="font-style:normal;font-variant:normal;font-weight:bold;font-stretch:normal;line-height:2.25;font-family:'Source Code Pro';-inkscape-font-specification:'Source Code Pro';fill:#f2e6b1;fill-opacity:1"
         id="flowPara832-9-8-4">position</flowPara></flowRoot>  </g>
</svg>
