<svg id="Livello_1" data-name="Livello 1" xmlns="http://www.w3.org/2000/svg" viewBox="0 0 1920 1080"><defs><style>.cls-1{opacity:0.3;}.cls-2{fill:none;}.cls-2,.cls-3,.cls-4,.cls-5{stroke:#000;stroke-miterlimit:10;}.cls-3{fill:#b4d3b2;}.cls-4{fill:#99c5c4;}.cls-5{fill:#e9d1bf;}.cls-6{fill:#f2e6b1;}</style></defs><g class="cls-1"><line class="cls-2" x1="1258.23206" y1="570.95091" x2="1258.23206" y2="856.6194"/><polygon class="cls-3" points="1292.168 454.745 1225.037 454.745 1191.472 512.882 1225.037 571.019 1292.168 571.019 1325.734 512.882 1292.168 454.745"/><circle class="cls-4" cx="1258.60282" cy="608.78498" r="23.3806"/><circle class="cls-4" cx="1258.60282" cy="669.99966" r="23.3806"/><circle class="cls-4" cx="1258.60282" cy="731.21433" r="23.3806"/><circle class="cls-4" cx="1258.60282" cy="793.27921" r="23.3806"/><circle class="cls-4" cx="1258.60282" cy="856.19429" r="23.3806"/><polygon class="cls-3" points="993.747 454.745 926.616 454.745 893.051 512.882 926.616 571.019 993.747 571.019 1027.312 512.882 993.747 454.745"/><circle class="cls-4" cx="960.18128" cy="608.78498" r="23.3806"/><circle class="cls-4" cx="960.18128" cy="669.99966" r="23.3806"/><circle class="cls-4" cx="960.18128" cy="731.21433" r="23.3806"/><circle class="cls-4" cx="960.18128" cy="793.27921" r="23.3806"/><circle class="cls-4" cx="960.18128" cy="856.19429" r="23.3806"/><line class="cls-2" x1="661.38898" y1="570.95091" x2="661.38898" y2="856.6194"/><circle class="cls-4" cx="661.75974" cy="608.78498" r="23.3806"/><circle class="cls-4" cx="661.75974" cy="669.99966" r="23.3806"/><polygon class="cls-5" points="546.268 454.745 479.137 454.745 445.572 512.882 479.137 571.019 546.268 571.019 579.833 512.882 546.268 454.745"/><polygon class="cls-3" points="695.325 454.745 628.194 454.745 594.629 512.882 628.194 571.019 695.325 571.019 728.89 512.882 695.325 454.745"/><circle class="cls-4" cx="661.75974" cy="731.21433" r="23.3806"/><circle class="cls-4" cx="661.75974" cy="793.27921" r="23.3806"/><circle class="cls-4" cx="661.75974" cy="856.19429" r="23.3806"/><polygon class="cls-5" points="844.689 454.745 777.559 454.745 743.993 512.882 777.559 571.019 844.689 571.019 878.255 512.882 844.689 454.745"/><polygon class="cls-5" points="1143.111 454.745 1075.98 454.745 1042.415 512.882 1075.98 571.019 1143.111 571.019 1176.676 512.882 1143.111 454.745"/><line class="cls-2" x1="1556.6536" y1="570.95091" x2="1556.6536" y2="856.6194"/><polygon class="cls-5" points="1441.532 454.745 1374.402 454.745 1340.836 512.882 1374.402 571.019 1441.532 571.019 1475.098 512.882 1441.532 454.745"/><polygon class="cls-3" points="1590.59 454.745 1523.459 454.745 1489.894 512.882 1523.459 571.019 1590.59 571.019 1624.155 512.882 1590.59 454.745"/><circle class="cls-4" cx="1557.02436" cy="608.78498" r="23.3806"/><circle class="cls-4" cx="1557.02436" cy="669.99966" r="23.3806"/><circle class="cls-4" cx="1557.02436" cy="731.21433" r="23.3806"/><circle class="cls-4" cx="1557.02436" cy="793.27921" r="23.3806"/><circle class="cls-4" cx="1557.02436" cy="856.19429" r="23.3806"/><line class="cls-2" x1="1855.6536" y1="570.95091" x2="1855.6536" y2="856.6194"/><polygon class="cls-5" points="1740.532 454.745 1673.402 454.745 1639.836 512.882 1673.402 571.019 1740.532 571.019 1774.098 512.882 1740.532 454.745"/><polygon class="cls-5" points="244.532 454.745 177.402 454.745 143.836 512.882 177.402 571.019 244.532 571.019 278.098 512.882 244.532 454.745"/><polygon class="cls-3" points="1889.59 454.745 1822.459 454.745 1788.894 512.882 1822.459 571.019 1889.59 571.019 1923.155 512.882 1889.59 454.745"/><circle class="cls-4" cx="1856.02436" cy="608.78498" r="23.3806"/><circle class="cls-4" cx="1856.02436" cy="669.99966" r="23.3806"/><circle class="cls-4" cx="1856.02436" cy="731.21433" r="23.3806"/><circle class="cls-4" cx="1856.02436" cy="793.27921" r="23.3806"/><circle class="cls-4" cx="1856.02436" cy="856.19429" r="23.3806"/><circle class="cls-4" cx="661.75974" cy="793.27921" r="23.3806"/><polygon class="cls-3" points="330.414 455.275 397.545 455.275 431.111 513.411 397.545 571.548 330.414 571.548 296.849 513.411 330.414 455.275"/><circle class="cls-4" cx="363.97983" cy="609.31479" r="23.3806"/><circle class="cls-4" cx="363.97983" cy="670.52946" r="23.3806"/><circle class="cls-4" cx="363.97983" cy="731.74414" r="23.3806"/><circle class="cls-4" cx="363.97983" cy="793.80902" r="23.3806"/><circle class="cls-4" cx="363.97983" cy="856.7241" r="23.3806"/></g><g class="cls-1"><line class="cls-2" x1="61.6754" y1="571.16592" x2="61.6754" y2="856.8344"/><polygon class="cls-3" points="95.612 454.96 28.481 454.96 -5.085 513.097 28.481 571.234 95.612 571.234 129.177 513.097 95.612 454.96"/><circle class="cls-4" cx="62.04617" cy="608.99999" r="23.3806"/><circle class="cls-4" cx="62.04617" cy="670.21467" r="23.3806"/><circle class="cls-4" cx="62.04617" cy="731.42934" r="23.3806"/><circle class="cls-4" cx="62.04617" cy="793.49422" r="23.3806"/><circle class="cls-4" cx="62.04617" cy="856.4093" r="23.3806"/><polygon class="cls-5" points="98.072 990.279 30.941 990.279 -2.624 932.142 30.941 874.005 98.072 874.005 131.637 932.142 98.072 990.279"/><line class="cls-2" x1="213.19284" y1="874.07247" x2="213.19284" y2="588.40398"/><polygon class="cls-3" points="247.129 990.279 179.998 990.279 146.433 932.142 179.998 874.005 247.129 874.005 280.694 932.142 247.129 990.279"/><circle class="cls-4" cx="213.56361" cy="836.2384" r="23.3806"/><circle class="cls-4" cx="213.56361" cy="775.02372" r="23.3806"/><circle class="cls-4" cx="213.56361" cy="713.80905" r="23.3806"/><circle class="cls-4" cx="213.56361" cy="651.74417" r="23.3806"/><circle class="cls-4" cx="213.56361" cy="588.82909" r="23.3806"/><line class="cls-2" x1="511.19284" y1="874.07247" x2="511.19284" y2="588.40398"/><polygon class="cls-5" points="396.072 990.279 328.941 990.279 295.376 932.142 328.941 874.005 396.072 874.005 429.637 932.142 396.072 990.279"/><polygon class="cls-3" points="545.129 990.279 477.998 990.279 444.433 932.142 477.998 874.005 545.129 874.005 578.694 932.142 545.129 990.279"/><circle class="cls-4" cx="511.56361" cy="836.2384" r="23.3806"/><circle class="cls-4" cx="511.56361" cy="775.02372" r="23.3806"/><circle class="cls-4" cx="511.56361" cy="713.80905" r="23.3806"/><circle class="cls-4" cx="511.56361" cy="651.74417" r="23.3806"/><circle class="cls-4" cx="511.56361" cy="588.82909" r="23.3806"/><line class="cls-2" x1="809.61438" y1="874.07247" x2="809.61438" y2="588.40398"/><polygon class="cls-5" points="694.493 990.279 627.362 990.279 593.797 932.142 627.362 874.005 694.493 874.005 728.058 932.142 694.493 990.279"/><polygon class="cls-3" points="843.55 990.279 776.42 990.279 742.854 932.142 776.42 874.005 843.55 874.005 877.116 932.142 843.55 990.279"/><circle class="cls-4" cx="809.98515" cy="836.2384" r="23.3806"/><circle class="cls-4" cx="809.98515" cy="775.02372" r="23.3806"/><circle class="cls-4" cx="809.98515" cy="713.80905" r="23.3806"/><circle class="cls-4" cx="809.98515" cy="651.74417" r="23.3806"/><circle class="cls-4" cx="809.98515" cy="588.82909" r="23.3806"/><line class="cls-2" x1="1108.03592" y1="874.07247" x2="1108.03592" y2="588.40398"/><polygon class="cls-5" points="992.915 990.279 925.784 990.279 892.219 932.142 925.784 874.005 992.915 874.005 1026.48 932.142 992.915 990.279"/><polygon class="cls-3" points="1141.972 990.279 1074.841 990.279 1041.276 932.142 1074.841 874.005 1141.972 874.005 1175.537 932.142 1141.972 990.279"/><circle class="cls-4" cx="1108.40669" cy="836.2384" r="23.3806"/><circle class="cls-4" cx="1108.40669" cy="775.02372" r="23.3806"/><circle class="cls-4" cx="1108.40669" cy="713.80905" r="23.3806"/><circle class="cls-4" cx="1108.40669" cy="651.74417" r="23.3806"/><circle class="cls-4" cx="1108.40669" cy="588.82909" r="23.3806"/><line class="cls-2" x1="1406.45746" y1="874.07247" x2="1406.45746" y2="588.40398"/><polygon class="cls-5" points="1291.336 990.279 1224.206 990.279 1190.64 932.142 1224.206 874.005 1291.336 874.005 1324.902 932.142 1291.336 990.279"/><polygon class="cls-3" points="1440.394 990.279 1373.263 990.279 1339.698 932.142 1373.263 874.005 1440.394 874.005 1473.959 932.142 1440.394 990.279"/><circle class="cls-4" cx="1406.82823" cy="836.2384" r="23.3806"/><circle class="cls-4" cx="1406.82823" cy="775.02372" r="23.3806"/><circle class="cls-4" cx="1406.82823" cy="713.80905" r="23.3806"/><circle class="cls-4" cx="1406.82823" cy="651.74417" r="23.3806"/><circle class="cls-4" cx="1406.82823" cy="588.82909" r="23.3806"/><line class="cls-2" x1="1705.45746" y1="874.07247" x2="1705.45746" y2="588.40398"/><polygon class="cls-5" points="1590.336 990.279 1523.206 990.279 1489.64 932.142 1523.206 874.005 1590.336 874.005 1623.902 932.142 1590.336 990.279"/><polygon class="cls-3" points="1739.394 990.279 1672.263 990.279 1638.698 932.142 1672.263 874.005 1739.394 874.005 1772.959 932.142 1739.394 990.279"/><circle class="cls-4" cx="1705.82823" cy="836.2384" r="23.3806"/><circle class="cls-4" cx="1705.82823" cy="775.02372" r="23.3806"/><circle class="cls-4" cx="1705.82823" cy="713.80905" r="23.3806"/><circle class="cls-4" cx="1705.82823" cy="651.74417" r="23.3806"/><circle class="cls-4" cx="1705.82823" cy="588.82909" r="23.3806"/><circle class="cls-4" cx="1107.80515" cy="651.43611" r="23.3806"/><polygon class="cls-5" points="1889.368 990.364 1822.237 990.364 1788.672 932.227 1822.237 874.09 1889.368 874.09 1922.933 932.227 1889.368 990.364"/></g><line class="cls-2" x1="207.78583" y1="1010.52398" x2="222.66439" y2="1010.52398"/><line class="cls-2" x1="359.98196" y1="445.4994" x2="374.86053" y2="445.4994"/><line class="cls-2" x1="739.81052" y1="503.95091" x2="739.81052" y2="789.6194"/><line class="cls-2" x1="658.4035" y1="445.4994" x2="673.28207" y2="445.4994"/><line class="cls-2" x1="508.76763" y1="445.4994" x2="523.6462" y2="445.4994"/><line class="cls-2" x1="956.82504" y1="445.4994" x2="971.70361" y2="445.4994"/><line class="cls-2" x1="807.18917" y1="445.4994" x2="822.06774" y2="445.4994"/><line class="cls-2" x1="1255.24658" y1="445.4994" x2="1270.12515" y2="445.4994"/><line class="cls-2" x1="1105.61071" y1="445.4994" x2="1120.48928" y2="445.4994"/><line class="cls-2" x1="1554.24658" y1="445.4994" x2="1569.12515" y2="445.4994"/><line class="cls-2" x1="1404.61071" y1="445.4994" x2="1419.48928" y2="445.4994"/><line class="cls-2" x1="505.78583" y1="1010.52398" x2="520.66439" y2="1010.52398"/><line class="cls-2" x1="804.20737" y1="1010.52398" x2="819.08594" y2="1010.52398"/><line class="cls-2" x1="654.5715" y1="1010.52398" x2="669.45006" y2="1010.52398"/><line class="cls-2" x1="356.5715" y1="1010.52398" x2="371.45006" y2="1010.52398"/><line class="cls-2" x1="1102.62891" y1="1010.52398" x2="1117.50748" y2="1010.52398"/><line class="cls-2" x1="952.99304" y1="1010.52398" x2="967.8716" y2="1010.52398"/><line class="cls-2" x1="1401.05045" y1="1010.52398" x2="1415.92902" y2="1010.52398"/><line class="cls-2" x1="1251.41458" y1="1010.52398" x2="1266.29314" y2="1010.52398"/><line class="cls-2" x1="1700.05045" y1="1010.52398" x2="1714.92902" y2="1010.52398"/><line class="cls-2" x1="1550.41458" y1="1010.52398" x2="1565.29314" y2="1010.52398"/><polygon class="cls-5" points="174.072 1068.279 106.941 1068.279 73.376 1010.142 106.941 952.005 174.072 952.005 207.637 1010.142 174.072 1068.279"/><line class="cls-2" x1="289.19284" y1="952.07247" x2="289.19284" y2="666.40398"/><polygon class="cls-3" points="323.129 1068.279 255.998 1068.279 222.433 1010.142 255.998 952.005 323.129 952.005 356.694 1010.142 323.129 1068.279"/><circle class="cls-4" cx="289.56361" cy="914.2384" r="23.3806"/><circle class="cls-4" cx="289.56361" cy="853.02372" r="23.3806"/><circle class="cls-4" cx="289.56361" cy="791.80905" r="23.3806"/><circle class="cls-4" cx="289.56361" cy="729.74417" r="23.3806"/><circle class="cls-4" cx="289.56361" cy="666.82909" r="23.3806"/><line class="cls-2" x1="587.19284" y1="952.07247" x2="587.19284" y2="666.40398"/><polygon class="cls-5" points="472.072 1068.279 404.941 1068.279 371.376 1010.142 404.941 952.005 472.072 952.005 505.637 1010.142 472.072 1068.279"/><polygon class="cls-3" points="621.129 1068.279 553.998 1068.279 520.433 1010.142 553.998 952.005 621.129 952.005 654.694 1010.142 621.129 1068.279"/><circle class="cls-4" cx="587.56361" cy="914.2384" r="23.3806"/><circle class="cls-4" cx="587.56361" cy="853.02372" r="23.3806"/><circle class="cls-4" cx="587.56361" cy="791.80905" r="23.3806"/><circle class="cls-4" cx="587.56361" cy="729.74417" r="23.3806"/><circle class="cls-4" cx="587.56361" cy="666.82909" r="23.3806"/><line class="cls-2" x1="885.61438" y1="952.07247" x2="885.61438" y2="666.40398"/><polygon class="cls-5" points="770.493 1068.279 703.362 1068.279 669.797 1010.142 703.362 952.005 770.493 952.005 804.058 1010.142 770.493 1068.279"/><polygon class="cls-3" points="919.55 1068.279 852.42 1068.279 818.854 1010.142 852.42 952.005 919.55 952.005 953.116 1010.142 919.55 1068.279"/><circle class="cls-4" cx="885.98515" cy="914.2384" r="23.3806"/><circle class="cls-4" cx="885.98515" cy="853.02372" r="23.3806"/><circle class="cls-4" cx="885.98515" cy="791.80905" r="23.3806"/><circle class="cls-4" cx="885.98515" cy="729.74417" r="23.3806"/><circle class="cls-4" cx="885.98515" cy="666.82909" r="23.3806"/><line class="cls-2" x1="1184.03592" y1="952.07247" x2="1184.03592" y2="666.40398"/><polygon class="cls-5" points="1068.915 1068.279 1001.784 1068.279 968.219 1010.142 1001.784 952.005 1068.915 952.005 1102.48 1010.142 1068.915 1068.279"/><polygon class="cls-3" points="1217.972 1068.279 1150.841 1068.279 1117.276 1010.142 1150.841 952.005 1217.972 952.005 1251.537 1010.142 1217.972 1068.279"/><circle class="cls-4" cx="1184.40669" cy="914.2384" r="23.3806"/><circle class="cls-4" cx="1184.40669" cy="853.02372" r="23.3806"/><circle class="cls-4" cx="1184.40669" cy="791.80905" r="23.3806"/><circle class="cls-4" cx="1184.40669" cy="729.74417" r="23.3806"/><circle class="cls-4" cx="1184.40669" cy="666.82909" r="23.3806"/><line class="cls-2" x1="1482.45746" y1="952.07247" x2="1482.45746" y2="666.40398"/><polygon class="cls-5" points="1367.336 1068.279 1300.206 1068.279 1266.64 1010.142 1300.206 952.005 1367.336 952.005 1400.902 1010.142 1367.336 1068.279"/><polygon class="cls-3" points="1516.394 1068.279 1449.263 1068.279 1415.698 1010.142 1449.263 952.005 1516.394 952.005 1549.959 1010.142 1516.394 1068.279"/><circle class="cls-4" cx="1482.82823" cy="914.2384" r="23.3806"/><circle class="cls-4" cx="1482.82823" cy="853.02372" r="23.3806"/><circle class="cls-4" cx="1482.82823" cy="791.80905" r="23.3806"/><circle class="cls-4" cx="1482.82823" cy="729.74417" r="23.3806"/><circle class="cls-4" cx="1482.82823" cy="666.82909" r="23.3806"/><line class="cls-2" x1="1781.45746" y1="952.07247" x2="1781.45746" y2="666.40398"/><polygon class="cls-5" points="1666.336 1068.279 1599.206 1068.279 1565.64 1010.142 1599.206 952.005 1666.336 952.005 1699.902 1010.142 1666.336 1068.279"/><polygon class="cls-3" points="1815.394 1068.279 1748.263 1068.279 1714.698 1010.142 1748.263 952.005 1815.394 952.005 1848.959 1010.142 1815.394 1068.279"/><circle class="cls-4" cx="1781.82823" cy="914.2384" r="23.3806"/><circle class="cls-4" cx="1781.82823" cy="853.02372" r="23.3806"/><circle class="cls-4" cx="1781.82823" cy="791.80905" r="23.3806"/><circle class="cls-4" cx="1781.82823" cy="729.74417" r="23.3806"/><circle class="cls-4" cx="1781.82823" cy="666.82909" r="23.3806"/><line class="cls-2" x1="144.35059" y1="504.48072" x2="144.35059" y2="790.1492"/><line class="cls-2" x1="1038.23206" y1="503.95091" x2="1038.23206" y2="789.6194"/><polygon class="cls-3" points="1072.168 387.745 1005.037 387.745 971.472 445.882 1005.037 504.019 1072.168 504.019 1105.734 445.882 1072.168 387.745"/><circle class="cls-4" cx="1038.60282" cy="541.78498" r="23.3806"/><circle class="cls-4" cx="1038.60282" cy="602.99966" r="23.3806"/><circle class="cls-4" cx="1038.60282" cy="664.21433" r="23.3806"/><circle class="cls-4" cx="1038.60282" cy="726.27921" r="23.3806"/><circle class="cls-4" cx="1038.60282" cy="789.19429" r="23.3806"/><polygon class="cls-3" points="773.747 387.745 706.616 387.745 673.051 445.882 706.616 504.019 773.747 504.019 807.312 445.882 773.747 387.745"/><circle class="cls-4" cx="740.18128" cy="541.78498" r="23.3806"/><circle class="cls-4" cx="740.18128" cy="602.99966" r="23.3806"/><circle class="cls-4" cx="740.18128" cy="664.21433" r="23.3806"/><circle class="cls-4" cx="740.18128" cy="726.27921" r="23.3806"/><circle class="cls-4" cx="740.18128" cy="789.19429" r="23.3806"/><line class="cls-2" x1="441.38898" y1="503.95091" x2="441.38898" y2="789.6194"/><circle class="cls-4" cx="441.75974" cy="541.78498" r="23.3806"/><circle class="cls-4" cx="441.75974" cy="602.99966" r="23.3806"/><polygon class="cls-5" points="326.268 387.745 259.137 387.745 225.572 445.882 259.137 504.019 326.268 504.019 359.833 445.882 326.268 387.745"/><polygon class="cls-3" points="475.325 387.745 408.194 387.745 374.629 445.882 408.194 504.019 475.325 504.019 508.89 445.882 475.325 387.745"/><circle class="cls-4" cx="441.75974" cy="664.21433" r="23.3806"/><circle class="cls-4" cx="441.75974" cy="726.27921" r="23.3806"/><circle class="cls-4" cx="441.75974" cy="789.19429" r="23.3806"/><polygon class="cls-5" points="624.689 387.745 557.559 387.745 523.993 445.882 557.559 504.019 624.689 504.019 658.255 445.882 624.689 387.745"/><polygon class="cls-5" points="923.111 387.745 855.98 387.745 822.415 445.882 855.98 504.019 923.111 504.019 956.676 445.882 923.111 387.745"/><polygon class="cls-5" points="1221.532 387.745 1154.402 387.745 1120.836 445.882 1154.402 504.019 1221.532 504.019 1255.098 445.882 1221.532 387.745"/><polygon class="cls-3" points="1370.59 387.745 1303.459 387.745 1269.894 445.882 1303.459 504.019 1370.59 504.019 1404.155 445.882 1370.59 387.745"/><circle class="cls-4" cx="1337.02436" cy="541.78498" r="23.3806"/><line class="cls-2" x1="1635.6536" y1="503.95091" x2="1635.6536" y2="789.6194"/><polygon class="cls-5" points="1520.532 387.745 1453.402 387.745 1419.836 445.882 1453.402 504.019 1520.532 504.019 1554.098 445.882 1520.532 387.745"/><polygon class="cls-3" points="1669.59 387.745 1602.459 387.745 1568.894 445.882 1602.459 504.019 1669.59 504.019 1703.155 445.882 1669.59 387.745"/><circle class="cls-4" cx="1636.02436" cy="541.78498" r="23.3806"/><circle class="cls-4" cx="1636.02436" cy="602.99966" r="23.3806"/><circle class="cls-4" cx="1636.02436" cy="664.21433" r="23.3806"/><circle class="cls-4" cx="1636.02436" cy="726.27921" r="23.3806"/><circle class="cls-4" cx="1636.02436" cy="789.19429" r="23.3806"/><path class="cls-6" d="M1274.5,942.5a123.04535,123.04535,0,0,1-112.57715-73.39453L1274.9834,819.501l-113.06152-49.6045A123.00937,123.00937,0,1,1,1274.5,942.5Z"/><path d="M1274.5,697a122.5,122.5,0,1,1-111.91663,172.36194l111.5575-48.94513,2.08728-.91571-2.08728-.91571-111.55835-48.9455A122.54379,122.54379,0,0,1,1274.5,697m0-1a123.52231,123.52231,0,0,0-113.23694,74.153l112.47608,49.34808-112.47522,49.34772A123.50955,123.50955,0,1,0,1274.5,696Z"/><circle cx="1297.5" cy="760.5" r="17.5"/><polygon class="cls-3" points="110.414 388.275 177.545 388.275 211.111 446.411 177.545 504.548 110.414 504.548 76.849 446.411 110.414 388.275"/><circle class="cls-4" cx="143.97983" cy="542.31479" r="23.3806"/><circle class="cls-4" cx="143.97983" cy="603.52946" r="23.3806"/><circle class="cls-4" cx="143.97983" cy="664.74414" r="23.3806"/><circle class="cls-4" cx="143.97983" cy="726.80902" r="23.3806"/><circle class="cls-4" cx="143.97983" cy="789.7241" r="23.3806"/><polygon class="cls-5" points="1818.181 387.647 1751.05 387.647 1717.485 445.784 1751.05 503.921 1818.181 503.921 1851.746 445.784 1818.181 387.647"/><line class="cls-2" x1="225.75761" y1="446.02921" x2="210.87904" y2="446.02921"/><line class="cls-2" x1="1718.01186" y1="446.04195" x2="1703.13329" y2="446.04195"/><circle class="cls-4" cx="1183.80515" cy="729.43611" r="23.3806"/><line class="cls-2" x1="1336.6536" y1="503.95091" x2="1336.6536" y2="789.6194"/><circle class="cls-4" cx="1337.02436" cy="602.99966" r="23.3806"/><circle class="cls-4" cx="1337.02436" cy="664.21433" r="23.3806"/><circle class="cls-4" cx="1337.02436" cy="726.27921" r="23.3806"/><circle class="cls-4" cx="1337.02436" cy="789.19429" r="23.3806"/><path class="cls-6" d="M351.5,769.5A123,123,0,1,1,464.07812,596.896L351.0166,646.501l113.06055,49.60449A123.04535,123.04535,0,0,1,351.5,769.5Z"/><path d="M351.5,524a122.544,122.544,0,0,1,111.91748,72.63986l-111.55859,48.9455-2.08716.91574,2.08716.91574,111.55786,48.94507A122.51217,122.51217,0,1,1,351.5,524m0-1A123.5,123.5,0,1,0,464.73608,695.84879L352.26074,646.5011,464.73682,597.153A123.52222,123.52222,0,0,0,351.5,523Z"/><circle cx="328.5" cy="587.5" r="17.5"/><circle class="cls-4" cx="441.75974" cy="726.27921" r="23.3806"/></svg>