<svg id="Livello_1" data-name="Livello 1" xmlns="http://www.w3.org/2000/svg" viewBox="0 0 1920 1080"><defs><style>.cls-1{opacity:0.3;}.cls-2{fill:none;}.cls-2,.cls-3,.cls-4,.cls-5{stroke:#000;stroke-miterlimit:10;}.cls-3{fill:#b4d3b2;}.cls-4{fill:#99c5c4;}.cls-5{fill:#e9d1bf;}.cls-6{fill:#f2e6b1;}</style></defs><g class="cls-1"><line class="cls-2" x1="1679.3598" y1="293.06965" x2="1679.3598" y2="736.87835"/><polygon class="cls-3" points="1732.082 112.534 1627.789 112.534 1575.643 202.854 1627.789 293.175 1732.082 293.175 1784.229 202.854 1732.082 112.534"/><circle class="cls-4" cx="1679.93581" cy="351.84789" r="36.32363"/><circle class="cls-4" cx="1679.93581" cy="446.94975" r="36.32363"/><circle class="cls-4" cx="1679.93581" cy="542.05161" r="36.32363"/><circle class="cls-4" cx="1679.93581" cy="638.47433" r="36.32363"/><circle class="cls-4" cx="1679.93581" cy="736.21792" r="36.32363"/><polygon class="cls-3" points="1268.461 112.534 1164.168 112.534 1112.021 202.854 1164.168 293.175 1268.461 293.175 1320.607 202.854 1268.461 112.534"/><circle class="cls-4" cx="1216.31423" cy="351.84789" r="36.32363"/><circle class="cls-4" cx="1216.31423" cy="446.94975" r="36.32363"/><circle class="cls-4" cx="1216.31423" cy="542.05161" r="36.32363"/><circle class="cls-4" cx="1216.31423" cy="638.47433" r="36.32363"/><circle class="cls-4" cx="1216.31423" cy="736.21792" r="36.32363"/><line class="cls-2" x1="752.11664" y1="293.06965" x2="752.11664" y2="736.87835"/><circle class="cls-4" cx="752.69264" cy="351.84789" r="36.32363"/><circle class="cls-4" cx="752.69264" cy="446.94975" r="36.32363"/><polygon class="cls-5" points="573.267 112.534 468.974 112.534 416.827 202.854 468.974 293.175 573.267 293.175 625.413 202.854 573.267 112.534"/><polygon class="cls-3" points="804.839 112.534 700.546 112.534 648.4 202.854 700.546 293.175 804.839 293.175 856.985 202.854 804.839 112.534"/><circle class="cls-4" cx="752.69264" cy="542.05161" r="36.32363"/><circle class="cls-4" cx="752.69264" cy="638.47433" r="36.32363"/><circle class="cls-4" cx="752.69264" cy="736.21792" r="36.32363"/><polygon class="cls-5" points="1036.888 112.534 932.595 112.534 880.449 202.854 932.595 293.175 1036.888 293.175 1089.035 202.854 1036.888 112.534"/><polygon class="cls-5" points="1500.51 112.534 1396.217 112.534 1344.07 202.854 1396.217 293.175 1500.51 293.175 1552.656 202.854 1500.51 112.534"/><polygon class="cls-5" points="1964.131 112.534 1859.839 112.534 1807.692 202.854 1859.839 293.175 1964.131 293.175 2016.278 202.854 1964.131 112.534"/><polygon class="cls-5" points="104.497 112.534 0.204 112.534 -51.943 202.854 0.204 293.175 104.497 293.175 156.643 202.854 104.497 112.534"/><circle class="cls-4" cx="752.69264" cy="638.47433" r="36.32363"/><polygon class="cls-3" points="237.921 113.357 342.214 113.357 394.361 203.678 342.214 293.998 237.921 293.998 185.775 203.678 237.921 113.357"/><circle class="cls-4" cx="290.06788" cy="352.67098" r="36.32363"/><circle class="cls-4" cx="290.06788" cy="447.77285" r="36.32363"/><circle class="cls-4" cx="290.06788" cy="542.87471" r="36.32363"/><circle class="cls-4" cx="290.06788" cy="639.29743" r="36.32363"/><circle class="cls-4" cx="290.06788" cy="737.04101" r="36.32363"/></g><g class="cls-1"><line class="cls-2" x1="55.80831" y1="763.99308" x2="55.80831" y2="320.18439"/><polygon class="cls-3" points="108.531 944.529 4.238 944.529 -47.909 854.208 4.238 763.888 108.531 763.888 160.677 854.208 108.531 944.529"/><circle class="cls-4" cx="56.38432" cy="705.21485" r="36.32363"/><circle class="cls-4" cx="56.38432" cy="610.11298" r="36.32363"/><circle class="cls-4" cx="56.38432" cy="515.01112" r="36.32363"/><circle class="cls-4" cx="56.38432" cy="418.5884" r="36.32363"/><circle class="cls-4" cx="56.38432" cy="320.84482" r="36.32363"/><line class="cls-2" x1="518.775" y1="763.99308" x2="518.775" y2="320.18439"/><polygon class="cls-5" points="339.925 944.529 235.632 944.529 183.486 854.208 235.632 763.888 339.925 763.888 392.071 854.208 339.925 944.529"/><polygon class="cls-3" points="571.497 944.529 467.205 944.529 415.058 854.208 467.205 763.888 571.497 763.888 623.644 854.208 571.497 944.529"/><circle class="cls-4" cx="519.35101" cy="705.21485" r="36.32363"/><circle class="cls-4" cx="519.35101" cy="610.11298" r="36.32363"/><circle class="cls-4" cx="519.35101" cy="515.01112" r="36.32363"/><circle class="cls-4" cx="519.35101" cy="418.5884" r="36.32363"/><circle class="cls-4" cx="519.35101" cy="320.84482" r="36.32363"/><line class="cls-2" x1="982.39658" y1="763.99308" x2="982.39658" y2="320.18439"/><polygon class="cls-5" points="803.547 944.529 699.254 944.529 647.107 854.208 699.254 763.888 803.547 763.888 855.693 854.208 803.547 944.529"/><polygon class="cls-3" points="1035.119 944.529 930.826 944.529 878.68 854.208 930.826 763.888 1035.119 763.888 1087.265 854.208 1035.119 944.529"/><circle class="cls-4" cx="982.97259" cy="705.21485" r="36.32363"/><circle class="cls-4" cx="982.97259" cy="610.11298" r="36.32363"/><circle class="cls-4" cx="982.97259" cy="515.01112" r="36.32363"/><circle class="cls-4" cx="982.97259" cy="418.5884" r="36.32363"/><circle class="cls-4" cx="982.97259" cy="320.84482" r="36.32363"/><line class="cls-2" x1="1446.01816" y1="763.99308" x2="1446.01816" y2="320.18439"/><polygon class="cls-5" points="1267.168 944.529 1162.875 944.529 1110.729 854.208 1162.875 763.888 1267.168 763.888 1319.315 854.208 1267.168 944.529"/><polygon class="cls-3" points="1498.741 944.529 1394.448 944.529 1342.301 854.208 1394.448 763.888 1498.741 763.888 1550.887 854.208 1498.741 944.529"/><circle class="cls-4" cx="1446.59417" cy="705.21485" r="36.32363"/><circle class="cls-4" cx="1446.59417" cy="610.11298" r="36.32363"/><circle class="cls-4" cx="1446.59417" cy="515.01112" r="36.32363"/><circle class="cls-4" cx="1446.59417" cy="418.5884" r="36.32363"/><circle class="cls-4" cx="1446.59417" cy="320.84482" r="36.32363"/><line class="cls-2" x1="1909.63975" y1="763.99308" x2="1909.63975" y2="320.18439"/><polygon class="cls-5" points="1730.79 944.529 1626.497 944.529 1574.35 854.208 1626.497 763.888 1730.79 763.888 1782.936 854.208 1730.79 944.529"/><polygon class="cls-3" points="1962.362 944.529 1858.069 944.529 1805.923 854.208 1858.069 763.888 1962.362 763.888 2014.509 854.208 1962.362 944.529"/><circle class="cls-4" cx="1910.21576" cy="705.21485" r="36.32363"/><circle class="cls-4" cx="1910.21576" cy="610.11298" r="36.32363"/><circle class="cls-4" cx="1910.21576" cy="515.01112" r="36.32363"/><circle class="cls-4" cx="1910.21576" cy="418.5884" r="36.32363"/><circle class="cls-4" cx="1910.21576" cy="320.84482" r="36.32363"/><circle class="cls-4" cx="1445.65963" cy="418.10981" r="36.32363"/></g><line class="cls-2" x1="47.40809" y1="975.98135" x2="70.52312" y2="975.98135"/><line class="cls-2" x1="283.85688" y1="98.17076" x2="306.97192" y2="98.17076"/><line class="cls-2" x1="873.95073" y1="188.97983" x2="873.95073" y2="632.78852"/><line class="cls-2" x1="747.47846" y1="98.17076" x2="770.5935" y2="98.17076"/><line class="cls-2" x1="515.00724" y1="98.17076" x2="538.12228" y2="98.17076"/><line class="cls-2" x1="1211.10004" y1="98.17076" x2="1234.21508" y2="98.17076"/><line class="cls-2" x1="978.62882" y1="98.17076" x2="1001.74386" y2="98.17076"/><line class="cls-2" x1="1674.72163" y1="98.17076" x2="1697.83666" y2="98.17076"/><line class="cls-2" x1="1442.25041" y1="98.17076" x2="1465.36544" y2="98.17076"/><line class="cls-2" x1="1906.77067" y1="98.17076" x2="1929.88571" y2="98.17076"/><line class="cls-2" x1="510.37477" y1="975.98135" x2="533.48981" y2="975.98135"/><line class="cls-2" x1="973.99635" y1="975.98135" x2="997.11139" y2="975.98135"/><line class="cls-2" x1="741.52513" y1="975.98135" x2="764.64017" y2="975.98135"/><line class="cls-2" x1="278.55845" y1="975.98135" x2="301.67348" y2="975.98135"/><line class="cls-2" x1="1437.61794" y1="975.98135" x2="1460.73297" y2="975.98135"/><line class="cls-2" x1="1205.14671" y1="975.98135" x2="1228.26175" y2="975.98135"/><line class="cls-2" x1="1901.23952" y1="975.98135" x2="1924.35455" y2="975.98135"/><line class="cls-2" x1="1668.7683" y1="975.98135" x2="1691.88333" y2="975.98135"/><polygon class="cls-5" points="-4.97 1065.708 -109.263 1065.708 -161.409 975.387 -109.263 885.067 -4.97 885.067 47.177 975.387 -4.97 1065.708"/><line class="cls-2" x1="173.88035" y1="885.17228" x2="173.88035" y2="441.36359"/><polygon class="cls-3" points="226.603 1065.708 122.31 1065.708 70.164 975.387 122.31 885.067 226.603 885.067 278.749 975.387 226.603 1065.708"/><circle class="cls-4" cx="174.45636" cy="826.39405" r="36.32363"/><circle class="cls-4" cx="174.45636" cy="731.29218" r="36.32363"/><circle class="cls-4" cx="174.45636" cy="636.19032" r="36.32363"/><circle class="cls-4" cx="174.45636" cy="539.7676" r="36.32363"/><circle class="cls-4" cx="174.45636" cy="442.02402" r="36.32363"/><line class="cls-2" x1="636.84704" y1="885.17228" x2="636.84704" y2="441.36359"/><polygon class="cls-5" points="457.997 1065.708 353.704 1065.708 301.558 975.387 353.704 885.067 457.997 885.067 510.143 975.387 457.997 1065.708"/><polygon class="cls-3" points="689.569 1065.708 585.277 1065.708 533.13 975.387 585.277 885.067 689.569 885.067 741.716 975.387 689.569 1065.708"/><circle class="cls-4" cx="637.42305" cy="826.39405" r="36.32363"/><circle class="cls-4" cx="637.42305" cy="731.29218" r="36.32363"/><circle class="cls-4" cx="637.42305" cy="636.19032" r="36.32363"/><circle class="cls-4" cx="637.42305" cy="539.7676" r="36.32363"/><circle class="cls-4" cx="637.42305" cy="442.02402" r="36.32363"/><line class="cls-2" x1="1100.46862" y1="885.17228" x2="1100.46862" y2="441.36359"/><polygon class="cls-5" points="921.619 1065.708 817.326 1065.708 765.179 975.387 817.326 885.067 921.619 885.067 973.765 975.387 921.619 1065.708"/><polygon class="cls-3" points="1153.191 1065.708 1048.898 1065.708 996.752 975.387 1048.898 885.067 1153.191 885.067 1205.337 975.387 1153.191 1065.708"/><circle class="cls-4" cx="1101.04463" cy="826.39405" r="36.32363"/><circle class="cls-4" cx="1101.04463" cy="731.29218" r="36.32363"/><circle class="cls-4" cx="1101.04463" cy="636.19032" r="36.32363"/><circle class="cls-4" cx="1101.04463" cy="539.7676" r="36.32363"/><circle class="cls-4" cx="1101.04463" cy="442.02402" r="36.32363"/><line class="cls-2" x1="1564.0902" y1="885.17228" x2="1564.0902" y2="441.36359"/><polygon class="cls-5" points="1385.24 1065.708 1280.947 1065.708 1228.801 975.387 1280.947 885.067 1385.24 885.067 1437.387 975.387 1385.24 1065.708"/><polygon class="cls-3" points="1616.813 1065.708 1512.52 1065.708 1460.373 975.387 1512.52 885.067 1616.813 885.067 1668.959 975.387 1616.813 1065.708"/><circle class="cls-4" cx="1564.66621" cy="826.39405" r="36.32363"/><circle class="cls-4" cx="1564.66621" cy="731.29218" r="36.32363"/><circle class="cls-4" cx="1564.66621" cy="636.19032" r="36.32363"/><circle class="cls-4" cx="1564.66621" cy="539.7676" r="36.32363"/><circle class="cls-4" cx="1564.66621" cy="442.02402" r="36.32363"/><polygon class="cls-5" points="1848.862 1065.708 1744.569 1065.708 1692.422 975.387 1744.569 885.067 1848.862 885.067 1901.008 975.387 1848.862 1065.708"/><polygon class="cls-3" points="1390.295 8.444 1286.002 8.444 1233.855 98.765 1286.002 189.085 1390.295 189.085 1442.441 98.765 1390.295 8.444"/><circle class="cls-4" cx="1338.14832" cy="247.75806" r="36.32363"/><circle class="cls-4" cx="1338.14832" cy="342.85992" r="36.32363"/><polygon class="cls-3" points="926.673 8.444 822.38 8.444 770.234 98.765 822.38 189.085 926.673 189.085 978.82 98.765 926.673 8.444"/><circle class="cls-4" cx="874.52674" cy="247.75806" r="36.32363"/><circle class="cls-4" cx="874.52674" cy="342.85992" r="36.32363"/><circle class="cls-4" cx="874.52674" cy="437.96179" r="36.32363"/><circle class="cls-4" cx="874.52674" cy="534.38451" r="36.32363"/><circle class="cls-4" cx="874.52674" cy="632.12809" r="36.32363"/><line class="cls-2" x1="410.32915" y1="188.97983" x2="410.32915" y2="632.78852"/><circle class="cls-4" cx="410.90516" cy="247.75806" r="36.32363"/><circle class="cls-4" cx="410.90516" cy="342.85992" r="36.32363"/><polygon class="cls-5" points="231.479 8.444 127.186 8.444 75.04 98.765 127.186 189.085 231.479 189.085 283.626 98.765 231.479 8.444"/><polygon class="cls-3" points="463.052 8.444 358.759 8.444 306.612 98.765 358.759 189.085 463.052 189.085 515.198 98.765 463.052 8.444"/><circle class="cls-4" cx="410.90516" cy="437.96179" r="36.32363"/><circle class="cls-4" cx="410.90516" cy="534.38451" r="36.32363"/><circle class="cls-4" cx="410.90516" cy="632.12809" r="36.32363"/><polygon class="cls-5" points="695.101 8.444 590.808 8.444 538.661 98.765 590.808 189.085 695.101 189.085 747.247 98.765 695.101 8.444"/><polygon class="cls-5" points="1158.722 8.444 1054.429 8.444 1002.283 98.765 1054.429 189.085 1158.722 189.085 1210.869 98.765 1158.722 8.444"/><polygon class="cls-5" points="1622.344 8.444 1518.051 8.444 1465.905 98.765 1518.051 189.085 1622.344 189.085 1674.49 98.765 1622.344 8.444"/><polygon class="cls-3" points="1853.916 8.444 1749.623 8.444 1697.477 98.765 1749.623 189.085 1853.916 189.085 1906.063 98.765 1853.916 8.444"/><circle class="cls-4" cx="1801.7699" cy="247.75806" r="36.32363"/><path class="cls-6" d="M1244.63379,881.57715a191.43862,191.43862,0,0,1-175.26367-114.44238l175.32519-76.92286-175.32617-76.92285a191.43794,191.43794,0,0,1,175.26465-114.4458C1350.15332,498.84326,1436,584.69043,1436,690.21,1436,795.73047,1350.15332,881.57715,1244.63379,881.57715Z"/><path d="M1244.6333,499.34335a190.86705,190.86705,0,1,1-174.603,268.04813l173.823-76.26361,2.08716-.91577-2.08716-.91577-173.82422-76.2641A190.93677,190.93677,0,0,1,1244.6333,499.34335m0-1A191.90112,191.90112,0,0,0,1068.71094,613.546l174.74048,76.66614-174.73926,76.66565a191.90121,191.90121,0,0,0,175.92114,115.1997c105.96533,0,191.86719-85.90179,191.86719-191.86706s-85.90186-191.867-191.86719-191.867Z"/><circle cx="1280.36567" cy="598.54923" r="27.18764"/><polygon class="cls-3" points="-103.866 9.267 0.427 9.267 52.573 99.588 0.427 189.908 -103.866 189.908 -156.012 99.588 -103.866 9.267"/><line class="cls-2" x1="75.32867" y1="98.99385" x2="52.21363" y2="98.99385"/><circle class="cls-4" cx="1100.73167" cy="539.28901" r="36.32363"/><line class="cls-2" x1="1801.1939" y1="188.97983" x2="1801.1939" y2="632.78852"/><circle class="cls-4" cx="1801.7699" cy="342.85992" r="36.32363"/><circle class="cls-4" cx="1801.7699" cy="437.96179" r="36.32363"/><circle class="cls-4" cx="1801.7699" cy="534.38451" r="36.32363"/><circle class="cls-4" cx="1801.7699" cy="632.12809" r="36.32363"/><path class="cls-6" d="M270.67969,601.80859c-105.52051,0-191.36719-85.84716-191.36719-191.36718s85.84668-191.36719,191.36719-191.36719A191.4369,191.4369,0,0,1,445.94336,333.51953L270.61719,410.44287l175.32519,76.92285A191.43793,191.43793,0,0,1,270.67969,601.80859Z"/><path d="M270.67944,219.57411A190.93754,190.93754,0,0,1,445.28394,333.263L271.45947,409.5271l-2.08716.91577,2.08716.91574,173.82324,76.26355a190.96187,190.96187,0,1,1-174.60327-268.048m0-1c-105.96508,0-191.86694,85.90181-191.86694,191.86705s85.90186,191.86707,191.86694,191.86707A191.90163,191.90163,0,0,0,446.60083,487.10846l-174.7395-76.66559L446.60205,333.7767A191.90184,191.90184,0,0,0,270.67944,218.57411Z"/><circle cx="234.94715" cy="318.77997" r="27.18764"/><circle class="cls-4" cx="410.90516" cy="534.38451" r="36.32363"/><line class="cls-2" x1="1337.57231" y1="188.97983" x2="1337.57231" y2="632.78852"/><circle class="cls-4" cx="1338.14832" cy="437.96179" r="36.32363"/><circle class="cls-4" cx="1338.14832" cy="534.38451" r="36.32363"/><circle class="cls-4" cx="1338.14832" cy="632.12809" r="36.32363"/></svg>