<svg xmlns="http://www.w3.org/2000/svg" viewBox="0 0 832.5357 950.79406"><defs><style>.cls-1{fill:#b4d3b2;}.cls-2{font-size:38.21344px;font-family:SourceCodePro-Bold, Source Code Pro;font-weight:700;}.cls-2,.cls-3,.cls-4,.cls-8{fill:#1d1d1b;}.cls-4,.cls-8{font-size:24px;}.cls-4{font-family:SourceCodePro-Regular, Source Code Pro;}.cls-5{letter-spacing:0.53025em;}.cls-6{fill:#99c5c4;}.cls-7{fill:#e9d1bf;}.cls-8{writing-mode:tb;text-orientation:upright;glyph-orientation-vertical:0deg;font-family:SourceCodePro-Semibold, Source Code Pro;font-weight:600;}</style></defs><g id="Livello_2" data-name="Livello 2"><g id="Livello_1-2" data-name="Livello 1"><polygon class="cls-1" points="395.456 950.794 417.433 883.421 402.706 883.421 402.706 4.929 388.205 4.929 388.205 883.421 373.478 883.421 395.456 950.794"/><line class="cls-1" x1="470.91147" y1="333.42969" x2="395.45547" y2="333.42969"/><rect class="cls-1" x="395.45547" y="330.59474" width="75.45605" height="5.66992"/><text class="cls-2" transform="translate(97.96856 31.7164)">Antibiotic <tspan x="22.92773" y="45.85645">discovery</tspan></text><path class="cls-3" d="M76.18706,148.58887h4.82373a10.94815,10.94815,0,0,1,2.376.24023,4.97429,4.97429,0,0,1,1.83594.78028,3.61954,3.61954,0,0,1,1.17627,1.42773,5.8264,5.8264,0,0,1,0,4.34375,4.01887,4.01887,0,0,1-1.188,1.51172,5.25572,5.25572,0,0,1-1.83594.90039,8.72363,8.72363,0,0,1-2.36426.2998h-2.832V164.333h-1.9917Zm4.55957,7.87207a4.97869,4.97869,0,0,0,3.084-.78028,2.93086,2.93086,0,0,0,.99609-2.46,2.59684,2.59684,0,0,0-1.02-2.36328,5.69721,5.69721,0,0,0-3.06006-.66015H78.17876v6.26367Z"/><path class="cls-3" d="M89.79449,158.52539a6.31867,6.31867,0,0,1,.50439-2.58008,5.99,5.99,0,0,1,1.332-1.93261,5.78261,5.78261,0,0,1,1.896-1.21192,6.20613,6.20613,0,0,1,4.42773-.02344,4.67409,4.67409,0,0,1,1.668,1.11524,4.83554,4.83554,0,0,1,1.044,1.72851,6.59037,6.59037,0,0,1,.36035,2.23145,6.75176,6.75176,0,0,1-.07227,1.08008H91.83453a4.23835,4.23835,0,0,0,1.332,3,4.47012,4.47012,0,0,0,3.13232,1.10449,5.84458,5.84458,0,0,0,1.88379-.28809,8.145,8.145,0,0,0,1.668-.792l.69629,1.2959a10.20614,10.20614,0,0,1-1.96826.96,7.22891,7.22891,0,0,1-2.52.4082,7.007,7.007,0,0,1-2.436-.41992,5.96,5.96,0,0,1-1.9917-1.20019,5.54379,5.54379,0,0,1-1.34424-1.90821A6.36016,6.36016,0,0,1,89.79449,158.52539Zm9.4082-.88867a3.81206,3.81206,0,0,0-.91211-2.74805,3.36423,3.36423,0,0,0-2.544-.94726,3.85493,3.85493,0,0,0-2.56787.97168,4.178,4.178,0,0,0-1.36816,2.72363Z"/><path class="cls-3" d="M104.77056,152.669h1.63184l.16845,1.99218h.09571a9.32756,9.32756,0,0,1,1.96826-1.63183,4.53314,4.53314,0,0,1,2.42383-.64844,3.726,3.726,0,0,1,3.06005,1.18848,5.45072,5.45072,0,0,1,.97168,3.51562V164.333h-1.96777v-6.98438a3.99174,3.99174,0,0,0-.624-2.46,2.45638,2.45638,0,0,0-2.064-.80371,3.40406,3.40406,0,0,0-.97217.13184,3.7137,3.7137,0,0,0-.876.39648,6.57934,6.57934,0,0,0-.8877.66016q-.4563.39551-.96.92383V164.333h-1.96826Z"/><path class="cls-3" d="M119.09869,152.669h7.3916V164.333h-1.96778V154.27734h-5.42382Zm6.19189-2.4004a1.62038,1.62038,0,0,1-1.14014-.40722,1.42485,1.42485,0,0,1-.44384-1.10449,1.46379,1.46379,0,0,1,.44384-1.11622,1.74121,1.74121,0,0,1,2.26807,0,1.44664,1.44664,0,0,1,.45605,1.11622,1.40854,1.40854,0,0,1-.45605,1.10449A1.63229,1.63229,0,0,1,125.29058,150.26855Z"/><path class="cls-3" d="M133.25835,158.52539a6.248,6.248,0,0,1,.51612-2.60449,5.69712,5.69712,0,0,1,1.40381-1.93164,6.01787,6.01787,0,0,1,2.07617-1.2002,7.68057,7.68057,0,0,1,2.50781-.4082,5.66644,5.66644,0,0,1,2.48437.50391,6.71042,6.71042,0,0,1,1.76368,1.20019l-.98389,1.27246a6.38908,6.38908,0,0,0-1.5-.98437,3.98471,3.98471,0,0,0-1.69189-.36035,5.10014,5.10014,0,0,0-1.84815.32421,3.96883,3.96883,0,0,0-1.42773.92383,4.34619,4.34619,0,0,0-.92432,1.42871,4.83391,4.83391,0,0,0-.33594,1.83594,4.89113,4.89113,0,0,0,.32422,1.82324,4.0019,4.0019,0,0,0,2.32764,2.31641,5.00477,5.00477,0,0,0,1.83642.32422,4.6211,4.6211,0,0,0,1.98-.41992,7.46157,7.46157,0,0,0,1.64356-1.044l.86426,1.27149a7.22968,7.22968,0,0,1-2.148,1.34374,6.56368,6.56368,0,0,1-2.48389.48047,7.5937,7.5937,0,0,1-2.53223-.4082,5.89307,5.89307,0,0,1-2.02783-1.1875,5.33741,5.33741,0,0,1-1.34424-1.91992A6.58677,6.58677,0,0,1,133.25835,158.52539Z"/><path class="cls-3" d="M147.89849,152.669h7.3916V164.333h-1.96777V154.27734h-5.42383Zm6.19189-2.4004a1.62037,1.62037,0,0,1-1.14013-.40722,1.42483,1.42483,0,0,1-.44385-1.10449,1.46376,1.46376,0,0,1,.44385-1.11622,1.7412,1.7412,0,0,1,2.26806,0,1.44661,1.44661,0,0,1,.45606,1.11622,1.40851,1.40851,0,0,1-.45606,1.10449A1.63225,1.63225,0,0,1,154.09038,150.26855Z"/><path class="cls-3" d="M162.08208,147.24512h5.95215v13.32031a2.43223,2.43223,0,0,0,.61182,1.85937,2.3665,2.3665,0,0,0,1.668.56446,5.55777,5.55777,0,0,0,2.208-.55274l.50439,1.48828q-.79248.28858-1.48828.49219a5.94054,5.94054,0,0,1-1.65576.2041,3.674,3.674,0,0,1-2.84424-1.05566,4.49884,4.49884,0,0,1-.97168-3.14453V148.85254h-3.98438Z"/><path class="cls-3" d="M176.482,147.24512h5.95214v13.32031a2.43227,2.43227,0,0,0,.61182,1.85937,2.3665,2.3665,0,0,0,1.668.56446,5.55769,5.55769,0,0,0,2.208-.55274l.50439,1.48828q-.79248.28858-1.48828.49219a5.9405,5.9405,0,0,1-1.65576.2041,3.674,3.674,0,0,1-2.84424-1.05566,4.49884,4.49884,0,0,1-.97168-3.14453V148.85254H176.482Z"/><path class="cls-3" d="M191.0982,152.669h7.3916V164.333H196.522V154.27734H191.0982Zm6.19189-2.4004a1.62039,1.62039,0,0,1-1.14014-.40722,1.42485,1.42485,0,0,1-.44384-1.10449,1.46379,1.46379,0,0,1,.44384-1.11622,1.74121,1.74121,0,0,1,2.26807,0,1.44664,1.44664,0,0,1,.45606,1.11622,1.40855,1.40855,0,0,1-.45606,1.10449A1.63227,1.63227,0,0,1,197.29009,150.26855Z"/><path class="cls-3" d="M205.56988,152.669h1.63183l.16846,1.99218h.0957a9.32756,9.32756,0,0,1,1.96826-1.63183,4.53316,4.53316,0,0,1,2.42383-.64844,3.726,3.726,0,0,1,3.06006,1.18848,5.45072,5.45072,0,0,1,.97168,3.51562V164.333h-1.96777v-6.98438a3.99167,3.99167,0,0,0-.624-2.46,2.45635,2.45635,0,0,0-2.064-.80371,3.40406,3.40406,0,0,0-.97217.13184,3.71377,3.71377,0,0,0-.876.39648,6.57991,6.57991,0,0,0-.88769.66016q-.4563.39551-.96.92383V164.333h-1.96826Z"/><path class="cls-3" d="M222.46587,168.19727a5.81315,5.81315,0,0,0,2.23194-1.62012,3.97911,3.97911,0,0,0,.792-2.3877c-.08008.01563-.15576.02735-.228.03516a1.88261,1.88261,0,0,1-.228.01269,2.03992,2.03992,0,0,1-1.31982-.44433,1.91163,1.91163,0,0,1,.02393-2.71192,2.0638,2.0638,0,0,1,1.34423-.46777,1.80331,1.80331,0,0,1,1.61963.82813,4.06176,4.06176,0,0,1,.54,2.24316A5.67888,5.67888,0,0,1,226.126,167.249a6.8107,6.8107,0,0,1-3.1084,2.19629Z"/><path class="cls-3" d="M259.20953,162.70117V164.333H248.8897v-1.63184h4.34375V151.4209h-3.26367v-1.27149a15.90091,15.90091,0,0,0,2.13574-.46875,8.99721,8.99721,0,0,0,1.63233-.65918h1.46386v13.67969Z"/><path class="cls-3" d="M263.93755,161.76465a4.49145,4.49145,0,0,0,1.36817.88867,4.262,4.262,0,0,0,1.67968.33594,4.59313,4.59313,0,0,0,1.74024-.33594,3.669,3.669,0,0,0,1.46387-1.11621,5.94365,5.94365,0,0,0,1.02-2.02832,11.72008,11.72008,0,0,0,.43212-3.0957,7.55168,7.55168,0,0,1-2.05224,1.43945,5.29641,5.29641,0,0,1-2.292.52832,5.92163,5.92163,0,0,1-1.93164-.29981,4.08346,4.08346,0,0,1-1.5-.88769,3.98893,3.98893,0,0,1-.97217-1.47656,5.62168,5.62168,0,0,1-.34815-2.06348,4.7886,4.7886,0,0,1,.40821-2.00391,4.70888,4.70888,0,0,1,1.11572-1.54882,5.18166,5.18166,0,0,1,1.63232-1.00782,5.26752,5.26752,0,0,1,1.93164-.35937,5.92779,5.92779,0,0,1,2.32813.45605,4.9981,4.9981,0,0,1,1.87207,1.37989,6.59923,6.59923,0,0,1,1.23584,2.30371,10.56526,10.56526,0,0,1,.44433,3.22754,12.50338,12.50338,0,0,1-.54,3.9248,7.66545,7.66545,0,0,1-1.42823,2.63965,5.36923,5.36923,0,0,1-2.04,1.48828,6.328,6.328,0,0,1-2.3999.46777,6.112,6.112,0,0,1-2.46-.45605,6.58814,6.58814,0,0,1-1.812-1.15234Zm3.74414-4.87207a4.51261,4.51261,0,0,0,1.896-.46778,6.52837,6.52837,0,0,0,2.01562-1.57226,6.10974,6.10974,0,0,0-1.23584-3.40723,3.682,3.682,0,0,0-3.98388-.91211,2.97675,2.97675,0,0,0-1.02.6836,3.27262,3.27262,0,0,0-.68408,1.06836,3.62134,3.62134,0,0,0-.252,1.36816,3.2685,3.2685,0,0,0,.82813,2.41211A3.30258,3.30258,0,0,0,267.68169,156.89258Z"/><path class="cls-3" d="M277.08941,163.15723q1.94385-1.72852,3.44385-3.12012a35.40629,35.40629,0,0,0,2.52-2.55566,11.42647,11.42647,0,0,0,1.54834-2.17286,4.22822,4.22822,0,0,0,.52783-1.96777,2.97428,2.97428,0,0,0-.81592-2.16016,3.37564,3.37564,0,0,0-2.52-.83984,3.90714,3.90714,0,0,0-2.00391.54,7.74721,7.74721,0,0,0-1.668,1.30859l-1.12841-1.1289a9.15347,9.15347,0,0,1,2.22021-1.69141,5.89553,5.89553,0,0,1,2.81983-.63574,6.25342,6.25342,0,0,1,2.07617.32324,4.56792,4.56792,0,0,1,1.57226.91211,3.93783,3.93783,0,0,1,.99561,1.42871,4.781,4.781,0,0,1,.34814,1.84766,5.04508,5.04508,0,0,1-.51611,2.17187,11.43442,11.43442,0,0,1-1.45166,2.25586,27.03372,27.03372,0,0,1-2.23242,2.42383q-1.29566,1.25976-2.856,2.67676.6958-.04834,1.42822-.09668.7317-.04687,1.42774-.04785h5.04v1.7041H277.08941Z"/><path class="cls-3" d="M296.93755,164.62109a4.66776,4.66776,0,0,1-4.03222-2.07617,10.17505,10.17505,0,0,1-1.46387-5.916,9.9321,9.9321,0,0,1,1.46387-5.87989,5.04053,5.04053,0,0,1,8.064,0,9.93568,9.93568,0,0,1,1.46387,5.87989,10.17877,10.17877,0,0,1-1.46387,5.916A4.6681,4.6681,0,0,1,296.93755,164.62109Zm0-14.30371a3.04808,3.04808,0,0,0-1.46435.35938,3.16382,3.16382,0,0,0-1.16407,1.14062,6.18807,6.18807,0,0,0-.75585,1.96778,13.266,13.266,0,0,0-.26416,2.84375,9.03208,9.03208,0,0,0,1.02,4.84765,2.99337,2.99337,0,0,0,5.25635,0,9.03655,9.03655,0,0,0,1.02-4.84765,13.29754,13.29754,0,0,0-.26416-2.84375,6.21106,6.21106,0,0,0-.75586-1.96778,3.1638,3.1638,0,0,0-1.16406-1.14062A3.049,3.049,0,0,0,296.93755,150.31738Zm0,7.752a1.47273,1.47273,0,0,1-1.04443-.41993,1.55741,1.55741,0,0,1-.44385-1.18847,1.52577,1.52577,0,0,1,.44385-1.16406,1.5082,1.5082,0,0,1,2.08838,0,1.52577,1.52577,0,0,1,.44385,1.16406,1.55741,1.55741,0,0,1-.44385,1.18847A1.47409,1.47409,0,0,1,296.93755,158.06934Z"/><text class="cls-2" transform="translate(462.41747 31.71649)">Antibiotic <tspan x="0" y="45.85645">resistance </tspan><tspan x="0" y="91.71191">appearence</tspan></text><text class="cls-4" transform="translate(486.77587 337.47203)">1943, Penicillin</text><line class="cls-1" x1="470.91161" y1="385.46524" x2="395.45562" y2="385.46524"/><rect class="cls-1" x="395.45562" y="382.62988" width="75.45605" height="5.66992"/><line class="cls-1" x1="395.45547" y1="159.68943" x2="319.99948" y2="159.68943"/><rect class="cls-1" x="319.99951" y="156.855" width="75.45605" height="5.66895"/><line class="cls-1" x1="395.45544" y1="579.33359" x2="319.99945" y2="579.33359"/><rect class="cls-1" x="319.99949" y="576.49915" width="75.45605" height="5.66895"/><line class="cls-1" x1="395.4555" y1="611.24106" x2="319.99951" y2="611.24106"/><rect class="cls-1" x="319.99955" y="608.40662" width="75.45605" height="5.66895"/><text class="cls-4" transform="translate(486.77599 389.50642)">1950, Cephalosporin</text><line class="cls-1" x1="470.91161" y1="411.44925" x2="395.45562" y2="411.44925"/><rect class="cls-1" x="395.45562" y="408.61389" width="75.45605" height="5.66992"/><text class="cls-4" transform="translate(486.77599 415.49043)">1953, Erythromycin</text><line class="cls-1" x1="470.91161" y1="460.69028" x2="395.45562" y2="460.69028"/><rect class="cls-1" x="395.45562" y="457.85492" width="75.45605" height="5.66992"/><text class="cls-4" transform="translate(486.77599 464.73146)">1960, Methicillin</text><line class="cls-1" x1="470.91147" y1="648.8708" x2="395.45547" y2="648.8708"/><rect class="cls-1" x="395.45547" y="646.03544" width="75.45605" height="5.66992"/><text class="cls-4" transform="translate(488.61242 555.67973)">1972, Vancomycin</text><line class="cls-1" x1="470.91147" y1="726.91285" x2="395.45547" y2="726.91285"/><rect class="cls-1" x="395.45547" y="724.07749" width="75.45605" height="5.66992"/><text class="cls-4" transform="translate(488.61193 652.91199)"><tspan xml:space="preserve">1985, Imipenem &amp;      </tspan><tspan class="cls-5" x="316.79785" y="0">	</tspan><tspan x="0" y="28.7998" xml:space="preserve">      Ceftazimide</tspan></text><line class="cls-1" x1="472.74791" y1="512.61034" x2="397.29192" y2="512.61034"/><rect class="cls-1" x="397.29192" y="509.77498" width="75.45605" height="5.66992"/><text class="cls-4" transform="translate(488.61242 516.65152)">1967, Gentamicin</text><line class="cls-1" x1="470.91143" y1="551.63854" x2="395.45544" y2="551.63854"/><rect class="cls-1" x="395.45544" y="548.80318" width="75.45605" height="5.66992"/><text class="cls-4" transform="translate(488.61242 730.95407)">1996, Levofloxacin</text><line class="cls-1" x1="470.91147" y1="761.75959" x2="395.45547" y2="761.75959"/><rect class="cls-1" x="395.45547" y="758.92423" width="75.45605" height="5.66992"/><text class="cls-4" transform="translate(488.61242 765.80042)">2000, Linezolid</text><line class="cls-1" x1="470.91147" y1="782.18123" x2="395.45547" y2="782.18123"/><rect class="cls-1" x="395.45547" y="779.34587" width="75.45605" height="5.66992"/><text class="cls-4" transform="translate(488.61242 786.22205)">2003, Daptomycin</text><line class="cls-1" x1="470.91147" y1="837.0182" x2="395.45547" y2="837.0182"/><rect class="cls-1" x="395.45547" y="834.18283" width="75.45605" height="5.66992"/><text class="cls-4" transform="translate(488.61242 841.05902)">2010, Ceftaroline</text><text class="cls-4" transform="translate(30.54143 351.87782)">Cephalosporin, 1945</text><text class="cls-4" transform="translate(80.88848 583.37546)">Carbapenem, 1976</text><line class="cls-1" x1="395.45542" y1="347.83594" x2="319.99943" y2="347.83594"/><rect class="cls-1" x="319.99946" y="345.00151" width="75.45605" height="5.66895"/><text class="cls-4" transform="translate(8.88946 618.11838)">Fluoroquinolone, 1980</text><circle class="cls-6" cx="395.45547" cy="159.68943" r="13.7542"/><circle class="cls-6" cx="395.45562" cy="234.94804" r="13.7542"/><circle class="cls-6" cx="395.45562" cy="310.20668" r="13.7542"/><circle class="cls-6" cx="395.45542" cy="385.46528" r="13.7542"/><circle class="cls-6" cx="395.45542" cy="460.72389" r="13.7542"/><circle class="cls-6" cx="395.4553" cy="536.01605" r="13.7542"/><circle class="cls-6" cx="395.4555" cy="611.24106" r="13.7542"/><circle class="cls-7" cx="395.4553" cy="686.49966" r="13.7542"/><circle class="cls-6" cx="395.45562" cy="686.49966" r="13.7542"/><circle class="cls-6" cx="395.45562" cy="761.75826" r="13.7542"/><circle class="cls-6" cx="395.4553" cy="837.0182" r="13.7542"/><polygon class="cls-7" points="282.158 950.794 304.135 883.421 304.135 883.421 304.135 635.825 260.181 635.825 260.181 883.421 260.181 883.421 282.158 950.794"/><text class="cls-8" transform="translate(297.02883 705.40274)">void<tspan x="-28.80005" y="-65.8877"> </tspan><tspan x="-28.7998" y="-51.48828">Discovery</tspan></text></g></g></svg>