<svg id="Livello_1" data-name="Livello 1" xmlns="http://www.w3.org/2000/svg" viewBox="0 0 1920 1080"><defs><style>.cls-1{fill:none;}.cls-1,.cls-3,.cls-4,.cls-5{stroke:#000;stroke-miterlimit:10;stroke-width:5.66929px;}.cls-2{opacity:0.3;}.cls-3{fill:#b4d3b2;}.cls-4{fill:#99c5c4;}.cls-5{fill:#e9d1bf;}.cls-6{fill:#f2e6b1;}</style></defs><line class="cls-1" x1="1336.6536" y1="503.95091" x2="1336.6536" y2="789.6194"/><g class="cls-2"><line class="cls-1" x1="1258.23206" y1="570.95091" x2="1258.23206" y2="856.6194"/><polygon class="cls-3" points="1292.168 454.745 1225.037 454.745 1191.472 512.882 1225.037 571.019 1292.168 571.019 1325.734 512.882 1292.168 454.745"/><circle class="cls-4" cx="1258.60282" cy="608.78498" r="23.3806"/><circle class="cls-4" cx="1258.60282" cy="669.99966" r="23.3806"/><circle class="cls-4" cx="1258.60282" cy="731.21433" r="23.3806"/><circle class="cls-4" cx="1258.60282" cy="793.27921" r="23.3806"/><circle class="cls-4" cx="1258.60282" cy="856.19429" r="23.3806"/><polygon class="cls-3" points="993.747 454.745 926.616 454.745 893.051 512.882 926.616 571.019 993.747 571.019 1027.312 512.882 993.747 454.745"/><circle class="cls-4" cx="960.18128" cy="608.78498" r="23.3806"/><circle class="cls-4" cx="960.18128" cy="669.99966" r="23.3806"/><circle class="cls-4" cx="960.18128" cy="731.21433" r="23.3806"/><circle class="cls-4" cx="960.18128" cy="793.27921" r="23.3806"/><circle class="cls-4" cx="960.18128" cy="856.19429" r="23.3806"/><line class="cls-1" x1="661.38898" y1="570.95091" x2="661.38898" y2="856.6194"/><circle class="cls-4" cx="661.75974" cy="608.78498" r="23.3806"/><circle class="cls-4" cx="661.75974" cy="669.99966" r="23.3806"/><polygon class="cls-5" points="546.268 454.745 479.137 454.745 445.572 512.882 479.137 571.019 546.268 571.019 579.833 512.882 546.268 454.745"/><polygon class="cls-3" points="695.325 454.745 628.194 454.745 594.629 512.882 628.194 571.019 695.325 571.019 728.89 512.882 695.325 454.745"/><circle class="cls-4" cx="661.75974" cy="731.21433" r="23.3806"/><circle class="cls-4" cx="661.75974" cy="793.27921" r="23.3806"/><circle class="cls-4" cx="661.75974" cy="856.19429" r="23.3806"/><polygon class="cls-5" points="844.689 454.745 777.559 454.745 743.993 512.882 777.559 571.019 844.689 571.019 878.255 512.882 844.689 454.745"/><polygon class="cls-5" points="1143.111 454.745 1075.98 454.745 1042.415 512.882 1075.98 571.019 1143.111 571.019 1176.676 512.882 1143.111 454.745"/><line class="cls-1" x1="1556.6536" y1="570.95091" x2="1556.6536" y2="856.6194"/><polygon class="cls-5" points="1441.532 454.745 1374.402 454.745 1340.836 512.882 1374.402 571.019 1441.532 571.019 1475.098 512.882 1441.532 454.745"/><polygon class="cls-3" points="1590.59 454.745 1523.459 454.745 1489.894 512.882 1523.459 571.019 1590.59 571.019 1624.155 512.882 1590.59 454.745"/><circle class="cls-4" cx="1557.02436" cy="608.78498" r="23.3806"/><circle class="cls-4" cx="1557.02436" cy="669.99966" r="23.3806"/><circle class="cls-4" cx="1557.02436" cy="731.21433" r="23.3806"/><circle class="cls-4" cx="1557.02436" cy="793.27921" r="23.3806"/><circle class="cls-4" cx="1557.02436" cy="856.19429" r="23.3806"/><line class="cls-1" x1="1855.6536" y1="570.95091" x2="1855.6536" y2="856.6194"/><polygon class="cls-5" points="1740.532 454.745 1673.402 454.745 1639.836 512.882 1673.402 571.019 1740.532 571.019 1774.098 512.882 1740.532 454.745"/><polygon class="cls-5" points="244.532 454.745 177.402 454.745 143.836 512.882 177.402 571.019 244.532 571.019 278.098 512.882 244.532 454.745"/><polygon class="cls-3" points="1889.59 454.745 1822.459 454.745 1788.894 512.882 1822.459 571.019 1889.59 571.019 1923.155 512.882 1889.59 454.745"/><circle class="cls-4" cx="1856.02436" cy="608.78498" r="23.3806"/><circle class="cls-4" cx="1856.02436" cy="669.99966" r="23.3806"/><circle class="cls-4" cx="1856.02436" cy="731.21433" r="23.3806"/><circle class="cls-4" cx="1856.02436" cy="793.27921" r="23.3806"/><circle class="cls-4" cx="1856.02436" cy="856.19429" r="23.3806"/><circle class="cls-4" cx="661.75974" cy="793.27921" r="23.3806"/><polygon class="cls-3" points="330.414 455.275 397.545 455.275 431.111 513.411 397.545 571.548 330.414 571.548 296.849 513.411 330.414 455.275"/><circle class="cls-4" cx="363.97983" cy="609.31479" r="23.3806"/><circle class="cls-4" cx="363.97983" cy="670.52946" r="23.3806"/><circle class="cls-4" cx="363.97983" cy="731.74414" r="23.3806"/><circle class="cls-4" cx="363.97983" cy="793.80902" r="23.3806"/><circle class="cls-4" cx="363.97983" cy="856.7241" r="23.3806"/></g><g class="cls-2"><line class="cls-1" x1="61.6754" y1="571.16592" x2="61.6754" y2="856.8344"/><polygon class="cls-3" points="95.612 454.96 28.481 454.96 -5.085 513.097 28.481 571.234 95.612 571.234 129.177 513.097 95.612 454.96"/><circle class="cls-4" cx="62.04617" cy="608.99999" r="23.3806"/><circle class="cls-4" cx="62.04617" cy="670.21467" r="23.3806"/><circle class="cls-4" cx="62.04617" cy="731.42934" r="23.3806"/><circle class="cls-4" cx="62.04617" cy="793.49422" r="23.3806"/><circle class="cls-4" cx="62.04617" cy="856.4093" r="23.3806"/><polygon class="cls-5" points="98.072 990.279 30.941 990.279 -2.624 932.142 30.941 874.005 98.072 874.005 131.637 932.142 98.072 990.279"/><line class="cls-1" x1="213.19284" y1="874.07247" x2="213.19284" y2="588.40398"/><polygon class="cls-3" points="247.129 990.279 179.998 990.279 146.433 932.142 179.998 874.005 247.129 874.005 280.694 932.142 247.129 990.279"/><circle class="cls-4" cx="213.56361" cy="836.2384" r="23.3806"/><circle class="cls-4" cx="213.56361" cy="775.02372" r="23.3806"/><circle class="cls-4" cx="213.56361" cy="713.80905" r="23.3806"/><circle class="cls-4" cx="213.56361" cy="651.74417" r="23.3806"/><circle class="cls-4" cx="213.56361" cy="588.82909" r="23.3806"/><line class="cls-1" x1="511.19284" y1="874.07247" x2="511.19284" y2="588.40398"/><polygon class="cls-5" points="396.072 990.279 328.941 990.279 295.376 932.142 328.941 874.005 396.072 874.005 429.637 932.142 396.072 990.279"/><polygon class="cls-3" points="545.129 990.279 477.998 990.279 444.433 932.142 477.998 874.005 545.129 874.005 578.694 932.142 545.129 990.279"/><circle class="cls-4" cx="511.56361" cy="836.2384" r="23.3806"/><circle class="cls-4" cx="511.56361" cy="775.02372" r="23.3806"/><circle class="cls-4" cx="511.56361" cy="713.80905" r="23.3806"/><circle class="cls-4" cx="511.56361" cy="651.74417" r="23.3806"/><circle class="cls-4" cx="511.56361" cy="588.82909" r="23.3806"/><line class="cls-1" x1="809.61438" y1="874.07247" x2="809.61438" y2="588.40398"/><polygon class="cls-5" points="694.493 990.279 627.362 990.279 593.797 932.142 627.362 874.005 694.493 874.005 728.058 932.142 694.493 990.279"/><polygon class="cls-3" points="843.55 990.279 776.42 990.279 742.854 932.142 776.42 874.005 843.55 874.005 877.116 932.142 843.55 990.279"/><circle class="cls-4" cx="809.98515" cy="836.2384" r="23.3806"/><circle class="cls-4" cx="809.98515" cy="775.02372" r="23.3806"/><circle class="cls-4" cx="809.98515" cy="713.80905" r="23.3806"/><circle class="cls-4" cx="809.98515" cy="651.74417" r="23.3806"/><circle class="cls-4" cx="809.98515" cy="588.82909" r="23.3806"/><line class="cls-1" x1="1108.03592" y1="874.07247" x2="1108.03592" y2="588.40398"/><polygon class="cls-5" points="992.915 990.279 925.784 990.279 892.219 932.142 925.784 874.005 992.915 874.005 1026.48 932.142 992.915 990.279"/><polygon class="cls-3" points="1141.972 990.279 1074.841 990.279 1041.276 932.142 1074.841 874.005 1141.972 874.005 1175.537 932.142 1141.972 990.279"/><circle class="cls-4" cx="1108.40669" cy="836.2384" r="23.3806"/><circle class="cls-4" cx="1108.40669" cy="775.02372" r="23.3806"/><circle class="cls-4" cx="1108.40669" cy="713.80905" r="23.3806"/><circle class="cls-4" cx="1108.40669" cy="651.74417" r="23.3806"/><circle class="cls-4" cx="1108.40669" cy="588.82909" r="23.3806"/><line class="cls-1" x1="1406.45746" y1="874.07247" x2="1406.45746" y2="588.40398"/><polygon class="cls-5" points="1291.336 990.279 1224.206 990.279 1190.64 932.142 1224.206 874.005 1291.336 874.005 1324.902 932.142 1291.336 990.279"/><polygon class="cls-3" points="1440.394 990.279 1373.263 990.279 1339.698 932.142 1373.263 874.005 1440.394 874.005 1473.959 932.142 1440.394 990.279"/><circle class="cls-4" cx="1406.82823" cy="836.2384" r="23.3806"/><circle class="cls-4" cx="1406.82823" cy="775.02372" r="23.3806"/><circle class="cls-4" cx="1406.82823" cy="713.80905" r="23.3806"/><circle class="cls-4" cx="1406.82823" cy="651.74417" r="23.3806"/><circle class="cls-4" cx="1406.82823" cy="588.82909" r="23.3806"/><line class="cls-1" x1="1705.45746" y1="874.07247" x2="1705.45746" y2="588.40398"/><polygon class="cls-5" points="1590.336 990.279 1523.206 990.279 1489.64 932.142 1523.206 874.005 1590.336 874.005 1623.902 932.142 1590.336 990.279"/><polygon class="cls-3" points="1739.394 990.279 1672.263 990.279 1638.698 932.142 1672.263 874.005 1739.394 874.005 1772.959 932.142 1739.394 990.279"/><circle class="cls-4" cx="1705.82823" cy="836.2384" r="23.3806"/><circle class="cls-4" cx="1705.82823" cy="775.02372" r="23.3806"/><circle class="cls-4" cx="1705.82823" cy="713.80905" r="23.3806"/><circle class="cls-4" cx="1705.82823" cy="651.74417" r="23.3806"/><circle class="cls-4" cx="1705.82823" cy="588.82909" r="23.3806"/><circle class="cls-4" cx="1107.80515" cy="651.43611" r="23.3806"/><polygon class="cls-5" points="1889.368 990.364 1822.237 990.364 1788.672 932.227 1822.237 874.09 1889.368 874.09 1922.933 932.227 1889.368 990.364"/></g><line class="cls-1" x1="207.78583" y1="1010.52398" x2="222.66439" y2="1010.52398"/><line class="cls-1" x1="359.98196" y1="445.4994" x2="374.86053" y2="445.4994"/><line class="cls-1" x1="739.81052" y1="503.95091" x2="739.81052" y2="789.6194"/><line class="cls-1" x1="658.4035" y1="445.4994" x2="673.28207" y2="445.4994"/><line class="cls-1" x1="508.76763" y1="445.4994" x2="523.6462" y2="445.4994"/><line class="cls-1" x1="956.82504" y1="445.4994" x2="971.70361" y2="445.4994"/><line class="cls-1" x1="807.18917" y1="445.4994" x2="822.06774" y2="445.4994"/><line class="cls-1" x1="1255.24658" y1="445.4994" x2="1270.12515" y2="445.4994"/><line class="cls-1" x1="1105.61071" y1="445.4994" x2="1120.48928" y2="445.4994"/><line class="cls-1" x1="1554.24658" y1="445.4994" x2="1569.12515" y2="445.4994"/><line class="cls-1" x1="1404.61071" y1="445.4994" x2="1419.48928" y2="445.4994"/><line class="cls-1" x1="505.78583" y1="1010.52398" x2="520.66439" y2="1010.52398"/><line class="cls-1" x1="804.20737" y1="1010.52398" x2="819.08594" y2="1010.52398"/><line class="cls-1" x1="654.5715" y1="1010.52398" x2="669.45006" y2="1010.52398"/><line class="cls-1" x1="356.5715" y1="1010.52398" x2="371.45006" y2="1010.52398"/><line class="cls-1" x1="1102.62891" y1="1010.52398" x2="1117.50748" y2="1010.52398"/><line class="cls-1" x1="952.99304" y1="1010.52398" x2="967.8716" y2="1010.52398"/><line class="cls-1" x1="1401.05045" y1="1010.52398" x2="1415.92902" y2="1010.52398"/><line class="cls-1" x1="1251.41458" y1="1010.52398" x2="1266.29314" y2="1010.52398"/><line class="cls-1" x1="1700.05045" y1="1010.52398" x2="1714.92902" y2="1010.52398"/><line class="cls-1" x1="1550.41458" y1="1010.52398" x2="1565.29314" y2="1010.52398"/><polygon class="cls-5" points="174.072 1068.279 106.941 1068.279 73.376 1010.142 106.941 952.005 174.072 952.005 207.637 1010.142 174.072 1068.279"/><line class="cls-1" x1="289.19284" y1="952.07247" x2="289.19284" y2="666.40398"/><polygon class="cls-3" points="323.129 1068.279 255.998 1068.279 222.433 1010.142 255.998 952.005 323.129 952.005 356.694 1010.142 323.129 1068.279"/><circle class="cls-4" cx="289.56361" cy="914.2384" r="23.3806"/><circle class="cls-4" cx="289.56361" cy="853.02372" r="23.3806"/><circle class="cls-4" cx="289.56361" cy="791.80905" r="23.3806"/><circle class="cls-4" cx="289.56361" cy="729.74417" r="23.3806"/><circle class="cls-4" cx="289.56361" cy="666.82909" r="23.3806"/><line class="cls-1" x1="587.19284" y1="952.07247" x2="587.19284" y2="666.40398"/><polygon class="cls-5" points="472.072 1068.279 404.941 1068.279 371.376 1010.142 404.941 952.005 472.072 952.005 505.637 1010.142 472.072 1068.279"/><polygon class="cls-3" points="621.129 1068.279 553.998 1068.279 520.433 1010.142 553.998 952.005 621.129 952.005 654.694 1010.142 621.129 1068.279"/><circle class="cls-4" cx="587.56361" cy="914.2384" r="23.3806"/><circle class="cls-4" cx="587.56361" cy="853.02372" r="23.3806"/><circle class="cls-4" cx="587.56361" cy="791.80905" r="23.3806"/><circle class="cls-4" cx="587.56361" cy="729.74417" r="23.3806"/><circle class="cls-4" cx="587.56361" cy="666.82909" r="23.3806"/><line class="cls-1" x1="885.61438" y1="952.07247" x2="885.61438" y2="666.40398"/><polygon class="cls-5" points="770.493 1068.279 703.362 1068.279 669.797 1010.142 703.362 952.005 770.493 952.005 804.058 1010.142 770.493 1068.279"/><polygon class="cls-3" points="919.55 1068.279 852.42 1068.279 818.854 1010.142 852.42 952.005 919.55 952.005 953.116 1010.142 919.55 1068.279"/><circle class="cls-4" cx="885.98515" cy="914.2384" r="23.3806"/><circle class="cls-4" cx="885.98515" cy="853.02372" r="23.3806"/><circle class="cls-4" cx="885.98515" cy="791.80905" r="23.3806"/><circle class="cls-4" cx="885.98515" cy="729.74417" r="23.3806"/><circle class="cls-4" cx="885.98515" cy="666.82909" r="23.3806"/><line class="cls-1" x1="1184.03592" y1="952.07247" x2="1184.03592" y2="666.40398"/><polygon class="cls-5" points="1068.915 1068.279 1001.784 1068.279 968.219 1010.142 1001.784 952.005 1068.915 952.005 1102.48 1010.142 1068.915 1068.279"/><polygon class="cls-3" points="1217.972 1068.279 1150.841 1068.279 1117.276 1010.142 1150.841 952.005 1217.972 952.005 1251.537 1010.142 1217.972 1068.279"/><circle class="cls-4" cx="1184.40669" cy="914.2384" r="23.3806"/><circle class="cls-4" cx="1184.40669" cy="853.02372" r="23.3806"/><circle class="cls-4" cx="1184.40669" cy="791.80905" r="23.3806"/><circle class="cls-4" cx="1184.40669" cy="729.74417" r="23.3806"/><circle class="cls-4" cx="1184.40669" cy="666.82909" r="23.3806"/><line class="cls-1" x1="1482.45746" y1="952.07247" x2="1482.45746" y2="666.40398"/><polygon class="cls-5" points="1367.336 1068.279 1300.206 1068.279 1266.64 1010.142 1300.206 952.005 1367.336 952.005 1400.902 1010.142 1367.336 1068.279"/><polygon class="cls-3" points="1516.394 1068.279 1449.263 1068.279 1415.698 1010.142 1449.263 952.005 1516.394 952.005 1549.959 1010.142 1516.394 1068.279"/><circle class="cls-4" cx="1482.82823" cy="914.2384" r="23.3806"/><circle class="cls-4" cx="1482.82823" cy="853.02372" r="23.3806"/><circle class="cls-4" cx="1482.82823" cy="791.80905" r="23.3806"/><circle class="cls-4" cx="1482.82823" cy="729.74417" r="23.3806"/><circle class="cls-4" cx="1482.82823" cy="666.82909" r="23.3806"/><line class="cls-1" x1="1781.45746" y1="952.07247" x2="1781.45746" y2="666.40398"/><polygon class="cls-5" points="1666.336 1068.279 1599.206 1068.279 1565.64 1010.142 1599.206 952.005 1666.336 952.005 1699.902 1010.142 1666.336 1068.279"/><polygon class="cls-3" points="1815.394 1068.279 1748.263 1068.279 1714.698 1010.142 1748.263 952.005 1815.394 952.005 1848.959 1010.142 1815.394 1068.279"/><circle class="cls-4" cx="1781.82823" cy="914.2384" r="23.3806"/><circle class="cls-4" cx="1781.82823" cy="853.02372" r="23.3806"/><circle class="cls-4" cx="1781.82823" cy="791.80905" r="23.3806"/><circle class="cls-4" cx="1781.82823" cy="729.74417" r="23.3806"/><circle class="cls-4" cx="1781.82823" cy="666.82909" r="23.3806"/><line class="cls-1" x1="144.35059" y1="504.48072" x2="144.35059" y2="790.1492"/><line class="cls-1" x1="1038.23206" y1="503.95091" x2="1038.23206" y2="789.6194"/><polygon class="cls-3" points="1072.168 387.745 1005.037 387.745 971.472 445.882 1005.037 504.019 1072.168 504.019 1105.734 445.882 1072.168 387.745"/><circle class="cls-4" cx="1038.60282" cy="541.78498" r="23.3806"/><circle class="cls-4" cx="1038.60282" cy="602.99966" r="23.3806"/><circle class="cls-4" cx="1038.60282" cy="664.21433" r="23.3806"/><circle class="cls-4" cx="1038.60282" cy="726.27921" r="23.3806"/><circle class="cls-4" cx="1038.60282" cy="789.19429" r="23.3806"/><polygon class="cls-3" points="773.747 387.745 706.616 387.745 673.051 445.882 706.616 504.019 773.747 504.019 807.312 445.882 773.747 387.745"/><circle class="cls-4" cx="740.18128" cy="541.78498" r="23.3806"/><circle class="cls-4" cx="740.18128" cy="602.99966" r="23.3806"/><circle class="cls-4" cx="740.18128" cy="664.21433" r="23.3806"/><circle class="cls-4" cx="740.18128" cy="726.27921" r="23.3806"/><circle class="cls-4" cx="740.18128" cy="789.19429" r="23.3806"/><line class="cls-1" x1="441.38898" y1="503.95091" x2="441.38898" y2="789.6194"/><circle class="cls-4" cx="441.75974" cy="541.78498" r="23.3806"/><circle class="cls-4" cx="441.75974" cy="602.99966" r="23.3806"/><polygon class="cls-5" points="326.268 387.745 259.137 387.745 225.572 445.882 259.137 504.019 326.268 504.019 359.833 445.882 326.268 387.745"/><polygon class="cls-3" points="475.325 387.745 408.194 387.745 374.629 445.882 408.194 504.019 475.325 504.019 508.89 445.882 475.325 387.745"/><circle class="cls-4" cx="441.75974" cy="664.21433" r="23.3806"/><circle class="cls-4" cx="441.75974" cy="726.27921" r="23.3806"/><circle class="cls-4" cx="441.75974" cy="789.19429" r="23.3806"/><polygon class="cls-5" points="624.689 387.745 557.559 387.745 523.993 445.882 557.559 504.019 624.689 504.019 658.255 445.882 624.689 387.745"/><polygon class="cls-5" points="923.111 387.745 855.98 387.745 822.415 445.882 855.98 504.019 923.111 504.019 956.676 445.882 923.111 387.745"/><polygon class="cls-5" points="1221.532 387.745 1154.402 387.745 1120.836 445.882 1154.402 504.019 1221.532 504.019 1255.098 445.882 1221.532 387.745"/><polygon class="cls-3" points="1370.59 387.745 1303.459 387.745 1269.894 445.882 1303.459 504.019 1370.59 504.019 1404.155 445.882 1370.59 387.745"/><circle class="cls-4" cx="1337.02436" cy="541.78498" r="23.3806"/><line class="cls-1" x1="1635.6536" y1="503.95091" x2="1635.6536" y2="789.6194"/><polygon class="cls-5" points="1520.532 387.745 1453.402 387.745 1419.836 445.882 1453.402 504.019 1520.532 504.019 1554.098 445.882 1520.532 387.745"/><polygon class="cls-3" points="1669.59 387.745 1602.459 387.745 1568.894 445.882 1602.459 504.019 1669.59 504.019 1703.155 445.882 1669.59 387.745"/><circle class="cls-4" cx="1636.02436" cy="541.78498" r="23.3806"/><circle class="cls-4" cx="1636.02436" cy="602.99966" r="23.3806"/><circle class="cls-4" cx="1636.02436" cy="664.21433" r="23.3806"/><circle class="cls-4" cx="1636.02436" cy="726.27921" r="23.3806"/><circle class="cls-4" cx="1636.02436" cy="789.19429" r="23.3806"/><path class="cls-6" d="M1274.5,940.165a120.70318,120.70318,0,0,1-109.47656-69.87012L1280.79492,819.501,1165.02246,768.707A120.67431,120.67431,0,1,1,1274.5,940.165Z"/><path d="M1274.5,701.66925a117.83075,117.83075,0,1,1-105.6532,170.04358L1276.017,824.69269l11.83276-5.19159-11.83276-5.19159-107.17114-47.02057A117.87682,117.87682,0,0,1,1274.5,701.66925m0-5.66925a123.52231,123.52231,0,0,0-113.23694,74.153l112.47608,49.34808-112.47522,49.34772A123.50955,123.50955,0,1,0,1274.5,696Z"/><circle cx="1297.5" cy="760.5" r="17.5"/><polygon class="cls-3" points="110.414 388.275 177.545 388.275 211.111 446.411 177.545 504.548 110.414 504.548 76.849 446.411 110.414 388.275"/><circle class="cls-4" cx="143.97983" cy="542.31479" r="23.3806"/><circle class="cls-4" cx="143.97983" cy="603.52946" r="23.3806"/><circle class="cls-4" cx="143.97983" cy="664.74414" r="23.3806"/><circle class="cls-4" cx="143.97983" cy="726.80902" r="23.3806"/><circle class="cls-4" cx="143.97983" cy="789.7241" r="23.3806"/><polygon class="cls-5" points="1818.181 387.647 1751.05 387.647 1717.485 445.784 1751.05 503.921 1818.181 503.921 1851.746 445.784 1818.181 387.647"/><line class="cls-1" x1="225.75761" y1="446.02921" x2="210.87904" y2="446.02921"/><line class="cls-1" x1="1718.01186" y1="446.04195" x2="1703.13329" y2="446.04195"/><circle class="cls-4" cx="1183.80515" cy="729.43611" r="23.3806"/><circle class="cls-4" cx="1184.03592" cy="791.38395" r="23.3806"/><circle class="cls-4" cx="1337.02436" cy="602.99966" r="23.3806"/><circle class="cls-4" cx="1337.02436" cy="664.21433" r="23.3806"/><circle class="cls-4" cx="1337.02436" cy="726.27921" r="23.3806"/><circle class="cls-4" cx="1337.02436" cy="789.19429" r="23.3806"/><path class="cls-6" d="M351.5,767.165A120.66529,120.66529,0,1,1,460.97705,595.707L345.20557,646.501l115.771,50.79394A120.7016,120.7016,0,0,1,351.5,767.165Z"/><path d="M351.5,528.66925a117.8766,117.8766,0,0,1,105.65411,65.61969L349.983,641.30951l-11.83285,5.19159,11.83285,5.19159L457.1532,698.71283A117.84167,117.84167,0,1,1,351.5,528.66925M351.5,523A123.5,123.5,0,1,0,464.73608,695.84882L352.2608,646.5011,464.73691,597.153A123.52228,123.52228,0,0,0,351.5,523Z"/><circle cx="328.5" cy="587.5" r="17.5"/><circle class="cls-4" cx="441.75974" cy="726.27921" r="23.3806"/><path d="M49.124,81.24951V44.53125h7.64942V81.42969c0,12.14941,5.31006,16.55957,12.32959,16.55957,7.10986,0,12.50927-4.41016,12.50927-16.55957V44.53125h7.29V81.24951c0,16.91944-8.27978,23.39942-19.79931,23.39942C57.49365,104.64893,49.124,98.169,49.124,81.24951Z"/><path d="M118.15234,88.89941V45.521H102.67285V39.4917h22.94922V89.43945c0,6.29981,3.41992,8.99951,8.63965,8.99951a19.75053,19.75053,0,0,0,8.18945-1.98l1.89014,5.58008a26.56628,26.56628,0,0,1-11.69971,2.60987C123.28223,104.64893,118.15234,99.249,118.15234,88.89941Z"/><path d="M168.55127,86.55957V65.86035H156.13184V60.28076l12.68945-.45019.99023-14.03955H176.021V59.83057h21.41943v6.02978H176.021V86.64941c0,7.82959,2.60986,11.8794,11.06982,11.8794a28.75813,28.75813,0,0,0,10.43945-1.97949l1.62012,5.48974a38.15775,38.15775,0,0,1-13.67969,2.60987C172.69141,104.64893,168.55127,97.35889,168.55127,86.55957Z"/><path d="M217.06055,59.83057h6.21l.71972,10.34961h.18018c4.58984-7.10987,11.42969-11.42969,19.5293-11.42969a18.39277,18.39277,0,0,1,8.63965,1.80029l-1.71,6.38965a21.92333,21.92333,0,0,0-8.0996-1.43994c-6.56983,0-12.77979,3.32959-17.99952,12.50928v25.55908h-7.46972Z"/><path d="M265.21,92.22949c0-9.80957,9.17969-14.57959,31.76856-16.37939-.27-5.93994-3.14991-10.97949-11.60938-10.97949-5.66992,0-11.24951,2.6997-15.29932,5.21972l-2.96972-5.04c4.49951-2.87988,11.87939-6.2998,19.52881-6.2998,11.96972,0,17.81933,7.10986,17.81933,17.99951v26.81885h-6.20947l-.63037-5.93994h-.26953c-4.77,3.77978-11.06983,7.02-17.18946,7.02C271.95947,104.64893,265.21,100.05908,265.21,92.22949Zm31.76856-.09033V80.7998c-18.71924,1.43995-24.38868,5.12989-24.38868,10.88965,0,4.94971,4.49952,6.92969,9.53955,6.92969C287.0791,98.61914,291.939,96.2793,296.97852,92.13916Z"/><path d="M319.65918,71.08008h38.69824v5.58008H319.65918Z"/><path d="M374.37793,39.4917h7.46973v17.459l-.4502,10.34961h.27c4.41016-4.85986,9.53955-8.5498,16.28955-8.5498,10.34961,0,15.11914,6.12012,15.11914,17.63965v27.17871h-7.46972v-26.189c0-8.27978-2.87989-12.14941-9.98926-12.14941-5.21973,0-8.72949,2.60986-13.76953,7.82959v30.50879h-7.46973Z"/><path d="M448.356,65.86035h-20.249V59.83057h27.71875v43.73828H448.356Zm-2.96973-20.96924a5.94251,5.94251,0,1,1,5.93994,5.75977A5.62528,5.62528,0,0,1,445.38623,44.89111Z"/><path d="M480.48633,111.57861c0-3.50976,2.51953-7.02,7.19922-9.71972V101.499a7.92436,7.92436,0,0,1-4.49951-7.1997c0-2.79,1.88964-5.93994,5.21972-8.18994v-.35987a13.943,13.943,0,0,1-5.3999-11.33935c0-9.53955,7.91992-15.65967,17.18945-15.65967a17.77427,17.77427,0,0,1,6.47949,1.08008h18.08936v6.02978H513.4248a13.21266,13.21266,0,0,1,3.68995,8.81983c0,9.35937-7.46973,15.02929-16.91944,15.02929a18.88421,18.88421,0,0,1-7.37988-1.62011c-2.15967,1.35009-3.41992,2.97021-3.41992,5.04,0,3.41993,3.33008,5.03956,9.08984,5.03956h9.80957c11.24951,0,16.64942,2.87988,16.64942,10.25976,0,8.18945-9.44971,15.29932-24.29883,15.29932C487.86572,123.728,480.48633,119.31836,480.48633,111.57861Zm37.16846-1.98c0-4.13965-3.33008-5.31006-9.98975-5.31006h-8.54981a24.752,24.752,0,0,1-6.65966-.71972c-4.13965,2.25-5.57959,4.77-5.57959,7.28955,0,4.58984,4.9497,7.46972,14.30908,7.46972C511.355,118.32812,517.65479,114.09863,517.65479,109.59863ZM510.2749,74.41016a10.08117,10.08117,0,1,0-20.15918,0,9.908,9.908,0,0,0,10.07959,10.34961C505.7749,84.75977,510.2749,80.71,510.2749,74.41016Z"/><path d="M536.375,39.4917h7.46973v17.459l-.4502,10.34961h.27c4.41016-4.85986,9.53955-8.5498,16.28955-8.5498,10.34961,0,15.11914,6.12012,15.11914,17.63965v27.17871h-7.46972v-26.189c0-8.27978-2.87989-12.14941-9.98926-12.14941-5.21973,0-8.72949,2.60986-13.76953,7.82959v30.50879H536.375Z"/><path d="M654.54248,86.55957V65.86035H642.12305V60.28076l12.68945-.45019.99023-14.03955h6.20948V59.83057h21.41943v6.02978H662.01221V86.64941c0,7.82959,2.60986,11.8794,11.06982,11.8794a28.75809,28.75809,0,0,0,10.43945-1.97949l1.62012,5.48974a38.15775,38.15775,0,0,1-13.67969,2.60987C658.68262,104.64893,654.54248,97.35889,654.54248,86.55957Z"/><path d="M698.37207,39.4917h7.46973v17.459l-.4502,10.34961h.27c4.41016-4.85986,9.53955-8.5498,16.28955-8.5498,10.34961,0,15.11914,6.12012,15.11914,17.63965v27.17871h-7.46972v-26.189c0-8.27978-2.87989-12.14941-9.98926-12.14941-5.21973,0-8.72949,2.60986-13.76953,7.82959v30.50879h-7.46973Z"/><path d="M757.05078,59.83057h6.21l.71973,10.34961h.18017c4.58985-7.10987,11.42969-11.42969,19.5293-11.42969a18.39274,18.39274,0,0,1,8.63965,1.80029l-1.71,6.38965A21.92342,21.92342,0,0,0,782.52,65.50049c-6.56982,0-12.77979,3.32959-17.99951,12.50928v25.55908h-7.46973Z"/><path d="M803.40039,81.78955c0-14.66943,10.07959-23.03906,21.59912-23.03906s21.59912,8.36963,21.59912,23.03906c0,14.48975-10.07959,22.85938-21.59912,22.85938S803.40039,96.2793,803.40039,81.78955Zm35.54834,0c0-10.07959-5.57959-16.8291-13.94922-16.8291S811.0498,71.71,811.0498,81.78955c0,9.98975,5.58008,16.64941,13.94971,16.64941S838.94873,91.7793,838.94873,81.78955Z"/><path d="M858.9292,87.00928V59.83057h7.46973v26.189c0,8.18994,2.87988,12.14942,10.07959,12.14942,5.04,0,8.72949-2.33985,13.58935-8.00977V59.83057h7.46973v43.73828h-6.20948l-.63037-7.6499h-.35986c-4.40967,5.12988-9.53955,8.73-16.28906,8.73C863.69922,104.64893,858.9292,98.52881,858.9292,87.00928Z"/><path d="M912.47852,111.57861c0-3.50976,2.51953-7.02,7.19921-9.71972V101.499a7.92438,7.92438,0,0,1-4.49951-7.1997c0-2.79,1.88965-5.93994,5.21973-8.18994v-.35987a13.94293,13.94293,0,0,1-5.3999-11.33935c0-9.53955,7.91992-15.65967,17.18945-15.65967a17.77431,17.77431,0,0,1,6.47949,1.08008h18.08936v6.02978H945.417a13.2127,13.2127,0,0,1,3.68994,8.81983c0,9.35937-7.46972,15.02929-16.91943,15.02929a18.88418,18.88418,0,0,1-7.37988-1.62011c-2.15967,1.35009-3.41992,2.97021-3.41992,5.04,0,3.41993,3.33007,5.03956,9.08984,5.03956h9.80957c11.24951,0,16.64941,2.87988,16.64941,10.25976,0,8.18945-9.4497,15.29932-24.29882,15.29932C919.85791,123.728,912.47852,119.31836,912.47852,111.57861Zm37.16845-1.98c0-4.13965-3.33008-5.31006-9.98974-5.31006h-8.54981a24.75217,24.75217,0,0,1-6.65967-.71972c-4.13964,2.25-5.57959,4.77-5.57959,7.28955,0,4.58984,4.94971,7.46972,14.30909,7.46972C943.34717,118.32812,949.647,114.09863,949.647,109.59863Zm-7.37988-35.18847a10.08117,10.08117,0,1,0-20.15918,0A9.908,9.908,0,0,0,932.1875,84.75977C937.76709,84.75977,942.26709,80.71,942.26709,74.41016Z"/><path d="M968.36719,39.4917h7.46972v17.459l-.45019,10.34961h.27051c4.40918-4.85986,9.53906-8.5498,16.28906-8.5498,10.34961,0,15.11914,6.12012,15.11914,17.63965v27.17871H999.5957v-26.189c0-8.27978-2.87988-12.14941-9.98925-12.14941-5.21973,0-8.7295,2.60986-13.76954,7.82959v30.50879h-7.46972Z"/><path d="M1022.36719,59.83057h6.11914l.62988,5.58007h.27051c4.0498-3.87011,9.80957-6.66015,15.11914-6.66015,11.78906,0,18.08887,8.73,18.08887,22.31933,0,14.84913-9.35938,23.57911-19.88868,23.57911-4.0498,0-9.08984-2.06983-13.0498-5.66993h-.17969l.35938,8.27979v14.75928h-7.46875Zm32.57812,21.23925c0-9.62988-3.59961-16.01953-12.3291-16.01953-3.87012,0-8.37012,1.98-12.78027,6.48V93.30908a18.26844,18.26844,0,0,0,11.61035,5.04C1049.18555,98.34912,1054.94531,91.86914,1054.94531,81.06982Z"/><path d="M1074.92578,87.00928V59.83057h7.46973v26.189c0,8.18994,2.87988,12.14942,10.0791,12.14942,5.04,0,8.73047-2.33985,13.58984-8.00977V59.83057h7.46973v43.73828h-6.21l-.62988-7.6499h-.35938c-4.41016,5.12988-9.54,8.73-16.29,8.73C1079.69531,104.64893,1074.92578,98.52881,1074.92578,87.00928Z"/><path d="M1140.53418,86.55957V65.86035h-12.41895V60.28076l12.68946-.45019L1141.794,45.791h6.21V59.83057h21.41894v6.02978h-21.41894V86.64941c0,7.82959,2.61035,11.8794,11.06933,11.8794a28.76556,28.76556,0,0,0,10.44043-1.97949l1.61914,5.48974a38.1543,38.1543,0,0,1-13.67871,2.60987C1144.67383,104.64893,1140.53418,97.35889,1140.53418,86.55957Z"/><path d="M1236.11328,81.60986c0-14.21972,10.61914-22.85937,22.31836-22.85937,12.59961,0,19.97949,8.18994,19.97949,20.51953a30.24049,30.24049,0,0,1-.36035,4.49951H1241.0625V78.00977h32.5791l-1.88965,2.06982c0-10.34961-5.12988-15.479-13.13965-15.479-8.0996,0-15.12011,6.11962-15.12011,17.00927,0,11.33936,7.37988,17.09912,17.09961,17.09912a23.83121,23.83121,0,0,0,13.31933-4.13964l2.7002,4.85986a29.96992,29.96992,0,0,1-16.91895,5.21973C1246.55273,104.64893,1236.11328,96.189,1236.11328,81.60986Z"/><path d="M1288.49219,59.83057h7.64941l10.08008,24.749q2.56494,6.61451,4.85937,12.95947h.36036c1.52929-4.23,2.96972-8.5498,4.76953-12.95947l10.0791-24.749h7.20019l-18.17968,43.73828h-8.36914Z"/><path d="M1343.39062,81.78955c0-14.66943,10.08008-23.03906,21.59961-23.03906s21.59864,8.36963,21.59864,23.03906c0,14.48975-10.0791,22.85938-21.59864,22.85938S1343.39062,96.2793,1343.39062,81.78955Zm35.54883,0c0-10.07959-5.58007-16.8291-13.94922-16.8291-8.37011,0-13.94921,6.74951-13.94921,16.8291,0,9.98975,5.5791,16.64941,13.94921,16.64941C1373.35938,98.439,1378.93945,91.7793,1378.93945,81.78955Z"/><path d="M1414.12891,88.89941V45.521h-15.47852V39.4917h22.94824V89.43945c0,6.29981,3.41992,8.99951,8.63965,8.99951a19.75637,19.75637,0,0,0,8.19043-1.98l1.88965,5.58008a26.56569,26.56569,0,0,1-11.69922,2.60987C1419.25879,104.64893,1414.12891,99.249,1414.12891,88.89941Z"/><path d="M1452.919,87.00928V59.83057h7.46972v26.189c0,8.18994,2.87988,12.14942,10.08008,12.14942,5.03906,0,8.72949-2.33985,13.58887-8.00977V59.83057h7.46972v43.73828h-6.21l-.62988-7.6499h-.35938c-4.41015,5.12988-9.54,8.73-16.29,8.73C1457.68848,104.64893,1452.919,98.52881,1452.919,87.00928Z"/><path d="M1518.52734,86.55957V65.86035H1506.1084V60.28076l12.68945-.45019.98926-14.03955h6.21V59.83057H1547.416v6.02978h-21.41895V86.64941c0,7.82959,2.61035,11.8794,11.06934,11.8794a28.75609,28.75609,0,0,0,10.43945-1.97949l1.62012,5.48974a38.15435,38.15435,0,0,1-13.67871,2.60987C1522.667,104.64893,1518.52734,97.35889,1518.52734,86.55957Z"/><path d="M1582.33594,65.86035h-20.249V59.83057h27.71875v43.73828h-7.46972Zm-2.96973-20.96924a5.94276,5.94276,0,1,1,5.93945,5.75977A5.62488,5.62488,0,0,1,1579.36621,44.89111Z"/><path d="M1613.38574,81.78955c0-14.66943,10.08008-23.03906,21.59961-23.03906s21.59863,8.36963,21.59863,23.03906c0,14.48975-10.0791,22.85938-21.59863,22.85938S1613.38574,96.2793,1613.38574,81.78955Zm35.54883,0c0-10.07959-5.58008-16.8291-13.94922-16.8291-8.37012,0-13.94922,6.74951-13.94922,16.8291,0,9.98975,5.5791,16.64941,13.94922,16.64941C1643.35449,98.439,1648.93457,91.7793,1648.93457,81.78955Z"/><path d="M1670.35547,59.83057h6.11914l.62988,7.37988h.36035c4.58985-4.77,9.62989-8.46,16.46875-8.46,10.34961,0,15.12012,6.12012,15.12012,17.63965v27.17871H1701.584v-26.189c0-8.27978-2.87988-12.14941-9.99023-12.14941-5.21973,0-8.72949,2.60986-13.76953,7.82959v30.50879h-7.46875Z"/><path d="M1775.38281,81.78955c0-14.66943,10.08008-23.03906,21.59961-23.03906s21.59863,8.36963,21.59863,23.03906c0,14.48975-10.0791,22.85938-21.59863,22.85938S1775.38281,96.2793,1775.38281,81.78955Zm35.54883,0c0-10.07959-5.58008-16.8291-13.94922-16.8291-8.37012,0-13.94922,6.74951-13.94922,16.8291,0,9.98975,5.5791,16.64941,13.94922,16.64941C1805.35156,98.439,1810.93164,91.7793,1810.93164,81.78955Z"/><path d="M1833.252,60.28076l12.68946-.45019h25.46875v6.02978H1833.252Zm12.50977-4.14014c0-10.61962,5.58008-17.729,17.63867-17.729A32.469,32.469,0,0,1,1876,40.93115l-1.71,5.58008a23.67342,23.67342,0,0,0-10.16895-2.06982c-7.83007,0-10.97949,4.40966-10.97949,11.4292v47.69824h-7.37988Z"/><path d="M157.21094,200.22949c0-9.80957,9.17968-14.57959,31.76855-16.37939-.27-5.93994-3.1499-10.97949-11.60937-10.97949-5.66992,0-11.24951,2.6997-15.29932,5.21972l-2.96973-5.04c4.49952-2.87988,11.8794-6.2998,19.52881-6.2998,11.96973,0,17.81934,7.10986,17.81934,17.99951v26.81885h-6.20947l-.63037-5.93994h-.26954c-4.77,3.77978-11.06982,7.02-17.18945,7.02C163.96045,212.64893,157.21094,208.05908,157.21094,200.22949Zm31.76855-.09033V188.7998c-18.71924,1.43995-24.38867,5.12989-24.38867,10.88965,0,4.94971,4.49951,6.92969,9.53955,6.92969C179.08008,206.61914,183.93994,204.2793,188.97949,200.13916Z"/><path d="M273.30859,206.709h-.27l-.71972,4.85987h-5.93994V147.4917h7.46972v17.459l-.35986,8.46h.27c3.95947-4.05029,9.53955-6.66015,14.66943-6.66015,11.78955,0,18.1792,8.73,18.1792,22.22949,0,14.939-9.35986,23.66895-19.70947,23.66895C282.57812,212.64893,277.3584,210.39893,273.30859,206.709Zm25.64893-17.63916c0-9.62988-3.59961-16.01953-12.32959-16.01953-3.86963,0-8.36963,1.98-12.7793,6.48v21.77881a18.30046,18.30046,0,0,0,11.78955,5.04C293.19775,206.34912,298.95752,199.86914,298.95752,189.06982Z"/><path d="M319.208,200.22949c0-9.80957,9.17969-14.57959,31.76855-16.37939-.27-5.93994-3.1499-10.97949-11.60937-10.97949-5.66992,0-11.24951,2.6997-15.29932,5.21972l-2.96973-5.04c4.49952-2.87988,11.8794-6.2998,19.52881-6.2998,11.96973,0,17.81934,7.10986,17.81934,17.99951v26.81885h-6.20947l-.63037-5.93994h-.26954c-4.77,3.77978-11.06982,7.02-17.18945,7.02C325.95752,212.64893,319.208,208.05908,319.208,200.22949Zm31.76855-.09033V188.7998c-18.71924,1.43995-24.38867,5.12989-24.38867,10.88965,0,4.94971,4.49951,6.92969,9.53955,6.92969C341.07715,206.61914,345.937,204.2793,350.97656,200.13916Z"/><path d="M373.207,189.78955c0-14.66943,11.15967-23.03906,24.38916-23.03906a22.22292,22.22292,0,0,1,15.9292,6.39013l-3.68994,4.76954c-3.59961-3.06006-7.3794-4.94971-11.96924-4.94971-10.07959,0-17.00928,6.74951-17.00928,16.8291,0,9.98975,6.83936,16.64941,16.82911,16.64941,5.3999,0,9.89941-2.42968,13.49951-5.48974l3.32959,4.85986a26.044,26.044,0,0,1-17.36914,6.83985C383.4668,212.64893,373.207,204.2793,373.207,189.78955Z"/><path d="M438.54541,194.55957V173.86035H426.126v-5.57959l12.68945-.45019.99023-14.03955h6.20948v14.03955h21.41943v6.02978H446.01514v20.78906c0,7.82959,2.60986,11.8794,11.06982,11.8794a28.75809,28.75809,0,0,0,10.43945-1.97949l1.62012,5.48974a38.15775,38.15775,0,0,1-13.67969,2.60987C442.68555,212.64893,438.54541,205.35889,438.54541,194.55957Z"/><path d="M480.125,189.60986c0-14.21972,10.61963-22.85937,22.31934-22.85937,12.59961,0,19.979,8.18994,19.979,20.51953a30.38152,30.38152,0,0,1-.35986,4.49951H485.07471v-5.75976h32.5791l-1.89014,2.06982c0-10.34961-5.12988-15.479-13.13965-15.479-8.09961,0-15.11914,6.11962-15.11914,17.00927,0,11.33936,7.37989,17.09912,17.09912,17.09912a23.83282,23.83282,0,0,0,13.31983-4.13964l2.69971,4.85986a29.97037,29.97037,0,0,1-16.91944,5.21973C490.56445,212.64893,480.125,204.189,480.125,189.60986Z"/><path d="M541.05371,167.83057h6.21l.71973,10.34961h.18017c4.58985-7.10987,11.42969-11.42969,19.5293-11.42969a18.39274,18.39274,0,0,1,8.63965,1.80029l-1.71,6.38965a21.92342,21.92342,0,0,0-8.09961-1.43994c-6.56983,0-12.77979,3.32959-17.99951,12.50928v25.55908h-7.46973Z"/><path d="M610.35205,173.86035H590.103v-6.02978h27.71875v43.73828h-7.46973Zm-2.96973-20.96924a5.94251,5.94251,0,1,1,5.93995,5.75977A5.62529,5.62529,0,0,1,607.38232,152.89111Z"/><path d="M643.20215,200.22949c0-9.80957,9.17969-14.57959,31.76855-16.37939-.27-5.93994-3.1499-10.97949-11.60937-10.97949-5.66992,0-11.24951,2.6997-15.29932,5.21972l-2.96972-5.04c4.49951-2.87988,11.87939-6.2998,19.5288-6.2998,11.96973,0,17.81934,7.10986,17.81934,17.99951v26.81885H676.231l-.63037-5.93994h-.26954c-4.77,3.77978-11.06982,7.02-17.18945,7.02C649.95166,212.64893,643.20215,208.05908,643.20215,200.22949Zm31.76855-.09033V188.7998c-18.71924,1.43995-24.38867,5.12989-24.38867,10.88965,0,4.94971,4.49951,6.92969,9.53955,6.92969C665.07129,206.61914,669.93115,204.2793,674.9707,200.13916Z"/><path d="M712.14062,196.89941V153.521H696.66113v-6.0293h22.94922v49.94775c0,6.29981,3.41992,8.99951,8.63965,8.99951a19.75053,19.75053,0,0,0,8.18945-1.98l1.89014,5.58008a26.56625,26.56625,0,0,1-11.69971,2.60987C717.27051,212.64893,712.14062,207.249,712.14062,196.89941Z"/><path d="M804.11914,189.60986c0-14.21972,10.61963-22.85937,22.31934-22.85937,12.59961,0,19.979,8.18994,19.979,20.51953a30.38152,30.38152,0,0,1-.35986,4.49951H809.06885v-5.75976H841.648l-1.89014,2.06982c0-10.34961-5.12988-15.479-13.13965-15.479-8.09961,0-15.11914,6.11962-15.11914,17.00927,0,11.33936,7.37989,17.09912,17.09912,17.09912a23.83282,23.83282,0,0,0,13.31983-4.13964l2.69971,4.85986a29.97037,29.97037,0,0,1-16.91944,5.21973C814.55859,212.64893,804.11914,204.189,804.11914,189.60986Z"/><path d="M860.36816,167.83057h6.11963l.63037,7.37988h.35987c4.58984-4.77,9.62939-8.46,16.46924-8.46,10.34961,0,15.11914,6.12012,15.11914,17.63965v27.17871h-7.46973v-26.189c0-8.27978-2.87988-12.14941-9.98926-12.14941-5.21972,0-8.72949,2.60986-13.76953,7.82959v30.50879h-7.46973Z"/><path d="M911.39746,189.78955c0-14.21924,9.44971-23.03906,19.79883-23.03906,5.22021,0,9.27,2.07031,13.13965,5.58008h.18017l-.35986-8.00977V147.4917h7.46924v64.07715h-6.11963l-.62988-5.75977h-.27c-3.59961,3.68994-8.81983,6.83985-14.30957,6.83985C918.957,212.64893,911.39746,204.36914,911.39746,189.78955Zm32.75879,10.07959V178.09033c-3.96-3.68994-7.6499-5.04-11.42969-5.04-7.55957,0-13.67968,6.65967-13.67968,16.64942,0,10.43945,4.85986,16.64941,12.86962,16.64941C936.23633,206.34912,940.28613,204.189,944.15625,199.86914Z"/><path d="M965.39648,189.78955c0-14.66943,10.07911-23.03906,21.59864-23.03906s21.59961,8.36963,21.59961,23.03906c0,14.48975-10.08008,22.85938-21.59961,22.85938S965.39648,204.2793,965.39648,189.78955Zm35.54883,0c0-10.07959-5.58008-16.8291-13.95019-16.8291-8.36914,0-13.94922,6.74951-13.94922,16.8291,0,9.98975,5.58008,16.64941,13.94922,16.64941C995.36523,206.439,1000.94531,199.7793,1000.94531,189.78955Z"/><path d="M1036.13477,196.89941V153.521h-15.47852v-6.0293h22.94824v49.94775c0,6.29981,3.41992,8.99951,8.63965,8.99951a19.75637,19.75637,0,0,0,8.19043-1.98l1.88965,5.58008a26.56569,26.56569,0,0,1-11.69922,2.60987C1041.26465,212.64893,1036.13477,207.249,1036.13477,196.89941Z"/><path d="M1074.02441,229.478l1.53028-5.93946a14.035,14.035,0,0,0,3.96.62989c6.12012,0,9.80957-3.87012,11.96973-9.26953l1.25976-3.24024-20.33887-43.82812h7.55957l10.61914,24.11914c1.71,3.86963,3.59961,8.45947,5.4004,12.68945h.35937c1.53027-4.13965,3.24023-8.72949,4.67969-12.68945l9.45019-24.11914h7.19922l-19.34863,47.33789c-3.24024,8.63965-8.54981,15.20947-18.54,15.20947A18.42185,18.42185,0,0,1,1074.02441,229.478Z"/><path d="M1128.38379,205.80908l3.41992-4.9497a31.21439,31.21439,0,0,0,18.98926,5.93945c7.37988,0,10.97949-3.05957,10.97949-6.74951,0-3.33008-1.71-5.66993-13.58984-8.09961-11.42871-2.33985-17.09864-6.21-17.09864-12.7793,0-7.02,6.21-12.41992,18.17872-12.41992a32.82547,32.82547,0,0,1,17.63964,5.58008l-3.59961,4.76953a25.81137,25.81137,0,0,0-14.66992-4.58985c-7.37988,0-10.0791,2.97022-10.0791,6.29981,0,3.77978,3.7793,5.3999,12.7793,7.29,14.48926,3.14941,17.999,6.74951,17.999,13.499,0,7.10986-6.92969,13.04981-19.43945,13.04981A38.43927,38.43927,0,0,1,1128.38379,205.80908Z"/><path d="M1204.3418,173.86035h-20.249v-6.02978h27.71875v43.73828h-7.46972Zm-2.96973-20.96924a5.94276,5.94276,0,1,1,5.93945,5.75977A5.62488,5.62488,0,0,1,1201.37207,152.89111Z"/><path d="M1238.3623,167.83057h6.11915l.62988,7.37988h.36035c4.58984-4.77,9.62988-8.46,16.46875-8.46,10.34961,0,15.12012,6.12012,15.12012,17.63965v27.17871h-7.46973v-26.189c0-8.27978-2.87988-12.14941-9.99023-12.14941-5.21973,0-8.7295,2.60986-13.76856,7.82959v30.50879h-7.46973Z"/><path d="M1345.18945,200.22949c0-9.80957,9.17969-14.57959,31.76953-16.37939-.2705-5.93994-3.15039-10.97949-11.60937-10.97949-5.66992,0-11.25,2.6997-15.29981,5.21972l-2.96972-5.04c4.5-2.87988,11.8789-6.2998,19.5293-6.2998,11.96874,0,17.81933,7.10986,17.81933,17.99951v26.81885h-6.21l-.62988-5.93994h-.27051c-4.76953,3.77978-11.06934,7.02-17.18945,7.02C1351.93945,212.64893,1345.18945,208.05908,1345.18945,200.22949Zm31.76953-.09033V188.7998c-18.71972,1.43995-24.38964,5.12989-24.38964,10.88965,0,4.94971,4.5,6.92969,9.54,6.92969C1367.05859,206.61914,1371.919,204.2793,1376.959,200.13916Z"/><path d="M1398.37891,205.80908l3.41992-4.9497a31.21439,31.21439,0,0,0,18.98926,5.93945c7.37988,0,10.97949-3.05957,10.97949-6.74951,0-3.33008-1.71-5.66993-13.58985-8.09961-11.42871-2.33985-17.09863-6.21-17.09863-12.7793,0-7.02,6.21-12.41992,18.17871-12.41992a32.82548,32.82548,0,0,1,17.63965,5.58008l-3.59961,4.76953a25.81137,25.81137,0,0,0-14.66992-4.58985c-7.37988,0-10.0791,2.97022-10.0791,6.29981,0,3.77978,3.77929,5.3999,12.77929,7.29,14.48926,3.14941,17.999,6.74951,17.999,13.499,0,7.10986-6.92969,13.04981-19.43945,13.04981A38.43927,38.43927,0,0,1,1398.37891,205.80908Z"/><path d="M1507.1875,200.22949c0-9.80957,9.17871-14.57959,31.76855-16.37939-.2705-5.93994-3.15039-10.97949-11.61035-10.97949-5.66894,0-11.249,2.6997-15.29882,5.21972l-2.96973-5.04c4.5-2.87988,11.8789-6.2998,19.5293-6.2998,11.96875,0,17.81933,7.10986,17.81933,17.99951v26.81885h-6.21l-.62988-5.93994h-.27051c-4.76953,3.77978-11.06934,7.02-17.18945,7.02C1513.93652,212.64893,1507.1875,208.05908,1507.1875,200.22949Zm31.76855-.09033V188.7998c-18.71972,1.43995-24.38964,5.12989-24.38964,10.88965,0,4.94971,4.5,6.92969,9.54,6.92969C1529.05566,206.61914,1533.916,204.2793,1538.95605,200.13916Z"/><path d="M1616.35547,167.83057h6.11914l.62988,7.37988h.36035c4.58985-4.77,9.62989-8.46,16.46875-8.46,10.34961,0,15.12012,6.12012,15.12012,17.63965v27.17871H1647.584v-26.189c0-8.27978-2.87988-12.14941-9.99023-12.14941-5.21973,0-8.72949,2.60986-13.76953,7.82959v30.50879h-7.46875Z"/><path d="M1668.10449,189.60986c0-14.21972,10.61914-22.85937,22.31836-22.85937,12.59961,0,19.97949,8.18994,19.97949,20.51953a30.24049,30.24049,0,0,1-.36035,4.49951h-36.98828v-5.75976h32.5791l-1.89062,2.06982c0-10.34961-5.12891-15.479-13.13867-15.479-8.09961,0-15.12012,6.11962-15.12012,17.00927,0,11.33936,7.37988,17.09912,17.09961,17.09912a23.83121,23.83121,0,0,0,13.31933-4.13964l2.7002,4.85986a29.96992,29.96992,0,0,1-16.91895,5.21973C1678.544,212.64893,1668.10449,204.189,1668.10449,189.60986Z"/><path d="M1716.70312,167.83057h7.37989l5.21972,25.3789c.81055,4.14014,1.44043,7.91992,1.98047,12.05957h.35938a110.30185,110.30185,0,0,1,2.52051-12.05957l5.39941-22.67871h7.37988l5.21973,22.67871a115.73,115.73,0,0,1,2.69922,12.05957h.36035c.71973-4.13965,1.16992-7.91943,1.98047-12.05957l5.21973-25.3789h6.83984l-9.36035,43.73828h-9.53907l-5.04-20.87891q-1.07959-4.59009-2.16016-12.96h-.35938q-1.08105,8.37012-2.16015,12.96l-4.86035,20.87891h-9.53907Z"/><path d="M454.208,308.22949c0-9.80957,9.17969-14.57959,31.76855-16.37939-.27-5.93994-3.1499-10.97949-11.60937-10.97949-5.66992,0-11.24951,2.6997-15.29932,5.21972l-2.96973-5.04c4.49952-2.87988,11.8794-6.2998,19.52881-6.2998,11.96973,0,17.81934,7.10986,17.81934,17.99951v26.81885h-6.20947l-.63037-5.93994h-.26954c-4.77,3.77978-11.06982,7.02-17.18945,7.02C460.95752,320.64893,454.208,316.05908,454.208,308.22949Zm31.76855-.09033V296.7998c-18.71924,1.44-24.38867,5.12989-24.38867,10.88965,0,4.94971,4.49951,6.92969,9.53955,6.92969C476.07715,314.61914,480.937,312.2793,485.97656,308.13916Z"/><path d="M509.377,275.83057h6.11963l.63037,7.37988h.35987c4.58984-4.77,9.62939-8.46,16.46923-8.46,10.34961,0,15.11915,6.12012,15.11915,17.63965v27.17871h-7.46973v-26.189c0-8.27978-2.87988-12.14941-9.98926-12.14941-5.21973,0-8.72949,2.60986-13.76953,7.82959v30.50879H509.377Z"/><path d="M573.54541,302.55957V281.86035H561.126v-5.57959l12.68945-.45019.99023-14.03955h6.20948v14.03955h21.41943v6.02978H581.01514v20.78906c0,7.82959,2.60986,11.8794,11.06982,11.8794a28.75809,28.75809,0,0,0,10.43945-1.97949l1.62012,5.48974a38.15775,38.15775,0,0,1-13.67969,2.60987C577.68555,320.64893,573.54541,313.35889,573.54541,302.55957Z"/><path d="M637.354,281.86035H617.105v-6.02978h27.71875v43.73828H637.354Zm-2.96972-20.96924a5.94251,5.94251,0,1,1,5.93994,5.75977A5.62528,5.62528,0,0,1,634.38428,260.89111Z"/><path d="M668.22412,275.83057h5.93994l.62989,5.75976h.18017c2.24951-4.0498,4.94971-6.83984,9.98926-6.83984,4.31982,0,7.02,2.52,8.27978,7.56006,2.52-4.68018,5.21973-7.56006,10.25977-7.56006,6.11963,0,9.71924,4.77,9.71924,13.49951v31.31885h-7.3794V288.79c0-5.03955-1.43994-7.64942-4.67968-7.64942-3.06006,0-4.68018,2.24952-7.02,6.74952v31.67871h-6.83985V288.79c0-5.03955-1.25976-7.64942-4.49951-7.64942-3.06006,0-5.04,2.24952-7.19971,6.74952v31.67871h-7.37988Z"/><path d="M745.35205,281.86035H725.103v-6.02978h27.71875v43.73828h-7.46973Zm-2.96973-20.96924a5.94251,5.94251,0,1,1,5.93995,5.75977A5.62529,5.62529,0,0,1,742.38232,260.89111Z"/><path d="M778.20215,297.78955c0-14.66943,11.15967-23.03906,24.38916-23.03906a22.22293,22.22293,0,0,1,15.9292,6.39013l-3.68994,4.76954c-3.59961-3.06006-7.3794-4.94971-11.96924-4.94971-10.07959,0-17.00928,6.74951-17.00928,16.8291,0,9.98975,6.83936,16.64941,16.8291,16.64941,5.3999,0,9.89942-2.42968,13.49951-5.48974l3.32959,4.85986a26.044,26.044,0,0,1-17.36914,6.83985C788.46191,320.64893,778.20215,312.2793,778.20215,297.78955Z"/><path d="M838.05078,275.83057h6.21l.71973,10.34961h.18017c4.58985-7.10987,11.42969-11.42969,19.5293-11.42969a18.39274,18.39274,0,0,1,8.63965,1.80029l-1.71,6.38965a21.92342,21.92342,0,0,0-8.09961-1.43994c-6.56982,0-12.77979,3.32959-17.99951,12.50928v25.55908h-7.46973Z"/><path d="M884.40039,297.78955c0-14.66943,10.07959-23.03906,21.59912-23.03906s21.59912,8.36963,21.59912,23.03906c0,14.48975-10.07959,22.85938-21.59912,22.85938S884.40039,312.2793,884.40039,297.78955Zm35.54834,0c0-10.07959-5.57959-16.8291-13.94922-16.8291S892.0498,287.71,892.0498,297.78955c0,9.98975,5.58008,16.64941,13.94971,16.64941S919.94873,307.7793,919.94873,297.78955Z"/><path d="M948.29883,314.709h-.27l-.71973,4.85987h-5.93994V255.4917h7.46973v17.459l-.35987,8.46h.27c3.95948-4.05029,9.53955-6.66015,14.66895-6.66015,11.79,0,18.17969,8.73,18.17969,22.22949,0,14.939-9.35938,23.66895-19.709,23.66895C957.56836,320.64893,952.34863,318.39893,948.29883,314.709Zm25.64941-17.63916c0-9.62988-3.60058-16.01953-12.33008-16.01953-3.86962,0-8.36962,1.98-12.77929,6.48v21.77881a18.30044,18.30044,0,0,0,11.78955,5.04C968.18848,314.34912,973.94824,307.86914,973.94824,297.06982Z"/><path d="M1015.34766,281.86035h-20.249v-6.02978h27.71875v43.73828h-7.46972Zm-2.96973-20.96924a5.94276,5.94276,0,1,1,5.93945,5.75977A5.62488,5.62488,0,0,1,1012.37793,260.89111Z"/><path d="M1048.19727,308.22949c0-9.80957,9.17968-14.57959,31.76953-16.37939-.27051-5.93994-3.15039-10.97949-11.60938-10.97949-5.66992,0-11.25,2.6997-15.2998,5.21972l-2.96973-5.04c4.5-2.87988,11.87891-6.2998,19.5293-6.2998,11.96875,0,17.81933,7.10986,17.81933,17.99951v26.81885h-6.21l-.62988-5.93994h-.27051c-4.76953,3.77978-11.06933,7.02-17.18945,7.02C1054.94727,320.64893,1048.19727,316.05908,1048.19727,308.22949Zm31.76953-.09033V296.7998c-18.71973,1.44-24.38965,5.12989-24.38965,10.88965,0,4.94971,4.5,6.92969,9.54,6.92969C1070.06641,314.61914,1074.92676,312.2793,1079.9668,308.13916Z"/><path d="M1117.13574,304.89941V261.521h-15.47851v-6.0293h22.94824v49.94775c0,6.29981,3.41992,8.99951,8.63965,8.99951a19.75644,19.75644,0,0,0,8.19043-1.98l1.88965,5.58008a26.56569,26.56569,0,0,1-11.69922,2.60987C1122.26562,320.64893,1117.13574,315.249,1117.13574,304.89941Z"/><path d="M1210.19531,308.22949c0-9.80957,9.17871-14.57959,31.76856-16.37939-.27051-5.93994-3.15039-10.97949-11.61035-10.97949-5.66895,0-11.249,2.6997-15.29883,5.21972l-2.96973-5.04c4.5-2.87988,11.87891-6.2998,19.5293-6.2998,11.96875,0,17.81933,7.10986,17.81933,17.99951v26.81885h-6.21l-.62988-5.93994h-.27051c-4.76953,3.77978-11.06933,7.02-17.18945,7.02C1216.94434,320.64893,1210.19531,316.05908,1210.19531,308.22949Zm31.76856-.09033V296.7998c-18.71973,1.44-24.38965,5.12989-24.38965,10.88965,0,4.94971,4.5,6.92969,9.54,6.92969C1232.06348,314.61914,1236.92383,312.2793,1241.96387,308.13916Z"/><path d="M1263.47363,327.57861c0-3.50976,2.52051-7.02,7.2002-9.71972V317.499a7.92474,7.92474,0,0,1-4.5-7.1997c0-2.79,1.88965-5.93994,5.21972-8.18994v-.35987a13.94266,13.94266,0,0,1-5.39941-11.33935c0-9.53955,7.91895-15.65967,17.18848-15.65967a17.78165,17.78165,0,0,1,6.48047,1.08008H1307.752v6.02978h-11.33984a13.21076,13.21076,0,0,1,3.69043,8.81983c0,9.35937-7.46973,15.02929-16.91992,15.02929a18.88152,18.88152,0,0,1-7.37891-1.62011c-2.16016,1.35009-3.41992,2.97021-3.41992,5.04,0,3.41993,3.3291,5.03956,9.08887,5.03956h9.81054c11.249,0,16.64844,2.87988,16.64844,10.25976,0,8.18945-9.44922,15.29932-24.29883,15.29932C1270.85352,339.728,1263.47363,335.31836,1263.47363,327.57861Zm37.16895-1.98c0-4.13965-3.33008-5.31006-9.99024-5.31006h-8.54882a24.75134,24.75134,0,0,1-6.66016-.71972c-4.13965,2.25-5.58008,4.77-5.58008,7.28955,0,4.58984,4.9502,7.46972,14.30957,7.46972C1294.34277,334.32812,1300.64258,330.09863,1300.64258,325.59863Zm-7.37988-35.18847a10.08311,10.08311,0,1,0-10.08008,10.34961C1288.7627,300.75977,1293.2627,296.71,1293.2627,290.41016Z"/><path d="M1317.11328,297.60986c0-14.21972,10.61914-22.85937,22.31836-22.85937,12.59961,0,19.97949,8.18994,19.97949,20.51953a30.24049,30.24049,0,0,1-.36035,4.49951H1322.0625v-5.75976h32.5791l-1.88965,2.06982c0-10.34961-5.12988-15.479-13.13965-15.479-8.0996,0-15.12011,6.11962-15.12011,17.00927,0,11.33936,7.37988,17.09912,17.09961,17.09912a23.83121,23.83121,0,0,0,13.31933-4.13964l2.7002,4.85986a29.96992,29.96992,0,0,1-16.91895,5.21973C1327.55273,320.64893,1317.11328,312.189,1317.11328,297.60986Z"/><path d="M1373.3623,275.83057h6.11915l.62988,7.37988h.36035c4.58984-4.77,9.62988-8.46,16.46875-8.46,10.34961,0,15.12012,6.12012,15.12012,17.63965v27.17871h-7.46973v-26.189c0-8.27978-2.87988-12.14941-9.99023-12.14941-5.21973,0-8.7295,2.60986-13.76856,7.82959v30.50879h-7.46973Z"/><path d="M1437.53027,302.55957V281.86035h-12.41894v-5.57959l12.68945-.45019L1438.79,261.791H1445v14.03955H1466.419v6.02978H1445v20.78906c0,7.82959,2.61035,11.8794,11.06934,11.8794a28.7656,28.7656,0,0,0,10.44043-1.97949l1.61914,5.48974a38.15435,38.15435,0,0,1-13.67871,2.60987C1441.66992,320.64893,1437.53027,313.35889,1437.53027,302.55957Z"/></svg>