<svg xmlns="http://www.w3.org/2000/svg" viewBox="0 0 941.06252 510.38149"><defs><style>.cls-1{fill:none;}.cls-1,.cls-2,.cls-4,.cls-5{stroke:#000;stroke-miterlimit:10;}.cls-1,.cls-2,.cls-4{stroke-width:5.66929px;}.cls-2{fill:#99c5c4;}.cls-3{fill:#f2e6b1;}.cls-4,.cls-5{fill:#69b42d;}.cls-5{stroke-width:2.83465px;}</style></defs><g id="Livello_2" data-name="Livello 2"><g id="Livello_1-2" data-name="Livello 1"><path class="cls-1" d="M140.45939,180.2864c8.5957,5.98792,17.19506,11.9784,23,21,12.68664,19.71668,5.42846,43.65821,5,45-6.45557,20.21521-24.08307,36.12037-41,38-9,1-11.965-.12854-22,3-8.77521,2.73584-20.56354,15.59546-27,29-14.27173,29.72242-3.46,64.55909-1,72"/><polygon class="cls-1" points="72.659 420.278 77.198 387.386 100.544 410.996 133.228 405.149 117.988 434.648 133.649 463.926 100.884 458.548 77.879 482.49 72.869 449.666 42.99 435.185 72.659 420.278"/><circle class="cls-2" cx="163.23403" cy="201.90124" r="23.3806"/><circle class="cls-2" cx="143.88603" cy="278.2799" r="23.3806"/><circle class="cls-2" cx="78.24336" cy="316.55458" r="23.3806"/><path class="cls-3" d="M76.5,245.21479A73.665,73.665,0,1,1,142.8638,139.54585L69.91605,171.55073l72.94726,32.00488A73.6936,73.6936,0,0,1,76.5,245.21479Z"/><path d="M76.49994,100.71918a70.85721,70.85721,0,0,1,62.47752,37.4358l-64.284,28.2041-11.83285,5.19165,11.83285,5.19165,64.28339,28.20386A70.83577,70.83577,0,1,1,76.49994,100.71918m0-5.66918a76.5,76.5,0,1,0,70.14221,107.06835l-69.6709-30.56762,69.6714-30.56787A76.51373,76.51373,0,0,0,76.49994,95.05Z"/><circle cx="62.25301" cy="135.00351" r="10.84008"/><path class="cls-1" d="M192.45939,55.2864a97.03356,97.03356,0,0,0-69,17c-3.13105,2.02-25.862,17.20411-28,44-1.93226,24.217,13.9884,44.974,28,54,5.1145,3.29468,8.45141,4.04493,17,10"/><circle cx="228.72042" cy="58.74108" r="36.95467"/><circle class="cls-2" cx="102.19346" cy="148.16945" r="23.3806"/><circle class="cls-2" cx="123.26203" cy="72.94923" r="23.3806"/><path class="cls-3" d="M724.45071,283.42377a73.665,73.665,0,1,1,66.36377-105.66894l-72.94775,32.00488,72.94678,32.00489A73.69127,73.69127,0,0,1,724.45071,283.42377Z"/><path d="M724.45081,138.92841a70.8576,70.8576,0,0,1,62.4775,37.43555l-64.284,28.2041-11.83286,5.19165,11.83286,5.19165,64.28338,28.20386a70.83572,70.83572,0,1,1-62.47689-104.22681m0-5.66919A76.49988,76.49988,0,1,0,794.593,240.32734l-69.6709-30.56763,69.67142-30.56787a76.51393,76.51393,0,0,0-70.1427-45.93262Z"/><circle cx="710.20387" cy="173.21256" r="10.84008"/><path d="M754.6951,427.52334q-1.17408,0-2.19824-.02051l.10449-5.668c38.34521.69922,59.26465-14.82422,66.48828-21.53516,10.3501-9.61328,18.7793-24.10644,18.79053-32.30761a46.78468,46.78468,0,0,0-1.91407-14.12793c-.52636-2.01172-1.123-4.292-1.68945-7.23243-3.49951-18.17968,7.1416-40.58691,25.30274-53.27929.91894-.64356,22.78125-15.64942,46.84277-8.96778,10.874,3.01954,26.29564,14.9835,34.64037,21.47862l-3.47461,4.48047-.00781-.00684c-8.27344-6.44043-22.88158-17.77061-32.67553-20.48936-21.51318-5.97851-41.24853,7.57325-42.07764,8.15137-16.14941,11.28711-26.02978,31.7334-22.98291,47.56055.53077,2.75781,1.07764,4.84766,1.60645,6.87012a52.04452,52.04452,0,0,1,2.09863,15.57031c-.01318,9.88574-8.86963,25.55762-20.60107,36.4541C800.92606,424.90908,769.35037,427.52236,754.6951,427.52334Z"/><polygon class="cls-4" points="723.417 438.734 753.486 424.652 724.018 409.351 719.917 376.402 696.259 399.7 663.655 393.419 678.502 423.118 662.453 452.185 695.287 447.243 717.972 471.488 723.417 438.734"/><circle class="cls-2" cx="905.1433" cy="287.51318" r="23.3806"/><circle class="cls-2" cx="837.92913" cy="328.62645" r="23.3806"/><circle class="cls-2" cx="820.82651" cy="402.66299" r="23.3806"/><path d="M532.388,118.08291c10.91455,3.82226,36.15283,8.17285,53.55859-2.72657a6.505,6.505,0,0,1,1.728-.65527c13.2041-3.86816,21.2793-12.45508,24.00147-25.52051,3.63476-17.44824,13.24707-31.57715,27.79736-40.85742l.27392-.17578a99.87611,99.87611,0,0,1,70.95459-17.458l-.74218,5.6211a94.19371,94.19371,0,0,0-66.99219,16.5039l-.44531.28809c-13.23242,8.44043-21.98,21.3164-25.29639,37.23437-2.1875,10.501-8.814,24.19629-27.957,29.80469-.21875.06445-.39941.11523-.53662.1582-9.25147,5.71582-20.19238,7.67578-30.45264,7.67578a88.02913,88.02913,0,0,1-27.76562-4.542m58.44189-3.27246-.00244.001Z"/><circle cx="746.59173" cy="36.95467" r="36.95467"/><circle class="cls-2" cx="585.06477" cy="114.38305" r="23.3806"/><circle class="cls-2" cx="641.13334" cy="51.16283" r="23.3806"/><polygon class="cls-5" points="671.143 492.605 676.925 505.994 685.628 471.62 671.143 492.605"/><polygon class="cls-5" points="762.764 470.81 776.98 467.555 744.758 452.755 762.764 470.81"/><polygon class="cls-5" points="769.193 380.342 769.916 365.776 746.931 392.776 769.193 380.342"/><polygon class="cls-5" points="683.125 347.977 669.768 342.122 686.831 373.205 683.125 347.977"/><polygon class="cls-5" points="624.794 420.357 615.682 431.743 650.122 423.307 624.794 420.357"/></g></g></svg>