<?xml version="1.0" encoding="utf-8"?>
<!-- Generator: Adobe Illustrator 24.2.0, SVG Export Plug-In . SVG Version: 6.00 Build 0)  -->
<svg version="1.1" id="Livello_1" xmlns="http://www.w3.org/2000/svg" xmlns:xlink="http://www.w3.org/1999/xlink" x="0px" y="0px"
	 viewBox="0 0 375 453" style="enable-background:new 0 0 375 453;" xml:space="preserve">
<style type="text/css">
	.st0{fill:none;}
	.st1{font-family:'ArialMT';}
	.st2{font-size:12.38px;}
	.st3{stroke:#000000;stroke-width:0.75;stroke-miterlimit:10;}
	.st4{font-size:24px;}
</style>
<path class="st0" d="z"/>
<text transform="matrix(1 0 0 1 145.6904 51.1666)" class="st1 st2">O</text>
<path d="M167.2,75l-0.2,0.4l-0.8-0.7l-12.7-22.2l0.6-0.4L167.2,75z"/>
<path d="M138.7,69.1l-3.6-2.8l1.1-1.6l29.9,10l0.8,0.7l0,0.4L138.7,69.1z"/>
<path d="M104.2,73.8l-1.2,1.6l-2.6-1l-14-27.3l0.2-0.5l0.8,0.6L104.2,73.8z"/>
<path d="M116.3,54.9l2.2,1v0.4l-31-8.9l-0.8-0.6l0-0.4L116.3,54.9z"/>
<path d="M118.5,56.3v-0.4l0.1-0.4l25.8-7.4l0.2,0.7L118.5,56.3z"/>
<text transform="matrix(1 0 0 1 57.1855 59.4708)" class="st1 st2">O</text>
<path d="M68.1,53.3l-0.2-0.7l18.7-6.3l0,0.4l-0.2,0.5L68.1,53.3z"/>
<text transform="matrix(1 0 0 1 76.0078 74.8644)" class="st1 st2">O</text>
<path d="M100.5,74.5l2.6,1l1.8,0.8l-18-4.1l0.2-0.7L100.5,74.5z"/>
<text transform="matrix(1 0 0 1 147.5664 86.2296)" class="st1 st2">NAc</text>
<path d="M135.8,67.4l-0.7-1.1l3.6,2.8l7.9,7.3l-0.5,0.5L135.8,67.4z"/>
<path d="M99.2,43.3l0.7-0.4l18.7,12.6l-0.1,0.4l-2.2-1L99.2,43.3z"/>
<text transform="matrix(1 0 0 1 184.3794 74.421)" class="st1 st2">O</text>
<path d="M183,71.1l0.2,0.7l-16.1,4l0-0.4l0.2-0.4L183,71.1z"/>
<path d="M104.8,76.2l-1.8-0.8l1.2-1.6l32-9.1l-1.1,1.6l0.7,1.1L104.8,76.2z"/>
<text transform="matrix(1 0 0 1 94.708 24.7286)" class="st1 st2">OH</text>
<path d="M99.2,26.7h0.7v16.2l-0.7,0.4V26.7z"/>
<path d="M65.1,86.6l-0.4-0.1l-0.1-0.4L76,74.7l0.5,0.5L65.1,86.6z"/>
<path d="M72.2,107.5l-3.3,2.2l-4.6-22.9l0.3-0.3l0.4,0.1L72.2,107.5z"/>
<path d="M54.8,124.9l-0.8-0.2l14.9-14.9l3.3-2.2L54.8,124.9z"/>
<path d="M59.1,140.7l-0.7,0.2L54,124.7l0.8,0.2L59.1,140.7z"/>
<text transform="matrix(1 0 0 1 27.5449 123.3273)" class="st1 st2">O</text>
<path d="M37.8,122.8l0.2-0.7l17.1,4.6l-0.2,0.7L37.8,122.8z"/>
<path d="M38.9,118.9l0.2-0.7l17.1,4.6l-0.2,0.7L38.9,118.9z"/>
<text transform="matrix(1 0 0 1 271.4844 80.7296)" class="st1 st2">O</text>
<path d="M292,48.2l0.8-0.7L293,48l-13.1,22.8l-0.6-0.4L292,48.2z"/>
<path d="M262.1,58.2l-1.1-1.6l3.6-2.8l28.3-6.7l0,0.4l-0.8,0.7L262.1,58.2z"/>
<path d="M226.3,48.5l2.6-1l1.2,1.6l-16.8,26.5l-0.8,0.6l-0.2-0.4L226.3,48.5z"/>
<path d="M244.3,66.7v0.4l-2.2,1l-29.7,8.6l0-0.4l0.8-0.6L244.3,66.7z"/>
<path d="M244.4,67.5l-0.1-0.4v-0.4l26,7.5l-0.2,0.7L244.4,67.5z"/>
<text transform="matrix(1 0 0 1 192.8682 57.0397)" class="st1 st2">HO</text>
<path d="M230.6,46.7l-1.8,0.8l-2.6,1l-13.4,3l-0.2-0.7L230.6,46.7z"/>
<text transform="matrix(1 0 0 1 273.3604 45.673)" class="st1 st2">NAc</text>
<path d="M264.5,53.9l-3.6,2.8l0.7-1.1l10.3-9.5l0.5,0.5L264.5,53.9z"/>
<path d="M225.7,80l-0.7-0.4l17.2-11.6l2.2-1l0.1,0.4L225.7,80z"/>
<text transform="matrix(1 0 0 1 310.165 57.484)" class="st1 st2">O</text>
<path d="M309,51.1l-0.2,0.7L293,48l-0.2-0.4l0-0.4L309,51.1z"/>
<path d="M230,49.1l-1.2-1.6l1.8-0.8l31,8.8l-0.7,1.1l1.1,1.6L230,49.1z"/>
<text transform="matrix(1 0 0 1 220.5073 107.1691)" class="st1 st2">OH</text>
<path d="M225.7,96.2H225V79.7l0.7,0.4V96.2z"/>
<path d="M42.5,81l0.2-0.7l21.9,5.9l0.1,0.4l-0.3,0.3L42.5,81z"/>
<path d="M195.2,72l0.2-0.7l16.9,4.6l0.2,0.4l0,0.4L195.2,72z"/>
<text transform="matrix(1 0 0 1 51.3931 151.3073)" class="st1 st2">Ala</text>
<text transform="matrix(1 0 0 1 55.8696 182.3619)" class="st1 st2">D</text>
<text transform="matrix(1 0 0 1 64.8101 182.3619)" class="st1 st2">-isoGln</text>
<path d="M60.7,171.5H60v-18.2h0.7V171.5z"/>
<text transform="matrix(1 0 0 1 56.897 213.4171)" class="st1 st2">Lys</text>
<path d="M60.7,202.5H60v-18.2h0.7V202.5z"/>
<text transform="matrix(1 0 0 1 55.8696 244.4723)" class="st1 st2">D-Ala</text>
<path d="M60.7,233.6H60v-18.3h0.7V233.6z"/>
<text transform="matrix(1 0 0 1 55.8696 275.527)" class="st1 st2">D-Ala</text>
<path d="M60.7,264.7H60v-18.2h0.7V264.7z"/>
<text transform="matrix(1 0 0 1 153.2241 201.4713)" class="st1 st2">pentapeptide</text>
<path d="M152.1,197.3l0.1,0.7l-75,10.7l-0.1-0.7L152.1,197.3z"/>
<text transform="matrix(1 0 0 1 209.4492 401.7159)" class="st1 st2">O</text>
<path d="M197.6,368.9l0.2-0.4l0.8,0.7l12.8,22.2l-0.6,0.4L197.6,368.9z"/>
<path d="M226,374.9l3.6,2.8l-1.1,1.6l-29.9-10l-0.8-0.7l0-0.4L226,374.9z"/>
<path d="M260.5,370.1l1.2-1.6l2.8,1.3l13.8,26.9l-0.2,0.5l-0.8-0.6L260.5,370.1z"/>
<path d="M248.4,389.1l-2.2-1v-0.4l31,8.9l0.8,0.6l0,0.4L248.4,389.1z"/>
<path d="M246.3,387.7v0.4l-0.1,0.4l-25.8,7.4l-0.2-0.7L246.3,387.7z"/>
<text transform="matrix(1 0 0 1 297.8521 390.8038)" class="st1 st2">O</text>
<path d="M296.7,388.6l0.3,0.7l-18.8,8.4l0-0.4l0.2-0.5L296.7,388.6z"/>
<text transform="matrix(1 0 0 1 271.7842 378.0289)" class="st1 st2">O</text>
<path d="M264.5,369.8l-2.8-1.3l-1.4-0.9l10.5,3.5l-0.2,0.7L264.5,369.8z"/>
<text transform="matrix(1 0 0 1 193.8062 366.6613)" class="st1 st2">AcN</text>
<path d="M228.9,376.5l0.7,1.1l-3.6-2.8l-8-7.3l0.5-0.5L228.9,376.5z"/>
<path d="M265.6,400.6l-0.7,0.4l-18.7-12.6l0.1-0.4l2.2,1L265.6,400.6z"/>
<text transform="matrix(1 0 0 1 170.7651 378.4689)" class="st1 st2">O</text>
<path d="M181.8,372.8l-0.2-0.7l16.1-4l0,0.4l-0.2,0.4L181.8,372.8z"/>
<path d="M260.2,367.6l1.4,0.9l-1.2,1.6l-32,9.1l1.1-1.6l-0.7-1.1L260.2,367.6z"/>
<text transform="matrix(1 0 0 1 260.4214 428.1505)" class="st1 st2">OH</text>
<path d="M265.6,417.1h-0.7V401l0.7-0.4V417.1z"/>
<path d="M292.4,357.2l0.4,0.2l0.1,0.4l-11.4,11.4l-0.5-0.5L292.4,357.2z"/>
<path d="M292.3,336.7l3.9-2.9l-3.1,23.3l-0.4,0.3l-0.4-0.2L292.3,336.7z"/>
<path d="M309.9,319.1l0.8,0.2l-14.5,14.5l-3.9,2.9L309.9,319.1z"/>
<path d="M306.8,307.6l0.7-0.2l3.2,11.9l-0.8-0.2L306.8,307.6z"/>
<text transform="matrix(1 0 0 1 320.2373 329.567)" class="st1 st2">O</text>
<path d="M319.8,321.1l-0.3,0.7l-9.8-3.9l0.3-0.7L319.8,321.1z"/>
<path d="M318.8,323.7l-0.3,0.7l-9.4-3.8l0.3-0.7L318.8,323.7z"/>
<text transform="matrix(1 0 0 1 83.6685 372.1603)" class="st1 st2">O</text>
<path d="M72.8,395.8l-0.8,0.7l-0.2-0.4l13.1-22.8l0.6,0.4L72.8,395.8z"/>
<path d="M102.7,385.7l1.1,1.6l-3.6,2.8L72,396.8l0-0.4l0.8-0.7L102.7,385.7z"/>
<path d="M138.5,395.4l-2.6,1l-1.2-1.6l16.8-26.5l0.8-0.6l0.2,0.4L138.5,395.4z"/>
<path d="M120.5,377.3l0-0.4l2.2-1l29.7-8.6l0,0.4l-0.8,0.6L120.5,377.3z"/>
<path d="M120.4,376.5l0.1,0.4l0,0.4l-26-7.5l0.2-0.7L120.4,376.5z"/>
<text transform="matrix(1 0 0 1 153.3374 395.8473)" class="st1 st2">OH</text>
<path d="M134.1,397.2l1.8-0.8l2.6-1l13.4-3l0.2,0.7L134.1,397.2z"/>
<text transform="matrix(1 0 0 1 68.0361 407.215)" class="st1 st2">AcN</text>
<path d="M100.2,390.1l3.6-2.8l-0.7,1.1l-10.4,9.5l-0.5-0.5L100.2,390.1z"/>
<path d="M139.1,363.9l0.7,0.4l-17.2,11.6l-2.2,1l-0.1-0.4L139.1,363.9z"/>
<text transform="matrix(1 0 0 1 44.9946 395.4069)" class="st1 st2">O</text>
<path d="M55.8,392.8l0.2-0.7l15.8,3.9l0.2,0.4l0,0.4L55.8,392.8z"/>
<path d="M134.7,394.8l1.2,1.6l-1.8,0.8l-31-8.8l0.7-1.1l-1.1-1.6L134.7,394.8z"/>
<text transform="matrix(1 0 0 1 134.6401 345.7242)" class="st1 st2">OH</text>
<path d="M139.1,347.7h0.7v16.6l-0.7-0.4V347.7z"/>
<path d="M314.9,363l-0.2,0.7l-21.9-5.9l-0.1-0.4l0.4-0.3L314.9,363z"/>
<path d="M169.6,372l-0.2,0.7l-16.9-4.6l-0.2-0.4l0-0.4L169.6,372z"/>
<text transform="matrix(1 0 0 1 295.1623 306.5721)" class="st1 st2">Ala</text>
<text transform="matrix(1 0 0 1 299.6374 275.5272)" class="st1 st2">D</text>
<text transform="matrix(1 0 0 1 308.5788 275.5272)" class="st1 st2">-isoGln</text>
<path d="M303.7,277.5h0.7v18.2h-0.7V277.5z"/>
<text transform="matrix(1 0 0 1 294.4763 244.472)" class="st1 st2">Lys</text>
<path d="M303.7,246.4h0.7v18.3h-0.7V246.4z"/>
<text transform="matrix(1 0 0 1 299.6374 213.4271)" class="st1 st2">D-Ala</text>
<path d="M303.7,215.4h0.7V236h-0.7V215.4z"/>
<text transform="matrix(1 0 0 1 299.6374 182.3724)" class="st1 st2">D-Ala</text>
<path d="M303.7,184.3h0.7v18.2h-0.7V184.3z"/>
<path d="M226.2,198l0-0.7L299,208l0,0.7L226.2,198z"/>
<path class="st3" d="M327.2,3h32.1"/>
<path class="st3" d="M359.3,3v444.7"/>
<path class="st3" d="M359.3,447.7h-32.1"/>
<text transform="matrix(1 0 0 1 363.9756 450.5421)" class="st1 st4">n</text>
<path class="st3" d="M49.4,447.7H17.3"/>
<path class="st3" d="M17.3,447.7V3"/>
<path class="st3" d="M17.3,3h32.1"/>
<path d="M372.1,39.4l0.2,0.7L321.2,52l-0.2-0.7L372.1,39.4z"/>
<path d="M6.3,39.5l0.2-0.7L56,52.9l-0.2,0.7L6.3,39.5z"/>
<path d="M372.6,396.7l-0.1,0.7l-63.8-9.8l0.1-0.7L372.6,396.7z"/>
<path d="M6.5,401.7L6.4,401l37.2-9l0.2,0.7L6.5,401.7z"/>
<path class="st0" d="z"/>
</svg>
